<svg width="22" height="22" viewBox="0 0 22 22" fill="none" xmlns="http://www.w3.org/2000/svg">
<path d="M14.1932 4.67363L7.8734 10.9934L14.1932 17.3132C14.361 17.481 14.4239 17.714 14.3819 17.9306C14.3568 18.0607 14.2939 18.1848 14.1932 18.2854C14.1596 18.319 14.1234 18.3484 14.0853 18.3735C13.8185 18.5497 13.4558 18.5204 13.2209 18.2854L6.41498 11.4795C6.2861 11.3506 6.21359 11.1758 6.21359 10.9934C6.21359 10.8111 6.2861 10.6362 6.41498 10.5072L13.2209 3.70136C13.4894 3.43288 13.9247 3.43288 14.1932 3.70136C14.4616 3.96984 14.4616 4.40515 14.1932 4.67363Z" fill="#1362FF"/>
</svg>
