<svg width="19" height="16" viewBox="0 0 19 16" fill="none" xmlns="http://www.w3.org/2000/svg">
<path d="M3.18062 8.18723L1.97352 8.18723L2.82707 9.04078L8.45933 14.6731C8.45934 14.6731 8.45934 14.6731 8.45934 14.6731C8.53136 14.7451 8.53253 14.8613 8.46287 14.9346L8.46171 14.9358L8.46014 14.9375L8.4593 14.9383C8.44039 14.9572 8.41948 14.9706 8.39761 14.9795L8.39757 14.9795C8.34069 15.0025 8.27478 14.9962 8.22401 14.9627L8.22395 14.9626C8.21485 14.9566 8.20618 14.9498 8.19806 14.942L8.19667 14.9407L8.19414 14.9382L8.19339 14.9375L1.38826 8.13237C1.31503 8.05915 1.31503 7.9404 1.38826 7.86717L8.19414 1.06129C8.26737 0.98806 8.38611 0.988059 8.45934 1.06129C8.53257 1.13452 8.53257 1.25326 8.45935 1.32649L2.82707 6.95867L1.9735 7.81223L3.18062 7.81223L18.25 7.81223C18.3269 7.81223 18.3941 7.8586 18.423 7.92691L18.423 7.92701C18.4322 7.94863 18.4375 7.97292 18.4375 7.99973C18.4375 8.08985 18.3735 8.16602 18.2884 8.18343L18.288 8.18352C18.2776 8.18565 18.2666 8.18695 18.2549 8.18723L18.2548 8.18723L18.2548 8.18723L18.2548 8.18723L18.2548 8.18723L18.2548 8.18723L18.2548 8.18723L18.2547 8.18723L18.2547 8.18723L18.2547 8.18723L18.2547 8.18723L18.2547 8.18723L18.2547 8.18723L18.2546 8.18723L18.2546 8.18723L18.2546 8.18723L18.2546 8.18723L18.2546 8.18723L18.2546 8.18723L18.2545 8.18723L18.2545 8.18723L18.2545 8.18723L18.2545 8.18723L18.2545 8.18723L18.2544 8.18723L18.2544 8.18723L18.2544 8.18723L18.2544 8.18723L18.2544 8.18723L18.2544 8.18723L18.2543 8.18723L18.2543 8.18723L18.2543 8.18723L18.2543 8.18723L18.2543 8.18723L18.2543 8.18723L18.2542 8.18723L18.2542 8.18723L18.2542 8.18723L18.2542 8.18723L18.2542 8.18723L18.2542 8.18723L18.2541 8.18723L18.2541 8.18723L18.2541 8.18723L18.2541 8.18723L18.2541 8.18723L18.254 8.18723L18.254 8.18723L18.254 8.18723L18.254 8.18723L18.254 8.18723L18.254 8.18723L18.2539 8.18723L18.2539 8.18723L18.2539 8.18723L18.2539 8.18723L18.2539 8.18723L18.2539 8.18723L18.2538 8.18723L18.2538 8.18723L18.2538 8.18723L18.2538 8.18723L18.2538 8.18723L18.2538 8.18723L18.2537 8.18723L18.2537 8.18723L18.2537 8.18723L18.2537 8.18723L18.2537 8.18723L18.2536 8.18723L18.2536 8.18723L18.2536 8.18723L18.2536 8.18723L18.2536 8.18723L18.2536 8.18723L18.2535 8.18723L18.2535 8.18723L18.2535 8.18723L18.2535 8.18723L18.2535 8.18723L18.2535 8.18723L18.2534 8.18723L18.2534 8.18723L18.2534 8.18723L18.2534 8.18723L18.2534 8.18723L18.2534 8.18723L18.2533 8.18723L18.2533 8.18723L18.2533 8.18723L18.2533 8.18723L18.2533 8.18723L18.2533 8.18723L18.2532 8.18723L18.2532 8.18723L18.2532 8.18723L18.2532 8.18723L18.2532 8.18723L18.2531 8.18723L18.2531 8.18723L18.2531 8.18723L18.2531 8.18723L18.2531 8.18723L18.2531 8.18723L18.253 8.18723L18.253 8.18723L18.253 8.18723L18.253 8.18723L18.253 8.18723L18.253 8.18723L18.2529 8.18723L18.2529 8.18723L18.2529 8.18723L18.2529 8.18723L18.2529 8.18723L18.2529 8.18723L18.2528 8.18723L18.2528 8.18723L18.2528 8.18723L18.2528 8.18723L18.2528 8.18723L18.2527 8.18723L18.2527 8.18723L18.2527 8.18723L18.2527 8.18723L18.2527 8.18723L18.2527 8.18723L18.2526 8.18723L18.2526 8.18723L18.2526 8.18723L18.2526 8.18723L18.2526 8.18723L18.2526 8.18723L18.2525 8.18723L18.2525 8.18723L18.2525 8.18723L18.2525 8.18723L18.2525 8.18723L18.2525 8.18723L18.2524 8.18723L18.2524 8.18723L18.2524 8.18723L18.2524 8.18723L18.2524 8.18723L18.2523 8.18723L18.2523 8.18723L18.2523 8.18723L18.2523 8.18723L18.2523 8.18723L18.2523 8.18723L18.2522 8.18723L18.2522 8.18723L18.2522 8.18723L18.2522 8.18723L18.2522 8.18723L18.2522 8.18723L18.2521 8.18723L18.2521 8.18723L18.2521 8.18723L18.2521 8.18723L18.2521 8.18723L18.2521 8.18723L18.252 8.18723L18.252 8.18723L18.252 8.18723L18.252 8.18723L18.252 8.18723L18.2519 8.18723L18.2519 8.18723L18.2519 8.18723L18.2519 8.18723L18.2519 8.18723L18.2519 8.18723L18.2518 8.18723L18.2518 8.18723L18.2518 8.18723L18.2518 8.18723L18.2518 8.18723L18.2518 8.18723L18.2517 8.18723L18.2517 8.18723L18.2517 8.18723L18.2517 8.18723L18.2517 8.18723L18.2517 8.18723L18.2516 8.18723L18.2516 8.18723L18.2516 8.18723L18.2516 8.18723L18.2516 8.18723L18.2515 8.18723L18.2515 8.18723L18.2515 8.18723L18.2515 8.18723L18.2515 8.18723L18.2515 8.18723L18.2514 8.18723L18.2514 8.18723L18.2514 8.18723L18.2514 8.18723L18.2514 8.18723L18.2514 8.18723L18.2513 8.18723L18.2513 8.18723L18.2513 8.18723L18.2513 8.18723L18.2513 8.18723L18.2513 8.18723L18.2512 8.18723L18.2512 8.18723L18.2512 8.18723L18.2512 8.18723L18.2512 8.18723L18.2511 8.18723L18.2511 8.18723L18.2511 8.18723L18.2511 8.18723L18.2511 8.18723L18.2511 8.18723L18.251 8.18723L18.251 8.18723L18.251 8.18723L18.251 8.18723L18.251 8.18723L18.251 8.18723L18.2509 8.18723L18.2509 8.18723L18.2509 8.18723L18.2509 8.18723L18.2509 8.18723L18.2509 8.18723L18.2508 8.18723L18.2508 8.18723L18.2508 8.18723L18.2508 8.18723L18.2508 8.18723L18.2507 8.18723L18.2507 8.18723L18.2507 8.18723L18.2507 8.18723L18.2507 8.18723L18.2507 8.18723L18.2506 8.18723L18.2506 8.18723L18.2506 8.18723L18.2506 8.18723L18.2506 8.18723L18.2506 8.18723L18.2505 8.18723L18.2505 8.18723L18.2505 8.18723L18.2505 8.18723L18.2505 8.18723L18.2505 8.18723L18.2504 8.18723L18.2504 8.18723L18.2504 8.18723L18.2504 8.18723L18.2504 8.18723L18.2503 8.18723L18.2503 8.18723L18.2503 8.18723L18.2503 8.18723L18.2503 8.18723L18.2503 8.18723L18.2502 8.18723L18.2502 8.18723L18.2502 8.18723L18.2502 8.18723L18.2502 8.18723L18.2502 8.18723L18.2501 8.18723L18.2501 8.18723L18.2501 8.18723L18.2501 8.18723L18.2501 8.18723L18.2501 8.18723L18.25 8.18723L18.25 8.18723L18.25 8.18723L3.18062 8.18723Z" fill="#1362FF" stroke="#1362FF"/>
</svg>
