<svg width="22" height="22" viewBox="0 0 22 22" fill="none" xmlns="http://www.w3.org/2000/svg">
<path d="M4.18062 11.1872L2.97352 11.1872L3.82707 12.0408L9.45933 17.6731C9.45934 17.6731 9.45934 17.6731 9.45934 17.6731C9.53136 17.7451 9.53253 17.8613 9.46287 17.9346L9.46171 17.9358L9.46014 17.9375L9.4593 17.9383C9.44039 17.9572 9.41948 17.9706 9.39761 17.9795L9.39757 17.9795C9.34069 18.0025 9.27478 17.9962 9.22401 17.9627L9.22395 17.9626C9.21485 17.9566 9.20618 17.9498 9.19806 17.942L9.19667 17.9407L9.19414 17.9382L9.19339 17.9375L2.38826 11.1324C2.31503 11.0591 2.31503 10.9404 2.38826 10.8672L9.19414 4.06129C9.26737 3.98806 9.38611 3.98806 9.45934 4.06129C9.53257 4.13452 9.53257 4.25326 9.45935 4.32649L3.82707 9.95867L2.9735 10.8122L4.18062 10.8122L19.25 10.8122C19.3269 10.8122 19.3941 10.8586 19.423 10.9269L19.423 10.927C19.4322 10.9486 19.4375 10.9729 19.4375 10.9997C19.4375 11.0899 19.3735 11.166 19.2884 11.1834L19.288 11.1835C19.2776 11.1856 19.2666 11.187 19.2549 11.1872L19.2548 11.1872L19.2548 11.1872L19.2548 11.1872L19.2548 11.1872L19.2548 11.1872L19.2548 11.1872L19.2547 11.1872L19.2547 11.1872L19.2547 11.1872L19.2547 11.1872L19.2547 11.1872L19.2547 11.1872L19.2546 11.1872L19.2546 11.1872L19.2546 11.1872L19.2546 11.1872L19.2546 11.1872L19.2546 11.1872L19.2545 11.1872L19.2545 11.1872L19.2545 11.1872L19.2545 11.1872L19.2545 11.1872L19.2544 11.1872L19.2544 11.1872L19.2544 11.1872L19.2544 11.1872L19.2544 11.1872L19.2544 11.1872L19.2543 11.1872L19.2543 11.1872L19.2543 11.1872L19.2543 11.1872L19.2543 11.1872L19.2543 11.1872L19.2542 11.1872L19.2542 11.1872L19.2542 11.1872L19.2542 11.1872L19.2542 11.1872L19.2542 11.1872L19.2541 11.1872L19.2541 11.1872L19.2541 11.1872L19.2541 11.1872L19.2541 11.1872L19.254 11.1872L19.254 11.1872L19.254 11.1872L19.254 11.1872L19.254 11.1872L19.254 11.1872L19.2539 11.1872L19.2539 11.1872L19.2539 11.1872L19.2539 11.1872L19.2539 11.1872L19.2539 11.1872L19.2538 11.1872L19.2538 11.1872L19.2538 11.1872L19.2538 11.1872L19.2538 11.1872L19.2538 11.1872L19.2537 11.1872L19.2537 11.1872L19.2537 11.1872L19.2537 11.1872L19.2537 11.1872L19.2536 11.1872L19.2536 11.1872L19.2536 11.1872L19.2536 11.1872L19.2536 11.1872L19.2536 11.1872L19.2535 11.1872L19.2535 11.1872L19.2535 11.1872L19.2535 11.1872L19.2535 11.1872L19.2535 11.1872L19.2534 11.1872L19.2534 11.1872L19.2534 11.1872L19.2534 11.1872L19.2534 11.1872L19.2534 11.1872L19.2533 11.1872L19.2533 11.1872L19.2533 11.1872L19.2533 11.1872L19.2533 11.1872L19.2533 11.1872L19.2532 11.1872L19.2532 11.1872L19.2532 11.1872L19.2532 11.1872L19.2532 11.1872L19.2531 11.1872L19.2531 11.1872L19.2531 11.1872L19.2531 11.1872L19.2531 11.1872L19.2531 11.1872L19.253 11.1872L19.253 11.1872L19.253 11.1872L19.253 11.1872L19.253 11.1872L19.253 11.1872L19.2529 11.1872L19.2529 11.1872L19.2529 11.1872L19.2529 11.1872L19.2529 11.1872L19.2529 11.1872L19.2528 11.1872L19.2528 11.1872L19.2528 11.1872L19.2528 11.1872L19.2528 11.1872L19.2527 11.1872L19.2527 11.1872L19.2527 11.1872L19.2527 11.1872L19.2527 11.1872L19.2527 11.1872L19.2526 11.1872L19.2526 11.1872L19.2526 11.1872L19.2526 11.1872L19.2526 11.1872L19.2526 11.1872L19.2525 11.1872L19.2525 11.1872L19.2525 11.1872L19.2525 11.1872L19.2525 11.1872L19.2525 11.1872L19.2524 11.1872L19.2524 11.1872L19.2524 11.1872L19.2524 11.1872L19.2524 11.1872L19.2523 11.1872L19.2523 11.1872L19.2523 11.1872L19.2523 11.1872L19.2523 11.1872L19.2523 11.1872L19.2522 11.1872L19.2522 11.1872L19.2522 11.1872L19.2522 11.1872L19.2522 11.1872L19.2522 11.1872L19.2521 11.1872L19.2521 11.1872L19.2521 11.1872L19.2521 11.1872L19.2521 11.1872L19.2521 11.1872L19.252 11.1872L19.252 11.1872L19.252 11.1872L19.252 11.1872L19.252 11.1872L19.2519 11.1872L19.2519 11.1872L19.2519 11.1872L19.2519 11.1872L19.2519 11.1872L19.2519 11.1872L19.2518 11.1872L19.2518 11.1872L19.2518 11.1872L19.2518 11.1872L19.2518 11.1872L19.2518 11.1872L19.2517 11.1872L19.2517 11.1872L19.2517 11.1872L19.2517 11.1872L19.2517 11.1872L19.2517 11.1872L19.2516 11.1872L19.2516 11.1872L19.2516 11.1872L19.2516 11.1872L19.2516 11.1872L19.2515 11.1872L19.2515 11.1872L19.2515 11.1872L19.2515 11.1872L19.2515 11.1872L19.2515 11.1872L19.2514 11.1872L19.2514 11.1872L19.2514 11.1872L19.2514 11.1872L19.2514 11.1872L19.2514 11.1872L19.2513 11.1872L19.2513 11.1872L19.2513 11.1872L19.2513 11.1872L19.2513 11.1872L19.2513 11.1872L19.2512 11.1872L19.2512 11.1872L19.2512 11.1872L19.2512 11.1872L19.2512 11.1872L19.2511 11.1872L19.2511 11.1872L19.2511 11.1872L19.2511 11.1872L19.2511 11.1872L19.2511 11.1872L19.251 11.1872L19.251 11.1872L19.251 11.1872L19.251 11.1872L19.251 11.1872L19.251 11.1872L19.2509 11.1872L19.2509 11.1872L19.2509 11.1872L19.2509 11.1872L19.2509 11.1872L19.2509 11.1872L19.2508 11.1872L19.2508 11.1872L19.2508 11.1872L19.2508 11.1872L19.2508 11.1872L19.2507 11.1872L19.2507 11.1872L19.2507 11.1872L19.2507 11.1872L19.2507 11.1872L19.2507 11.1872L19.2506 11.1872L19.2506 11.1872L19.2506 11.1872L19.2506 11.1872L19.2506 11.1872L19.2506 11.1872L19.2505 11.1872L19.2505 11.1872L19.2505 11.1872L19.2505 11.1872L19.2505 11.1872L19.2505 11.1872L19.2504 11.1872L19.2504 11.1872L19.2504 11.1872L19.2504 11.1872L19.2504 11.1872L19.2503 11.1872L19.2503 11.1872L19.2503 11.1872L19.2503 11.1872L19.2503 11.1872L19.2503 11.1872L19.2502 11.1872L19.2502 11.1872L19.2502 11.1872L19.2502 11.1872L19.2502 11.1872L19.2502 11.1872L19.2501 11.1872L19.2501 11.1872L19.2501 11.1872L19.2501 11.1872L19.2501 11.1872L19.2501 11.1872L19.25 11.1872L19.25 11.1872L19.25 11.1872L4.18062 11.1872Z" fill="#1362FF" stroke="#1362FF"/>
</svg>
