<svg width="22" height="22" viewBox="0 0 22 22" fill="none" xmlns="http://www.w3.org/2000/svg">
<path d="M7.5959 4.68145L13.9157 11.0012L7.5959 17.321C7.42809 17.4888 7.36516 17.7218 7.40712 17.9384C7.43229 18.0685 7.49521 18.1926 7.5959 18.2932C7.62946 18.3268 7.66563 18.3562 7.70374 18.3813C7.9706 18.5575 8.33325 18.5282 8.56817 18.2932L15.3741 11.4873C15.503 11.3584 15.5755 11.1836 15.5755 11.0012C15.5755 10.8189 15.503 10.644 15.3741 10.515L8.56817 3.70917C8.29969 3.44069 7.86438 3.44069 7.5959 3.70917C7.32741 3.97766 7.32741 4.41296 7.5959 4.68145Z" fill="#1362FF"/>
</svg>
