<svg width="22" height="22" viewBox="0 0 22 22" fill="none" xmlns="http://www.w3.org/2000/svg">
<path fill-rule="evenodd" clip-rule="evenodd" d="M20.1673 10.9997C20.1673 16.0622 16.0632 20.1663 11.0007 20.1663C5.93804 20.1663 1.83398 16.0622 1.83398 10.9997C1.83398 5.93706 5.93804 1.83301 11.0007 1.83301C16.0632 1.83301 20.1673 5.93706 20.1673 10.9997ZM10.5423 11.7935C10.2587 11.6298 10.084 11.3272 10.084 10.9997V7.79134C10.084 7.28508 10.4944 6.87467 11.0007 6.87467C11.5069 6.87467 11.9173 7.28508 11.9173 7.79134V10.4705L14.6344 12.0392C15.0729 12.2923 15.2231 12.8529 14.9699 13.2913C14.7168 13.7298 14.1562 13.88 13.7177 13.6268L10.5423 11.7935Z" fill="#7A7A7A"/>
</svg>
