<svg width="16" height="16" viewBox="0 0 16 16" fill="none" xmlns="http://www.w3.org/2000/svg">
<path fill-rule="evenodd" clip-rule="evenodd" d="M4.48125 0.828125C3.76987 0.828125 3.19318 1.43 3.19318 2.17245V2.26207H1.81925C1.06044 2.26207 0.445312 2.90407 0.445312 3.69602V5.84695C0.445312 7.43081 1.67557 8.71484 3.19318 8.71484H3.65594C4.3577 10.2566 5.79044 11.3657 7.48673 11.5543V14.0922H5.76931C5.48476 14.0922 5.25408 14.3329 5.25408 14.6299C5.25408 14.9269 5.48476 15.1676 5.76931 15.1676H10.2346C10.5191 15.1676 10.7498 14.9269 10.7498 14.6299C10.7498 14.3329 10.5191 14.0922 10.2346 14.0922H8.51718V11.5543C10.2134 11.3657 11.6462 10.2566 12.348 8.71484H12.8107C14.3283 8.71484 15.5586 7.43081 15.5586 5.84695V3.69602C15.5586 2.90407 14.9435 2.26207 14.1847 2.26207H12.8107V2.17245C12.8107 1.43 12.234 0.828125 11.5227 0.828125H4.48125ZM12.7001 7.63938H12.8107C13.7592 7.63938 14.5281 6.83687 14.5281 5.84695V3.69602C14.5281 3.49804 14.3743 3.33754 14.1847 3.33754H12.8107V6.56392C12.8107 6.93309 12.7725 7.29294 12.7001 7.63938ZM3.30385 7.63938C3.23137 7.29294 3.19318 6.93309 3.19318 6.56392V3.33754H1.81925C1.62955 3.33754 1.47576 3.49804 1.47576 3.69602V5.84695C1.47576 6.83687 2.24468 7.63938 3.19318 7.63938H3.30385Z" fill="#404041"/>
</svg>
