<svg width="22" height="22" viewBox="0 0 22 22" fill="none" xmlns="http://www.w3.org/2000/svg">
<path d="M16.5111 4.51777C16.7796 4.24929 17.2148 4.24929 17.4833 4.51777C17.7518 4.78626 17.7518 5.22156 17.4833 5.49004L11.9738 10.9996L17.4833 16.5091C17.7518 16.7776 17.7518 17.2129 17.4833 17.4814C17.2148 17.7499 16.7796 17.7499 16.5111 17.4814L11.0015 11.9719L5.492 17.4813C5.45844 17.515 5.42227 17.5443 5.38414 17.5695C5.11729 17.7457 4.75465 17.7163 4.51973 17.4813C4.25124 17.2129 4.25124 16.7776 4.51973 16.5091L10.0293 10.9996L4.51973 5.49009C4.25125 5.2216 4.25125 4.7863 4.51973 4.51781C4.78821 4.24933 5.22352 4.24933 5.492 4.51781L11.0015 10.0273L16.5111 4.51777Z" fill="#7A7A7A"/>
</svg>
