<svg width="83" height="72" viewBox="0 0 83 72" fill="none" xmlns="http://www.w3.org/2000/svg">
<g clip-path="url(#clip0_15864_84644)">
<g filter="url(#filter0_b_15864_84644)">
<path d="M48.0472 12.7883L46.4275 11.2545C46.1865 11.0263 45.8673 10.8989 45.5354 10.8984L9.39312 10.8473L6.41759 10.843C4.97288 10.8426 3.58557 11.4161 2.56003 12.4376C1.53449 13.4591 0.95447 14.8452 0.947221 16.2919L0.752368 66.3928C0.748367 67.8395 1.3176 69.2272 2.33519 70.2516C3.35277 71.276 4.7356 71.8534 6.1803 71.857L6.18798 71.8571L48.7828 71.9173L48.7905 71.9173C50.2352 71.9178 51.6225 71.3443 52.648 70.3228C53.6736 69.3013 54.2536 67.9152 54.2608 66.4685L54.4505 19.0407C54.4534 18.3209 53.8599 17.77 53.1573 17.613C51.4187 17.2243 51.4906 15.9967 50.644 15.1445C49.6265 14.1201 48.9919 13.7311 48.0472 12.7883Z" fill="#1362FF"/>
</g>
<g filter="url(#filter1_bi_15864_84644)">
<path d="M58.8949 1.96117L57.2751 0.427329C57.0342 0.199123 56.715 0.071731 56.383 0.0712608L20.2408 0.0201041L17.2652 0.0158928C15.8205 0.0154771 14.4332 0.588925 13.4077 1.61043C12.3821 2.63193 11.8021 4.01806 11.7949 5.46472L11.6 55.5657C11.596 57.0123 12.1653 58.4001 13.1828 59.4245C14.2004 60.4489 15.5833 61.0262 17.028 61.0299L17.0356 61.0299L59.6304 61.0902L59.6381 61.0902C61.0828 61.0906 62.4702 60.5172 63.4957 59.4957C64.5212 58.4742 65.1013 57.088 65.1085 55.6414L65.2981 8.21359C65.301 7.49371 64.7076 6.94289 64.0049 6.7858C62.2663 6.39712 62.3382 5.16952 61.4917 4.31735C60.4741 3.29295 59.8396 2.90391 58.8949 1.96117Z" fill="#070707" fill-opacity="0.2"/>
<path d="M17.0286 60.7799L17.0287 60.7799L17.036 60.7799L17.0364 60.7799L59.6308 60.8402L59.6304 61.0902L59.6309 60.8402L59.6382 60.8402C61.0166 60.8406 62.3405 60.2935 63.3192 59.3186C64.298 58.3437 64.8516 57.0207 64.8585 55.6401L65.0481 8.21262C65.0504 7.64573 64.5771 7.16989 63.9503 7.02976C63.0088 6.81927 62.5405 6.37089 62.2051 5.86316C62.0968 5.69913 61.9982 5.52164 61.9048 5.35374C61.8625 5.2775 61.8212 5.20323 61.7806 5.1331C61.6452 4.89915 61.5036 4.68411 61.3143 4.49351C60.8133 3.98916 60.407 3.64143 60.0041 3.29914L59.9629 3.26418C59.5738 2.9337 59.1836 2.60227 58.7206 2.14043L57.1032 0.608834C56.9086 0.424513 56.6508 0.32162 56.3827 0.321241L20.2404 0.270083L17.2652 0.265872C17.2651 0.265872 17.2651 0.265873 17.265 0.265873C15.8867 0.265505 14.5629 0.812634 13.5841 1.78751C12.6054 2.76243 12.0518 4.08535 12.0449 5.46595L11.85 55.5663L17.0286 60.7799ZM17.0286 60.7799C15.6503 60.7764 14.331 60.2256 13.3602 59.2483C12.3895 58.2711 11.8463 56.9471 11.85 55.5666L17.0286 60.7799Z" stroke="white" stroke-opacity="0.14" stroke-width="0.5"/>
</g>
<path d="M54.3476 16H37.6524C36.9489 16 36.2743 15.7893 35.7769 15.4142C35.2794 15.0391 35 14.5304 35 14C35 13.4696 35.2794 12.9609 35.7769 12.5858C36.2743 12.2107 36.9489 12 37.6524 12H54.3476C55.0511 12 55.7257 12.2107 56.2231 12.5858C56.7206 12.9609 57 13.4696 57 14C57 14.5304 56.7206 15.0391 56.2231 15.4142C55.7257 15.7893 55.0511 16 54.3476 16Z" fill="#F0F0F6"/>
<path d="M54.3476 30H22.6524C21.9489 30 21.2743 29.7893 20.7769 29.4142C20.2794 29.0391 20 28.5304 20 28C20 27.4696 20.2794 26.9609 20.7769 26.5858C21.2743 26.2107 21.9489 26 22.6524 26H54.3476C55.0511 26 55.7257 26.2107 56.2231 26.5858C56.7206 26.9609 57 27.4696 57 28C57 28.5304 56.7206 29.0391 56.2231 29.4142C55.7257 29.7893 55.0511 30 54.3476 30Z" fill="#F0F0F6"/>
<path d="M54.3476 39H22.6524C21.9489 39 21.2743 38.7893 20.7769 38.4142C20.2794 38.0391 20 37.5304 20 37C20 36.4696 20.2794 35.9609 20.7769 35.5858C21.2743 35.2107 21.9489 35 22.6524 35H54.3476C55.0511 35 55.7257 35.2107 56.2231 35.5858C56.7206 35.9609 57 36.4696 57 37C57 37.5304 56.7206 38.0391 56.2231 38.4142C55.7257 38.7893 55.0511 39 54.3476 39Z" fill="#F0F0F6"/>
<path d="M54.3476 48H22.6524C21.9489 48 21.2743 47.7893 20.7769 47.4142C20.2794 47.0391 20 46.5304 20 46C20 45.4696 20.2794 44.9609 20.7769 44.5858C21.2743 44.2107 21.9489 44 22.6524 44H54.3476C55.0511 44 55.7257 44.2107 56.2231 44.5858C56.7206 44.9609 57 45.4696 57 46C57 46.5304 56.7206 47.0391 56.2231 47.4142C55.7257 47.7893 55.0511 48 54.3476 48Z" fill="#F0F0F6"/>
<path d="M25.5 22C28.5376 22 31 19.5376 31 16.5C31 13.4624 28.5376 11 25.5 11C22.4624 11 20 13.4624 20 16.5C20 19.5376 22.4624 22 25.5 22Z" fill="#F0F0F6"/>
<g filter="url(#filter2_bi_15864_84644)">
<path d="M64.8925 7.03759H58.5979C58.1384 7.03759 57.6976 6.83965 57.3727 6.4873C57.0478 6.13495 56.8652 5.65707 56.8652 5.15877V0.117426C56.8652 0.0953542 56.871 0.0737303 56.8818 0.0550324C56.8926 0.0363344 56.9081 0.0213204 56.9264 0.0117118C56.9447 0.00210314 56.9652 -0.00171119 56.9854 0.000706843C57.0056 0.00312488 57.0248 0.011677 57.0408 0.0253825L64.9598 6.82812C64.9774 6.84326 64.9902 6.86397 64.9965 6.88738C65.0028 6.91079 65.0022 6.93574 64.9948 6.95877C64.9874 6.98179 64.9736 7.00176 64.9553 7.01588C64.9369 7.03001 64.915 7.03759 64.8925 7.03759Z" fill="#070707" fill-opacity="0.2"/>
<path d="M56.9617 0.117425L56.9617 0.117426L56.9617 0.117425ZM56.9617 0.117425L56.971 0.106624L56.973 0.10425L56.971 0.106624L56.9617 0.117425ZM57.1152 0.418931L64.5289 6.78759H58.5979C58.2115 6.78759 57.8364 6.62134 57.5565 6.31782C57.276 6.01362 57.1152 5.597 57.1152 5.15877V0.418931Z" stroke="white" stroke-opacity="0.14" stroke-width="0.5"/>
</g>
</g>
<defs>
<filter id="filter0_b_15864_84644" x="-7.24756" y="2.84277" width="69.698" height="77.0742" filterUnits="userSpaceOnUse" color-interpolation-filters="sRGB">
<feFlood flood-opacity="0" result="BackgroundImageFix"/>
<feGaussianBlur in="BackgroundImageFix" stdDeviation="4"/>
<feComposite in2="SourceAlpha" operator="in" result="effect1_backgroundBlur_15864_84644"/>
<feBlend mode="normal" in="SourceGraphic" in2="effect1_backgroundBlur_15864_84644" result="shape"/>
</filter>
<filter id="filter1_bi_15864_84644" x="1.6001" y="-9.98438" width="73.698" height="81.0742" filterUnits="userSpaceOnUse" color-interpolation-filters="sRGB">
<feFlood flood-opacity="0" result="BackgroundImageFix"/>
<feGaussianBlur in="BackgroundImageFix" stdDeviation="5"/>
<feComposite in2="SourceAlpha" operator="in" result="effect1_backgroundBlur_15864_84644"/>
<feBlend mode="normal" in="SourceGraphic" in2="effect1_backgroundBlur_15864_84644" result="shape"/>
<feColorMatrix in="SourceAlpha" type="matrix" values="0 0 0 0 0 0 0 0 0 0 0 0 0 0 0 0 0 0 127 0" result="hardAlpha"/>
<feOffset dx="3" dy="-3"/>
<feGaussianBlur stdDeviation="4"/>
<feComposite in2="hardAlpha" operator="arithmetic" k2="-1" k3="1"/>
<feColorMatrix type="matrix" values="0 0 0 0 1 0 0 0 0 1 0 0 0 0 1 0 0 0 0.35 0"/>
<feBlend mode="normal" in2="shape" result="effect2_innerShadow_15864_84644"/>
</filter>
<filter id="filter2_bi_15864_84644" x="46.8652" y="-10" width="28.1355" height="27.0371" filterUnits="userSpaceOnUse" color-interpolation-filters="sRGB">
<feFlood flood-opacity="0" result="BackgroundImageFix"/>
<feGaussianBlur in="BackgroundImageFix" stdDeviation="5"/>
<feComposite in2="SourceAlpha" operator="in" result="effect1_backgroundBlur_15864_84644"/>
<feBlend mode="normal" in="SourceGraphic" in2="effect1_backgroundBlur_15864_84644" result="shape"/>
<feColorMatrix in="SourceAlpha" type="matrix" values="0 0 0 0 0 0 0 0 0 0 0 0 0 0 0 0 0 0 127 0" result="hardAlpha"/>
<feOffset dx="3" dy="-3"/>
<feGaussianBlur stdDeviation="4"/>
<feComposite in2="hardAlpha" operator="arithmetic" k2="-1" k3="1"/>
<feColorMatrix type="matrix" values="0 0 0 0 1 0 0 0 0 1 0 0 0 0 1 0 0 0 0.35 0"/>
<feBlend mode="normal" in2="shape" result="effect2_innerShadow_15864_84644"/>
</filter>
<clipPath id="clip0_15864_84644">
<rect width="83" height="72" fill="white"/>
</clipPath>
</defs>
</svg>
