<svg width="23" height="22" viewBox="0 0 23 22" fill="none" xmlns="http://www.w3.org/2000/svg">
<path fill-rule="evenodd" clip-rule="evenodd" d="M6.66238 7.3409C5.2107 8.41971 4.04949 9.72148 3.359 10.5837L3.35521 10.5884L3.35519 10.5884C3.25958 10.7061 3.20768 10.851 3.20768 11C3.20768 11.1491 3.25958 11.2939 3.35519 11.4117L3.35901 11.4164L3.359 11.4164C4.04949 12.2786 5.2107 13.5804 6.66238 14.6592C8.12443 15.7457 9.7873 16.5367 11.4999 16.5367C13.2126 16.5367 14.8755 15.7457 16.3375 14.6592C17.7892 13.5804 18.9504 12.2786 19.6409 11.4164C19.842 11.165 19.8426 10.8363 19.6406 10.5833C18.95 9.72106 17.789 8.41954 16.3375 7.3409C14.8755 6.25438 13.2126 5.46337 11.4999 5.46337C9.7873 5.46337 8.12443 6.25438 6.66238 7.3409ZM20.3712 10.0485L21.1016 9.51339C20.3613 8.58901 19.0907 7.15819 17.4664 5.95107C15.8524 4.75165 13.795 3.70337 11.4999 3.70337C9.20485 3.70337 7.14747 4.75165 5.5335 5.95107C3.91042 7.15726 2.64057 8.58681 1.90002 9.51126C1.55496 9.93733 1.36768 10.461 1.36768 11C1.36768 11.5391 1.55497 12.0628 1.90005 12.4888C2.6406 13.4133 3.91044 14.8428 5.5335 16.049C7.14747 17.2484 9.20485 18.2967 11.4999 18.2967C13.795 18.2967 15.8524 17.2484 17.4664 16.049C19.0907 14.8419 20.3613 13.4111 21.1016 12.4867L21.1017 12.4866C21.8089 11.6032 21.8083 10.3976 21.1021 9.51406L20.3712 10.0485Z" fill="#FFFFFF"/>
<path fill-rule="evenodd" clip-rule="evenodd" d="M11.5 9.13C10.4202 9.13 9.54496 9.96722 9.54496 11C9.54496 12.0328 10.4202 12.87 11.5 12.87C12.5797 12.87 13.455 12.0328 13.455 11C13.455 9.96722 12.5797 9.13 11.5 9.13ZM7.70496 11C7.70496 8.9952 9.40404 7.37 11.5 7.37C13.5959 7.37 15.295 8.9952 15.295 11C15.295 13.0048 13.5959 14.63 11.5 14.63C9.40404 14.63 7.70496 13.0048 7.70496 11Z" fill="#FFFFFF"/>
</svg>
