<svg width="134" height="108" viewBox="0 0 134 108" fill="none" xmlns="http://www.w3.org/2000/svg">
<rect x="39.3654" y="106.344" width="73.5445" height="94.0394" rx="12" transform="rotate(-89.5338 39.3654 106.344)" fill="#1362FF"/>
<path d="M121.757 50.2997H54.294C53.5248 50.2997 52.7871 50.0693 52.2432 49.6592C51.6992 49.249 51.3937 48.6928 51.3937 48.1127C51.3937 47.5327 51.6992 46.9765 52.2432 46.5663C52.7871 46.1562 53.5248 45.9258 54.294 45.9258H121.757C122.526 45.9258 123.264 46.1562 123.807 46.5663C124.351 46.9765 124.657 47.5327 124.657 48.1127C124.657 48.6928 124.351 49.249 123.807 49.6592C123.264 50.0693 122.526 50.2997 121.757 50.2997Z" fill="#F2F2F5"/>
<path d="M84.3487 60.1396H53.4301C52.89 60.1396 52.372 59.9091 51.9901 59.499C51.6082 59.0889 51.3937 58.5326 51.3937 57.9526C51.3937 57.3726 51.6082 56.8163 51.9901 56.4062C52.372 55.996 52.89 55.7656 53.4301 55.7656H84.3487C84.8888 55.7656 85.4067 55.996 85.7886 56.4062C86.1705 56.8163 86.3851 57.3726 86.3851 57.9526C86.3851 58.5326 86.1705 59.0889 85.7886 59.499C85.4067 59.9091 84.8888 60.1396 84.3487 60.1396Z" fill="#F2F2F5"/>
<path d="M109.327 68.8896H53.6014C53.0159 68.8896 52.4543 68.6591 52.0403 68.249C51.6263 67.8389 51.3937 67.2826 51.3937 66.7026C51.3937 66.1226 51.6263 65.5663 52.0403 65.1562C52.4543 64.746 53.0159 64.5156 53.6014 64.5156H109.327C109.913 64.5156 110.475 64.746 110.889 65.1562C111.303 65.5663 111.535 66.1226 111.535 66.7026C111.535 67.2826 111.303 67.8389 110.889 68.249C110.475 68.6591 109.913 68.8896 109.327 68.8896Z" fill="#F2F2F5"/>
<path d="M121.757 78.7294H54.294C53.5248 78.7294 52.7871 78.499 52.2432 78.0888C51.6992 77.6787 51.3937 77.1224 51.3937 76.5424C51.3937 75.9624 51.6992 75.4062 52.2432 74.996C52.7871 74.5859 53.5248 74.3555 54.294 74.3555H121.757C122.526 74.3555 123.264 74.5859 123.807 74.996C124.351 75.4062 124.657 75.9624 124.657 76.5424C124.657 77.1224 124.351 77.6787 123.807 78.0888C123.264 78.499 122.526 78.7294 121.757 78.7294Z" fill="#F2F2F5"/>
<g filter="url(#filter0_bi_7182_106604)">
<path fill-rule="evenodd" clip-rule="evenodd" d="M107.161 44.8864C107.161 20.0962 87.0649 -8.78435e-07 62.2749 -1.96204e-06C37.4851 -3.04564e-06 17.3887 20.0962 17.3887 44.8864C17.3887 55.376 20.9923 65.0318 27.0208 72.6719L1.54654 98.1461C-0.515584 100.209 -0.515584 103.552 1.54654 105.615C3.60866 107.677 6.95242 107.677 9.01454 105.615L34.4888 80.1399C42.1295 86.1689 51.7848 89.7725 62.2749 89.7725C87.0649 89.7725 107.161 69.6762 107.161 44.8864ZM62.2749 10.5614C81.232 10.5614 96.5997 25.9291 96.5997 44.8864C96.5997 63.8431 81.232 79.211 62.2749 79.211C52.795 79.211 44.2212 75.3746 38.0036 69.1571C31.7861 62.9401 27.9502 54.3663 27.9502 44.8864C27.9502 25.9291 43.3176 10.5614 62.2749 10.5614Z" fill="#070707" fill-opacity="0.2"/>
<path d="M27.1976 72.8487L27.3547 72.6915L27.217 72.517C21.2221 64.9194 17.6387 55.3178 17.6387 44.8864C17.6387 20.2343 37.6231 0.249997 62.2749 0.249998C86.9268 0.249999 106.911 20.2343 106.911 44.8864C106.911 69.5381 86.9268 89.5225 62.2749 89.5225C51.843 89.5225 42.2418 85.9391 34.6437 79.9436L34.4692 79.806L34.312 79.9631L8.83777 105.438C6.87327 107.402 3.68781 107.402 1.72334 105.438C-0.241185 103.473 -0.241185 100.288 1.72332 98.3229L27.1976 72.8487ZM96.8497 44.8864C96.8497 25.791 81.37 10.3114 62.2749 10.3114C43.1796 10.3114 27.7002 25.791 27.7002 44.8864C27.7002 54.4352 31.5643 63.0719 37.8269 69.3338C44.0894 75.5963 52.726 79.461 62.2749 79.461C81.37 79.461 96.8497 63.9812 96.8497 44.8864Z" stroke="white" stroke-opacity="0.14" stroke-width="0.5"/>
</g>
<defs>
<filter id="filter0_bi_7182_106604" x="-10" y="-10" width="127.161" height="127.16" filterUnits="userSpaceOnUse" color-interpolation-filters="sRGB">
<feFlood flood-opacity="0" result="BackgroundImageFix"/>
<feGaussianBlur in="BackgroundImageFix" stdDeviation="5"/>
<feComposite in2="SourceAlpha" operator="in" result="effect1_backgroundBlur_7182_106604"/>
<feBlend mode="normal" in="SourceGraphic" in2="effect1_backgroundBlur_7182_106604" result="shape"/>
<feColorMatrix in="SourceAlpha" type="matrix" values="0 0 0 0 0 0 0 0 0 0 0 0 0 0 0 0 0 0 127 0" result="hardAlpha"/>
<feOffset dx="3" dy="-3"/>
<feGaussianBlur stdDeviation="4"/>
<feComposite in2="hardAlpha" operator="arithmetic" k2="-1" k3="1"/>
<feColorMatrix type="matrix" values="0 0 0 0 1 0 0 0 0 1 0 0 0 0 1 0 0 0 0.35 0"/>
<feBlend mode="normal" in2="shape" result="effect2_innerShadow_7182_106604"/>
</filter>
</defs>
</svg>
