<svg width="23" height="22" viewBox="0 0 23 22" fill="none" xmlns="http://www.w3.org/2000/svg">
<path fill-rule="evenodd" clip-rule="evenodd" d="M20.5003 10.9997C20.5003 16.0622 16.3962 20.1663 11.3337 20.1663C6.27105 20.1663 2.16699 16.0622 2.16699 10.9997C2.16699 5.93706 6.27105 1.83301 11.3337 1.83301C16.3962 1.83301 20.5003 5.93706 20.5003 10.9997ZM11.1345 15.5372C10.8814 15.5372 10.6761 15.3319 10.6761 15.0788V9.70387C10.6761 9.45069 10.8814 9.24554 11.1345 9.24554H11.5318C11.7849 9.24554 11.9901 9.45069 11.9901 9.70387V15.0788C11.9901 15.3319 11.7849 15.5372 11.5318 15.5372H11.1345ZM11.3397 7.74567C11.1112 7.74567 10.9149 7.6695 10.7508 7.51716C10.5897 7.36188 10.5091 7.17731 10.5091 6.96344C10.5091 6.74665 10.5897 6.56208 10.7508 6.40973C10.9149 6.25446 11.1112 6.17683 11.3397 6.17683C11.5682 6.17683 11.763 6.25446 11.9242 6.40973C12.0883 6.56208 12.1703 6.74665 12.1703 6.96344C12.1703 7.17731 12.0883 7.36188 11.9242 7.51716C11.763 7.6695 11.5682 7.74567 11.3397 7.74567Z" fill="#0371D1"/>
</svg>
