<svg width="20" height="20" viewBox="0 0 20 20" fill="none" xmlns="http://www.w3.org/2000/svg">
<path fill-rule="evenodd" clip-rule="evenodd" d="M19.1673 10.0013C19.1673 4.93874 15.0632 0.834635 10.0007 0.834635C4.93804 0.834635 0.833984 4.93874 0.833984 10.0013C0.833984 15.0639 4.93804 19.168 10.0007 19.168C15.0632 19.168 19.1673 15.0639 19.1673 10.0013ZM9.80146 5.4638C9.54837 5.4638 9.34313 5.66904 9.34313 5.92213V11.2971C9.34313 11.5503 9.54837 11.7554 9.80146 11.7554H10.1987C10.4519 11.7554 10.6571 11.5503 10.6571 11.2971V5.92213C10.6571 5.66904 10.4519 5.4638 10.1987 5.4638H9.80146ZM10.0067 13.2553C9.77818 13.2553 9.58192 13.3315 9.41783 13.4838C9.25668 13.6391 9.17611 13.8237 9.17611 14.0375C9.17611 14.2543 9.25668 14.4389 9.41783 14.5912C9.58192 14.7465 9.77818 14.8242 10.0067 14.8242C10.2352 14.8242 10.43 14.7465 10.5912 14.5912C10.7553 14.4389 10.8373 14.2543 10.8373 14.0375C10.8373 13.8237 10.7553 13.6391 10.5912 13.4838C10.43 13.3315 10.2352 13.2553 10.0067 13.2553Z" fill="#7A7A7A"/>
</svg>
