<svg width="22" height="22" viewBox="0 0 22 22" fill="none" xmlns="http://www.w3.org/2000/svg">
<path fill-rule="evenodd" clip-rule="evenodd" d="M19.25 9.16699C19.25 14.1427 13.4443 19.8014 11.5735 21.4958C11.2445 21.7937 10.7555 21.7937 10.4265 21.4958C8.55573 19.8014 2.75 14.1427 2.75 9.16699C2.75 4.61065 6.44365 0.916992 11 0.916992C15.5564 0.916992 19.25 4.61065 19.25 9.16699ZM13.9792 9.16699C13.9792 10.8123 12.6453 12.1462 11 12.1462C9.35468 12.1462 8.02083 10.8123 8.02083 9.16699C8.02083 7.52165 9.35468 6.18783 11 6.18783C12.6453 6.18783 13.9792 7.52165 13.9792 9.16699Z" fill="#7A7A7A"/>
</svg>
