<svg width="22" height="22" viewBox="0 0 22 22" fill="none" xmlns="http://www.w3.org/2000/svg">
<path fill-rule="evenodd" clip-rule="evenodd" d="M9.62179 1.83008C5.31853 1.83008 1.83008 5.31853 1.83008 9.62175C1.83008 13.9249 5.31853 17.4134 9.62179 17.4134C11.4427 17.4134 13.1188 16.7879 14.445 15.7414L18.867 20.1634C19.2251 20.5214 19.8054 20.5214 20.1635 20.1634C20.5214 19.8055 20.5214 19.225 20.1635 18.8671L15.7414 14.4451C16.7879 13.1187 17.4135 11.4427 17.4135 9.62175C17.4135 5.31853 13.925 1.83008 9.62179 1.83008ZM3.66341 9.62175C3.66341 6.33105 6.33105 3.66341 9.62179 3.66341C12.9124 3.66341 15.5801 6.33105 15.5801 9.62175C15.5801 11.2673 14.9142 12.7556 13.8349 13.8349C12.7557 14.9142 11.2674 15.5801 9.62179 15.5801C6.33105 15.5801 3.66341 12.9125 3.66341 9.62175Z" fill="#F0F0F6"/>
</svg>
