<svg width="135" height="44" viewBox="0 0 135 44" fill="none" xmlns="http://www.w3.org/2000/svg">
<g clip-path="url(#clip0_210_2393)">
<path d="M29.8901 17.4717C29.7624 17.8284 29.6218 18.1794 29.509 18.5418C29.0593 19.9802 28.9058 21.4377 29.0815 22.9547C29.3979 25.7011 30.7561 27.8126 32.649 29.646C33.6464 30.6125 34.5882 31.6405 35.5504 32.6435C36.1943 33.3147 36.5404 34.1471 36.5052 35.0772C36.4256 37.2021 34.7363 38.652 32.7416 38.3624C32.0144 38.2569 31.4074 37.9137 30.8893 37.3766C29.6107 36.0457 28.3155 34.7301 27.048 33.3895C25.971 32.2484 25.2475 30.8906 24.8238 29.3525C24.3872 27.7685 24.339 26.1709 24.698 24.5772C25.1255 22.6843 26.0136 21.0407 27.3847 19.6964C28.0768 19.0175 28.7891 18.3597 29.4942 17.6942C29.5996 17.5945 29.7162 17.512 29.8291 17.4199C29.8494 17.4391 29.8698 17.4545 29.8901 17.4717Z" fill="white"/>
<path d="M35.8433 7.54081C35.1587 5.23944 32.3517 4.44355 30.6512 6.0967C29.6168 7.10164 28.6324 8.16025 27.6333 9.20353C26.7599 10.1164 25.8754 11.0082 24.7689 11.6257C23.5291 12.3162 22.2191 12.7304 20.8072 12.809C19.6248 12.8762 18.4703 12.763 17.3471 12.3737C16.8456 12.1992 16.3571 11.9863 15.8612 11.7887L15.815 11.8444C16.5385 12.6556 17.2545 13.4764 17.9873 14.2781C20.1966 16.6983 22.8889 17.7934 26.103 17.3945C27.9534 17.1644 29.6076 16.426 30.9676 15.1066C32.3813 13.7372 33.7561 12.3219 35.0902 10.8701C35.9433 9.94384 36.219 8.80275 35.8433 7.54081ZM20.6666 10.8835C23.4514 10.663 25.2 8.24273 25.0446 5.7208C24.941 2.91121 22.5614 0.893681 20.0172 1.07587C17.2638 1.27341 15.3246 3.7282 15.6003 6.46298C15.8872 9.26685 18.1372 11.083 20.6666 10.8835Z" fill="white"/>
<path d="M24.994 31.3424C23.9504 31.0107 22.9882 30.6079 21.9872 30.418C21.21 30.2704 20.3829 30.326 19.5873 30.3989C18.4807 30.4986 17.4261 30.838 16.4194 31.3482C15.2334 31.9523 14.2601 32.8249 13.346 33.7953C12.3264 34.8789 11.2884 35.9432 10.2503 37.0096C8.59979 38.7049 5.55966 38.0509 4.92682 35.4983C4.63077 34.3055 4.89352 33.2334 5.68363 32.378C7.09732 30.8477 8.5517 29.3518 10.0542 27.9134C11.2292 26.7896 12.6743 26.1643 14.2545 25.8786C16.5693 25.4586 18.7398 25.8633 20.7419 27.129C21.3063 27.4857 21.8318 27.9345 22.3036 28.4159C23.2251 29.3575 24.0948 30.3586 24.994 31.3424Z" fill="white"/>
<path d="M20.4915 32.9556C23.1375 32.9095 25.3394 35.161 25.308 37.9841C25.2766 40.7457 23.1856 42.9339 20.4693 42.9359C17.8196 42.9397 15.6694 40.7169 15.6602 37.9246C15.6528 35.1994 17.8769 32.8673 20.4915 32.9556Z" fill="white"/>
<path d="M40.5805 21.8475C40.6249 24.5324 38.497 26.8472 35.7584 26.8357C33.0921 26.8242 30.953 24.6149 30.9512 21.8571C30.9493 19.0954 33.0828 16.865 35.7677 16.8516C38.4156 16.8382 40.6342 19.1127 40.5805 21.8475Z" fill="white"/>
<path d="M10.908 26.3001C11.2281 25.2185 11.6167 24.2212 11.7999 23.1837C11.9424 22.3782 11.8887 21.5209 11.8184 20.6963C11.7222 19.5494 11.3946 18.4544 10.9025 17.413C10.3196 16.1836 9.47766 15.1749 8.54321 14.2275C7.49778 13.1708 6.4708 12.0949 5.44201 11.019C3.8063 9.30828 4.43727 6.15734 6.90009 5.50145C8.05103 5.1946 9.08541 5.46692 9.91064 6.28585C11.3872 7.75102 12.8305 9.25845 14.2183 10.8157C15.3026 12.0335 15.9058 13.5313 16.1815 15.1691C16.5868 17.5683 16.1963 19.8179 14.9751 21.8929C14.6309 22.4779 14.1979 23.0225 13.7335 23.5116C12.8213 24.4648 11.8573 25.368 10.908 26.3001Z" fill="white"/>
<path d="M9.74651 22.0387C9.79089 24.7811 7.61856 27.0633 4.89484 27.0307C2.23031 26.9981 0.119043 24.831 0.117192 22.0157C0.113491 19.2693 2.25992 17.0409 4.9522 17.0313C7.58158 17.0236 9.83162 19.3288 9.74651 22.0387Z" fill="white"/>
</g>
<path d="M54.4091 17V5.36364H55.8182V10.5455H62.0227V5.36364H63.4318V17H62.0227V11.7955H55.8182V17H54.4091ZM68.5432 17.2045C67.9902 17.2045 67.4883 17.1004 67.0375 16.892C66.5868 16.6799 66.2288 16.375 65.9637 15.9773C65.6985 15.5758 65.5659 15.0909 65.5659 14.5227C65.5659 14.0227 65.6644 13.6174 65.8614 13.3068C66.0584 12.9924 66.3216 12.7462 66.6512 12.5682C66.9807 12.3902 67.3443 12.2576 67.7421 12.1705C68.1436 12.0795 68.547 12.0076 68.9523 11.9545C69.4826 11.8864 69.9125 11.8352 70.2421 11.8011C70.5754 11.7633 70.8178 11.7008 70.9693 11.6136C71.1246 11.5265 71.2023 11.375 71.2023 11.1591V11.1136C71.2023 10.553 71.0489 10.1174 70.7421 9.80682C70.439 9.49621 69.9788 9.34091 69.3614 9.34091C68.7212 9.34091 68.2193 9.48106 67.8557 9.76136C67.4921 10.0417 67.2364 10.3409 67.0887 10.6591L65.8159 10.2045C66.0432 9.67424 66.3462 9.26136 66.725 8.96591C67.1076 8.66667 67.5243 8.45833 67.975 8.34091C68.4296 8.2197 68.8765 8.15909 69.3159 8.15909C69.5962 8.15909 69.9182 8.19318 70.2818 8.26136C70.6493 8.32576 71.0034 8.46023 71.3443 8.66477C71.689 8.86932 71.975 9.17803 72.2023 9.59091C72.4296 10.0038 72.5432 10.5568 72.5432 11.25V17H71.2023V15.8182H71.1341C71.0432 16.0076 70.8917 16.2102 70.6796 16.4261C70.4674 16.642 70.1853 16.8258 69.833 16.9773C69.4807 17.1288 69.0508 17.2045 68.5432 17.2045ZM68.7478 16C69.2781 16 69.725 15.8958 70.0887 15.6875C70.4561 15.4792 70.7326 15.2102 70.9182 14.8807C71.1076 14.5511 71.2023 14.2045 71.2023 13.8409V12.6136C71.1455 12.6818 71.0205 12.7443 70.8273 12.8011C70.6379 12.8542 70.4182 12.9015 70.1682 12.9432C69.922 12.9811 69.6815 13.0152 69.4466 13.0455C69.2156 13.072 69.0281 13.0947 68.8841 13.1136C68.5356 13.1591 68.2099 13.233 67.9068 13.3352C67.6076 13.4337 67.3652 13.5833 67.1796 13.7841C66.9978 13.9811 66.9068 14.25 66.9068 14.5909C66.9068 15.0568 67.0792 15.4091 67.4239 15.6477C67.7724 15.8826 68.2137 16 68.7478 16ZM74.8946 17V8.27273H78.4628C79.4022 8.27273 80.1484 8.48485 80.7015 8.90909C81.2545 9.33333 81.531 9.89394 81.531 10.5909C81.531 11.1212 81.3738 11.5322 81.0594 11.8239C80.745 12.1117 80.3416 12.3068 79.8492 12.4091C80.1712 12.4545 80.4837 12.5682 80.7867 12.75C81.0935 12.9318 81.3473 13.1818 81.5481 13.5C81.7488 13.8144 81.8492 14.2008 81.8492 14.6591C81.8492 15.1061 81.7356 15.5057 81.5083 15.858C81.281 16.2102 80.9553 16.4886 80.531 16.6932C80.1068 16.8977 79.5992 17 79.0083 17H74.8946ZM76.1674 15.7727H79.0083C79.4704 15.7727 79.8321 15.6629 80.0935 15.4432C80.3549 15.2235 80.4856 14.9242 80.4856 14.5455C80.4856 14.0947 80.3549 13.7405 80.0935 13.483C79.8321 13.2216 79.4704 13.0909 79.0083 13.0909H76.1674V15.7727ZM76.1674 11.9318H78.4628C78.8227 11.9318 79.1314 11.8826 79.389 11.7841C79.6465 11.6818 79.8435 11.5379 79.9799 11.3523C80.12 11.1629 80.1901 10.9394 80.1901 10.6818C80.1901 10.3144 80.0367 10.0265 79.7299 9.81818C79.4231 9.60606 79.0007 9.5 78.4628 9.5H76.1674V11.9318ZM85.1239 15.0227L89.3285 8.27273H90.8739V17H89.533V10.25L85.3512 17H83.783V8.27273H85.1239V15.0227ZM98.6203 8.27273V9.52273H94.5748V17H93.2339V8.27273H98.6203ZM102.597 17.2045C102.044 17.2045 101.542 17.1004 101.091 16.892C100.64 16.6799 100.282 16.375 100.017 15.9773C99.752 15.5758 99.6194 15.0909 99.6194 14.5227C99.6194 14.0227 99.7179 13.6174 99.9149 13.3068C100.112 12.9924 100.375 12.7462 100.705 12.5682C101.034 12.3902 101.398 12.2576 101.796 12.1705C102.197 12.0795 102.6 12.0076 103.006 11.9545C103.536 11.8864 103.966 11.8352 104.296 11.8011C104.629 11.7633 104.871 11.7008 105.023 11.6136C105.178 11.5265 105.256 11.375 105.256 11.1591V11.1136C105.256 10.553 105.102 10.1174 104.796 9.80682C104.493 9.49621 104.032 9.34091 103.415 9.34091C102.775 9.34091 102.273 9.48106 101.909 9.76136C101.546 10.0417 101.29 10.3409 101.142 10.6591L99.8694 10.2045C100.097 9.67424 100.4 9.26136 100.779 8.96591C101.161 8.66667 101.578 8.45833 102.029 8.34091C102.483 8.2197 102.93 8.15909 103.369 8.15909C103.65 8.15909 103.972 8.19318 104.335 8.26136C104.703 8.32576 105.057 8.46023 105.398 8.66477C105.743 8.86932 106.029 9.17803 106.256 9.59091C106.483 10.0038 106.597 10.5568 106.597 11.25V17H105.256V15.8182H105.188C105.097 16.0076 104.945 16.2102 104.733 16.4261C104.521 16.642 104.239 16.8258 103.886 16.9773C103.534 17.1288 103.104 17.2045 102.597 17.2045ZM102.801 16C103.332 16 103.779 15.8958 104.142 15.6875C104.51 15.4792 104.786 15.2102 104.972 14.8807C105.161 14.5511 105.256 14.2045 105.256 13.8409V12.6136C105.199 12.6818 105.074 12.7443 104.881 12.8011C104.691 12.8542 104.472 12.9015 104.222 12.9432C103.975 12.9811 103.735 13.0152 103.5 13.0455C103.269 13.072 103.082 13.0947 102.938 13.1136C102.589 13.1591 102.263 13.233 101.96 13.3352C101.661 13.4337 101.419 13.5833 101.233 13.7841C101.051 13.9811 100.96 14.25 100.96 14.5909C100.96 15.0568 101.133 15.4091 101.477 15.6477C101.826 15.8826 102.267 16 102.801 16ZM107.761 9.52273V8.27273H114.852V9.52273H111.988V17H110.647V9.52273H107.761ZM119.804 17.1818C119.016 17.1818 118.325 16.9943 117.73 16.6193C117.139 16.2443 116.677 15.7197 116.344 15.0455C116.014 14.3712 115.849 13.5833 115.849 12.6818C115.849 11.7727 116.014 10.9792 116.344 10.3011C116.677 9.62311 117.139 9.09659 117.73 8.72159C118.325 8.34659 119.016 8.15909 119.804 8.15909C120.592 8.15909 121.281 8.34659 121.872 8.72159C122.467 9.09659 122.929 9.62311 123.258 10.3011C123.592 10.9792 123.758 11.7727 123.758 12.6818C123.758 13.5833 123.592 14.3712 123.258 15.0455C122.929 15.7197 122.467 16.2443 121.872 16.6193C121.281 16.9943 120.592 17.1818 119.804 17.1818ZM119.804 15.9773C120.402 15.9773 120.895 15.8239 121.281 15.517C121.667 15.2102 121.953 14.8068 122.139 14.3068C122.325 13.8068 122.417 13.2652 122.417 12.6818C122.417 12.0985 122.325 11.5549 122.139 11.0511C121.953 10.5473 121.667 10.1402 121.281 9.82955C120.895 9.51894 120.402 9.36364 119.804 9.36364C119.205 9.36364 118.713 9.51894 118.327 9.82955C117.94 10.1402 117.654 10.5473 117.469 11.0511C117.283 11.5549 117.19 12.0985 117.19 12.6818C117.19 13.2652 117.283 13.8068 117.469 14.3068C117.654 14.8068 117.94 15.2102 118.327 15.517C118.713 15.8239 119.205 15.9773 119.804 15.9773ZM125.709 20.2727V8.27273H127.005V9.65909H127.164C127.262 9.50758 127.399 9.31439 127.573 9.07955C127.751 8.84091 128.005 8.62879 128.334 8.44318C128.668 8.25379 129.118 8.15909 129.687 8.15909C130.421 8.15909 131.069 8.3428 131.63 8.71023C132.19 9.07765 132.628 9.59848 132.942 10.2727C133.257 10.947 133.414 11.7424 133.414 12.6591C133.414 13.5833 133.257 14.3845 132.942 15.0625C132.628 15.7367 132.192 16.2595 131.635 16.6307C131.079 16.9981 130.437 17.1818 129.709 17.1818C129.149 17.1818 128.7 17.089 128.363 16.9034C128.026 16.714 127.766 16.5 127.584 16.2614C127.402 16.0189 127.262 15.8182 127.164 15.6591H127.05V20.2727H125.709ZM127.027 12.6364C127.027 13.2955 127.124 13.8769 127.317 14.3807C127.51 14.8807 127.793 15.2727 128.164 15.5568C128.535 15.8371 128.99 15.9773 129.527 15.9773C130.088 15.9773 130.556 15.8295 130.931 15.5341C131.31 15.2348 131.594 14.8333 131.783 14.3295C131.976 13.822 132.073 13.2576 132.073 12.6364C132.073 12.0227 131.978 11.4697 131.789 10.9773C131.603 10.4811 131.321 10.089 130.942 9.80114C130.567 9.50947 130.096 9.36364 129.527 9.36364C128.982 9.36364 128.524 9.50189 128.152 9.77841C127.781 10.0511 127.501 10.4337 127.312 10.9261C127.122 11.4148 127.027 11.9848 127.027 12.6364ZM54.2273 39V30.2727H55.5682V34.0682H56.4545L59.5909 30.2727H61.3182L57.7955 34.4773L61.3636 39H59.6364L56.7727 35.3182H55.5682V39H54.2273ZM65.2932 39.2045C64.7402 39.2045 64.2383 39.1004 63.7875 38.892C63.3368 38.6799 62.9788 38.375 62.7137 37.9773C62.4485 37.5758 62.3159 37.0909 62.3159 36.5227C62.3159 36.0227 62.4144 35.6174 62.6114 35.3068C62.8084 34.9924 63.0716 34.7462 63.4012 34.5682C63.7307 34.3902 64.0943 34.2576 64.4921 34.1705C64.8936 34.0795 65.297 34.0076 65.7023 33.9545C66.2326 33.8864 66.6625 33.8352 66.9921 33.8011C67.3254 33.7633 67.5678 33.7008 67.7193 33.6136C67.8746 33.5265 67.9523 33.375 67.9523 33.1591V33.1136C67.9523 32.553 67.7989 32.1174 67.4921 31.8068C67.189 31.4962 66.7288 31.3409 66.1114 31.3409C65.4712 31.3409 64.9693 31.4811 64.6057 31.7614C64.2421 32.0417 63.9864 32.3409 63.8387 32.6591L62.5659 32.2045C62.7932 31.6742 63.0962 31.2614 63.475 30.9659C63.8576 30.6667 64.2743 30.4583 64.725 30.3409C65.1796 30.2197 65.6265 30.1591 66.0659 30.1591C66.3462 30.1591 66.6682 30.1932 67.0318 30.2614C67.3993 30.3258 67.7534 30.4602 68.0943 30.6648C68.439 30.8693 68.725 31.178 68.9523 31.5909C69.1796 32.0038 69.2932 32.5568 69.2932 33.25V39H67.9523V37.8182H67.8841C67.7932 38.0076 67.6417 38.2102 67.4296 38.4261C67.2174 38.642 66.9353 38.8258 66.583 38.9773C66.2307 39.1288 65.8008 39.2045 65.2932 39.2045ZM65.4978 38C66.0281 38 66.475 37.8958 66.8387 37.6875C67.2061 37.4792 67.4826 37.2102 67.6682 36.8807C67.8576 36.5511 67.9523 36.2045 67.9523 35.8409V34.6136C67.8955 34.6818 67.7705 34.7443 67.5773 34.8011C67.3879 34.8542 67.1682 34.9015 66.9182 34.9432C66.672 34.9811 66.4315 35.0152 66.1966 35.0455C65.9656 35.072 65.7781 35.0947 65.6341 35.1136C65.2856 35.1591 64.9599 35.233 64.6568 35.3352C64.3576 35.4337 64.1152 35.5833 63.9296 35.7841C63.7478 35.9811 63.6568 36.25 63.6568 36.5909C63.6568 37.0568 63.8292 37.4091 64.1739 37.6477C64.5224 37.8826 64.9637 38 65.4978 38ZM71.6446 42.2727V30.2727H72.9401V31.6591H73.0992C73.1977 31.5076 73.334 31.3144 73.5083 31.0795C73.6863 30.8409 73.9401 30.6288 74.2696 30.4432C74.603 30.2538 75.0537 30.1591 75.6219 30.1591C76.3568 30.1591 77.0045 30.3428 77.5651 30.7102C78.1257 31.0777 78.5632 31.5985 78.8776 32.2727C79.192 32.947 79.3492 33.7424 79.3492 34.6591C79.3492 35.5833 79.192 36.3845 78.8776 37.0625C78.5632 37.7367 78.1276 38.2595 77.5708 38.6307C77.014 38.9981 76.3719 39.1818 75.6446 39.1818C75.084 39.1818 74.6352 39.089 74.2981 38.9034C73.9609 38.714 73.7015 38.5 73.5196 38.2614C73.3378 38.0189 73.1977 37.8182 73.0992 37.6591H72.9856V42.2727H71.6446ZM72.9628 34.6364C72.9628 35.2955 73.0594 35.8769 73.2526 36.3807C73.4458 36.8807 73.728 37.2727 74.0992 37.5568C74.4704 37.8371 74.925 37.9773 75.4628 37.9773C76.0234 37.9773 76.4912 37.8295 76.8662 37.5341C77.245 37.2348 77.5291 36.8333 77.7185 36.3295C77.9117 35.822 78.0083 35.2576 78.0083 34.6364C78.0083 34.0227 77.9136 33.4697 77.7242 32.9773C77.5386 32.4811 77.2564 32.089 76.8776 31.8011C76.5026 31.5095 76.031 31.3636 75.4628 31.3636C74.9174 31.3636 74.459 31.5019 74.0878 31.7784C73.7166 32.0511 73.4363 32.4337 73.2469 32.9261C73.0575 33.4148 72.9628 33.9848 72.9628 34.6364ZM82.4577 33.4318H84.9577C85.9805 33.4318 86.7627 33.6913 87.3043 34.2102C87.846 34.7292 88.1168 35.3864 88.1168 36.1818C88.1168 36.7045 87.9956 37.1799 87.7532 37.608C87.5108 38.0322 87.1547 38.3712 86.685 38.625C86.2153 38.875 85.6396 39 84.9577 39H81.2986V30.2727H82.6396V37.75H84.9577C85.488 37.75 85.9236 37.6098 86.2646 37.3295C86.6055 37.0492 86.7759 36.6894 86.7759 36.25C86.7759 35.7879 86.6055 35.411 86.2646 35.1193C85.9236 34.8277 85.488 34.6818 84.9577 34.6818H82.4577V33.4318ZM93.7211 39.1818C92.8802 39.1818 92.1548 38.9962 91.545 38.625C90.9389 38.25 90.4711 37.7273 90.1416 37.0568C89.8158 36.3826 89.6529 35.5985 89.6529 34.7045C89.6529 33.8106 89.8158 33.0227 90.1416 32.3409C90.4711 31.6553 90.9294 31.1212 91.5166 30.7386C92.1075 30.3523 92.7969 30.1591 93.5848 30.1591C94.0393 30.1591 94.4882 30.2348 94.9313 30.3864C95.3745 30.5379 95.7779 30.7841 96.1416 31.125C96.5052 31.4621 96.795 31.9091 97.0109 32.4659C97.2268 33.0227 97.3348 33.7083 97.3348 34.5227V35.0909H90.6075V33.9318H95.9711C95.9711 33.4394 95.8726 33 95.6757 32.6136C95.4825 32.2273 95.206 31.9223 94.8461 31.6989C94.4901 31.4754 94.0696 31.3636 93.5848 31.3636C93.0507 31.3636 92.5885 31.4962 92.1984 31.7614C91.812 32.0227 91.5147 32.3636 91.3063 32.7841C91.098 33.2045 90.9938 33.6553 90.9938 34.1364V34.9091C90.9938 35.5682 91.1075 36.1269 91.3348 36.5852C91.5658 37.0398 91.8859 37.3864 92.295 37.625C92.7041 37.8598 93.1794 37.9773 93.7211 37.9773C94.0734 37.9773 94.3916 37.928 94.6757 37.8295C94.9635 37.7273 95.2116 37.5758 95.42 37.375C95.6283 37.1705 95.7893 36.9167 95.9029 36.6136L97.1984 36.9773C97.062 37.4167 96.8329 37.803 96.5109 38.1364C96.1889 38.4659 95.7912 38.7235 95.3177 38.9091C94.8442 39.0909 94.312 39.1818 93.7211 39.1818ZM99.2785 42.2727V30.2727H100.574V31.6591H100.733C100.832 31.5076 100.968 31.3144 101.142 31.0795C101.32 30.8409 101.574 30.6288 101.904 30.4432C102.237 30.2538 102.688 30.1591 103.256 30.1591C103.991 30.1591 104.638 30.3428 105.199 30.7102C105.76 31.0777 106.197 31.5985 106.511 32.2727C106.826 32.947 106.983 33.7424 106.983 34.6591C106.983 35.5833 106.826 36.3845 106.511 37.0625C106.197 37.7367 105.761 38.2595 105.205 38.6307C104.648 38.9981 104.006 39.1818 103.279 39.1818C102.718 39.1818 102.269 39.089 101.932 38.9034C101.595 38.714 101.335 38.5 101.154 38.2614C100.972 38.0189 100.832 37.8182 100.733 37.6591H100.619V42.2727H99.2785ZM100.597 34.6364C100.597 35.2955 100.693 35.8769 100.886 36.3807C101.08 36.8807 101.362 37.2727 101.733 37.5568C102.104 37.8371 102.559 37.9773 103.097 37.9773C103.657 37.9773 104.125 37.8295 104.5 37.5341C104.879 37.2348 105.163 36.8333 105.352 36.3295C105.546 35.822 105.642 35.2576 105.642 34.6364C105.642 34.0227 105.547 33.4697 105.358 32.9773C105.172 32.4811 104.89 32.089 104.511 31.8011C104.136 31.5095 103.665 31.3636 103.097 31.3636C102.551 31.3636 102.093 31.5019 101.722 31.7784C101.35 32.0511 101.07 32.4337 100.881 32.9261C100.691 33.4148 100.597 33.9848 100.597 34.6364ZM110.092 33.4318H112.592C113.614 33.4318 114.397 33.6913 114.938 34.2102C115.48 34.7292 115.751 35.3864 115.751 36.1818C115.751 36.7045 115.629 37.1799 115.387 37.608C115.145 38.0322 114.789 38.3712 114.319 38.625C113.849 38.875 113.273 39 112.592 39H108.933V30.2727H110.273V37.75H112.592C113.122 37.75 113.558 37.6098 113.898 37.3295C114.239 37.0492 114.41 36.6894 114.41 36.25C114.41 35.7879 114.239 35.411 113.898 35.1193C113.558 34.8277 113.122 34.6818 112.592 34.6818H110.092V33.4318ZM117.137 39V30.2727H118.478V39H117.137Z" fill="white"/>
<defs>
<clipPath id="clip0_210_2393">
<rect width="41" height="42" fill="white" transform="translate(0 1)"/>
</clipPath>
</defs>
</svg>
