<svg width="216" height="189" viewBox="0 0 216 189" fill="none" xmlns="http://www.w3.org/2000/svg">
<path fill-rule="evenodd" clip-rule="evenodd" d="M191 56.3623V92.9323C191 97.3779 188.639 101.49 184.799 103.73L147.299 125.605C143.407 127.875 138.594 127.875 134.702 125.605L97.202 103.73C93.3617 101.49 91.0004 97.3779 91.0004 92.9323V56.3623L75.2551 47.1773C71.1207 44.7656 71.1207 38.7918 75.2551 36.38L134.702 1.70273C138.594 -0.567578 143.407 -0.567578 147.299 1.70273L212.9 39.9699C214.82 41.09 216 43.1456 216 45.3685V82.4035C216 84.1298 214.601 85.5285 212.875 85.5285C211.15 85.5285 209.75 84.1298 209.75 82.4035V45.4245L191 56.3623ZM97.2504 60.0079V92.9323C97.2504 95.1554 98.4311 97.2111 100.351 98.3311L137.851 120.206C139.797 121.341 142.204 121.341 144.15 120.206L181.65 98.3311C183.57 97.2111 184.75 95.1554 184.75 92.9323V60.0079L147.299 81.8548C143.407 84.1248 138.594 84.1248 134.702 81.8548L97.2504 60.0079ZM203.597 41.7787L144.15 7.10136C142.204 5.96617 139.797 5.96617 137.851 7.10136L78.4043 41.7787L137.851 76.456C139.797 77.591 142.204 77.591 144.15 76.456L203.597 41.7787Z" fill="#C7C7D1"/>
<path fill-rule="evenodd" clip-rule="evenodd" d="M56.25 163.141H21.875C14.9714 163.141 9.375 157.544 9.375 150.641V75.6406C9.375 68.7371 14.9714 63.1406 21.875 63.1406H56.25C64.2075 63.1406 71.1725 67.3893 75 73.7419C78.8275 67.3893 85.7925 63.1406 93.75 63.1406H128.125C135.029 63.1406 140.625 68.7371 140.625 75.6406V150.641C140.625 157.544 135.029 163.141 128.125 163.141H93.75C87.3975 163.141 81.9306 166.931 79.4875 172.374C79.3856 172.603 79.2694 172.824 79.1419 173.039C78.2462 174.537 76.75 175.641 75 175.641C73 175.641 71.3312 174.199 70.5125 172.374C68.0694 166.931 62.6025 163.141 56.25 163.141ZM15.625 75.6406C15.625 72.1889 18.4233 69.3906 21.875 69.3906H56.25C64.8794 69.3906 71.875 76.3862 71.875 85.0156V163.456C67.9044 159.404 62.3709 156.891 56.25 156.891H21.875C18.4233 156.891 15.625 154.092 15.625 150.641V75.6406ZM93.75 69.3906C85.1206 69.3906 78.125 76.3862 78.125 85.0156V163.456C82.0956 159.404 87.6294 156.891 93.75 156.891H128.125C131.577 156.891 134.375 154.092 134.375 150.641V75.6406C134.375 72.1889 131.577 69.3906 128.125 69.3906H93.75Z" fill="#1362FF"/>
</svg>
