<svg width="22" height="22" viewBox="0 0 22 22" fill="none" xmlns="http://www.w3.org/2000/svg">
<path d="M10.2761 18.3332C10.2761 18.7015 10.5933 19 10.9844 19C11.3756 19 11.6928 18.7015 11.6928 18.3333V11.6666H18.776C19.1672 11.6666 19.4844 11.3681 19.4844 10.9999C19.4844 10.6317 19.1672 10.3333 18.776 10.3333H11.6928V3.66667C11.6928 3.29848 11.3756 3 10.9844 3C10.5933 3 10.2761 3.29847 10.2761 3.66667V10.3333H3.19271C2.80151 10.3333 2.48438 10.6317 2.48438 10.9999C2.48438 11.3681 2.80151 11.6666 3.19271 11.6666H10.2761V18.3332Z" fill="#1362FF"/>
</svg>
