<svg width="134" height="134" viewBox="0 0 134 134" fill="none" xmlns="http://www.w3.org/2000/svg">
<rect x="4.89844" y="121.713" width="89.2216" height="70.887" rx="6" transform="rotate(-90 4.89844 121.713)" fill="#1362FF"/>
<g filter="url(#filter0_bi_7154_96913)">
<path d="M101.853 43.5746H76.5495C76.3839 43.5746 76.2495 43.7089 76.2495 43.8746V53.0523C76.2495 59.7714 70.8088 65.2381 64.1216 65.2381C57.4343 65.2381 51.9936 59.7714 51.9936 53.0523V33.0036C51.9936 32.7701 51.7384 32.6261 51.5385 32.7468L41.0615 39.0726C37.8106 41.019 35.8229 44.5562 35.8229 48.3473V56.1799C35.8229 56.2868 35.766 56.3857 35.6735 56.4394L22.3474 64.1718C19.7702 65.6612 18.8774 68.9784 20.3766 71.5679L33.8521 95.0253C35.3344 97.6148 38.6359 98.4949 41.2131 97.0055L58.5605 86.942C58.6062 86.9155 58.6581 86.9015 58.711 86.9015H81.6398C87.4857 86.9015 92.2571 82.2063 92.4161 76.3706C92.4206 76.2049 92.5545 76.0698 92.7202 76.0698H95.1153C98.0968 76.0698 100.506 73.6496 100.506 70.6539V60.1222C100.506 59.9565 100.64 59.8222 100.806 59.8222H101.853C104.093 59.8222 105.896 58.0113 105.896 55.7603V47.6365C105.896 45.3855 104.093 43.5746 101.853 43.5746ZM126.732 37.2448L113.257 13.7873C111.774 11.1978 108.473 10.3177 105.896 11.8071L88.5484 21.8706C88.5027 21.8971 88.4507 21.9111 88.3979 21.9111H71.2636C69.2423 21.9111 67.2715 22.4865 65.5533 23.5528L59.9104 27.09C58.3271 28.0716 57.3838 29.8149 57.3838 31.6766V53.0523C57.3838 56.7927 60.3989 59.8222 64.1216 59.8222C67.8442 59.8222 70.8593 56.7927 70.8593 53.0523V38.4587C70.8593 38.293 70.9936 38.1587 71.1593 38.1587H101.853C107.058 38.1587 111.286 42.4068 111.286 47.6365V51.9391C111.286 52.1703 111.537 52.3146 111.737 52.1985L124.761 44.6408C127.339 43.1345 128.215 39.8342 126.732 37.2448Z" fill="#070707" fill-opacity="0.2"/>
<path d="M41.1908 39.2866L41.19 39.2871C38.0151 41.1879 36.0729 44.6433 36.0729 48.3473V56.1799C36.0729 56.3759 35.9685 56.5572 35.799 56.6556L22.4729 64.388L22.4725 64.3883C20.0148 65.8086 19.1631 68.9728 20.5929 71.4426L20.5934 71.4433L34.0689 94.9008L34.0691 94.9011C35.4822 97.3698 38.6299 98.2094 41.0877 96.7893L41.1908 39.2866ZM41.1908 39.2866L51.6677 32.9608C51.701 32.9407 51.7436 32.9647 51.7436 33.0036V53.0523C51.7436 59.9084 57.2951 65.4881 64.1216 65.4881C70.948 65.4881 76.4995 59.9084 76.4995 53.0523V43.8746C76.4995 43.847 76.5219 43.8246 76.5495 43.8246H101.853C103.954 43.8246 105.646 45.5225 105.646 47.6365V55.7603C105.646 57.8743 103.954 59.5722 101.853 59.5722H100.806C100.502 59.5722 100.256 59.8184 100.256 60.1222V70.6539C100.256 73.5126 97.9576 75.8198 95.1153 75.8198H92.7202C92.4139 75.8198 92.1742 76.068 92.1662 76.3638C92.0108 82.0656 87.3488 86.6515 81.6398 86.6515H58.711C58.6141 86.6515 58.5189 86.6772 58.435 86.7258L41.0881 96.7891L41.1908 39.2866ZM113.04 13.9115L113.04 13.9118L126.515 37.369C127.93 39.8395 127.094 42.9876 124.636 44.4246C124.636 44.4247 124.636 44.4249 124.635 44.425L111.611 51.9823C111.578 52.0017 111.536 51.9776 111.536 51.9391V47.6365C111.536 42.2698 107.197 37.9087 101.853 37.9087H71.1593C70.8556 37.9087 70.6093 38.1549 70.6093 38.4587V53.0523C70.6093 56.6557 67.705 59.5722 64.1216 59.5722C60.5381 59.5722 57.6338 56.6557 57.6338 53.0523V31.6766C57.6338 29.8989 58.5344 28.2372 60.0422 27.3025L60.0432 27.3018L65.6852 23.7652C65.6854 23.7651 65.6856 23.7649 65.6858 23.7648C67.3652 22.7228 69.2902 22.1611 71.2636 22.1611H88.3979C88.4948 22.1611 88.59 22.1355 88.6739 22.0868L106.021 12.0236C108.479 10.6032 111.627 11.4427 113.04 13.9115Z" stroke="white" stroke-opacity="0.14" stroke-width="0.5"/>
</g>
<rect x="22.0625" y="58.8652" width="45.7212" height="8.87212" rx="2" transform="rotate(60.2874 22.0625 58.8652)" fill="white"/>
<defs>
<filter id="filter0_bi_7154_96913" x="9.64844" y="1.08301" width="127.805" height="106.646" filterUnits="userSpaceOnUse" color-interpolation-filters="sRGB">
<feFlood flood-opacity="0" result="BackgroundImageFix"/>
<feGaussianBlur in="BackgroundImageFix" stdDeviation="5"/>
<feComposite in2="SourceAlpha" operator="in" result="effect1_backgroundBlur_7154_96913"/>
<feBlend mode="normal" in="SourceGraphic" in2="effect1_backgroundBlur_7154_96913" result="shape"/>
<feColorMatrix in="SourceAlpha" type="matrix" values="0 0 0 0 0 0 0 0 0 0 0 0 0 0 0 0 0 0 127 0" result="hardAlpha"/>
<feOffset dx="3" dy="-3"/>
<feGaussianBlur stdDeviation="4"/>
<feComposite in2="hardAlpha" operator="arithmetic" k2="-1" k3="1"/>
<feColorMatrix type="matrix" values="0 0 0 0 1 0 0 0 0 1 0 0 0 0 1 0 0 0 0.35 0"/>
<feBlend mode="normal" in2="shape" result="effect2_innerShadow_7154_96913"/>
</filter>
</defs>
</svg>
