<svg width="22" height="22" viewBox="0 0 22 22" fill="none" xmlns="http://www.w3.org/2000/svg">
<path fill-rule="evenodd" clip-rule="evenodd" d="M8.25 4.8125C9.40381 4.8125 10.3767 5.58773 10.676 6.64576H18.5625C18.9422 6.64576 19.25 6.95356 19.25 7.33326C19.25 7.71295 18.9422 8.02076 18.5625 8.02076H10.676C10.3768 9.07886 9.4039 9.85417 8.25 9.85417C7.09609 9.85417 6.12326 9.07886 5.82403 8.02076H3.4375C3.05781 8.02076 2.75 7.71295 2.75 7.33326C2.75 6.95356 3.05781 6.64576 3.4375 6.64576H5.82408C6.12336 5.58773 7.09615 4.8125 8.25 4.8125ZM9.39583 7.33333C9.39583 6.7005 8.88282 6.1875 8.25 6.1875C7.61717 6.1875 7.10417 6.7005 7.10417 7.33333C7.10417 7.96616 7.61717 8.47917 8.25 8.47917C8.88282 8.47917 9.39583 7.96616 9.39583 7.33333Z" fill="#7A7A7A"/>
<path fill-rule="evenodd" clip-rule="evenodd" d="M13.75 12.1455C14.9038 12.1455 15.8766 12.9207 16.1759 13.9787H18.5625C18.9422 13.9787 19.25 14.2866 19.25 14.6662C19.25 15.0459 18.9422 15.3537 18.5625 15.3537H16.1759C15.8767 16.4119 14.9039 17.1872 13.75 17.1872C12.5961 17.1872 11.6232 16.4119 11.324 15.3537H3.4375C3.05781 15.3537 2.75 15.0459 2.75 14.6662C2.75 14.2866 3.05781 13.9787 3.4375 13.9787H11.324C11.6233 12.9207 12.5962 12.1455 13.75 12.1455ZM14.8958 14.6663C14.8958 14.0335 14.3828 13.5205 13.75 13.5205C13.1171 13.5205 12.6041 14.0335 12.6041 14.6663C12.6041 15.2992 13.1171 15.8122 13.75 15.8122C14.3828 15.8122 14.8958 15.2992 14.8958 14.6663Z" fill="#7A7A7A"/>
</svg>
