<svg width="20" height="20" viewBox="0 0 20 20" fill="none" xmlns="http://www.w3.org/2000/svg">
<g clip-path="url(#clip0_381_909)">
<path d="M14.1168 5.60131L14.9703 4.74776L13.7632 4.74776L6.52208 4.74774C6.52207 4.74774 6.52207 4.74774 6.52206 4.74774C6.45419 4.74773 6.39882 4.69349 6.39711 4.62619L6.39707 4.62454L6.39706 4.62386L6.39706 4.62267C6.39706 4.60456 6.40063 4.58853 6.40666 4.57428L6.40668 4.57423C6.42268 4.5364 6.45703 4.50833 6.49629 4.5003L6.49637 4.50028C6.50349 4.49882 6.51079 4.49797 6.51826 4.49779L6.52008 4.49774C6.52008 4.49774 6.52084 4.49772 6.52275 4.49772C6.5229 4.49772 6.52304 4.49772 6.5232 4.49772L15.2721 4.49771C15.3411 4.49771 15.3971 4.55369 15.3971 4.62274L15.3971 13.3727C15.3971 13.4418 15.3411 13.4977 15.2721 13.4977C15.203 13.4977 15.147 13.4418 15.147 13.3727L15.1471 6.13165L15.1471 4.92453L14.2935 5.77809L4.60657 15.4651C4.57053 15.5011 4.51705 15.5113 4.47089 15.4925L4.47078 15.4925C4.45656 15.4867 4.44265 15.4779 4.42979 15.4651C4.38743 15.4227 4.38148 15.3566 4.41336 15.3083L4.41358 15.3079C4.41731 15.3023 4.42176 15.2966 4.42708 15.291L4.42709 15.291L4.4271 15.291L4.42711 15.291L4.42712 15.2909L4.42714 15.2909L4.42715 15.2909L4.42716 15.2909L4.42717 15.2909L4.42718 15.2909L4.42719 15.2909L4.4272 15.2909L4.42721 15.2909L4.42722 15.2908L4.42724 15.2908L4.42725 15.2908L4.42726 15.2908L4.42727 15.2908L4.42728 15.2908L4.42729 15.2908L4.4273 15.2908L4.42731 15.2908L4.42733 15.2907L4.42734 15.2907L4.42735 15.2907L4.42736 15.2907L4.42737 15.2907L4.42738 15.2907L4.42739 15.2907L4.4274 15.2907L4.42741 15.2907L4.42743 15.2906L4.42744 15.2906L4.42745 15.2906L4.42746 15.2906L4.42747 15.2906L4.42748 15.2906L4.42749 15.2906L4.4275 15.2906L4.42752 15.2906L4.42753 15.2905L4.42754 15.2905L4.42755 15.2905L4.42756 15.2905L4.42757 15.2905L4.42758 15.2905L4.42759 15.2905L4.4276 15.2905L4.42762 15.2905L4.42763 15.2904L4.42764 15.2904L4.42765 15.2904L4.42766 15.2904L4.42767 15.2904L4.42768 15.2904L4.42769 15.2904L4.4277 15.2904L4.42772 15.2904L4.42773 15.2903L4.42774 15.2903L4.42775 15.2903L4.42776 15.2903L4.42777 15.2903L4.42778 15.2903L4.42779 15.2903L4.42781 15.2903L4.42782 15.2903L4.42783 15.2902L4.42784 15.2902L4.42785 15.2902L4.42786 15.2902L4.42787 15.2902L4.42788 15.2902L4.42789 15.2902L4.42791 15.2902L4.42792 15.2902L4.42793 15.2901L4.42794 15.2901L4.42795 15.2901L4.42796 15.2901L4.42797 15.2901L4.42798 15.2901L4.428 15.2901L4.42801 15.2901L4.42802 15.2901L4.42803 15.29L4.42804 15.29L4.42805 15.29L4.42806 15.29L4.42807 15.29L4.42808 15.29L4.4281 15.29L4.42811 15.29L4.42812 15.29L4.42813 15.2899L4.42814 15.2899L4.42815 15.2899L4.42816 15.2899L4.42817 15.2899L4.42819 15.2899L4.4282 15.2899L4.42821 15.2899L4.42822 15.2899L4.42823 15.2898L4.42824 15.2898L4.42825 15.2898L4.42826 15.2898L4.42827 15.2898L4.42829 15.2898L4.4283 15.2898L4.42831 15.2898L4.42832 15.2897L4.42833 15.2897L4.42834 15.2897L4.42835 15.2897L4.42836 15.2897L4.42837 15.2897L4.42839 15.2897L4.4284 15.2897L4.42841 15.2897L4.42842 15.2896L4.42843 15.2896L4.42844 15.2896L4.42845 15.2896L4.42846 15.2896L4.42848 15.2896L4.42849 15.2896L4.4285 15.2896L4.42851 15.2896L4.42852 15.2895L4.42853 15.2895L4.42854 15.2895L4.42855 15.2895L4.42856 15.2895L4.42858 15.2895L4.42859 15.2895L4.4286 15.2895L4.42861 15.2895L4.42862 15.2894L4.42863 15.2894L4.42864 15.2894L4.42865 15.2894L4.42867 15.2894L4.42868 15.2894L4.42869 15.2894L4.4287 15.2894L4.42871 15.2894L4.42872 15.2893L4.42873 15.2893L4.42874 15.2893L4.42875 15.2893L4.42877 15.2893L4.42878 15.2893L4.42879 15.2893L4.4288 15.2893L4.42881 15.2893L4.42882 15.2892L4.42883 15.2892L4.42884 15.2892L4.42886 15.2892L4.42887 15.2892L4.42888 15.2892L4.42889 15.2892L4.4289 15.2892L4.42891 15.2892L4.42892 15.2891L4.42893 15.2891L4.42894 15.2891L4.42896 15.2891L4.42897 15.2891L4.42898 15.2891L4.42899 15.2891L4.429 15.2891L4.42901 15.2891L4.42902 15.289L4.42903 15.289L4.42905 15.289L4.42906 15.289L4.42907 15.289L4.42908 15.289L4.42909 15.289L4.4291 15.289L4.42911 15.289L4.42912 15.2889L4.42913 15.2889L4.42915 15.2889L4.42916 15.2889L4.42917 15.2889L4.42918 15.2889L4.42919 15.2889L4.4292 15.2889L4.42921 15.2889L4.42922 15.2888L4.42924 15.2888L4.42925 15.2888L4.42926 15.2888L4.42927 15.2888L4.42928 15.2888L4.42929 15.2888L4.4293 15.2888L4.42931 15.2888L4.42932 15.2887L4.42934 15.2887L4.42935 15.2887L4.42936 15.2887L4.42937 15.2887L4.42938 15.2887L4.42939 15.2887L4.4294 15.2887L4.42941 15.2887L4.42943 15.2886L4.42944 15.2886L4.42945 15.2886L4.42946 15.2886L4.42947 15.2886L4.42948 15.2886L4.42949 15.2886L4.4295 15.2886L4.42952 15.2886L4.42953 15.2885L4.42954 15.2885L4.42955 15.2885L4.42956 15.2885L4.42957 15.2885L4.42958 15.2885L4.42959 15.2885L4.4296 15.2885L4.42962 15.2885L4.42963 15.2884L4.42964 15.2884L4.42965 15.2884L4.42966 15.2884L4.42967 15.2884L4.42968 15.2884L4.42969 15.2884L4.42971 15.2884L4.42972 15.2884L4.42973 15.2883L4.42974 15.2883L4.42975 15.2883L4.42976 15.2883L4.42977 15.2883L4.42978 15.2883L4.42979 15.2883L14.1168 5.60131Z" fill="#F0F0F6" stroke="#F0F0F6"/>
</g>
<defs>
<clipPath id="clip0_381_909">
<rect width="20" height="20" fill="white"/>
</clipPath>
</defs>
</svg>
