<svg width="22" height="22" viewBox="0 0 22 22" fill="none" xmlns="http://www.w3.org/2000/svg">
<path fill-rule="evenodd" clip-rule="evenodd" d="M9.62179 1.82812C5.31853 1.82812 1.83008 5.31657 1.83008 9.61979C1.83008 13.923 5.31853 17.4115 9.62179 17.4115C11.4427 17.4115 13.1188 16.7859 14.445 15.7395L18.867 20.1615C19.2251 20.5194 19.8054 20.5194 20.1635 20.1615C20.5214 19.8035 20.5214 19.2231 20.1635 18.8651L15.7414 14.4431C16.7879 13.1168 17.4135 11.4408 17.4135 9.61979C17.4135 5.31657 13.925 1.82812 9.62179 1.82812ZM3.66341 9.61979C3.66341 6.3291 6.33105 3.66146 9.62179 3.66146C12.9124 3.66146 15.5801 6.3291 15.5801 9.61979C15.5801 11.2654 14.9142 12.7537 13.8349 13.833C12.7557 14.9123 11.2674 15.5781 9.62179 15.5781C6.33105 15.5781 3.66341 12.9105 3.66341 9.61979Z" fill="#404041"/>
</svg>
