<svg width="14" height="13" viewBox="0 0 14 13" fill="none" xmlns="http://www.w3.org/2000/svg">
<path d="M7.45672 1.06004C7.18345 0.735741 6.62751 0.789791 6.44847 1.22219L5.0052 4.70779L1.25902 5.00946C0.727902 5.05223 0.512547 5.71801 0.917201 6.06623L3.77139 8.52211L2.89939 12.1941C2.77576 12.7147 3.33958 13.1262 3.79428 12.8472L7.00153 10.8794L10.2088 12.8472C10.6635 13.1262 11.2273 12.7147 11.1037 12.1941L10.2317 8.52211L13.0859 6.06623C13.1365 6.02266 13.1774 5.97417 13.2092 5.9226C13.4318 5.56131 13.2088 5.04689 12.744 5.00946L8.99785 4.70779L7.5546 1.22219C7.52902 1.16042 7.49578 1.10637 7.45672 1.06004Z" fill="#404041"/>
</svg>
