<svg width="22" height="22" viewBox="0 0 22 22" fill="none" xmlns="http://www.w3.org/2000/svg">
<mask id="mask0_2878_22462" style="mask-type:luminance" maskUnits="userSpaceOnUse" x="0" y="0" width="22" height="22">
<path d="M22 0H0V22H22V0Z" fill="white"/>
</mask>
<g mask="url(#mask0_2878_22462)">
<path d="M9.85547 6.1875C9.85547 8.08598 8.31645 9.625 6.41797 9.625C4.51949 9.625 2.98047 8.08598 2.98047 6.1875C2.98047 4.28902 4.51949 2.75 6.41797 2.75C8.31645 2.75 9.85547 4.28902 9.85547 6.1875Z" fill="#7A7A7A"/>
<path d="M15.582 9.625C17.4805 9.625 19.0195 8.08598 19.0195 6.1875C19.0195 4.28902 17.4805 2.75 15.582 2.75C13.6835 2.75 12.1445 4.28902 12.1445 6.1875C12.1445 8.08598 13.6835 9.625 15.582 9.625Z" fill="#7A7A7A"/>
<path d="M14.1756 18.3333C14.4876 17.7941 14.6662 17.1679 14.6662 16.5V14.8196C14.6662 14.0533 14.427 13.2094 13.8249 12.5234C13.5042 12.1579 13.1566 11.8162 12.7852 11.5014C13.6563 11.1772 14.5989 11 15.5828 11C17.9867 11 20.1436 12.0575 21.6137 13.7327C21.8756 14.0312 21.9995 14.4223 21.9995 14.8196V16.5C21.9995 17.5125 21.1787 18.3333 20.1662 18.3333H14.1756Z" fill="#7A7A7A"/>
<path d="M12.7961 16.8695C12.6252 17.7049 11.886 18.3333 11 18.3333H1.83333C0.820812 18.3333 0 17.5125 0 16.5V14.8196C0 14.4223 0.123838 14.0312 0.385832 13.7327C1.85589 12.0575 4.01278 11 6.41667 11C8.1208 11 9.70081 11.5315 11 12.4377C11.5335 12.8098 12.0196 13.2451 12.4475 13.7327C12.7095 14.0312 12.8333 14.4223 12.8333 14.8196V16.5C12.8333 16.6266 12.8205 16.7502 12.7961 16.8695Z" fill="#7A7A7A"/>
</g>
</svg>
