<svg width="22" height="22" viewBox="0 0 22 22" fill="none" xmlns="http://www.w3.org/2000/svg">
<path d="M11.0002 10.0833C13.0252 10.0833 14.6668 8.44171 14.6668 6.41667C14.6668 4.39162 13.0252 2.75 11.0002 2.75C8.97512 2.75 7.3335 4.39162 7.3335 6.41667C7.3335 8.44171 8.97512 10.0833 11.0002 10.0833Z" fill="white"/>
<path d="M17.9495 15.1057C18.2087 15.4067 18.3332 15.7972 18.3332 16.1943V17.4166C18.3332 18.4292 17.5124 19.25 16.4998 19.25H5.49984C4.48731 19.25 3.6665 18.4292 3.6665 17.4166V16.1943C3.6665 15.7972 3.79095 15.4067 4.0501 15.1057C5.73116 13.153 8.22111 11.9166 10.9998 11.9166C13.7785 11.9166 16.2686 13.153 17.9495 15.1057Z" fill="white"/>
</svg>
