<svg width="21" height="20" viewBox="0 0 21 20" fill="none" xmlns="http://www.w3.org/2000/svg">
<path fill-rule="evenodd" clip-rule="evenodd" d="M10.5003 1.66699C5.89783 1.66699 2.16699 5.39783 2.16699 10.0003C2.16699 11.5753 2.60449 13.0503 3.36533 14.307L2.62199 16.8337C2.57931 16.9787 2.5765 17.1326 2.61386 17.2791C2.65122 17.4257 2.72737 17.5594 2.83429 17.6664C2.94122 17.7733 3.07498 17.8494 3.22151 17.8868C3.36804 17.9241 3.52192 17.9213 3.66699 17.8787L6.19366 17.1353C7.49256 17.9212 8.98218 18.3357 10.5003 18.3337C15.1028 18.3337 18.8337 14.6028 18.8337 10.0003C18.8337 5.39783 15.1028 1.66699 10.5003 1.66699ZM8.61533 11.8862C10.3012 13.5712 11.9103 13.7937 12.4787 13.8145C13.3428 13.8462 14.1845 13.1862 14.512 12.4203C14.5533 12.3251 14.5683 12.2204 14.5554 12.1174C14.5425 12.0143 14.5022 11.9166 14.4387 11.8345C13.982 11.2512 13.3645 10.832 12.7612 10.4153C12.6352 10.3282 12.4804 10.2933 12.3292 10.3178C12.1781 10.3424 12.0423 10.4245 11.9503 10.547L11.4503 11.3095C11.424 11.3505 11.3831 11.3799 11.3358 11.3917C11.2886 11.4034 11.2386 11.3967 11.1962 11.3728C10.857 11.1787 10.3628 10.8487 10.0078 10.4937C9.65283 10.1387 9.34283 9.66699 9.16866 9.34949C9.14706 9.30915 9.14082 9.26236 9.15109 9.21777C9.16135 9.17318 9.18743 9.13383 9.22449 9.10699L9.99449 8.53533C10.1044 8.43978 10.1753 8.30716 10.1937 8.16271C10.2122 8.01826 10.1769 7.87208 10.0945 7.75199C9.72116 7.20533 9.28616 6.51033 8.65533 6.04949C8.57391 5.9905 8.47854 5.95371 8.3786 5.94275C8.27866 5.93179 8.17759 5.94704 8.08533 5.98699C7.31866 6.31533 6.65533 7.15699 6.68699 8.02283C6.70783 8.59116 6.93033 10.2003 8.61533 11.8862Z" fill="#1E9238"/>
</svg>
