<svg width="85" height="70" viewBox="0 0 85 70" fill="none" xmlns="http://www.w3.org/2000/svg">
    <path fill-rule="evenodd" clip-rule="evenodd"
          d="M31.8065 1.60305C31.8065 0.717712 32.543 0 33.4516 0H48.8064C49.715 0 50.4516 0.717712 50.4516 1.60305C50.4516 2.4884 49.715 3.20611 48.8064 3.20611H42.7742V42.2137H83.3548C84.2634 42.2137 85 42.9315 85 43.8168C85 44.7021 84.2634 45.4198 83.3548 45.4198H42.7742V66.7939H52.6452C53.5538 66.7939 54.2903 67.5116 54.2903 68.3969C54.2903 69.2823 53.5538 70 52.6452 70H27.9677C27.0592 70 26.3226 69.2823 26.3226 68.3969C26.3226 67.5116 27.0592 66.7939 27.9677 66.7939H39.4839V45.4198H1.64516C0.736564 45.4198 0 44.7021 0 43.8168C0 42.9315 0.736564 42.2137 1.64516 42.2137H39.4839V3.20611H33.4516C32.543 3.20611 31.8065 2.4884 31.8065 1.60305Z"
          fill="#1E81CE"/>
    <path fill-rule="evenodd" clip-rule="evenodd"
          d="M11.5362 24.046L6.13803 34.733H26.2743L20.8761 24.046H11.5362ZM10.8536 20.8398C10.0178 20.8398 9.25462 21.3027 8.88553 22.0334L2.40771 34.8578C1.69027 36.2781 2.75115 37.9391 4.37579 37.9391H28.0365C29.6611 37.9391 30.722 36.2781 30.0046 34.8578L23.5268 22.0334C23.1577 21.3027 22.3945 20.8398 21.5587 20.8398H10.8536Z"
          fill="#1E81CE"/>
    <path fill-rule="evenodd" clip-rule="evenodd"
          d="M16.2062 16.5643C18.6291 16.5643 20.5933 14.6504 20.5933 12.2895C20.5933 9.9286 18.6291 8.0147 16.2062 8.0147C13.7832 8.0147 11.8191 9.9286 11.8191 12.2895C11.8191 14.6504 13.7832 16.5643 16.2062 16.5643ZM16.2062 19.7704C20.4463 19.7704 23.8836 16.4211 23.8836 12.2895C23.8836 8.15791 20.4463 4.80859 16.2062 4.80859C11.966 4.80859 8.52875 8.15791 8.52875 12.2895C8.52875 16.4211 11.966 19.7704 16.2062 19.7704Z"
          fill="#1E81CE"/>
    <path fill-rule="evenodd" clip-rule="evenodd"
          d="M58.9164 12.8233V14.8516H72.0777V12.8233H58.9164ZM75.368 14.8516V12.2889C75.368 10.8134 74.1404 9.61719 72.6261 9.61719H58.3681C56.8537 9.61719 55.6261 10.8134 55.6261 12.2889V14.8516H50.6906C49.1763 14.8516 47.9487 16.0478 47.9487 17.5234V35.8004C47.9487 37.276 49.1763 38.4721 50.6906 38.4721H80.3035C81.8179 38.4721 83.0455 37.276 83.0455 35.8004V17.5234C83.0455 16.0478 81.8179 14.8516 80.3035 14.8516H75.368ZM51.239 18.0578V19.4917L65.4971 24.1847L79.7551 19.4917V18.0578H51.239ZM79.7551 22.8758L66.3746 27.2799C65.8054 27.4673 65.1888 27.4673 64.6196 27.2799L51.239 22.8758V35.266H79.7551V22.8758Z"
          fill="#1E81CE"/>
</svg>
