<svg width="40" height="40" viewBox="0 0 40 40" fill="none" xmlns="http://www.w3.org/2000/svg">
    <path d="M38.25 20C38.25 30.0792 30.0792 38.25 20 38.25C9.9208 38.25 1.75 30.0792 1.75 20C1.75 9.9208 9.9208 1.75 20 1.75C30.0792 1.75 38.25 9.9208 38.25 20Z"
          stroke="white" stroke-width="3.5"/>
    <path d="M32.7585 26.5616C32.7585 26.4658 32.655 26.4658 32.655 26.3699C32.2413 25.6027 31.3102 24.6438 30.0689 23.589C29.4482 23.1096 29.1378 22.726 28.9309 22.5342C28.6206 22.1507 28.6206 21.863 28.724 21.4795C28.8275 21.1918 29.2413 20.7123 29.9654 19.8493C30.3792 19.3699 30.5861 19.0822 30.8964 18.7945C32.4481 16.8767 33.1723 15.6301 32.9654 15.0548L32.862 14.9589C32.7585 14.863 32.655 14.7671 32.4481 14.7671C32.2412 14.6712 31.9309 14.6712 31.6206 14.7671H27.6896C27.5861 14.7671 27.5861 14.7671 27.3792 14.7671C27.2758 14.7671 27.1723 14.7671 27.1723 14.7671H27.0689H26.9654L26.862 14.863C26.7585 14.9589 26.7585 14.9589 26.7585 15.0548C26.3447 16.1096 25.8275 16.9726 25.3102 17.9315C24.9999 18.411 24.6896 18.8904 24.3792 19.274C24.0689 19.6575 23.862 19.9452 23.6551 20.137C23.4482 20.3288 23.2413 20.4247 23.1378 20.6164C23.0344 20.7123 22.8275 20.8082 22.8275 20.7123C22.7241 20.7123 22.6206 20.7123 22.6206 20.6164C22.5172 20.5205 22.4137 20.4247 22.3103 20.3288C22.2068 20.2329 22.2068 20.0411 22.1034 19.8493C22.1034 19.6575 22.1034 19.4657 22.1034 19.3699C22.1034 19.274 22.1034 18.9863 22.1034 18.7945C22.1034 18.5069 22.1034 18.3151 22.1034 18.2192C22.1034 17.9315 22.1034 17.548 22.1034 17.1644C22.1034 16.7808 22.1034 16.4931 22.1034 16.3014C22.1034 16.1096 22.1034 15.8219 22.1034 15.6301C22.1034 15.3425 22.1034 15.1507 22.1034 15.0548C22.1034 14.9589 21.9999 14.7671 21.9999 14.6712C21.8965 14.5753 21.793 14.4794 21.6896 14.3836C21.5861 14.2877 21.3792 14.2877 21.2758 14.1918C20.7586 14.0959 20.1379 14 19.4137 14C17.7586 14 16.6207 14.0959 16.2069 14.2877C16 14.3836 15.7931 14.4794 15.6896 14.6712C15.4827 14.863 15.4827 14.9589 15.5862 14.9589C16.1034 15.0548 16.5172 15.2466 16.7241 15.5342L16.8276 15.726C16.931 15.8219 16.931 16.0137 17.0344 16.3014C17.1379 16.589 17.1379 16.8767 17.1379 17.2603C17.1379 17.8356 17.1379 18.411 17.1379 18.7945C17.1379 19.274 17.0344 19.5616 17.0344 19.8493C17.0344 20.137 16.931 20.3288 16.8276 20.4247C16.7241 20.6164 16.7241 20.7123 16.6206 20.7123C16.6206 20.7123 16.6206 20.8082 16.5172 20.8082C16.4137 20.8082 16.3103 20.9041 16.1034 20.9041C16 20.9041 15.7931 20.8082 15.6896 20.7123C15.4827 20.6164 15.2758 20.4247 15.1724 20.2329C14.9655 20.0411 14.7586 19.7534 14.5517 19.3699C14.3448 18.9863 14.0344 18.6027 13.8275 18.0274L13.6207 17.6438C13.5172 17.4521 13.3103 17.0685 13.1034 16.589C12.8965 16.1096 12.6896 15.726 12.4827 15.2466C12.3793 15.0548 12.2759 14.9589 12.1724 14.863H12.0689C12.0689 14.863 11.9655 14.7671 11.862 14.7671C11.7586 14.7671 11.6552 14.6712 11.5517 14.6712H7.82759C7.41379 14.6712 7.2069 14.7671 7.10345 14.863L7 14.9589C7 14.9589 7 15.0548 7 15.1507C7 15.2466 7.00001 15.3425 7.10345 15.5342C7.62069 16.6849 8.24138 17.8356 8.86206 18.9863C9.48275 20.0411 10.1034 21 10.5172 21.6712C11.0345 22.3425 11.4483 23.0137 11.9655 23.589C12.4827 24.1644 12.7931 24.5479 12.8965 24.7397C13.1034 24.9315 13.2069 25.0274 13.3103 25.1233L13.6207 25.411C13.8276 25.6027 14.1379 25.8904 14.5517 26.1781C14.9655 26.4658 15.4827 26.7534 16 27.0411C16.5172 27.3288 17.1379 27.5206 17.7586 27.7123C18.4827 27.9041 19.1034 28 19.7241 27.9041H21.2758C21.5861 27.9041 21.793 27.8082 21.9999 27.6164L22.1034 27.5205C22.1034 27.4247 22.2068 27.4247 22.2068 27.3288C22.2068 27.2329 22.2068 27.137 22.2068 26.9452C22.2068 26.5617 22.2068 26.274 22.3103 25.9863C22.4137 25.6986 22.4137 25.5069 22.5172 25.3151C22.6206 25.1233 22.7241 25.0274 22.8275 24.9315C22.931 24.8356 23.0344 24.7397 23.0344 24.7397H23.1378C23.3447 24.6438 23.6551 24.7397 23.862 24.9315C24.1723 25.1233 24.4827 25.411 24.6896 25.6986C24.8964 25.9863 25.2068 26.274 25.6206 26.6575C26.0344 27.0411 26.3447 27.3288 26.5516 27.4247L26.862 27.6164C27.0689 27.7123 27.2758 27.8082 27.5861 27.9041C27.8965 28 28.1033 28 28.3102 28L31.8275 27.9041C32.1378 27.9041 32.4481 27.8082 32.655 27.7123C32.8619 27.6165 32.9654 27.5206 32.9654 27.3288C32.9654 27.2329 32.9654 27.0411 32.9654 26.9452C32.7585 26.7534 32.7585 26.6575 32.7585 26.5616Z"
          fill="white"/>
</svg>
