<svg width="85" height="89" viewBox="0 0 85 89" fill="none" xmlns="http://www.w3.org/2000/svg">
    <path fill-rule="evenodd" clip-rule="evenodd"
          d="M4.55357 13.852H25.7232C26.9806 13.852 28 12.9897 28 11.926C28 10.8623 26.9806 10 25.7232 10L3.79464 10C1.69892 10 0 11.4372 0 13.21V85.79C0 87.5628 1.69892 89 3.79464 89H81.2054C83.3011 89 85 87.5628 85 85.79V13.21C85 11.4371 83.3011 10 81.2054 10L58.7768 10C57.5193 10 56.5 10.8623 56.5 11.926C56.5 12.9897 57.5193 13.852 58.7768 13.852H80.4464V85.148H4.55357V13.852Z"
          fill="#1E81CE"/>
    <path fill-rule="evenodd" clip-rule="evenodd"
          d="M41.6804 3.93964C40.2576 4.23693 38.8095 5.46446 37.76 6.8958C37.0529 7.86016 35.8831 8.3914 34.6794 8.26537C33.0182 8.09144 31.8415 8.33899 30.999 8.75034C30.1603 9.15987 29.5243 9.79422 29.0408 10.6071C28.1449 12.1133 27.822 14.1618 27.8599 16.0369H56.4486C56.4865 14.1618 56.1636 12.1133 55.2677 10.6071C54.7842 9.79421 54.1482 9.15986 53.3095 8.75033C52.467 8.33899 51.2903 8.09144 49.6291 8.26537C48.4294 8.39099 47.2352 7.86192 46.5301 6.85049C45.4962 5.36739 44.5486 4.59515 43.7711 4.21631C43.0212 3.85093 42.3343 3.80301 41.6804 3.93964ZM49.5182 4.38925C48.2703 2.66105 46.915 1.44635 45.4562 0.73555C43.9022 -0.0216428 42.3419 -0.151202 40.8939 0.151359C38.2242 0.709214 36.1131 2.68312 34.8113 4.39104C32.6889 4.20774 30.8539 4.51767 29.3111 5.27096C27.6999 6.05765 26.5373 7.26463 25.7286 8.62416C24.1521 11.2745 23.8759 14.5628 24.0424 16.9953C24.162 18.742 25.6383 19.9065 27.1966 19.9065H57.1119C58.6702 19.9065 60.1465 18.742 60.266 16.9953C60.4326 14.5628 60.1564 11.2745 58.5799 8.62417C57.7713 7.26463 56.6087 6.05765 54.9974 5.27096C53.4597 4.52014 51.6318 4.20978 49.5182 4.38925Z"
          fill="#1E81CE"/>
    <path fill-rule="evenodd" clip-rule="evenodd"
          d="M14.7857 49.9907V55.0467H19.9286V49.9907H14.7857ZM13.5 46.1211C12.0799 46.1211 10.9286 47.2761 10.9286 48.7008V56.3366C10.9286 57.7613 12.0799 58.9163 13.5 58.9163H21.2143C22.6345 58.9163 23.7857 57.7613 23.7857 56.3366V48.7008C23.7857 47.2761 22.6345 46.1211 21.2143 46.1211H13.5Z"
          fill="#1E81CE"/>
    <path fill-rule="evenodd" clip-rule="evenodd"
          d="M14.7857 67.9028V72.9588H19.9286V67.9028H14.7857ZM13.5 64.0332C12.0799 64.0332 10.9286 65.1882 10.9286 66.6129V74.2487C10.9286 75.6734 12.0799 76.8284 13.5 76.8284H21.2143C22.6345 76.8284 23.7857 75.6734 23.7857 74.2487V66.6129C23.7857 65.1882 22.6345 64.0332 21.2143 64.0332H13.5Z"
          fill="#1E81CE"/>
    <path d="M45.1429 11.5727C45.1429 12.986 43.9916 14.1318 42.5714 14.1318C41.1513 14.1318 40 12.986 40 11.5727C40 10.1594 41.1513 9.01367 42.5714 9.01367C43.9916 9.01367 45.1429 10.1594 45.1429 11.5727Z"
          fill="#1E81CE"/>
    <path d="M62.1429 39.559C62.1429 40.9724 60.9916 42.1181 59.5714 42.1181C58.1513 42.1181 57 40.9724 57 39.559C57 38.1457 58.1513 37 59.5714 37C60.9916 37 62.1429 38.1457 62.1429 39.559Z"
          fill="#1E81CE"/>
    <path d="M62.1429 56.7563C62.1429 58.1696 60.9916 59.3154 59.5714 59.3154C58.1513 59.3154 57 58.1696 57 56.7563C57 55.343 58.1513 54.1973 59.5714 54.1973C60.9916 54.1973 62.1429 55.343 62.1429 56.7563Z"
          fill="#1E81CE"/>
    <path d="M62.1429 73.9536C62.1429 75.3669 60.9916 76.5126 59.5714 76.5126C58.1513 76.5126 57 75.3669 57 73.9536C57 72.5403 58.1513 71.3945 59.5714 71.3945C60.9916 71.3945 62.1429 72.5403 62.1429 73.9536Z"
          fill="#1E81CE"/>
    <path fill-rule="evenodd" clip-rule="evenodd"
          d="M25.9116 27.2706C26.7795 27.8902 26.9824 29.0982 26.3648 29.9688L19.5827 39.5305C18.3882 41.2146 15.9449 41.3523 14.57 39.8129L10.5 35.2563C9.78924 34.4605 9.85607 33.2373 10.6493 32.5242C11.4426 31.8111 12.6618 31.8782 13.3726 32.674L16.9061 36.6299L23.2221 27.7253C23.8397 26.8547 25.0438 26.6511 25.9116 27.2706ZM31.8649 30.7663C31.8649 29.6978 32.7284 28.8315 33.7935 28.8315H72.5C73.5651 28.8315 74.4286 29.6978 74.4286 30.7663C74.4286 31.8349 73.5651 32.7011 72.5 32.7011H33.7935C32.7284 32.7011 31.8649 31.8349 31.8649 30.7663ZM31.8649 38.4435C31.8649 37.3749 32.7284 36.5087 33.7935 36.5087H45.3649C46.43 36.5087 47.2935 37.3749 47.2935 38.4435C47.2935 39.512 46.43 40.3782 45.3649 40.3782H33.7935C32.7284 40.3782 31.8649 39.512 31.8649 38.4435ZM31.8649 48.6796C31.8649 47.6111 32.7284 46.7448 33.7935 46.7448H72.5C73.5651 46.7448 74.4286 47.6111 74.4286 48.6796C74.4286 49.7482 73.5651 50.6144 72.5 50.6144H33.7935C32.7284 50.6144 31.8649 49.7482 31.8649 48.6796ZM31.8649 55.717C31.8649 54.6484 32.7284 53.7822 33.7935 53.7822H45.3649C46.43 53.7822 47.2935 54.6484 47.2935 55.717C47.2935 56.7855 46.43 57.6518 45.3649 57.6518H33.7935C32.7284 57.6518 31.8649 56.7855 31.8649 55.717ZM31.8649 65.9532C31.8649 64.8846 32.7284 64.0184 33.7935 64.0184H72.5C73.5651 64.0184 74.4286 64.8846 74.4286 65.9532C74.4286 67.0217 73.5651 67.888 72.5 67.888H33.7935C32.7284 67.888 31.8649 67.0217 31.8649 65.9532ZM31.8649 73.6303C31.8649 72.5617 32.7284 71.6955 33.7935 71.6955H45.3649C46.43 71.6955 47.2935 72.5617 47.2935 73.6303C47.2935 74.6988 46.43 75.5651 45.3649 75.5651H33.7935C32.7284 75.5651 31.8649 74.6988 31.8649 73.6303Z"
          fill="#1E81CE"/>
</svg>
