<svg width="40" height="40" viewBox="0 0 40 40" fill="none" xmlns="http://www.w3.org/2000/svg">
    <path d="M38.25 20C38.25 30.0792 30.0792 38.25 20 38.25C9.9208 38.25 1.75 30.0792 1.75 20C1.75 9.9208 9.9208 1.75 20 1.75C30.0792 1.75 38.25 9.9208 38.25 20Z"
          stroke="white" stroke-width="3.5"/>
    <path d="M28 7.73052C28 7.53904 27.9234 7.3554 27.787 7.22C27.6506 7.0846 27.4656 7.00854 27.2727 7.00854H23.6364C21.8053 6.91799 20.0125 7.55059 18.6498 8.76813C17.287 9.98567 16.4651 11.6892 16.3636 13.5064V17.4051H12.7273C12.5344 17.4051 12.3494 17.4812 12.213 17.6166C12.0766 17.752 12 17.9356 12 18.1271V21.8814C12 22.0729 12.0766 22.2566 12.213 22.3919C12.3494 22.5273 12.5344 22.6034 12.7273 22.6034H16.3636V32.278C16.3636 32.4695 16.4403 32.6531 16.5766 32.7885C16.713 32.9239 16.898 33 17.0909 33H21.4545C21.6474 33 21.8324 32.9239 21.9688 32.7885C22.1052 32.6531 22.1818 32.4695 22.1818 32.278V22.6034H25.9927C26.1545 22.6057 26.3123 22.5544 26.4414 22.4577C26.5705 22.3609 26.6634 22.2242 26.7055 22.0691L27.7527 18.3148C27.7817 18.2081 27.7856 18.0963 27.7641 17.9879C27.7426 17.8795 27.6964 17.7774 27.629 17.6895C27.5615 17.6017 27.4747 17.5303 27.3751 17.481C27.2755 17.4317 27.1658 17.4057 27.0545 17.4051H22.1818V13.5064C22.218 13.149 22.3871 12.8178 22.656 12.5775C22.925 12.3372 23.2745 12.205 23.6364 12.2068H27.2727C27.4656 12.2068 27.6506 12.1308 27.787 11.9954C27.9234 11.86 28 11.6763 28 11.4848V7.73052Z"
          fill="white"/>
</svg>
