<svg width="40" height="40" viewBox="0 0 40 40" fill="none" xmlns="http://www.w3.org/2000/svg">
    <path d="M38.25 20C38.25 30.0792 30.0792 38.25 20 38.25C9.9208 38.25 1.75 30.0792 1.75 20C1.75 9.9208 9.9208 1.75 20 1.75C30.0792 1.75 38.25 9.9208 38.25 20Z"
          stroke="white" stroke-width="3.5"/>
    <path d="M25.8673 11.76C24.9954 10.7195 24.5149 9.38324 24.5153 8H20.574V24.5333C20.5436 25.428 20.1822 26.2755 19.566 26.8973C18.9498 27.519 18.1268 27.8665 17.2704 27.8667C15.4592 27.8667 13.9541 26.32 13.9541 24.4C13.9541 22.1067 16.0714 20.3867 18.2526 21.0933V16.88C13.852 16.2667 10 19.84 10 24.4C10 28.84 13.5204 32 17.2577 32C21.2628 32 24.5153 28.6 24.5153 24.4V16.0133C26.1135 17.2131 28.0324 17.8569 30 17.8533V13.7333C30 13.7333 27.602 13.8533 25.8673 11.76Z"
          fill="white"/>
</svg>
