<svg width="40" height="40" viewBox="0 0 40 40" fill="none" xmlns="http://www.w3.org/2000/svg">
    <path d="M38.25 20C38.25 30.0792 30.0792 38.25 20 38.25C9.9208 38.25 1.75 30.0792 1.75 20C1.75 9.9208 9.9208 1.75 20 1.75C30.0792 1.75 38.25 9.9208 38.25 20Z"
          stroke="white" stroke-width="3.5"/>
    <path d="M29.196 10.8796L8.144 19.2396C7.46 19.4676 7.536 20.4556 8.22 20.6836L13.54 22.3556L15.668 29.0436C15.82 29.5756 16.504 29.7276 16.884 29.3476L20 26.4596L25.928 30.7916C26.384 31.0956 26.992 30.8676 27.144 30.3356L31.248 12.7036C31.476 11.4116 30.336 10.4236 29.196 10.8796V10.8796ZM16.884 23.6476L16.2 27.5996L14.68 22.1276L29.5 12.3996L16.884 23.6476Z"
          fill="white"/>
</svg>
