<svg width="40" height="40" viewBox="0 0 40 40" fill="none" xmlns="http://www.w3.org/2000/svg">
    <path d="M27.44 9.59961H12.56C10.88 9.59961 9.59998 10.8796 9.59998 12.5596V27.4396C9.59998 29.1196 10.88 30.3996 12.56 30.3996H27.44C29.12 30.3996 30.4 29.1196 30.4 27.4396V12.5596C30.4 10.8796 29.12 9.59961 27.44 9.59961ZM20 26.2396C23.44 26.2396 26.24 23.5196 26.24 20.2396C26.24 19.6796 26.16 19.0396 26 18.5596H27.76V27.0396C27.76 27.4396 27.44 27.8396 26.96 27.8396H13.04C12.64 27.8396 12.24 27.5196 12.24 27.0396V18.4796H14.08C13.92 19.0396 13.84 19.5996 13.84 20.1596C13.76 23.5196 16.56 26.2396 20 26.2396ZM20 23.8396C17.76 23.8396 16 22.0796 16 19.9196C16 17.7596 17.76 15.9996 20 15.9996C22.24 15.9996 24 17.7596 24 19.9196C24 22.1596 22.24 23.8396 20 23.8396ZM27.68 15.2796C27.68 15.7596 27.28 16.1596 26.8 16.1596H24.56C24.08 16.1596 23.68 15.7596 23.68 15.2796V13.1196C23.68 12.6396 24.08 12.2396 24.56 12.2396H26.8C27.28 12.2396 27.68 12.6396 27.68 13.1196V15.2796Z"
          fill="white"/>
    <path d="M38.25 20C38.25 30.0792 30.0792 38.25 20 38.25C9.9208 38.25 1.75 30.0792 1.75 20C1.75 9.9208 9.9208 1.75 20 1.75C30.0792 1.75 38.25 9.9208 38.25 20Z"
          stroke="white" stroke-width="3.5"/>
</svg>
