<svg width="58" height="93" viewBox="0 0 58 93" fill="none" xmlns="http://www.w3.org/2000/svg">
    <path fill-rule="evenodd" clip-rule="evenodd"
          d="M30.2608 0C31.3053 0 32.1521 0.752535 32.1521 1.68083V19.0495C32.1521 19.9778 31.3053 20.7303 30.2608 20.7303C29.2162 20.7303 28.3695 19.9778 28.3695 19.0495V1.68083C28.3695 0.752535 29.2162 0 30.2608 0ZM57.172 7.57452C58.0358 8.09652 58.2598 9.14197 57.6725 9.9096L46.9551 23.9166C46.3678 24.6842 45.1914 24.8833 44.3277 24.3613C43.4639 23.8393 43.2399 22.7939 43.8272 22.0263L54.5446 8.0193C55.1319 7.25167 56.3083 7.05253 57.172 7.57452ZM0.709882 7.65194C1.52553 7.07204 2.7157 7.18956 3.36822 7.91444L15.9769 21.9214C16.6294 22.6463 16.4971 23.704 15.6815 24.2839C14.8658 24.8638 13.6757 24.7463 13.0232 24.0214L0.414512 10.0145C-0.238004 9.28958 -0.105762 8.23184 0.709882 7.65194ZM14.3223 32.2982C10.4321 35.5139 8.15662 39.4016 7.51577 41.8425C4.14248 54.6907 11.1595 63.0149 16.3677 69.1934C16.9381 69.87 17.4868 70.5209 17.9977 71.1492H43.6809C44.1076 70.5197 44.5748 69.8541 45.0673 69.1523C47.0524 66.3241 49.4499 62.9083 51.2714 58.8994C53.7131 53.5257 54.9491 47.3825 52.4292 40.888C50.493 35.8978 43.7953 27.3092 30.1956 26.8924C23.4799 26.6866 18.1683 29.1191 14.3223 32.2982ZM47.3712 72.2329C47.609 71.8908 47.8617 71.5309 48.1261 71.1543C50.1351 68.2929 52.8203 64.4687 54.7788 60.1582C57.4265 54.331 58.9224 47.3107 56.0052 39.7921C53.7385 33.9501 45.9783 24.0124 30.326 23.5327C22.4156 23.2903 16.1693 26.1805 11.7462 29.8367C7.36723 33.4564 4.66229 37.9167 3.83213 41.0787C0.0282862 55.5667 8.21883 65.2025 13.4348 71.3389C13.6465 71.5879 13.8532 71.8312 14.0541 72.0688C13.3401 72.719 13.1814 73.5546 13.278 74.2488C13.3751 74.9469 13.7258 75.5935 14.0827 76.1086C14.437 76.6201 14.8801 77.119 15.3488 77.5743C15.3595 77.6362 15.3649 77.7449 15.3411 77.8952C15.3154 78.0582 15.2619 78.229 15.1895 78.3815C15.1148 78.5389 15.041 78.6334 15.0045 78.6707C13.8449 79.8592 13.863 81.2537 14.3372 82.38C14.742 83.3413 15.4972 84.1992 16.2485 84.8829C15.3582 85.5029 14.6892 86.2666 14.4268 87.1916C14.1463 88.1805 14.4052 89.0889 14.8387 89.8074C15.6447 91.1435 17.2168 92.1194 18.383 92.6774C18.8564 92.9039 19.3627 93 19.8411 93H41.3901C41.7573 93 42.1298 92.9414 42.4773 92.8268C44.7485 92.0785 46.5253 91.0786 47.1627 89.585C47.8802 87.9037 46.8549 86.4939 45.9549 85.6813C45.9533 85.6773 45.9515 85.6724 45.9495 85.6666C45.9326 85.6164 45.9171 85.5289 45.9256 85.4138C45.9341 85.2998 45.9637 85.1918 46.0034 85.107C46.0402 85.0284 46.0719 84.9978 46.0717 84.9977C46.0717 84.9977 46.0713 84.998 46.0705 84.9987C47.1526 84.0822 47.5765 82.9245 47.3311 81.74C47.1194 80.7186 46.448 79.8573 45.782 79.2089C45.7695 79.1573 45.7605 79.0642 45.7788 78.9407C45.7975 78.8154 45.8386 78.6982 45.8879 78.6084C45.9262 78.5387 45.9558 78.5095 45.9588 78.5062C47.5212 77.3549 48.3032 75.7691 48.2246 74.3053C48.1865 73.5955 47.9366 72.8451 47.3712 72.2329ZM20.2804 33.1601C23.3893 31.484 26.8809 31.1681 29.1979 31.3848C30.2367 31.482 30.9902 32.3092 30.8808 33.2324C30.7715 34.1556 29.8407 34.8252 28.802 34.728C27.1262 34.5713 24.5027 34.8156 22.2424 36.0342C20.0803 37.1999 18.0897 39.3369 17.6428 43.3087C17.5388 44.2324 16.612 44.9063 15.5727 44.8139C14.5333 44.7215 13.775 43.8979 13.879 42.9742C14.4407 37.9815 17.0733 34.8892 20.2804 33.1601ZM17.4237 74.5108C17.6249 74.7746 17.8871 75.0642 18.1953 75.3588C19.1677 76.288 19.2176 77.5347 19.0871 78.3619C18.949 79.2377 18.5342 80.1845 17.8623 80.8731C17.8284 80.9079 17.8188 80.9268 17.8176 80.9292C17.8166 80.9311 17.8161 80.9319 17.8154 80.9372C17.8138 80.9497 17.8076 81.0302 17.8799 81.2018C18.0385 81.5784 18.4453 82.0915 19.0907 82.6555C20.7299 84.0879 20.2589 86.415 18.6493 87.483C18.4 87.6484 18.2595 87.7825 18.1833 87.8734C18.1101 87.9607 18.0964 88.0072 18.0947 88.0134L18.0945 88.014C18.0932 88.0184 18.0916 88.0241 18.0952 88.0434C18.1 88.0689 18.1168 88.1268 18.1723 88.2189C18.4315 88.6486 19.1321 89.1932 20.015 89.6383H41.2719C42.2055 89.3237 42.8101 89.0278 43.1846 88.7819C43.4439 88.6116 43.5559 88.49 43.6003 88.4315C43.5682 88.3645 43.4784 88.2346 43.2456 88.0273C42.3189 87.2023 42.086 86.0768 42.1512 85.1938C42.2169 84.3029 42.6075 83.2879 43.4609 82.5652C43.5309 82.5059 43.5697 82.4611 43.5901 82.4338C43.61 82.4072 43.6151 82.3937 43.6155 82.3926C43.6156 82.3922 43.6157 82.3922 43.6157 82.3921C43.6157 82.392 43.6157 82.3918 43.6158 82.391C43.6159 82.3887 43.6166 82.3757 43.611 82.3488C43.5816 82.2068 43.4258 81.8936 42.9558 81.4438C42.0281 80.5561 41.9 79.367 42.0288 78.5005C42.1598 77.6193 42.6193 76.5985 43.5412 75.9208C44.2517 75.3986 44.4445 74.8252 44.4472 74.5108H17.4237ZM43.6146 88.4874C43.6118 88.4869 43.6074 88.4749 43.6094 88.4528C43.6184 88.4768 43.6174 88.4879 43.6146 88.4874Z"
          fill="#1E81CE"/>
</svg>
