<svg width="85" height="68" viewBox="0 0 85 68" fill="none" xmlns="http://www.w3.org/2000/svg">
    <path fill-rule="evenodd" clip-rule="evenodd"
          d="M19.8763 3.94071V10.4542H65.1237V3.94025L19.8763 3.94071ZM69.2805 10.4542V3.28353C69.2805 1.47007 67.7296 -1.97278e-05 65.8164 1.98553e-10L19.1835 0.000477542C17.2704 0.00049727 15.7195 1.47058 15.7195 3.28401V10.4542H3.46402C1.55089 10.4542 0 11.9243 0 13.7377V64.7165C0 66.5299 1.55092 68 3.46405 68L81.536 67.9995C83.4491 67.9995 85 66.5294 85 64.716V13.7377C85 11.9243 83.4491 10.4542 81.536 10.4542H69.2805ZM4.15683 14.3944V19.6223L41.591 39.136L80.8432 19.5966V14.3944H4.15683ZM80.8432 24.0471L43.194 42.7885C42.1647 43.3009 40.9329 43.2897 39.9142 42.7586L4.15683 24.1191V64.0598L80.8432 64.0593V24.0471Z"
          fill="#1E81CE"/>
</svg>
