<svg width="40" height="40" viewBox="0 0 40 40" fill="none" xmlns="http://www.w3.org/2000/svg">
    <path d="M38.25 20C38.25 30.0792 30.0792 38.25 20 38.25C9.9208 38.25 1.75 30.0792 1.75 20C1.75 9.9208 9.9208 1.75 20 1.75C30.0792 1.75 38.25 9.9208 38.25 20Z"
          stroke="white" stroke-width="3.5"/>
    <path d="M30.4 18.3261C30.4 17.8897 30.3241 17.3806 30.3241 16.7988C30.2482 16.217 30.1723 15.6352 30.0964 15.1261C29.9446 14.5443 29.7168 14.1079 29.2613 13.7443C28.8818 13.3806 28.3504 13.1625 27.819 13.0897C26.073 12.8716 23.492 12.7988 20 12.7988C16.5081 12.7988 13.8511 12.8716 12.1811 13.0897C11.6497 13.1625 11.1183 13.3806 10.7387 13.7443C10.3592 14.1079 10.0555 14.5443 9.90368 15.1261C9.75186 15.6352 9.67595 16.1443 9.67595 16.7988C9.60004 17.3806 9.60004 17.8897 9.60004 18.3261C9.60004 18.7625 9.60004 19.2715 9.60004 19.9988C9.60004 20.7261 9.60004 21.3079 9.60004 21.6715C9.60004 22.1079 9.67595 22.617 9.67595 23.1988C9.75187 23.7806 9.82777 24.3625 9.90368 24.8715C10.0555 25.4534 10.2832 25.8897 10.7387 26.2534C11.1183 26.617 11.6497 26.8352 12.1811 26.9079C13.927 27.1261 16.5081 27.1988 20 27.1988C23.492 27.1988 26.1489 27.1261 27.819 26.9079C28.3504 26.8352 28.8818 26.617 29.2613 26.2534C29.6409 25.8897 29.9446 25.4534 30.0964 24.8715C30.2482 24.3625 30.3241 23.8534 30.3241 23.1988C30.4001 22.617 30.4 22.1079 30.4 21.6715C30.4 21.2352 30.4 20.7261 30.4 19.9988C30.4 19.2715 30.4 18.6897 30.4 18.3261ZM24.0234 20.5806L18.0263 24.1443C17.9504 24.217 17.7986 24.2897 17.6468 24.2897C17.4949 24.2897 17.419 24.2897 17.2672 24.217C17.0395 24.0715 16.8876 23.8534 16.8876 23.5625V16.3625C16.8876 16.0715 17.0395 15.8534 17.2672 15.7079C17.4949 15.5625 17.7986 15.5625 18.0263 15.7079L24.0234 19.2715C24.2511 19.417 24.403 19.6352 24.403 19.8534C24.403 20.0716 24.2511 20.4352 24.0234 20.5806Z"
          fill="white"/>
</svg>
