<svg width="85" height="84" viewBox="0 0 85 84" fill="none" xmlns="http://www.w3.org/2000/svg">
    <path fill-rule="evenodd" clip-rule="evenodd"
          d="M31.4242 59.0591C46.4452 59.0591 58.7355 46.8105 58.7355 31.5618C58.7355 16.3131 46.4452 4.06451 31.4242 4.06451C16.4032 4.06451 4.1129 16.3131 4.1129 31.5618C4.1129 46.8105 16.4032 59.0591 31.4242 59.0591ZM31.4242 63.1236C48.7793 63.1236 62.8484 48.9929 62.8484 31.5618C62.8484 14.1307 48.7793 0 31.4242 0C14.0691 0 0 14.1307 0 31.5618C0 48.9929 14.0691 63.1236 31.4242 63.1236Z"
          fill="#1E81CE"/>
    <path fill-rule="evenodd" clip-rule="evenodd"
          d="M51.9943 50.6967C52.7909 49.8966 54.0824 49.8966 54.8789 50.6967L63.8312 59.6881C64.6278 60.4882 64.6278 61.7853 63.8312 62.5854C63.0346 63.3854 61.7432 63.3854 60.9466 62.5854L51.9943 53.5939C51.1978 52.7939 51.1978 51.4967 51.9943 50.6967Z"
          fill="#1E81CE"/>
    <path fill-rule="evenodd" clip-rule="evenodd"
          d="M30.7412 24.7529C32.5572 24.7529 34.1427 23.2559 34.1427 21.27C34.1427 19.2842 32.5572 17.7872 30.7412 17.7872C28.9251 17.7872 27.3396 19.2842 27.3396 21.27C27.3396 23.2559 28.9251 24.7529 30.7412 24.7529ZM30.7412 28.8174C34.8913 28.8174 38.2556 25.4384 38.2556 21.27C38.2556 17.1017 34.8913 13.7227 30.7412 13.7227C26.591 13.7227 23.2267 17.1017 23.2267 21.27C23.2267 25.4384 26.591 28.8174 30.7412 28.8174Z"
          fill="#1E81CE"/>
    <path fill-rule="evenodd" clip-rule="evenodd"
          d="M26.4525 34.254L24.0851 46.7087H38.7632L36.3958 34.254H26.4525ZM24.1777 30.1895C23.5181 30.1895 22.952 30.6536 22.8302 31.2942L19.4328 49.1683C19.2743 50.0022 19.9216 50.7732 20.7802 50.7732H42.0681C42.9267 50.7732 43.574 50.0022 43.4155 49.1683L40.0181 31.2942C39.8963 30.6536 39.3302 30.1895 38.6707 30.1895H24.1777Z"
          fill="#1E81CE"/>
    <path fill-rule="evenodd" clip-rule="evenodd"
          d="M65.678 60.6851L61.7863 64.5939L75.339 78.206L79.2308 74.2972L65.678 60.6851ZM66.6396 55.8564C66.1085 55.323 65.2475 55.323 64.7165 55.8564L56.9786 63.6282C56.4475 64.1615 56.4476 65.0263 56.9786 65.5597L74.3775 83.0348C74.9085 83.5681 75.7695 83.5681 76.3006 83.0348L84.0385 75.263C84.5695 74.7296 84.5695 73.8648 84.0385 73.3315L66.6396 55.8564Z"
          fill="#1E81CE"/>
</svg>
