<svg width="17" height="17" viewBox="0 0 17 17" fill="none" xmlns="http://www.w3.org/2000/svg">
    <path d="M15.1406 3.1875H5.44531C5.37227 3.1875 5.3125 3.24727 5.3125 3.32031V4.25C5.3125 4.32305 5.37227 4.38281 5.44531 4.38281H15.1406C15.2137 4.38281 15.2734 4.32305 15.2734 4.25V3.32031C15.2734 3.24727 15.2137 3.1875 15.1406 3.1875ZM15.1406 7.90234H5.44531C5.37227 7.90234 5.3125 7.96211 5.3125 8.03516V8.96484C5.3125 9.03789 5.37227 9.09766 5.44531 9.09766H15.1406C15.2137 9.09766 15.2734 9.03789 15.2734 8.96484V8.03516C15.2734 7.96211 15.2137 7.90234 15.1406 7.90234ZM15.1406 12.6172H5.44531C5.37227 12.6172 5.3125 12.677 5.3125 12.75V13.6797C5.3125 13.7527 5.37227 13.8125 5.44531 13.8125H15.1406C15.2137 13.8125 15.2734 13.7527 15.2734 13.6797V12.75C15.2734 12.677 15.2137 12.6172 15.1406 12.6172ZM1.72656 3.78516C1.72656 3.90724 1.75061 4.02814 1.79733 4.14093C1.84405 4.25373 1.91253 4.35622 1.99886 4.44254C2.08519 4.52887 2.18768 4.59735 2.30047 4.64408C2.41327 4.6908 2.53416 4.71484 2.65625 4.71484C2.77834 4.71484 2.89923 4.6908 3.01203 4.64408C3.12482 4.59735 3.22731 4.52887 3.31364 4.44254C3.39997 4.35622 3.46845 4.25373 3.51517 4.14093C3.56189 4.02814 3.58594 3.90724 3.58594 3.78516C3.58594 3.66307 3.56189 3.54218 3.51517 3.42938C3.46845 3.31659 3.39997 3.2141 3.31364 3.12777C3.22731 3.04144 3.12482 2.97296 3.01203 2.92624C2.89923 2.87952 2.77834 2.85547 2.65625 2.85547C2.53416 2.85547 2.41327 2.87952 2.30047 2.92624C2.18768 2.97296 2.08519 3.04144 1.99886 3.12777C1.91253 3.2141 1.84405 3.31659 1.79733 3.42938C1.75061 3.54218 1.72656 3.66307 1.72656 3.78516ZM1.72656 8.5C1.72656 8.62209 1.75061 8.74298 1.79733 8.85578C1.84405 8.96857 1.91253 9.07106 1.99886 9.15739C2.08519 9.24372 2.18768 9.3122 2.30047 9.35892C2.41327 9.40564 2.53416 9.42969 2.65625 9.42969C2.77834 9.42969 2.89923 9.40564 3.01203 9.35892C3.12482 9.3122 3.22731 9.24372 3.31364 9.15739C3.39997 9.07106 3.46845 8.96857 3.51517 8.85578C3.56189 8.74298 3.58594 8.62209 3.58594 8.5C3.58594 8.37791 3.56189 8.25702 3.51517 8.14422C3.46845 8.03143 3.39997 7.92894 3.31364 7.84261C3.22731 7.75628 3.12482 7.6878 3.01203 7.64108C2.89923 7.59436 2.77834 7.57031 2.65625 7.57031C2.53416 7.57031 2.41327 7.59436 2.30047 7.64108C2.18768 7.6878 2.08519 7.75628 1.99886 7.84261C1.91253 7.92894 1.84405 8.03143 1.79733 8.14422C1.75061 8.25702 1.72656 8.37791 1.72656 8.5ZM1.72656 13.2148C1.72656 13.3369 1.75061 13.4578 1.79733 13.5706C1.84405 13.6834 1.91253 13.7859 1.99886 13.8722C2.08519 13.9586 2.18768 14.027 2.30047 14.0738C2.41327 14.1205 2.53416 14.1445 2.65625 14.1445C2.77834 14.1445 2.89923 14.1205 3.01203 14.0738C3.12482 14.027 3.22731 13.9586 3.31364 13.8722C3.39997 13.7859 3.46845 13.6834 3.51517 13.5706C3.56189 13.4578 3.58594 13.3369 3.58594 13.2148C3.58594 13.0928 3.56189 12.9719 3.51517 12.8591C3.46845 12.7463 3.39997 12.6438 3.31364 12.5575C3.22731 12.4711 3.12482 12.4026 3.01203 12.3559C2.89923 12.3092 2.77834 12.2852 2.65625 12.2852C2.53416 12.2852 2.41327 12.3092 2.30047 12.3559C2.18768 12.4026 2.08519 12.4711 1.99886 12.5575C1.91253 12.6438 1.84405 12.7463 1.79733 12.8591C1.75061 12.9719 1.72656 13.0928 1.72656 13.2148Z"
          fill="#A0A6B1"/>
</svg>
