<svg width="10" height="12" viewBox="0 0 10 12" fill="none" xmlns="http://www.w3.org/2000/svg">
    <path d="M8.696 3.692C8.696 4.044 8.61067 4.40133 8.44 4.764C8.26933 5.116 8.04533 5.404 7.768 5.628C8.216 5.852 8.55733 6.17733 8.792 6.604C9.03733 7.03067 9.16 7.50533 9.16 8.028C9.16 9.02 8.84533 9.836 8.216 10.476C7.59733 11.116 6.728 11.436 5.608 11.436H0.216V0.252H5.16C6.20533 0.252 7.05333 0.566666 7.704 1.196C8.36533 1.82533 8.696 2.65733 8.696 3.692ZM4.952 2.796H3.144V4.668H4.952C5.21867 4.668 5.42667 4.58267 5.576 4.412C5.72533 4.24133 5.80533 4.03333 5.816 3.788C5.82667 3.52133 5.752 3.292 5.592 3.1C5.44267 2.89733 5.22933 2.796 4.952 2.796ZM5.384 7.036H3.144V8.892H5.4C5.912 8.892 6.2 8.604 6.264 8.028C6.28533 7.644 6.152 7.35067 5.864 7.148C5.69333 7.07333 5.53333 7.036 5.384 7.036Z"
          fill="#A0A6B1"/>
</svg>
