<svg width="17" height="17" viewBox="0 0 17 17" fill="none" xmlns="http://www.w3.org/2000/svg">
    <path d="M15.2734 12.6172H5.57812C5.50508 12.6172 5.44531 12.677 5.44531 12.75V13.6797C5.44531 13.7527 5.50508 13.8125 5.57812 13.8125H15.2734C15.3465 13.8125 15.4062 13.7527 15.4062 13.6797V12.75C15.4062 12.677 15.3465 12.6172 15.2734 12.6172ZM15.2734 3.1875H5.57812C5.50508 3.1875 5.44531 3.24727 5.44531 3.32031V4.25C5.44531 4.32305 5.50508 4.38281 5.57812 4.38281H15.2734C15.3465 4.38281 15.4062 4.32305 15.4062 4.25V3.32031C15.4062 3.24727 15.3465 3.1875 15.2734 3.1875ZM15.2734 7.90234H5.57812C5.50508 7.90234 5.44531 7.96211 5.44531 8.03516V8.96484C5.44531 9.03789 5.50508 9.09766 5.57812 9.09766H15.2734C15.3465 9.09766 15.4062 9.03789 15.4062 8.96484V8.03516C15.4062 7.96211 15.3465 7.90234 15.2734 7.90234ZM3.58594 11.8203H1.66016C1.62363 11.8203 1.59375 11.8502 1.59375 11.8867V12.4512C1.59375 12.4877 1.62363 12.5176 1.66016 12.5176H2.86211V12.8579H2.26943C2.23291 12.8579 2.20303 12.8878 2.20303 12.9243V13.4888C2.20303 13.5253 2.23291 13.5552 2.26943 13.5552H2.86211V13.9121H1.66016C1.62363 13.9121 1.59375 13.942 1.59375 13.9785V14.543C1.59375 14.5795 1.62363 14.6094 1.66016 14.6094H3.58594C3.62246 14.6094 3.65234 14.5795 3.65234 14.543V11.8867C3.65234 11.8502 3.62246 11.8203 3.58594 11.8203ZM1.66016 3.12109H2.29102V5.11328C2.29102 5.1498 2.3209 5.17969 2.35742 5.17969H3.02148C3.05801 5.17969 3.08789 5.1498 3.08789 5.11328V2.52344C3.08789 2.45039 3.02813 2.39062 2.95508 2.39062H1.66016C1.62363 2.39062 1.59375 2.42051 1.59375 2.45703V3.05469C1.59375 3.09121 1.62363 3.12109 1.66016 3.12109ZM3.58594 7.10547H1.66016C1.62363 7.10547 1.59375 7.13535 1.59375 7.17188V7.76953C1.59375 7.80605 1.62363 7.83594 1.66016 7.83594H2.7957L1.62861 9.12588C1.6066 9.1506 1.59423 9.18243 1.59375 9.21553V9.82812C1.59375 9.86465 1.62363 9.89453 1.66016 9.89453H3.58594C3.62246 9.89453 3.65234 9.86465 3.65234 9.82812V9.23047C3.65234 9.19395 3.62246 9.16406 3.58594 9.16406H2.45039L3.61748 7.87412C3.63949 7.8494 3.65187 7.81757 3.65234 7.78447V7.17188C3.65234 7.13535 3.62246 7.10547 3.58594 7.10547Z"
          fill="#A0A6B1"/>
</svg>
