<svg width="9" height="12" viewBox="0 0 9 12" fill="none" xmlns="http://www.w3.org/2000/svg">
    <path d="M4.664 11.644C3.40533 11.644 2.36 11.2973 1.528 10.604C0.696 9.9 0.28 8.94533 0.28 7.74V0.299999H2.136V7.692C2.136 8.40667 2.37067 8.96667 2.84 9.372C3.32 9.77733 3.928 9.98 4.664 9.98C5.38933 9.98 5.98667 9.77733 6.456 9.372C6.92533 8.96667 7.16 8.40667 7.16 7.692V0.299999H9V7.74C9 8.94533 8.584 9.9 7.752 10.604C6.93067 11.2973 5.90133 11.644 4.664 11.644Z"
          fill="#A0A6B1"/>
    <path d="M-1 15.5H10.28V16.3H-1V15.5Z" fill="#A0A6B1"/>
</svg>
