<svg width="10" height="10" viewBox="0 0 10 10" fill="none" xmlns="http://www.w3.org/2000/svg">
    <path d="M9.57185 0.382076C9.48006 0.322502 9.37743 0.281596 9.26983 0.261695C9.16222 0.241794 9.05175 0.243288 8.94473 0.266091C8.8377 0.288894 8.73622 0.33256 8.64607 0.394595C8.55593 0.456629 8.47888 0.535816 8.41935 0.627631L3.7499 7.82513L1.47268 5.71958C1.39234 5.64529 1.29815 5.58755 1.19549 5.54967C1.09284 5.51178 0.983723 5.49448 0.874382 5.49876C0.653558 5.50741 0.445214 5.60343 0.295182 5.76569C0.145151 5.92795 0.0657218 6.14316 0.0743693 6.36399C0.0830168 6.58481 0.179032 6.79316 0.341293 6.94319L3.33129 9.70763C3.33129 9.70763 3.41713 9.78152 3.45685 9.80735C3.54865 9.86697 3.6513 9.90791 3.75893 9.92784C3.86656 9.94776 3.97707 9.94628 4.08413 9.92348C4.19118 9.90067 4.2927 9.85699 4.38287 9.79493C4.47304 9.73287 4.55009 9.65365 4.60963 9.5618L9.81741 1.53458C9.87698 1.44279 9.91789 1.34016 9.93779 1.23255C9.95769 1.12495 9.95619 1.01448 9.93339 0.907454C9.91059 0.800428 9.86692 0.698944 9.80489 0.608798C9.74285 0.518652 9.66367 0.441611 9.57185 0.382076Z"
          fill="white"/>
</svg>
