<svg width="14" height="14" viewBox="0 0 14 14" fill="none" xmlns="http://www.w3.org/2000/svg">
    <path d="M11.8501 10.6118L8.13783 6.89949L11.8501 3.18718C12.0142 3.02309 12.1064 2.80053 12.1064 2.56847C12.1064 2.3364 12.0142 2.11384 11.8501 1.94975C11.686 1.78565 11.4635 1.69347 11.2314 1.69347C10.9994 1.69347 10.7768 1.78565 10.6127 1.94975L6.90039 5.66206L3.18808 1.94975C3.02399 1.78565 2.80143 1.69347 2.56936 1.69347C2.3373 1.69347 2.11474 1.78565 1.95064 1.94975C1.78655 2.11384 1.69436 2.3364 1.69436 2.56847C1.69436 2.80053 1.78655 3.02309 1.95064 3.18718L5.66295 6.89949L1.95064 10.6118C1.78655 10.7759 1.69436 10.9985 1.69436 11.2305C1.69436 11.4626 1.78655 11.6851 1.95064 11.8492C2.11474 12.0133 2.3373 12.1055 2.56936 12.1055C2.80143 12.1055 3.02399 12.0133 3.18808 11.8492L6.90039 8.13693L10.6127 11.8492C10.7768 12.0133 10.9994 12.1055 11.2314 12.1055C11.4635 12.1055 11.686 12.0133 11.8501 11.8492C12.0142 11.6851 12.1064 11.4626 12.1064 11.2305C12.1064 10.9985 12.0142 10.7759 11.8501 10.6118Z"
          fill="white"/>
</svg>
