<svg width="23" height="22" viewBox="0 0 23 22" fill="none" xmlns="http://www.w3.org/2000/svg">
<path fill-rule="evenodd" clip-rule="evenodd" d="M9.88644 1.83008C5.58317 1.83008 2.09473 5.31853 2.09473 9.62175C2.09473 13.9249 5.58317 17.4134 9.88644 17.4134C11.7073 17.4134 13.3834 16.7879 14.7097 15.7414L19.1317 20.1634C19.4897 20.5214 20.0701 20.5214 20.4281 20.1634C20.7861 19.8055 20.7861 19.225 20.4281 18.8671L16.006 14.4451C17.0526 13.1187 17.6781 11.4427 17.6781 9.62175C17.6781 5.31853 14.1896 1.83008 9.88644 1.83008ZM3.92806 9.62175C3.92806 6.33105 6.5957 3.66341 9.88644 3.66341C13.1771 3.66341 15.8448 6.33105 15.8448 9.62175C15.8448 11.2673 15.1788 12.7556 14.0995 13.8349C13.0203 14.9142 11.532 15.5801 9.88644 15.5801C6.5957 15.5801 3.92806 12.9125 3.92806 9.62175Z" fill="#404041"/>
</svg>
