<svg width="115" height="130" viewBox="0 0 115 130" fill="none" xmlns="http://www.w3.org/2000/svg">
    <g clip-path="url(#clip0_5428_37817)">
        <path d="M100.499 4.49904L96.2723 0.489281L18.6099 0.379145L12.3062 0.370205C9.24562 0.369323 6.3066 1.58646 4.13399 3.75459C1.96139 5.92271 0.732615 8.86476 0.717257 11.9353L0.304473 118.274C0.295991 121.345 1.50192 124.29 3.65767 126.464C5.81342 128.639 8.74296 129.864 11.8036 129.872L11.8198 129.872L102.057 130L102.073 130C105.134 130.001 108.073 128.784 110.245 126.615C112.418 124.447 113.647 121.505 113.662 118.435L114.075 15C107.5 15 108.156 11.6743 106 9.5C103.844 7.32574 102.5 6.5 100.499 4.49904Z"
              fill="#F2F2F2"/>
        <path d="M101.499 6.50096L95.1249 3.83972L19.7875 3.69854L12.3214 3.68455C10.1419 3.68291 8.04853 4.5487 6.50066 6.09196C4.95279 7.63523 4.07679 9.72994 4.06487 11.9165L3.60372 118.255C3.59669 120.442 4.45451 122.54 5.98897 124.089C7.52343 125.638 9.60922 126.511 11.7887 126.518L11.805 126.518L102.042 126.687L102.058 126.687C104.238 126.689 106.331 125.823 107.879 124.28C109.427 122.736 110.303 120.642 110.315 118.455L110.776 12.1165C108.5 13 106.534 10.5504 104.999 9.00134C103.465 7.4523 103.678 6.50753 101.499 6.50096Z"
              fill="white"/>
        <path d="M30.8974 95H20.1026C19.8103 94.9997 19.53 94.884 19.3233 94.6784C19.1166 94.4727 19.0003 94.1939 19 93.903V79.097C19.0003 78.8061 19.1166 78.5273 19.3233 78.3217C19.53 78.116 19.8103 78.0003 20.1026 78H30.8974C31.1897 78.0003 31.47 78.116 31.6767 78.3217C31.8834 78.5273 31.9997 78.8061 32 79.097V93.903C31.9997 94.1939 31.8834 94.4727 31.6767 94.6784C31.47 94.884 31.1897 94.9997 30.8974 95Z"
              fill="#1991FF"/>
        <path d="M50.8974 95H40.1026C39.8103 94.9997 39.53 94.8804 39.3233 94.6684C39.1166 94.4565 39.0003 94.169 39 93.8692V64.1308C39.0003 63.831 39.1166 63.5435 39.3233 63.3316C39.53 63.1196 39.8103 63.0003 40.1026 63H50.8974C51.1897 63.0003 51.47 63.1196 51.6767 63.3316C51.8834 63.5435 51.9997 63.831 52 64.1308V93.8692C51.9997 94.169 51.8834 94.4565 51.6767 94.6684C51.47 94.8804 51.1897 94.9997 50.8974 95Z"
              fill="#1991FF"/>
        <path d="M71.8126 95H60.1874C59.8726 94.9997 59.5708 94.884 59.3482 94.6783C59.1256 94.4727 59.0004 94.1939 59 93.903V79.097C59.0004 78.8061 59.1256 78.5273 59.3482 78.3217C59.5708 78.116 59.8726 78.0003 60.1874 78H71.8126C72.1274 78.0003 72.4292 78.116 72.6518 78.3216C72.8744 78.5273 72.9996 78.8061 73 79.097V93.903C72.9996 94.1939 72.8744 94.4727 72.6518 94.6784C72.4292 94.884 72.1274 94.9997 71.8126 95Z"
              fill="#1991FF"/>
        <path d="M91.8974 94.9997H81.1026C80.8169 95.0059 80.5405 94.8979 80.3338 94.6994C80.1272 94.5009 80.0071 94.2281 80 93.9407V59.0593C80.0071 58.7719 80.1272 58.4991 80.3338 58.3006C80.5405 58.1021 80.8169 57.9941 81.1026 58.0003H91.8974C92.1831 57.9941 92.4595 58.1021 92.6662 58.3006C92.8728 58.4991 92.9929 58.7719 93 59.0593V93.9407C92.9929 94.2281 92.8728 94.5009 92.6662 94.6994C92.4595 94.8979 92.1831 95.0059 91.8974 94.9997Z"
              fill="#1991FF"/>
        <path d="M25 74C26.6569 74 28 72.6568 28 71C28 69.3431 26.6569 68 25 68C23.3432 68 22 69.3431 22 71C22 72.6568 23.3432 74 25 74Z"
              fill="#3F3D56"/>
        <path d="M45.5 59C46.8807 59 48 57.8807 48 56.5C48 55.1193 46.8807 54 45.5 54C44.1193 54 43 55.1193 43 56.5C43 57.8807 44.1193 59 45.5 59Z"
              fill="#3F3D56"/>
        <path d="M66 74C67.6569 74 69 72.6568 69 71C69 69.3431 67.6569 68 66 68C64.3431 68 63 69.3431 63 71C63 72.6568 64.3431 74 66 74Z"
              fill="#3F3D56"/>
        <path d="M86.5 52C87.8807 52 89 50.8807 89 49.5C89 48.1193 87.8807 47 86.5 47C85.1193 47 84 48.1193 84 49.5C84 50.8807 85.1193 52 86.5 52Z"
              fill="#3F3D56"/>
        <path d="M66.4535 71L46.3166 56.4759L26.4544 70.8015L26 70.2176L46.3166 55.5636L66.3577 70.0187L86.2736 49.0321L86.3531 49.0008L86.7165 49L87 49.6771L86.7165 49.647L66.4535 71Z"
              fill="#3F3D56"/>
        <path d="M113.656 14.9725H99.6273C98.6031 14.9725 97.6209 14.5656 96.8967 13.8415C96.1725 13.1173 95.7656 12.135 95.7656 11.1109V0.749163C95.7656 0.703798 95.7784 0.659354 95.8025 0.620923C95.8266 0.582492 95.8611 0.551633 95.9019 0.531884C95.9427 0.512135 95.9883 0.504295 96.0334 0.509265C96.0785 0.514235 96.1213 0.531813 96.1568 0.559982L113.806 14.542C113.846 14.5731 113.874 14.6156 113.888 14.6638C113.902 14.7119 113.901 14.7632 113.884 14.8105C113.868 14.8578 113.837 14.8988 113.796 14.9279C113.755 14.9569 113.706 14.9725 113.656 14.9725Z"
              fill="#F2F2F2"/>
    </g>
    <defs>
        <clipPath id="clip0_5428_37817">
            <rect width="115" height="130" fill="white"/>
        </clipPath>
    </defs>
</svg>
