<svg width="116" height="130" viewBox="0 0 116 130" fill="none" xmlns="http://www.w3.org/2000/svg">
    <g clip-path="url(#clip0_5428_38297)">
        <path d="M100.833 4.49904L96.6063 0.489281L18.9439 0.379145L12.6402 0.370205C9.5796 0.369323 6.64059 1.58646 4.46798 3.75459C2.29537 5.92271 1.0666 8.86476 1.05124 11.9353L0.638458 118.274C0.629976 121.345 1.8359 124.29 3.99165 126.464C6.1474 128.639 9.07694 129.864 12.1375 129.872L12.1538 129.872L102.391 130L102.407 130C105.468 130.001 108.407 128.784 110.579 126.615C112.752 124.447 113.981 121.505 113.996 118.435L114.409 15C107.834 15 108.49 11.6743 106.334 9.5C104.178 7.32574 102.834 6.5 100.833 4.49904Z"
              fill="#F2F2F2"/>
        <path d="M101.833 6.50096L95.4589 3.83972L20.1215 3.69854L12.6554 3.68455C10.4758 3.68291 8.38251 4.5487 6.83464 6.09196C5.28677 7.63523 4.41078 9.72994 4.39885 11.9165L3.93771 118.255C3.93068 120.442 4.7885 122.54 6.32295 124.089C7.85741 125.638 9.9432 126.511 12.1227 126.518L12.139 126.518L102.376 126.687L102.392 126.687C104.572 126.689 106.665 125.823 108.213 124.28C109.761 122.736 110.637 120.642 110.649 118.455L111.11 12.1165C108.834 13 106.868 10.5504 105.333 9.00134C103.799 7.4523 104.012 6.50753 101.833 6.50096Z"
              fill="white"/>
        <path d="M98.5182 101.53C100.354 100.037 101.693 98.0213 102.358 95.7501C102.848 93.4501 101.868 90.6901 99.6782 89.8501C97.2182 88.9101 94.5882 90.6201 92.5982 92.3401C90.6082 94.0601 88.3182 96.0301 85.7082 95.6601C87.0505 94.4447 88.0546 92.9019 88.6225 91.1825C89.1903 89.4631 89.3026 87.6258 88.9482 85.8501C88.8344 85.1143 88.5234 84.4232 88.0482 83.8501C86.6882 82.3901 84.2082 83.0201 82.5682 84.1701C77.3682 87.8201 75.9182 94.8901 75.8982 101.24C75.3682 98.9501 75.8082 96.5601 75.7982 94.2401C75.7882 91.9201 75.1382 89.2401 73.1582 88.0201C71.9352 87.343 70.556 86.9982 69.1582 87.0201C66.8182 86.9301 64.2182 87.1701 62.6182 88.8801C60.6182 91.0001 61.1482 94.5701 62.8782 96.8801C64.6082 99.1901 67.2282 100.69 69.6382 102.3C71.5777 103.453 73.2321 105.029 74.4782 106.91C74.6239 107.175 74.7445 107.453 74.8382 107.74H89.4282C92.725 106.091 95.7829 104.002 98.5182 101.53Z"
              fill="#1991FF"/>
        <path d="M57.0161 67.406C55.0049 68.5036 47.334 67.744 47.334 67.744C47.334 67.744 51.3332 60.6157 53.3443 59.5139C53.824 59.2387 54.3495 59.07 54.8901 59.0176C55.4307 58.9652 55.9755 59.0301 56.4926 59.2086C57.0097 59.3871 57.4888 59.6756 57.9017 60.0571C58.3147 60.4386 58.6532 60.9056 58.8974 61.4306C59.1417 61.9556 59.2868 62.5282 59.3243 63.1147C59.3617 63.7012 59.2908 64.29 59.1156 64.8464C58.9404 65.4029 58.6644 65.9159 58.3039 66.3553C57.9434 66.7948 57.5056 67.152 57.0161 67.406Z"
              fill="#1991FF"/>
        <path d="M52.5797 84.9567C50.8154 86.3788 43.334 87 43.334 87C43.334 87 46.0893 79.4029 47.8386 77.9807C48.255 77.6091 48.7365 77.3335 49.2538 77.1705C49.7711 77.0076 50.3134 76.9607 50.8478 77.0329C51.3822 77.105 51.8976 77.2946 52.3627 77.5901C52.8277 77.8857 53.2328 78.281 53.5533 78.7521C53.8738 79.2232 54.103 79.7603 54.2271 80.3308C54.3511 80.9013 54.3674 81.4932 54.275 82.0708C54.1825 82.6483 53.9832 83.1994 53.6892 83.6906C53.3952 84.1817 53.0126 84.6027 52.5647 84.9281L52.5797 84.9567Z"
              fill="#1991FF"/>
        <path d="M39.723 51.5772C41.42 53.2597 49.334 55 49.334 55C49.334 55 47.394 46.9955 45.6888 45.313C45.2885 44.8963 44.8102 44.5655 44.2823 44.34C43.7544 44.1145 43.1875 43.9989 42.615 44C42.0425 44.0011 41.476 44.1189 40.9489 44.3464C40.4218 44.574 39.9448 44.9066 39.546 45.3248C39.1472 45.743 38.8346 46.2383 38.6267 46.7814C38.4189 47.3246 38.3199 47.9046 38.3356 48.4873C38.3513 49.07 38.4815 49.6436 38.7184 50.1742C38.9552 50.7049 39.2941 51.1819 39.7149 51.5772H39.723Z"
              fill="#1991FF"/>
        <path d="M34.778 71.4015C36.9707 72.5044 45.334 71.7454 45.334 71.7454C45.334 71.7454 40.978 64.5783 38.7811 63.4753C38.2599 63.2129 37.6919 63.0555 37.1097 63.0123C36.5275 62.969 35.9425 63.0406 35.388 63.223C34.8336 63.4055 34.3205 63.6952 33.8782 64.0756C33.4359 64.456 33.0729 64.9196 32.8101 65.4401C32.5472 65.9605 32.3896 66.5276 32.3463 67.1088C32.3029 67.69 32.3746 68.2741 32.5574 68.8277C32.7401 69.3813 33.0303 69.8935 33.4113 70.3351C33.7923 70.7767 34.2567 71.139 34.778 71.4015Z"
              fill="#1991FF"/>
        <path d="M33.8165 91.114C35.6327 92.4229 43.334 93 43.334 93C43.334 93 40.4977 85.9841 38.697 84.6715C37.8231 84.1024 36.7585 83.8833 35.7236 84.0593C34.6887 84.2354 33.7628 84.7932 33.1376 85.6172C32.5124 86.4412 32.2358 87.4684 32.3651 88.486C32.4943 89.5037 33.0196 90.4338 33.832 91.0838L33.8165 91.114Z"
              fill="#1991FF"/>
        <path d="M57.6451 45.5598C56.2537 47.5547 48.334 51 48.334 51C48.334 51 48.474 42.8743 49.8654 40.8875C50.5454 39.9566 51.5909 39.31 52.7781 39.0861C53.9653 38.8622 55.1996 39.0789 56.2168 39.6898C57.234 40.3007 57.9531 41.2572 58.22 42.3544C58.487 43.4516 58.2806 44.6022 57.6451 45.5598Z"
              fill="#1991FF"/>
        <path d="M57.0161 67.406C55.0049 68.5036 47.334 67.744 47.334 67.744C47.334 67.744 51.3332 60.6157 53.3443 59.5139C53.824 59.2387 54.3495 59.07 54.8901 59.0176C55.4307 58.9652 55.9755 59.0301 56.4926 59.2086C57.0097 59.3871 57.4888 59.6756 57.9017 60.0571C58.3147 60.4386 58.6532 60.9056 58.8974 61.4306C59.1417 61.9556 59.2868 62.5282 59.3243 63.1147C59.3617 63.7012 59.2908 64.29 59.1156 64.8464C58.9404 65.4029 58.6644 65.9159 58.3039 66.3553C57.9434 66.7948 57.5056 67.152 57.0161 67.406Z"
              fill="#1991FF"/>
        <path d="M52.5797 84.9567C50.8154 86.3788 43.334 87 43.334 87C43.334 87 46.0893 79.4029 47.8386 77.9807C48.255 77.6091 48.7365 77.3335 49.2538 77.1705C49.7711 77.0076 50.3134 76.9607 50.8478 77.0329C51.3822 77.105 51.8976 77.2946 52.3627 77.5901C52.8277 77.8857 53.2328 78.281 53.5533 78.7521C53.8738 79.2232 54.103 79.7603 54.2271 80.3308C54.3511 80.9013 54.3674 81.4932 54.275 82.0708C54.1825 82.6483 53.9832 83.1994 53.6892 83.6906C53.3952 84.1817 53.0126 84.6027 52.5647 84.9281L52.5797 84.9567Z"
              fill="#1991FF"/>
        <path d="M39.723 51.5772C41.42 53.2597 49.334 55 49.334 55C49.334 55 47.394 46.9955 45.6888 45.313C45.2885 44.8963 44.8102 44.5655 44.2823 44.34C43.7544 44.1145 43.1875 43.9989 42.615 44C42.0425 44.0011 41.476 44.1189 40.9489 44.3464C40.4218 44.574 39.9448 44.9066 39.546 45.3248C39.1472 45.743 38.8346 46.2383 38.6267 46.7814C38.4189 47.3246 38.3199 47.9046 38.3356 48.4873C38.3513 49.07 38.4815 49.6436 38.7184 50.1742C38.9552 50.7049 39.2941 51.1819 39.7149 51.5772H39.723Z"
              fill="#1991FF"/>
        <path d="M34.778 71.4015C36.9707 72.5044 45.334 71.7454 45.334 71.7454C45.334 71.7454 40.978 64.5783 38.7811 63.4753C38.2599 63.2129 37.6919 63.0555 37.1097 63.0123C36.5275 62.969 35.9425 63.0406 35.388 63.223C34.8336 63.4055 34.3205 63.6952 33.8782 64.0756C33.4359 64.456 33.0729 64.9196 32.8101 65.4401C32.5472 65.9605 32.3896 66.5276 32.3463 67.1088C32.3029 67.69 32.3746 68.2741 32.5574 68.8277C32.7401 69.3813 33.0303 69.8935 33.4113 70.3351C33.7923 70.7767 34.2567 71.139 34.778 71.4015Z"
              fill="#1991FF"/>
        <path d="M33.8165 91.114C35.6327 92.4229 43.334 93 43.334 93C43.334 93 40.4977 85.9841 38.697 84.6715C37.8231 84.1024 36.7585 83.8833 35.7236 84.0593C34.6887 84.2354 33.7628 84.7932 33.1376 85.6172C32.5124 86.4412 32.2358 87.4684 32.3651 88.486C32.4943 89.5037 33.0196 90.4338 33.832 91.0838L33.8165 91.114Z"
              fill="#1991FF"/>
        <path d="M31.334 101.929C31.334 101.929 38.2108 100.518 40.0435 98.6376C41.8763 96.7571 50.1316 93.4652 51.048 95.8148C51.9644 98.1643 63.427 106.159 55.6339 107.571C47.8407 108.982 37.2944 109.451 34.9995 108.509C32.7045 107.567 31.334 101.929 31.334 101.929Z"
              fill="#A8A8A8"/>
        <path opacity="0.2"
              d="M55.6373 106.735C47.839 108.123 37.2953 108.584 35 107.662C33.2554 106.956 32.0415 103.58 31.5631 102L31.334 102.049C31.334 102.049 32.7087 107.596 35 108.519C37.2912 109.442 47.839 108.984 55.6373 107.596C57.8844 107.188 58.5275 106.254 58.2863 105.066C58.0854 105.841 57.3095 106.433 55.6373 106.735Z"
              fill="black"/>
        <path opacity="0.1"
              d="M57.834 115C81.8584 115 101.334 112.314 101.334 109C101.334 105.686 81.8584 103 57.834 103C33.8096 103 14.334 105.686 14.334 109C14.334 112.314 33.8096 115 57.834 115Z"
              fill="#1991FF"/>
        <path d="M45.4475 103C45.4475 103 40.0779 83.5792 46.4562 69.2803C49.1757 63.3022 49.9966 56.5496 48.7959 50.0345C48.2 46.9463 47.3398 43.9223 46.2261 41"
              stroke="#535461" stroke-width="2" stroke-miterlimit="10"/>
        <path d="M50.334 34.1231C50.334 36.3968 45.834 43 45.834 43C45.834 43 41.334 36.3812 41.334 34.1231C41.334 33.0296 41.8081 31.9809 42.652 31.2076C43.4959 30.4344 44.6405 30 45.834 30C47.0275 30 48.172 30.4344 49.016 31.2076C49.8599 31.9809 50.334 33.0296 50.334 34.1231Z"
              fill="#1991FF"/>
        <path d="M113.99 14.9725H99.9612C98.9371 14.9725 97.9548 14.5656 97.2307 13.8415C96.5065 13.1173 96.0996 12.135 96.0996 11.1109V0.749163C96.0996 0.703798 96.1124 0.659354 96.1365 0.620923C96.1606 0.582492 96.1951 0.551633 96.2359 0.531884C96.2767 0.512135 96.3223 0.504295 96.3674 0.509265C96.4125 0.514235 96.4553 0.531813 96.4908 0.559982L114.14 14.542C114.179 14.5731 114.208 14.6156 114.222 14.6638C114.236 14.7119 114.235 14.7632 114.218 14.8105C114.202 14.8578 114.171 14.8988 114.13 14.9279C114.089 14.9569 114.04 14.9725 113.99 14.9725Z"
              fill="#F2F2F2"/>
    </g>
    <defs>
        <clipPath id="clip0_5428_38297">
            <rect width="115" height="130" fill="white" transform="translate(0.333984)"/>
        </clipPath>
    </defs>
</svg>
