<svg width="116" height="130" viewBox="0 0 116 130" fill="none" xmlns="http://www.w3.org/2000/svg">
    <g clip-path="url(#clip0_5428_38335)">
        <path d="M101.165 4.49904L96.9383 0.489281L19.2759 0.379145L12.9723 0.370205C9.91163 0.369323 6.97262 1.58646 4.80001 3.75459C2.6274 5.92271 1.39863 8.86476 1.38327 11.9353L0.970489 118.274C0.962007 121.345 2.16794 124.29 4.32369 126.464C6.47944 128.639 9.40897 129.864 12.4696 129.872L12.4858 129.872L102.723 130L102.739 130C105.8 130.001 108.739 128.784 110.911 126.615C113.084 124.447 114.313 121.505 114.328 118.435L114.741 15C108.166 15 108.822 11.6743 106.666 9.5C104.51 7.32574 103.166 6.5 101.165 4.49904Z"
              fill="#F2F2F2"/>
        <path d="M102.165 6.50096L95.7909 3.83972L20.4536 3.69854L12.9874 3.68455C10.8079 3.68291 8.71454 4.5487 7.16667 6.09196C5.6188 7.63523 4.74281 9.72994 4.73088 11.9165L4.26974 118.255C4.26271 120.442 5.12053 122.54 6.65498 124.089C8.18944 125.638 10.2752 126.511 12.4548 126.518L12.471 126.518L102.708 126.687L102.724 126.687C104.904 126.689 106.997 125.823 108.545 124.28C110.093 122.736 110.969 120.642 110.981 118.455L111.442 12.1165C109.166 13 107.2 10.5504 105.665 9.00134C104.131 7.4523 104.344 6.50753 102.165 6.50096Z"
              fill="white"/>
        <g clip-path="url(#clip1_5428_38335)">
            <path d="M87.7702 116.357H28.4916C28.1241 116.357 27.7718 116.209 27.5119 115.948C27.2521 115.686 27.1059 115.331 27.1055 114.961V74.1986C27.1059 73.8285 27.2521 73.4737 27.5119 73.212C27.7718 72.9504 28.1241 72.8032 28.4916 72.8027H87.7702C88.1377 72.8032 88.49 72.9504 88.7499 73.212C89.0097 73.4737 89.1559 73.8285 89.1563 74.1986V114.961C89.1559 115.331 89.0097 115.686 88.7499 115.948C88.49 116.209 88.1377 116.357 87.7702 116.357Z"
                  fill="white"/>
            <path d="M87.7702 117.007H87.771C88.3121 117.006 88.8299 116.79 89.2111 116.406C89.5922 116.022 89.8057 115.503 89.8063 114.962V114.961V74.1986V74.1979C89.8057 73.6571 89.5922 73.1378 89.2111 72.754C88.8299 72.3701 88.312 72.1534 87.771 72.1527H87.7702L28.4916 72.1527L28.4908 72.1527C27.9497 72.1534 27.4319 72.3701 27.0507 72.754C26.6696 73.1378 26.4561 73.6571 26.4555 74.1979V74.1986L26.4555 114.961L26.4555 114.962C26.4561 115.503 26.6696 116.022 27.0507 116.406C27.4319 116.79 27.9497 117.006 28.4908 117.007H28.4916H87.7702ZM28.1908 115.271C28.11 115.189 28.0637 115.078 28.0635 114.961V74.199C28.0637 74.082 28.11 73.9707 28.1908 73.8893C28.2715 73.808 28.3799 73.7631 28.492 73.7629H87.7698C87.8819 73.7631 87.9903 73.808 88.0709 73.8893C88.1518 73.9707 88.1982 74.0822 88.1983 74.1993V114.96C88.1982 115.078 88.1518 115.189 88.0709 115.271C87.9902 115.352 87.8817 115.397 87.7695 115.397H28.4923C28.3801 115.397 28.2716 115.352 28.1908 115.271ZM27.9731 73.67C28.1115 73.5308 28.298 73.4532 28.4916 73.4527L27.7555 74.1986C27.7559 74.0002 27.8341 73.8109 27.9716 73.6716C27.9721 73.6711 27.9726 73.6706 27.9731 73.67Z"
                  fill="#F2F2F2" stroke="#F2F2F2" stroke-width="1.3"/>
            <path d="M80 115H66V89.2991C66.0006 88.6896 66.2193 88.1052 66.608 87.6742C66.9967 87.2431 67.5237 87.0007 68.0734 87H77.9266C78.4763 87.0007 79.0033 87.2431 79.392 87.6742C79.7807 88.1052 79.9994 88.6896 80 89.2991V115Z"
                  fill="#5D5F69"/>
            <path d="M84.5366 64.1151H76.6992V50.9252C76.6996 50.5551 76.8458 50.2003 77.1057 49.9386C77.3655 49.6769 77.7178 49.5297 78.0853 49.5293H83.1505C83.518 49.5297 83.8703 49.6769 84.1302 49.9386C84.39 50.2003 84.5362 50.5551 84.5366 50.9252V64.1151Z"
                  fill="#B4B4B9"/>
            <path d="M40.3498 69.6696C48.6849 69.6696 55.4418 62.8652 55.4418 54.4715C55.4418 46.0779 48.6849 39.2734 40.3498 39.2734C32.0147 39.2734 25.2578 46.0779 25.2578 54.4715C25.2578 62.8652 32.0147 69.6696 40.3498 69.6696Z"
                  fill="#F2F2F2"/>
            <path d="M80.8534 47.2163C79.4942 47.1733 78.2843 45.9249 78.2746 44.5555C78.2649 43.1861 79.4569 41.9205 80.8154 41.8579C83.8402 41.7186 86.3166 38.4498 85.651 35.4752C84.9854 32.5005 81.356 30.6173 78.5643 31.7979C76.4227 32.7035 74.2586 29.85 74.8014 27.5757C75.3442 25.3014 77.3981 23.7742 79.2986 22.4293C81.199 21.0845 83.232 19.5055 83.6907 17.2125C84.1494 14.9195 81.8012 12.1727 79.7321 13.2356"
                  fill="#5D5F69"/>
            <path d="M55.2244 102H36.7756C36.0397 101.999 35.3342 101.745 34.8139 101.294C34.2935 100.843 34.0008 100.231 34 99.5934V86.4065C34.0008 85.7685 34.2935 85.1568 34.8139 84.7056C35.3342 84.2545 36.0397 84.0007 36.7756 84H55.2244C55.9603 84.0007 56.6658 84.2545 57.1861 84.7056C57.7065 85.1568 57.9992 85.7685 58 86.4065V99.5934C57.9992 100.231 57.7065 100.843 57.1862 101.294C56.6658 101.745 55.9603 101.999 55.2244 102Z"
                  fill="#1991FF"/>
            <path d="M22.666 73.3234V67.1814C22.666 66.7096 22.7926 66.2462 23.0331 65.8381C23.2735 65.43 23.6192 65.0917 24.0351 64.8576L58.6857 45.3528C59.1158 45.1107 59.605 44.989 60.1002 45.0008C60.5955 45.0126 61.0781 45.1576 61.4958 45.4199L92.4098 64.8392C92.7948 65.081 93.1118 65.4146 93.3314 65.809C93.5509 66.2034 93.666 66.646 93.666 67.0958V73.3234C93.666 74.0333 93.3797 74.7141 92.87 75.216C92.3604 75.718 91.6691 76 90.9483 76H25.3837C24.6629 76 23.9717 75.718 23.462 75.2161C22.9523 74.7141 22.666 74.0333 22.666 73.3234Z"
                  fill="#F2F2F2"/>
            <path opacity="0.2"
                  d="M90.8682 73.5827H25.3936C24.6739 73.5827 23.9836 73.2947 23.4746 72.7822C22.9656 72.2696 22.6797 71.5745 22.6797 70.8496V73.3311C22.6797 74.056 22.9656 74.7512 23.4746 75.2637C23.9836 75.7762 24.6739 76.0642 25.3936 76.0642H90.8682C91.588 76.0642 92.2783 75.7762 92.7873 75.2637C93.2962 74.7512 93.5822 74.056 93.5822 73.3311V70.8496C93.5822 71.5745 93.2962 72.2696 92.7873 72.7822C92.2783 73.2947 91.588 73.5827 90.8682 73.5827Z"
                  fill="#5D5F69"/>
        </g>
        <path d="M114.322 14.9725H100.293C99.2691 14.9725 98.2869 14.5656 97.5627 13.8415C96.8385 13.1173 96.4316 12.135 96.4316 11.1109V0.749163C96.4316 0.703798 96.4444 0.659354 96.4685 0.620923C96.4926 0.582492 96.5271 0.551633 96.5679 0.531884C96.6088 0.512135 96.6544 0.504295 96.6994 0.509265C96.7445 0.514235 96.7873 0.531813 96.8229 0.559982L114.472 14.542C114.512 14.5731 114.54 14.6156 114.554 14.6638C114.568 14.7119 114.567 14.7632 114.55 14.8105C114.534 14.8578 114.503 14.8988 114.462 14.9279C114.421 14.9569 114.372 14.9725 114.322 14.9725Z"
              fill="#F2F2F2"/>
    </g>
    <defs>
        <clipPath id="clip0_5428_38335">
            <rect width="115" height="130" fill="white" transform="translate(0.666016)"/>
        </clipPath>
        <clipPath id="clip1_5428_38335">
            <rect width="71" height="105" fill="white" transform="translate(22.666 13)"/>
        </clipPath>
    </defs>
</svg>
