<svg width="186" height="120" viewBox="0 0 186 120" fill="none" xmlns="http://www.w3.org/2000/svg">
<path d="M165.466 2H20.5344C15.6204 2.00552 10.9093 3.95401 7.43468 7.41801C3.96001 10.882 2.00552 15.5786 2 20.4774V99.5226C2.00552 104.421 3.96001 109.118 7.43468 112.582C10.9093 116.046 15.6204 117.994 20.5344 118H165.466C170.38 117.994 175.091 116.046 178.565 112.582C182.04 109.118 183.994 104.421 184 99.5226V20.4774C183.994 15.5786 182.04 10.882 178.565 7.41801C175.091 3.95401 170.38 2.00552 165.466 2Z" fill="var(--c_light)"/>
<path d="M165.75 7H20.2505C16.7375 7.00393 13.3694 8.3999 10.8853 10.8816C8.40125 13.3634 7.00395 16.7282 7 20.2379V99.7621C7.00395 103.272 8.40125 106.637 10.8853 109.118C13.3694 111.6 16.7375 112.996 20.2505 113H165.75C169.263 112.996 172.631 111.6 175.115 109.118C177.599 106.637 178.996 103.272 179 99.7621V20.2379C178.996 16.7282 177.599 13.3634 175.115 10.8817C172.631 8.39996 169.263 7.00397 165.75 7Z" fill="var(--c_white-all)"/>
<path d="M50.7401 10.7188H39.7059C39.1514 10.7188 38.6992 11.1668 38.6992 11.7162C38.6992 12.2694 39.1514 12.7175 39.7059 12.7175H50.7401C51.2945 12.7175 51.7468 12.2694 51.7468 11.7162C51.7468 11.1668 51.2945 10.7188 50.7401 10.7188Z" fill='var(--c_light)'/>
<path d="M69.2206 10.7188H58.1864C57.6319 10.7188 57.1797 11.1668 57.1797 11.7162C57.1797 12.2694 57.6319 12.7175 58.1864 12.7175H69.2206C69.775 12.7175 70.2272 12.2694 70.2272 11.7162C70.2272 11.1668 69.775 10.7188 69.2206 10.7188Z" fill='var(--c_light)'/>
<path d="M87.7049 10.7188H76.6707C76.1163 10.7188 75.6641 11.1668 75.6641 11.7162C75.6641 12.2694 76.1163 12.7175 76.6707 12.7175H87.7049C88.2594 12.7175 88.7116 12.2694 88.7116 11.7162C88.7116 11.1668 88.2594 10.7188 87.7049 10.7188Z" fill='var(--c_light)'/>
<path d="M34.4484 27.6475H20.6066C18.892 27.6475 17.5 29.0267 17.5 30.7254V38.5955C17.5 40.2942 18.892 41.6734 20.6066 41.6734H34.4484C36.1629 41.6734 37.555 40.2942 37.555 38.5955V30.7254C37.555 29.0267 36.1629 27.6475 34.4484 27.6475Z" fill='var(--c_light)'/>
<path d="M34.4484 48.2969H20.6066C18.892 48.2969 17.5 49.6761 17.5 51.3748V59.2449C17.5 60.9436 18.892 62.3228 20.6066 62.3228H34.4484C36.1629 62.3228 37.555 60.9436 37.555 59.2449V51.3748C37.555 49.6761 36.1629 48.2969 34.4484 48.2969Z" fill='var(--c_light)'/>
<path d="M34.4484 68.9458H20.6066C18.892 68.9458 17.5 70.325 17.5 72.0237V79.8938C17.5 81.5925 18.892 82.9718 20.6066 82.9718H34.4484C36.1629 82.9718 37.555 81.5925 37.555 79.8938V72.0237C37.555 70.325 36.1629 68.9458 34.4484 68.9458Z" fill='var(--c_light)'/>
<path d="M65.1203 27.6475H51.2784C49.5639 27.6475 48.1719 29.0267 48.1719 30.7254V38.5955C48.1719 40.2942 49.5639 41.6734 51.2784 41.6734H65.1203C66.8348 41.6734 68.2268 40.2942 68.2268 38.5955V30.7254C68.2268 29.0267 66.8348 27.6475 65.1203 27.6475Z" fill='var(--c_light)'/>
<path d="M65.1203 48.2969H51.2784C49.5639 48.2969 48.1719 49.6761 48.1719 51.3748V59.2449C48.1719 60.9436 49.5639 62.3228 51.2784 62.3228H65.1203C66.8348 62.3228 68.2268 60.9436 68.2268 59.2449V51.3748C68.2268 49.6761 66.8348 48.2969 65.1203 48.2969Z" fill='var(--c_light)'/>
<path d="M95.7921 48.2969H81.9503C80.2358 48.2969 78.8438 49.6761 78.8438 51.3748V59.2449C78.8438 60.9436 80.2358 62.3228 81.9503 62.3228H95.7921C97.5067 62.3228 98.8987 60.9436 98.8987 59.2449V51.3748C98.8987 49.6761 97.5067 48.2969 95.7921 48.2969Z" fill='var(--c_light)'/>
<path d="M95.9875 27.6621H82.1456C80.4311 27.6621 79.0391 29.0413 79.0391 30.74V38.6101C79.0391 40.3088 80.4311 41.6881 82.1456 41.6881H95.9875C97.702 41.6881 99.094 40.3088 99.094 38.6101V30.74C99.094 29.0413 97.702 27.6621 95.9875 27.6621Z" fill='var(--c_light)'/>
<path d="M127.054 27.6621H113.212C111.498 27.6621 110.105 29.0413 110.105 30.74V38.6101C110.105 40.3088 111.498 41.6881 113.212 41.6881H127.054C128.768 41.6881 130.16 40.3088 130.16 38.6101V30.74C130.16 29.0413 128.768 27.6621 127.054 27.6621Z" fill='var(--c_light)'/>
<path d="M127.448 48.3115H113.607C111.892 48.3115 110.5 49.6907 110.5 51.3894V59.2596C110.5 60.9583 111.892 62.3375 113.607 62.3375H127.448C129.163 62.3375 130.555 60.9582 130.555 59.2596V51.3894C130.555 49.6907 129.163 48.3115 127.448 48.3115Z" fill='var(--c_light)'/>
<path d="M127.448 68.9609H113.607C111.892 68.9609 110.5 70.3402 110.5 72.0388V79.909C110.5 81.6077 111.892 82.9869 113.607 82.9869H127.448C129.163 82.9869 130.555 81.6077 130.555 79.909V72.0388C130.555 70.3401 129.163 68.9609 127.448 68.9609Z" fill="var(--c_blue)"/>
<path d="M95.9484 69H82.1066C80.392 69 79 70.3792 79 72.0779V79.948C79 81.6467 80.392 83.026 82.1066 83.026H95.9484C97.6629 83.026 99.055 81.6467 99.055 79.948V72.0779C99.055 70.3792 97.6629 69 95.9484 69Z" fill="var(--c_blue)"/>
<path d="M158.12 48.3115H144.278C142.564 48.3115 141.172 49.6907 141.172 51.3894V59.2596C141.172 60.9583 142.564 62.3375 144.278 62.3375H158.12C159.835 62.3375 161.227 60.9582 161.227 59.2596V51.3894C161.227 49.6907 159.835 48.3115 158.12 48.3115Z" fill='var(--c_light)'/>
<path d="M158.12 27.6621H144.278C142.564 27.6621 141.172 29.0413 141.172 30.74V38.6101C141.172 40.3088 142.564 41.6881 144.278 41.6881H158.12C159.835 41.6881 161.227 40.3088 161.227 38.6101V30.74C161.227 29.0413 159.835 27.6621 158.12 27.6621Z" fill='var(--c_light)'/>
<path d="M158.511 68.9609H144.669C142.955 68.9609 141.562 70.3402 141.562 72.0388V79.909C141.562 81.6077 142.955 82.9869 144.669 82.9869H158.511C160.225 82.9869 161.617 81.6077 161.617 79.909V72.0388C161.617 70.3401 160.225 68.9609 158.511 68.9609Z" fill="var(--c_blue)"/>
<path d="M152.031 89.6104H24.9243C19.6356 89.6104 15.3359 92.4389 15.3359 95.9181V101.614C15.3359 105.093 19.6356 107.922 24.9243 107.922H152.031C157.32 107.922 161.619 105.093 161.619 101.614V95.9181C161.619 92.4389 157.32 89.6104 152.031 89.6104Z" fill='var(--c_light)'/>
</svg>
