<svg width="52" height="52" viewBox="0 0 72 72" fill="none" xmlns="http://www.w3.org/2000/svg">
<path fill-rule="evenodd" clip-rule="evenodd" d="M21.002 14.998V11.998C21.002 7.0275 25.0314 2.99805 30.002 2.99805H42.002C46.9727 2.99805 51.002 7.0275 51.002 11.998V14.998H60.002C63.3158 14.998 66.002 17.6843 66.002 20.998V25.498L55.0208 29.616C54.347 29.8687 53.6336 29.998 52.9139 29.998H19.09C18.3705 29.998 17.6569 29.8687 16.9832 29.616L6.00195 25.498V20.998C6.00195 17.6843 8.68824 14.998 12.002 14.998H21.002ZM25.502 11.998C25.502 9.51276 27.5167 7.49805 30.002 7.49805H42.002C44.4872 7.49805 46.502 9.51276 46.502 11.998V14.998H25.502V11.998Z" fill="#C7C7D1"/>
<path d="M66.002 30.3047L56.6009 33.8303C55.4219 34.2722 54.173 34.4987 52.9139 34.4987H51.002V38.2487C51.002 39.4913 49.9946 40.4987 48.752 40.4987C47.5094 40.4987 46.502 39.4913 46.502 38.2487V34.4987H25.502V38.2487C25.502 39.4913 24.4946 40.4987 23.252 40.4987C22.0093 40.4987 21.002 39.4913 21.002 38.2487V34.4987H19.09C17.8309 34.4987 16.5821 34.2722 15.4032 33.8303L6.00195 30.3047V56.9987C6.00195 60.3125 8.68824 62.9987 12.002 62.9987H60.002C63.3158 62.9987 66.002 60.3125 66.002 56.9987V30.3047Z" fill="#C7C7D1"/>
</svg>
