<svg width="22" height="22" viewBox="0 0 22 22" fill="none" xmlns="http://www.w3.org/2000/svg">
<path d="M5.96094 7.79199C5.96094 7.4123 6.26875 7.10449 6.64844 7.10449H15.3568C15.7365 7.10449 16.0443 7.4123 16.0443 7.79199C16.0443 8.17168 15.7365 8.47949 15.3568 8.47949H6.64844C6.26875 8.47949 5.96094 8.17168 5.96094 7.79199Z" fill="#404041"/>
<path d="M6.64844 10.7705C6.26875 10.7705 5.96094 11.0783 5.96094 11.458C5.96094 11.8377 6.26875 12.1455 6.64844 12.1455H15.3568C15.7365 12.1455 16.0443 11.8377 16.0443 11.458C16.0443 11.0783 15.7365 10.7705 15.3568 10.7705H6.64844Z" fill="#404041"/>
<path fill-rule="evenodd" clip-rule="evenodd" d="M1.83594 4.58333C1.83594 3.57081 2.65675 2.75 3.66927 2.75H18.3359C19.3485 2.75 20.1693 3.57081 20.1693 4.58333V14.6667C20.1693 15.6792 19.3485 16.5 18.3359 16.5H14.0964L11.8016 20.5796C11.4511 21.2027 10.5541 21.2027 10.2036 20.5796L7.90885 16.5H3.66927C2.65675 16.5 1.83594 15.6792 1.83594 14.6667V4.58333ZM7.90885 15.125C8.40561 15.125 8.86374 15.3929 9.10727 15.8259L11.0026 19.1954L12.8979 15.8259C13.1415 15.3929 13.5996 15.125 14.0964 15.125H18.3359C18.589 15.125 18.7943 14.9198 18.7943 14.6667V4.58333C18.7943 4.3302 18.589 4.125 18.3359 4.125H3.66927C3.41614 4.125 3.21094 4.3302 3.21094 4.58333V14.6667C3.21094 14.9198 3.41614 15.125 3.66927 15.125H7.90885Z" fill="#404041"/>
</svg>
