<svg width="22" height="22" viewBox="0 0 22 22" fill="none" xmlns="http://www.w3.org/2000/svg">
<path fill-rule="evenodd" clip-rule="evenodd" d="M3.84935 18.9128L18.2447 11.7156C18.8352 11.4204 18.8351 10.5777 18.2446 10.2826L3.84918 3.08719C3.20134 2.76337 2.49039 3.39692 2.7379 4.07747L5.15615 10.7264C5.22047 10.9032 5.22047 11.0971 5.15615 11.2739L2.73801 17.9226C2.49047 18.6031 3.20151 19.2367 3.84935 18.9128ZM4.21094 4.61142L15.7905 10.3993H6.31397C6.30516 10.3713 6.29571 10.3435 6.28563 10.3158L4.21094 4.61142ZM6.31397 11.6009C6.30516 11.629 6.29571 11.6569 6.28563 11.6846L4.2111 17.3884L15.7867 11.6009H6.31397Z" fill="#404041"/>
</svg>
