<svg width="134" height="134" viewBox="0 0 134 134" fill="none" xmlns="http://www.w3.org/2000/svg">
<g filter="url(#filter0_b_7209_103511)">
<path d="M92.538 28.1836L89.6303 25.4723C89.3902 25.2484 89.0723 25.1236 88.7411 25.1231L28.9586 25.0398L24.0644 25.033C21.688 25.0323 19.4062 25.9611 17.7193 27.6155C16.0325 29.2699 15.0785 31.5149 15.0665 33.858L14.746 115.002C14.7395 117.345 15.6757 119.593 17.3495 121.252C19.0232 122.911 21.2978 123.846 23.6741 123.852L23.6867 123.852L93.7479 123.95L93.7605 123.95C96.1368 123.95 98.4187 123.022 100.106 121.367C101.792 119.713 102.746 117.468 102.758 115.125L103.074 37.4853C103.076 36.7729 102.494 36.2097 101.778 36.1318C98.0505 35.7258 98.3252 33.5024 96.8093 31.9997C95.1355 30.3406 94.0919 29.7105 92.538 28.1836Z" fill="#1362FF"/>
</g>
<g filter="url(#filter1_bi_7209_103511)">
<path d="M110.382 10.6465L107.474 7.93523C107.234 7.7113 106.916 7.58648 106.585 7.58602L46.8023 7.5027L41.9081 7.49588C39.5318 7.49521 37.2499 8.42397 35.5631 10.0784C33.8762 11.7328 32.9222 13.9778 32.9103 16.3209L32.5898 97.4649C32.5832 99.8079 33.5195 102.056 35.1933 103.715C36.867 105.374 39.1415 106.309 41.5178 106.315L41.5304 106.315L111.592 106.412L111.604 106.412C113.981 106.413 116.262 105.484 117.949 103.83C119.636 102.176 120.59 99.9305 120.602 97.5875L120.917 19.9482C120.92 19.2358 120.337 18.6726 119.622 18.5946C115.894 18.1887 116.169 15.9653 114.653 14.4626C112.979 12.8034 111.936 12.1733 110.382 10.6465Z" fill="#070707" fill-opacity="0.2"/>
<path d="M111.594 106.164L111.594 106.164L111.606 106.164L111.594 106.164ZM111.594 106.164L41.5326 106.066L41.5202 106.066L111.594 106.164ZM110.204 10.8234L107.301 8.11668C107.107 7.9358 106.85 7.83499 106.583 7.83462L46.8002 7.7513L41.9062 7.74448C39.5963 7.74382 37.3786 8.64663 35.7395 10.2543C34.1004 11.8619 33.1733 14.0432 33.1617 16.3201L110.204 10.8234ZM110.204 10.8234C110.205 10.8242 110.205 10.825 110.206 10.8257M110.204 10.8234L110.206 10.8257M110.206 10.8257C110.964 11.5699 111.602 12.1035 112.242 12.6393L112.309 12.6952C112.973 13.2501 113.645 13.8169 114.474 14.6388C114.829 14.9906 115.083 15.3882 115.326 15.8094C115.377 15.8972 115.427 15.9867 115.478 16.0772C115.668 16.4133 115.865 16.7628 116.105 17.0875C116.414 17.5069 116.802 17.8964 117.362 18.2062C117.92 18.515 118.636 18.7376 119.593 18.8417C120.2 18.9079 120.668 19.3809 120.666 19.949L120.351 97.588C120.339 99.865 119.412 102.046 117.773 103.654C116.134 105.262 113.916 106.164 111.606 106.164L110.206 10.8257ZM32.8412 97.4638L33.1617 16.3203L41.5199 106.066C39.2101 106.06 36.999 105.151 35.3718 103.538C33.7447 101.926 32.8348 99.7408 32.8412 97.4638Z" stroke="white" stroke-opacity="0.14" stroke-width="0.5"/>
</g>
<path d="M102.66 33H75.3403C74.1892 33 73.0852 32.6839 72.2712 32.1213C71.4573 31.5587 71 30.7956 71 30C71 29.2043 71.4573 28.4413 72.2712 27.8787C73.0852 27.3161 74.1892 27 75.3403 27H102.66C103.811 27 104.915 27.3161 105.729 27.8787C106.543 28.4413 107 29.2043 107 30C107 30.7956 106.543 31.5587 105.729 32.1213C104.915 32.6839 103.811 33 102.66 33Z" fill="#F2F2F5"/>
<path d="M102.627 56H50.3729C49.2131 56 48.1009 55.6839 47.2808 55.1213C46.4607 54.5587 46 53.7956 46 53C46 52.2043 46.4607 51.4413 47.2808 50.8787C48.1009 50.3161 49.2131 50 50.3729 50H102.627C103.787 50 104.899 50.3161 105.719 50.8787C106.539 51.4413 107 52.2043 107 53C107 53.7956 106.539 54.5587 105.719 55.1213C104.899 55.6839 103.787 56 102.627 56Z" fill="#F2F2F5"/>
<path d="M102.627 71H50.3729C49.2131 71 48.1009 70.6313 47.2808 69.9749C46.4607 69.3185 46 68.4282 46 67.5C46 66.5717 46.4607 65.6815 47.2808 65.0251C48.1009 64.3687 49.2131 64 50.3729 64H102.627C103.787 64 104.899 64.3687 105.719 65.0251C106.539 65.6815 107 66.5717 107 67.5C107 68.4282 106.539 69.3185 105.719 69.9749C104.899 70.6313 103.787 71 102.627 71Z" fill="#F2F2F5"/>
<path d="M102.627 85H50.3729C49.2131 85 48.1009 84.6839 47.2808 84.1213C46.4607 83.5587 46 82.7956 46 82C46 81.2043 46.4607 80.4413 47.2808 79.8787C48.1009 79.3161 49.2131 79 50.3729 79H102.627C103.787 79 104.899 79.3161 105.719 79.8787C106.539 80.4413 107 81.2043 107 82C107 82.7956 106.539 83.5587 105.719 84.1213C104.899 84.6839 103.787 85 102.627 85Z" fill="#F2F2F5"/>
<path d="M55 43C59.9706 43 64 38.9706 64 34C64 29.0294 59.9706 25 55 25C50.0294 25 46 29.0294 46 34C46 38.9706 50.0294 43 55 43Z" fill="#F2F2F5"/>
<g filter="url(#filter2_bi_7209_103511)">
<path d="M119.827 19H109.769C109.034 19 108.33 18.6625 107.811 18.0617C107.292 17.4609 107 16.646 107 15.7964V7.20023C107 7.16259 107.009 7.12572 107.026 7.09384C107.044 7.06195 107.068 7.03635 107.098 7.01997C107.127 7.00359 107.16 6.99708 107.192 7.00121C107.224 7.00533 107.255 7.01991 107.28 7.04328L119.934 18.6428C119.963 18.6686 119.983 18.7039 119.993 18.7439C120.003 18.7838 120.002 18.8263 119.99 18.8656C119.979 18.9049 119.956 18.9389 119.927 18.963C119.898 18.9871 119.863 19 119.827 19Z" fill="#070707" fill-opacity="0.2"/>
<path d="M107.137 7.20023L107.137 7.20023L107.137 7.20023ZM107.137 7.20023L107.165 7.16905L107.165 7.16905L107.137 7.20023ZM107.25 7.35448L119.681 18.75H109.769C109.113 18.75 108.476 18.4491 108 17.8982C107.523 17.3462 107.25 16.5905 107.25 15.7964V7.35448Z" stroke="white" stroke-opacity="0.14" stroke-width="0.5"/>
</g>
<defs>
<filter id="filter0_b_7209_103511" x="6.74219" y="17.0332" width="104.328" height="114.917" filterUnits="userSpaceOnUse" color-interpolation-filters="sRGB">
<feFlood flood-opacity="0" result="BackgroundImageFix"/>
<feGaussianBlur in="BackgroundImageFix" stdDeviation="4"/>
<feComposite in2="SourceAlpha" operator="in" result="effect1_backgroundBlur_7209_103511"/>
<feBlend mode="normal" in="SourceGraphic" in2="effect1_backgroundBlur_7209_103511" result="shape"/>
</filter>
<filter id="filter1_bi_7209_103511" x="22.5859" y="-2.50391" width="108.328" height="118.917" filterUnits="userSpaceOnUse" color-interpolation-filters="sRGB">
<feFlood flood-opacity="0" result="BackgroundImageFix"/>
<feGaussianBlur in="BackgroundImageFix" stdDeviation="5"/>
<feComposite in2="SourceAlpha" operator="in" result="effect1_backgroundBlur_7209_103511"/>
<feBlend mode="normal" in="SourceGraphic" in2="effect1_backgroundBlur_7209_103511" result="shape"/>
<feColorMatrix in="SourceAlpha" type="matrix" values="0 0 0 0 0 0 0 0 0 0 0 0 0 0 0 0 0 0 127 0" result="hardAlpha"/>
<feOffset dx="3" dy="-3"/>
<feGaussianBlur stdDeviation="4"/>
<feComposite in2="hardAlpha" operator="arithmetic" k2="-1" k3="1"/>
<feColorMatrix type="matrix" values="0 0 0 0 1 0 0 0 0 1 0 0 0 0 1 0 0 0 0.35 0"/>
<feBlend mode="normal" in2="shape" result="effect2_innerShadow_7209_103511"/>
</filter>
<filter id="filter2_bi_7209_103511" x="97" y="-3" width="33" height="32" filterUnits="userSpaceOnUse" color-interpolation-filters="sRGB">
<feFlood flood-opacity="0" result="BackgroundImageFix"/>
<feGaussianBlur in="BackgroundImageFix" stdDeviation="5"/>
<feComposite in2="SourceAlpha" operator="in" result="effect1_backgroundBlur_7209_103511"/>
<feBlend mode="normal" in="SourceGraphic" in2="effect1_backgroundBlur_7209_103511" result="shape"/>
<feColorMatrix in="SourceAlpha" type="matrix" values="0 0 0 0 0 0 0 0 0 0 0 0 0 0 0 0 0 0 127 0" result="hardAlpha"/>
<feOffset dx="3" dy="-3"/>
<feGaussianBlur stdDeviation="4"/>
<feComposite in2="hardAlpha" operator="arithmetic" k2="-1" k3="1"/>
<feColorMatrix type="matrix" values="0 0 0 0 1 0 0 0 0 1 0 0 0 0 1 0 0 0 0.35 0"/>
<feBlend mode="normal" in2="shape" result="effect2_innerShadow_7209_103511"/>
</filter>
</defs>
</svg>
