<svg width="18" height="18" viewBox="0 0 18 18" fill="none" xmlns="http://www.w3.org/2000/svg">
    <path d="M8.25005 17.2499C8.25005 17.6642 8.58585 18 9.00005 18C9.41425 18 9.75005 17.6642 9.75005 17.25V9.74992H17.25C17.6642 9.74992 18 9.41412 18 8.99992C18 8.58572 17.6642 8.24992 17.25 8.24992H9.75005V0.75C9.75005 0.33579 9.41425 0 9.00005 0C8.58585 0 8.25005 0.33578 8.25005 0.75V8.24992H0.75C0.33579 8.24992 0 8.58572 0 8.99992C0 9.41412 0.33579 9.74992 0.75 9.74992H8.25005V17.2499Z" fill="#5D5F69"/>
</svg>