<svg width="24" height="24" viewBox="0 0 24 24" fill="none" xmlns="http://www.w3.org/2000/svg">
    <path d="M16.2929 17.7066C16.6834 18.0971 17.3166 18.0971 17.7071 17.7066C18.0976 17.3161 18.0976 16.6829 17.7071 16.2924L16.2929 17.7066ZM7.70763 6.29289C7.31711 5.90237 6.68394 5.90237 6.29342 6.29289C5.9029 6.68342 5.9029 7.31658 6.29342 7.70711L7.70763 6.29289ZM17.7071 16.2924L7.70763 6.29289L6.29342 7.70711L16.2929 17.7066L17.7071 16.2924Z"
          fill="#1E81CE"/>
    <path d="M6.29342 16.2929C5.9029 16.6834 5.9029 17.3166 6.29342 17.7071C6.68394 18.0976 7.31711 18.0976 7.70763 17.7071L6.29342 16.2929ZM17.7071 7.70763C18.0976 7.31711 18.0976 6.68395 17.7071 6.29342C17.3166 5.9029 16.6834 5.9029 16.2929 6.29342L17.7071 7.70763ZM7.70763 17.7071L17.7071 7.70763L16.2929 6.29342L6.29342 16.2929L7.70763 17.7071Z"
          fill="#1E81CE"/>
</svg>
