<svg width="20" height="20" viewBox="0 0 20 20" fill="none" xmlns="http://www.w3.org/2000/svg">
<path fill-rule="evenodd" clip-rule="evenodd" d="M0 7.49967C0 8.79509 0.415671 10.0043 1.13493 11.0274L0.412082 13.5574C0.232474 14.186 0.813661 14.7672 1.44228 14.5876L4.65454 13.6698C5.05611 13.8163 5.47513 13.9327 5.90807 14.0158C5.90805 14.0158 5.9081 14.0159 5.90807 14.0158C6.42105 14.1144 6.95362 14.1664 7.49977 14.1664C7.63958 14.1664 7.77851 14.163 7.91644 14.1563C7.91628 14.1563 7.91659 14.1563 7.91644 14.1563C11.8651 13.9644 15 11.0575 15 7.49967C15 3.81777 11.6422 0.833008 7.5 0.833008C3.35787 0.833008 0 3.81777 0 7.49967ZM2.73747 11.4853C2.87574 11.0013 2.78789 10.4808 2.49843 10.069C1.96285 9.30709 1.66667 8.42909 1.66667 7.49967C1.66667 4.91737 4.08837 2.49967 7.5 2.49967C10.9117 2.49967 13.3333 4.91737 13.3333 7.49967C13.3333 10.082 10.9117 12.4997 7.5 12.4997C6.68791 12.4997 5.92037 12.3574 5.22568 12.1041C4.89516 11.9835 4.53496 11.9706 4.19667 12.0673L2.4267 12.573L2.73747 11.4853Z" fill="white"/>
<path d="M16.2784 5.07324C16.5142 5.78577 16.6489 6.54408 16.6651 7.33737C17.7158 8.2673 18.3334 9.52933 18.3334 10.8334C18.3334 11.7628 18.0372 12.6408 17.5016 13.4027C17.2122 13.8145 17.1243 14.3351 17.2626 14.819L17.5734 15.9067L15.8034 15.401C15.4651 15.3043 15.1049 15.3172 14.7744 15.4377C14.0797 15.6912 13.3121 15.8334 12.5001 15.8334C11.6844 15.8334 10.9254 15.6952 10.2425 15.4496C9.38015 15.6964 8.4704 15.8297 7.53906 15.8333C8.86123 16.8707 10.598 17.5001 12.5001 17.5001C13.5072 17.5001 14.4681 17.3236 15.3456 17.0035L18.5578 17.9213C19.1864 18.1009 19.7676 17.5197 19.588 16.8911L18.8651 14.3612C19.5844 13.3379 20.0001 12.1288 20.0001 10.8334C20.0001 8.37617 18.5046 6.22948 16.2784 5.07324Z" fill="white"/>
</svg>
