<svg width="14" height="8" viewBox="0 0 14 8" fill="none" xmlns="http://www.w3.org/2000/svg">
    <path d="M13.6072 7.62758C13.3583 7.86611 13.0217 8 12.6709 8C12.32 8 11.9834 7.86611 11.7346 7.62758L6.9668 3.09391L2.26542 7.62758C2.01659 7.86611 1.67999 8 1.32913 8C0.978274 8 0.641672 7.86611 0.392841 7.62758C0.268363 7.50852 0.169562 7.36688 0.102138 7.21081C0.0347131 7.05475 0 6.88735 0 6.71829C0 6.54922 0.0347131 6.38182 0.102138 6.22576C0.169562 6.06969 0.268363 5.92805 0.392841 5.80899L6.02387 0.378828C6.14733 0.25879 6.29421 0.163514 6.45605 0.0984945C6.61789 0.0334754 6.79148 0 6.9668 0C7.14212 0 7.31571 0.0334754 7.47754 0.0984945C7.63938 0.163514 7.78627 0.25879 7.90973 0.378828L13.6072 5.80899C13.7316 5.92805 13.8304 6.06969 13.8979 6.22576C13.9653 6.38182 14 6.54922 14 6.71829C14 6.88735 13.9653 7.05475 13.8979 7.21081C13.8304 7.36688 13.7316 7.50852 13.6072 7.62758Z"
          fill="#8692A6"/>
</svg>
