<svg width="20" height="20" viewBox="0 0 20 20" fill="none" xmlns="http://www.w3.org/2000/svg">
    <path d="M9.18687 4.8751L9.1997 4.88744L9.31345 4.99484C9.69882 5.35873 10.3012 5.35873 10.6865 4.99484L10.8003 4.88744L10.8131 4.8751C11.5953 4.10978 12.6444 3.67866 13.7386 3.67285C14.801 3.67348 15.82 4.09533 16.5719 4.84597C17.3242 5.59694 17.7479 6.61565 17.75 7.67858C17.7499 8.85977 17.5454 9.63612 16.8957 10.5257C16.1884 11.4942 14.9441 12.6103 12.7259 14.363L10.4088 16.1616C10.4088 16.1616 10.4088 16.1616 10.4087 16.1616C10.1682 16.3483 9.83177 16.3483 9.59125 16.1616C9.59125 16.1616 9.59124 16.1616 9.59124 16.1616L7.27409 14.363C5.05591 12.6103 3.81157 11.4942 3.1043 10.5257C2.45467 9.63615 2.2501 8.85984 2.25 7.67874C2.25208 6.61575 2.67575 5.59698 3.42807 4.84598C4.18004 4.09533 5.19893 3.67348 6.26138 3.67285C7.3556 3.67866 8.40472 4.10978 9.18687 4.8751Z"
          stroke="#5D5F69" stroke-width="2" stroke-linejoin="round"/>
</svg>