<svg width="41" height="42" viewBox="0 0 41 42" fill="none" xmlns="http://www.w3.org/2000/svg">
    <g clip-path="url(#clip0_3178_990)">
        <path d="M29.8901 16.4721C29.7624 16.8288 29.6218 17.1798 29.509 17.5422C29.0593 18.9806 28.9058 20.4381 29.0815 21.9551C29.3979 24.7014 30.7561 26.8129 32.649 28.6463C33.6464 29.6129 34.5882 30.6409 35.5504 31.6439C36.1943 32.3151 36.5404 33.1474 36.5052 34.0776C36.4256 36.2025 34.7363 37.6524 32.7416 37.3628C32.0144 37.2573 31.4074 36.914 30.8893 36.377C29.6107 35.0461 28.3155 33.7304 27.048 32.3899C25.971 31.2488 25.2475 29.891 24.8238 28.3529C24.3872 26.7688 24.339 25.1713 24.698 23.5776C25.1255 21.6847 26.0136 20.0411 27.3847 18.6967C28.0768 18.0179 28.7891 17.36 29.4942 16.6945C29.5996 16.5949 29.7162 16.5124 29.8291 16.4203C29.8494 16.4395 29.8698 16.4548 29.8901 16.4721Z"
              fill="#1991FF"/>
        <path d="M35.8433 6.54166C35.1587 4.24029 32.3517 3.4444 30.6512 5.09755C29.6168 6.1025 28.6324 7.16111 27.6333 8.20439C26.7599 9.11726 25.8754 10.0091 24.7689 10.6266C23.5291 11.317 22.2191 11.7312 20.8072 11.8099C19.6248 11.877 18.4703 11.7638 17.3471 11.3745C16.8456 11.2 16.3571 10.9872 15.8612 10.7896L15.815 10.8452C16.5385 11.6565 17.2545 12.4773 17.9873 13.2789C20.1966 15.6992 22.8889 16.7943 26.103 16.3954C27.9534 16.1652 29.6076 15.4269 30.9676 14.1074C32.3813 12.7381 33.7561 11.3228 35.0902 9.871C35.9433 8.94469 36.219 7.8036 35.8433 6.54166ZM20.6666 9.88439C23.4514 9.66384 25.2 7.24359 25.0446 4.72166C24.941 1.91207 22.5614 -0.105465 20.0172 0.0767271C17.2638 0.274262 15.3246 2.72906 15.6003 5.46384C15.8872 8.2677 18.1372 10.0838 20.6666 9.88439Z"
              fill="#1991FF"/>
        <path d="M24.994 30.3416C23.9504 30.0098 22.9882 29.607 21.9872 29.4172C21.21 29.2695 20.3829 29.3252 19.5873 29.398C18.4807 29.4977 17.4261 29.8372 16.4194 30.3473C15.2334 30.9515 14.2601 31.8241 13.346 32.7945C12.3264 33.878 11.2884 34.9424 10.2503 36.0087C8.59979 37.7041 5.55966 37.0501 4.92682 34.4975C4.63077 33.3046 4.89352 32.2326 5.68363 31.3772C7.09732 29.8468 8.5517 28.3509 10.0542 26.9125C11.2292 25.7887 12.6743 25.1635 14.2545 24.8777C16.5693 24.4577 18.7398 24.8624 20.7419 26.1282C21.3063 26.4849 21.8318 26.9336 22.3036 27.415C23.2251 28.3566 24.0948 29.3578 24.994 30.3416Z"
              fill="#1991FF"/>
        <path d="M20.4915 31.9564C23.1375 31.9104 25.3394 34.1619 25.308 36.9849C25.2766 39.7466 23.1856 41.9348 20.4693 41.9367C17.8196 41.9405 15.6694 39.7178 15.6602 36.9254C15.6528 34.2003 17.8769 31.8682 20.4915 31.9564Z"
              fill="#1991FF"/>
        <path d="M40.5805 20.8466C40.6249 23.5316 38.497 25.8463 35.7584 25.8349C33.0921 25.8234 30.953 23.614 30.9512 20.8562C30.9493 18.0946 33.0828 15.8642 35.7677 15.8508C38.4156 15.8373 40.6342 18.1118 40.5805 20.8466Z"
              fill="#1991FF"/>
        <path d="M10.908 25.2997C11.2281 24.2181 11.6167 23.2208 11.7999 22.1833C11.9424 21.3778 11.8887 20.5205 11.8184 19.6959C11.7222 18.549 11.3946 17.454 10.9025 16.4126C10.3196 15.1833 9.47766 14.1745 8.54321 13.2271C7.49778 12.1704 6.4708 11.0945 5.44201 10.0186C3.8063 8.30791 4.43727 5.15697 6.90009 4.50108C8.05103 4.19423 9.08541 4.46656 9.91064 5.28548C11.3872 6.75065 12.8305 8.25809 14.2183 9.81534C15.3026 11.0331 15.9058 12.531 16.1815 14.1687C16.5868 16.5679 16.1963 18.8175 14.9751 20.8926C14.6309 21.4775 14.1979 22.0222 13.7335 22.5112C12.8213 23.4644 11.8573 24.3677 10.908 25.2997Z"
              fill="#1991FF"/>
        <path d="M9.74651 21.0384C9.79089 23.7809 7.61856 26.0631 4.89484 26.0305C2.23031 25.9979 0.119043 23.8307 0.117192 21.0154C0.113491 18.2691 2.25992 16.0406 4.9522 16.031C7.58158 16.0234 9.83162 18.3285 9.74651 21.0384Z"
              fill="#1991FF"/>
    </g>
    <defs>
        <clipPath id="clip0_3178_990">
            <rect width="41" height="42" fill="white"/>
        </clipPath>
    </defs>
</svg>
