<svg width="140" height="42" viewBox="0 0 140 42" fill="none" xmlns="http://www.w3.org/2000/svg">
    <path d="M50.6074 17.8507V7.15983H52.7912V11.5709H57.2245V7.15983H59.4036V17.8507H57.2245V13.4345H52.7912V17.8507H50.6074ZM62.9843 17.8507H60.6444L64.2103 7.15983H67.0245L70.5854 17.8507H68.2449L65.6575 9.60287H65.5768L62.9843 17.8507ZM62.8382 13.6485H68.3662V15.4129H62.8382V13.6485ZM71.8286 17.8507V7.15983H75.9642C76.7241 7.15983 77.3581 7.27638 77.8659 7.50959C78.3736 7.74274 78.7551 8.0664 79.0107 8.48052C79.2664 8.89118 79.3942 9.36446 79.3942 9.90038C79.3942 10.318 79.3136 10.6852 79.1517 11.0018C78.9904 11.315 78.7688 11.5726 78.4862 11.7744C78.2073 11.9728 77.8877 12.1137 77.5281 12.1973V12.3017C77.9212 12.3191 78.2894 12.4339 78.6323 12.6462C78.9788 12.8585 79.2593 13.1561 79.4749 13.5388C79.6899 13.9182 79.7975 14.3706 79.7975 14.8961C79.7975 15.4634 79.6615 15.9697 79.3891 16.4152C79.1198 16.8572 78.7216 17.2069 78.1936 17.4644C77.6655 17.7219 77.0152 17.8507 76.2417 17.8507H71.8286ZM74.0123 16.0028H75.7928C76.4015 16.0028 76.8453 15.8827 77.1243 15.6426C77.4033 15.399 77.5428 15.0753 77.5428 14.6716C77.5428 14.3759 77.4743 14.1148 77.3363 13.8886C77.1983 13.6624 77.0015 13.4849 76.7459 13.3561C76.4938 13.2274 76.193 13.163 75.8435 13.163H74.0123V16.0028ZM74.0123 11.6335H75.6315C75.9307 11.6335 76.1965 11.5795 76.4283 11.4717C76.6637 11.3603 76.8489 11.2037 76.9833 11.0018C77.1212 10.8 77.1897 10.5582 77.1897 10.2762C77.1897 9.88994 77.0573 9.57851 76.7915 9.34184C76.5293 9.10522 76.156 8.98689 75.672 8.98689H74.0123V11.6335ZM81.2188 7.15983H83.3974V13.8834H83.4831L87.9469 7.15983H89.8582V17.8507H87.6745V11.1219H87.5989L83.1098 17.8507H81.2188V7.15983ZM98.5169 7.15983V9.02342H93.8467V17.8507H91.6625V7.15983H98.5169ZM100.434 17.8507H98.0933L101.659 7.15983H104.473L108.034 17.8507H105.694L103.106 9.60287H103.026L100.434 17.8507ZM100.287 13.6485H105.815V15.4129H100.287V13.6485ZM107.622 9.02342V7.15983H116.106V9.02342H112.943V17.8507H110.784V9.02342H107.622ZM126.523 12.5053C126.523 13.6711 126.309 14.6629 125.882 15.4808C125.459 16.2986 124.881 16.9233 124.148 17.3548C123.418 17.7828 122.597 17.9969 121.686 17.9969C120.768 17.9969 119.944 17.7811 119.215 17.3496C118.485 16.9181 117.908 16.2934 117.485 15.4756C117.061 14.6577 116.849 13.6676 116.849 12.5053C116.849 11.3394 117.061 10.3476 117.485 9.52979C117.908 8.71194 118.485 8.08898 119.215 7.66094C119.944 7.22939 120.768 7.01367 121.686 7.01367C122.597 7.01367 123.418 7.22939 124.148 7.66094C124.881 8.08898 125.459 8.71194 125.882 9.52979C126.309 10.3476 126.523 11.3394 126.523 12.5053ZM124.309 12.5053C124.309 11.7501 124.2 11.1132 123.981 10.5947C123.766 10.0762 123.462 9.68288 123.068 9.41492C122.675 9.14696 122.214 9.01298 121.686 9.01298C121.158 9.01298 120.698 9.14696 120.304 9.41492C119.911 9.68288 119.605 10.0762 119.387 10.5947C119.171 11.1132 119.063 11.7501 119.063 12.5053C119.063 13.2604 119.171 13.8973 119.387 14.4159C119.605 14.9344 119.911 15.3276 120.304 15.5956C120.698 15.8636 121.158 15.9976 121.686 15.9976C122.214 15.9976 122.675 15.8636 123.068 15.5956C123.462 15.3276 123.766 14.9344 123.981 14.4159C124.2 13.8973 124.309 13.2604 124.309 12.5053ZM128.141 17.8507V7.15983H132.216C133 7.15983 133.667 7.31465 134.218 7.6244C134.77 7.93064 135.19 8.35699 135.479 8.90336C135.772 9.44626 135.918 10.0727 135.918 10.7826C135.918 11.4926 135.77 12.119 135.474 12.6619C135.179 13.2048 134.75 13.6276 134.188 13.9304C133.63 14.2332 132.954 14.3845 132.161 14.3845H129.563V12.5731H131.807C132.228 12.5731 132.574 12.4983 132.846 12.3487C133.122 12.1955 133.327 11.985 133.462 11.717C133.6 11.4456 133.669 11.1341 133.669 10.7826C133.669 10.4276 133.6 10.1179 133.462 9.8534C133.327 9.58544 133.122 9.37838 132.846 9.23222C132.571 9.08259 132.221 9.00773 131.797 9.00773H130.325V17.8507H128.141ZM56.8562 34.6507L53.5378 30.0935H52.7912V34.6507H50.6074V23.9598H52.7912V28.2299H53.2299L56.6599 23.9598H59.3783L55.3482 28.919L59.5649 34.6507H56.8562ZM62.4436 34.6507H60.1031L63.6691 23.9598H66.4838L70.0441 34.6507H67.7042L65.1167 26.4029H65.0361L62.4436 34.6507ZM62.2975 30.4485H67.8249V32.2129H62.2975V30.4485ZM71.2874 34.6507V23.9598H75.3631C76.1463 23.9598 76.8138 24.1147 77.3652 24.4244C77.9166 24.7306 78.3371 25.157 78.6262 25.7034C78.9184 26.2463 79.065 26.8727 79.065 27.5826C79.065 28.2926 78.9169 28.919 78.6212 29.4619C78.3249 30.0048 77.8963 30.4276 77.3348 30.7304C76.7768 31.0332 76.1012 31.1845 75.3073 31.1845H72.7097V29.3731H74.9543C75.3748 29.3731 75.7207 29.2983 75.9931 29.1487C76.2691 28.9955 76.474 28.785 76.6084 28.517C76.7464 28.2456 76.8154 27.9341 76.8154 27.5826C76.8154 27.2276 76.7464 26.9179 76.6084 26.6534C76.474 26.3854 76.2691 26.1784 75.9931 26.0322C75.7177 25.8826 75.3677 25.8077 74.9441 25.8077H73.4716V34.6507H71.2874ZM81.9208 27.9115H84.382C85.2027 27.9115 85.9088 28.049 86.5007 28.3239C87.0957 28.5953 87.5548 28.9799 87.8774 29.4775C88.2 29.9752 88.3598 30.5616 88.3568 31.2368C88.3598 31.9084 88.2 32.5017 87.8774 33.0168C87.5548 33.5284 87.0957 33.9286 86.5007 34.2174C85.9088 34.5063 85.2027 34.6507 84.382 34.6507H80.5239V23.9598H82.7025V32.8341H84.382C84.7756 32.8341 85.1068 32.761 85.3757 32.6149C85.645 32.4652 85.8484 32.2686 85.9859 32.025C86.1274 31.7779 86.1964 31.5082 86.1928 31.2159C86.1964 30.7913 86.0417 30.4328 85.7287 30.1405C85.4193 29.8447 84.9704 29.6968 84.382 29.6968H81.9208V27.9115ZM90.0956 34.6507V23.9598H97.0555V25.8234H92.2793V28.3709H96.6974V30.2345H92.2793V32.7871H97.0758V34.6507H90.0956ZM98.7918 34.6507V23.9598H102.867C103.651 23.9598 104.318 24.1147 104.87 24.4244C105.421 24.7306 105.841 25.157 106.13 25.7034C106.423 26.2463 106.569 26.8727 106.569 27.5826C106.569 28.2926 106.421 28.919 106.125 29.4619C105.829 30.0048 105.401 30.4276 104.839 30.7304C104.281 31.0332 103.605 31.1845 102.812 31.1845H100.214V29.3731H102.459C102.879 29.3731 103.225 29.2983 103.498 29.1487C103.773 28.9955 103.978 28.785 104.113 28.517C104.251 28.2456 104.32 27.9341 104.32 27.5826C104.32 27.2276 104.251 26.9179 104.113 26.6534C103.978 26.3854 103.773 26.1784 103.498 26.0322C103.222 25.8826 102.872 25.8077 102.449 25.8077H100.976V34.6507H98.7918ZM109.425 27.9115H111.886C112.707 27.9115 113.413 28.049 114.005 28.3239C114.6 28.5953 115.059 28.9799 115.382 29.4775C115.704 29.9752 115.864 30.5616 115.861 31.2368C115.864 31.9084 115.704 32.5017 115.382 33.0168C115.059 33.5284 114.6 33.9286 114.005 34.2174C113.413 34.5063 112.707 34.6507 111.886 34.6507H108.028V23.9598H110.207V32.8341H111.886C112.28 32.8341 112.611 32.761 112.88 32.6149C113.149 32.4652 113.352 32.2686 113.49 32.025C113.631 31.7779 113.7 31.5082 113.697 31.2159C113.7 30.7913 113.546 30.4328 113.233 30.1405C112.924 29.8447 112.475 29.6968 111.886 29.6968H109.425V27.9115ZM118.882 23.9598V34.6507H116.703V23.9598H118.882Z"
          fill="#5D5F69"/>
    <path d="M29.8901 16.4717C29.7624 16.8284 29.6218 17.1794 29.509 17.5418C29.0593 18.9802 28.9058 20.4377 29.0815 21.9547C29.3979 24.7011 30.7561 26.8126 32.649 28.646C33.6464 29.6125 34.5882 30.6405 35.5504 31.6435C36.1943 32.3147 36.5404 33.1471 36.5052 34.0772C36.4256 36.2021 34.7363 37.652 32.7416 37.3624C32.0144 37.2569 31.4074 36.9137 30.8893 36.3766C29.6107 35.0457 28.3155 33.7301 27.048 32.3895C25.971 31.2484 25.2475 29.8906 24.8238 28.3525C24.3872 26.7685 24.339 25.1709 24.698 23.5772C25.1255 21.6843 26.0136 20.0407 27.3847 18.6964C28.0768 18.0175 28.7891 17.3597 29.4942 16.6942C29.5996 16.5945 29.7162 16.512 29.8291 16.4199C29.8494 16.4391 29.8698 16.4545 29.8901 16.4717Z"
          fill="#5D5F69"/>
    <path d="M35.8433 6.54081C35.1587 4.23944 32.3517 3.44355 30.6512 5.0967C29.6168 6.10164 28.6324 7.16025 27.6333 8.20353C26.7599 9.1164 25.8754 10.0082 24.7689 10.6257C23.5291 11.3162 22.2191 11.7304 20.8072 11.809C19.6248 11.8762 18.4703 11.763 17.3471 11.3737C16.8456 11.1992 16.3571 10.9863 15.8612 10.7887L15.815 10.8444C16.5385 11.6556 17.2545 12.4764 17.9873 13.2781C20.1966 15.6983 22.8889 16.7934 26.103 16.3945C27.9534 16.1644 29.6076 15.426 30.9676 14.1066C32.3813 12.7372 33.7561 11.3219 35.0902 9.87015C35.9433 8.94384 36.219 7.80275 35.8433 6.54081ZM20.6666 9.88353C23.4514 9.66298 25.2 7.24273 25.0446 4.7208C24.941 1.91121 22.5614 -0.106319 20.0172 0.0758726C17.2638 0.273407 15.3246 2.7282 15.6003 5.46298C15.8872 8.26685 18.1372 10.083 20.6666 9.88353Z"
          fill="#5D5F69"/>
    <path d="M24.994 30.3424C23.9504 30.0107 22.9882 29.6079 21.9872 29.418C21.21 29.2704 20.3829 29.326 19.5873 29.3989C18.4807 29.4986 17.4261 29.838 16.4194 30.3482C15.2334 30.9523 14.2601 31.8249 13.346 32.7953C12.3264 33.8789 11.2884 34.9432 10.2503 36.0096C8.59979 37.7049 5.55966 37.0509 4.92682 34.4983C4.63077 33.3055 4.89352 32.2334 5.68363 31.378C7.09732 29.8477 8.5517 28.3518 10.0542 26.9134C11.2292 25.7896 12.6743 25.1643 14.2545 24.8786C16.5693 24.4586 18.7398 24.8633 20.7419 26.129C21.3063 26.4857 21.8318 26.9345 22.3036 27.4159C23.2251 28.3575 24.0948 29.3586 24.994 30.3424Z"
          fill="#5D5F69"/>
    <path d="M20.4915 31.9556C23.1375 31.9095 25.3394 34.161 25.308 36.9841C25.2766 39.7457 23.1856 41.9339 20.4693 41.9359C17.8196 41.9397 15.6694 39.7169 15.6602 36.9246C15.6528 34.1994 17.8769 31.8673 20.4915 31.9556Z"
          fill="#5D5F69"/>
    <path d="M40.5805 20.8475C40.6249 23.5324 38.497 25.8472 35.7584 25.8357C33.0921 25.8242 30.953 23.6149 30.9512 20.8571C30.9493 18.0954 33.0828 15.865 35.7677 15.8516C38.4156 15.8382 40.6342 18.1127 40.5805 20.8475Z"
          fill="#5D5F69"/>
    <path d="M10.908 25.3001C11.2281 24.2185 11.6167 23.2212 11.7999 22.1837C11.9424 21.3782 11.8887 20.5209 11.8184 19.6963C11.7222 18.5494 11.3946 17.4544 10.9025 16.413C10.3196 15.1836 9.47766 14.1749 8.54321 13.2275C7.49778 12.1708 6.4708 11.0949 5.44201 10.019C3.8063 8.30828 4.43727 5.15734 6.90009 4.50145C8.05103 4.1946 9.08541 4.46692 9.91064 5.28585C11.3872 6.75102 12.8305 8.25845 14.2183 9.81571C15.3026 11.0335 15.9058 12.5313 16.1815 14.1691C16.5868 16.5683 16.1963 18.8179 14.9751 20.8929C14.6309 21.4779 14.1979 22.0225 13.7335 22.5116C12.8213 23.4648 11.8573 24.368 10.908 25.3001Z"
          fill="#5D5F69"/>
    <path d="M9.74651 21.0387C9.79089 23.7811 7.61856 26.0633 4.89484 26.0307C2.23031 25.9981 0.119043 23.831 0.117192 21.0157C0.113491 18.2693 2.25992 16.0409 4.9522 16.0313C7.58158 16.0236 9.83162 18.3288 9.74651 21.0387Z"
          fill="#5D5F69"/>
</svg>
