<svg width="50" height="50" viewBox="0 0 50 50" fill="none" xmlns="http://www.w3.org/2000/svg">
    <path d="M25.0007 3.125C18.3507 3.125 12.334 8.15625 12.334 15.9375C12.334 20.9062 16.2132 26.75 23.9557 33.4844C24.5573 34 25.4598 34 26.0615 33.4844C33.7882 26.75 37.6673 20.9062 37.6673 15.9375C37.6673 8.15625 31.6507 3.125 25.0007 3.125ZM25.0007 18.75C23.259 18.75 21.834 17.3438 21.834 15.625C21.834 13.9062 23.259 12.5 25.0007 12.5C26.7423 12.5 28.1673 13.9062 28.1673 15.625C28.1673 17.3438 26.7423 18.75 25.0007 18.75Z"
          fill="#1991FF"/>
</svg>
