<svg width="186" height="130" viewBox="0 0 186 130" fill="none" xmlns="http://www.w3.org/2000/svg">
    <g clip-path="url(#clip0_4091_36098)">
        <path d="M12.9541 0H114.25C117.684 0.0038829 120.977 1.37549 123.405 3.81389C125.834 6.2523 127.2 9.55837 127.204 13.0068V68.6489C127.2 72.0973 125.834 75.4034 123.405 77.8418C120.977 80.2802 117.684 81.6518 114.25 81.6557H12.9541C9.51961 81.6518 6.22693 80.2802 3.79841 77.8418C1.36989 75.4034 0.00385933 72.0973 0 68.6489V13.0068C0.00385861 9.55837 1.36989 6.2523 3.79841 3.81389C6.22693 1.37549 9.51961 0.0038829 12.9541 0Z"
              fill="#F2F2F2"/>
        <path d="M12.9533 3.74414H114.249C116.695 3.74689 119.039 4.72364 120.769 6.46008C122.498 8.19652 123.471 10.5509 123.474 13.0066V68.6487C123.471 71.1044 122.498 73.4587 120.769 75.1951C119.039 76.9316 116.695 77.9083 114.249 77.9111H12.9533C10.5076 77.9083 8.16279 76.9315 6.43341 75.1951C4.70403 73.4587 3.73126 71.1043 3.72852 68.6487V13.0066C3.73125 10.5509 4.70402 8.19656 6.43341 6.46012C8.16279 4.72368 10.5076 3.74692 12.9533 3.74414Z"
              fill="white"/>
        <path d="M13.9433 101.577C13.6376 101.576 13.3351 101.514 13.0531 101.396C12.6323 101.226 12.2723 100.933 12.0202 100.554C11.7682 100.175 11.636 99.7291 11.6408 99.2737V80.0386L37.1808 79.1758L15.5465 100.898C15.3373 101.112 15.0879 101.282 14.8127 101.399C14.5375 101.515 14.2419 101.576 13.9433 101.577Z"
              fill="#F2F2F2"/>
        <path d="M101.562 17.584H25.3929C22.3433 17.584 19.8711 20.0662 19.8711 23.1282V23.1282C19.8711 26.1903 22.3433 28.6725 25.3929 28.6725H101.562C104.612 28.6725 107.084 26.1903 107.084 23.1282C107.084 20.0662 104.612 17.584 101.562 17.584Z"
              fill="#F2F2F2"/>
        <path d="M101.687 35.2832H25.5179C22.4683 35.2832 19.9961 37.7655 19.9961 40.8275V40.8275C19.9961 43.8895 22.4683 46.3717 25.5179 46.3717H101.687C104.737 46.3717 107.209 43.8895 107.209 40.8275C107.209 37.7655 104.737 35.2832 101.687 35.2832Z"
              fill="#F2F2F2"/>
        <path d="M101.81 52.9824H25.6409C22.5913 52.9824 20.1191 55.4647 20.1191 58.5267V58.5267C20.1191 61.5887 22.5913 64.0709 25.6409 64.0709H101.81C104.86 64.0709 107.332 61.5887 107.332 58.5267C107.332 55.4647 104.86 52.9824 101.81 52.9824Z"
              fill="#F2F2F2"/>
        <path d="M172.908 28.3789H71.6123C68.1778 28.3828 64.8851 29.7544 62.4566 32.1928C60.0281 34.6312 58.6621 37.9373 58.6582 41.3857V97.0278C58.6621 100.476 60.0281 103.782 62.4566 106.221C64.8851 108.659 68.1778 110.031 71.6123 110.035H172.908C176.342 110.031 179.635 108.659 182.063 106.221C184.492 103.782 185.858 100.476 185.862 97.0278V41.3857C185.858 37.9373 184.492 34.6312 182.063 32.1928C179.635 29.7544 176.342 28.3828 172.908 28.3789Z"
              fill="#F2F2F2"/>
        <path d="M172.907 32.123H71.6116C69.1659 32.1258 66.8211 33.1025 65.0917 34.839C63.3623 36.5754 62.3895 38.9298 62.3867 41.3855V97.0276C62.3895 99.4833 63.3623 101.838 65.0917 103.574C66.8211 105.31 69.1659 106.287 71.6116 106.29H172.907C175.353 106.287 177.698 105.31 179.427 103.574C181.157 101.838 182.129 99.4833 182.132 97.0276V41.3855C182.129 38.9298 181.157 36.5755 179.427 34.839C177.698 33.1026 175.353 32.1258 172.907 32.123Z"
              fill="white"/>
        <path d="M165.201 129.277L143.566 107.555L169.106 108.417V127.653C169.111 128.108 168.979 128.554 168.727 128.933C168.475 129.312 168.115 129.605 167.694 129.775C167.412 129.893 167.11 129.955 166.804 129.956C166.505 129.955 166.21 129.894 165.935 129.778C165.659 129.661 165.41 129.491 165.201 129.277Z"
              fill="#F2F2F2"/>
        <path d="M99.9185 76.2337C103.784 76.2337 106.917 73.0876 106.917 69.2067C106.917 65.3258 103.784 62.1797 99.9185 62.1797C96.0533 62.1797 92.9199 65.3258 92.9199 69.2067C92.9199 73.0876 96.0533 76.2337 99.9185 76.2337Z"
              fill="#1991FF"/>
        <path d="M122.26 76.2337C126.125 76.2337 129.259 73.0876 129.259 69.2067C129.259 65.3258 126.125 62.1797 122.26 62.1797C118.395 62.1797 115.262 65.3258 115.262 69.2067C115.262 73.0876 118.395 76.2337 122.26 76.2337Z"
              fill="#1991FF"/>
        <path d="M144.602 76.2337C148.467 76.2337 151.601 73.0876 151.601 69.2067C151.601 65.3258 148.467 62.1797 144.602 62.1797C140.737 62.1797 137.604 65.3258 137.604 69.2067C137.604 73.0876 140.737 76.2337 144.602 76.2337Z"
              fill="#1991FF"/>
    </g>
    <defs>
        <clipPath id="clip0_4091_36098">
            <rect width="186" height="130" fill="white"/>
        </clipPath>
    </defs>
</svg>
