<svg width="60" height="60" viewBox="0 0 25 25" fill="none" xmlns="http://www.w3.org/2000/svg">
    <path d="M6.24998 18.7499H18.75C19.3229 18.7499 19.7916 19.2187 19.7916 19.7916C19.7916 20.3645 19.3229 20.8333 18.75 20.8333H6.24998C5.67706 20.8333 5.20831 20.3645 5.20831 19.7916C5.20831 19.2187 5.67706 18.7499 6.24998 18.7499ZM11.4687 14.4791C11.077 14.8657 10.5482 15.0817 9.99783 15.0797C9.44744 15.0777 8.92019 14.8581 8.53123 14.4687L6.24998 12.1874C5.67706 11.6145 5.68748 10.6874 6.28123 10.1353C6.84373 9.59367 7.73956 9.6145 8.28123 10.1562L9.99998 11.8749L16.6979 5.177C17.2604 4.6145 18.1666 4.6145 18.7291 5.177L18.7708 5.21867C19.3333 5.78117 19.3333 6.69784 18.7604 7.26034L11.4687 14.4791V14.4791Z"
          fill="#1E81CE"/>
</svg>