<svg width="24" height="24" viewBox="0 0 24 24" fill="none" xmlns="http://www.w3.org/2000/svg">
    <path d="M23.5063 17.7327L15.139 3.74087C14.8006 3.20717 14.3345 2.76795 13.7835 2.46371C13.2325 2.15947 12.6145 2 11.9863 2C11.3581 2 10.74 2.15947 10.189 2.46371C9.63802 2.76795 9.17187 3.20717 8.83353 3.74087L0.46626 17.7327C0.170682 18.2295 0.0100294 18.7961 0.00045456 19.3753C-0.00912032 19.9546 0.13272 20.5262 0.411714 21.0327C0.734274 21.6028 1.20116 22.0763 1.76466 22.4048C2.32816 22.7334 2.96807 22.9052 3.61899 22.9027H20.3535C21.0002 22.9096 21.6372 22.7445 22.2003 22.4239C22.7634 22.1033 23.2327 21.6386 23.5608 21.0767C23.848 20.565 23.9944 19.9851 23.9848 19.3972C23.9752 18.8093 23.81 18.2347 23.5063 17.7327ZM21.6517 19.9877C21.5206 20.215 21.3303 20.4017 21.1015 20.5277C20.8727 20.6538 20.614 20.7143 20.3535 20.7027H3.61899C3.3585 20.7143 3.09984 20.6538 2.87101 20.5277C2.64219 20.4017 2.45192 20.215 2.32081 19.9877C2.22506 19.8205 2.17465 19.6308 2.17465 19.4377C2.17465 19.2446 2.22506 19.0549 2.32081 18.8877L10.699 4.88486C10.8495 4.68434 11.0441 4.52171 11.2675 4.40974C11.4908 4.29777 11.7368 4.2395 11.9863 4.2395C12.2357 4.2395 12.4817 4.29777 12.7051 4.40974C12.9284 4.52171 13.123 4.68434 13.2735 4.88486L21.6408 18.8767C21.7403 19.0443 21.7937 19.2355 21.7956 19.4307C21.7975 19.626 21.7479 19.8182 21.6517 19.9877Z"
          fill="#8692A6"/>
    <path d="M11.9991 18.5027C12.6016 18.5027 13.09 18.0102 13.09 17.4027C13.09 16.7952 12.6016 16.3027 11.9991 16.3027C11.3966 16.3027 10.9082 16.7952 10.9082 17.4027C10.9082 18.0102 11.3966 18.5027 11.9991 18.5027Z"
          fill="#8692A6"/>
    <path d="M11.9991 8.60352C11.7098 8.60352 11.4323 8.71941 11.2277 8.9257C11.0231 9.13198 10.9082 9.41177 10.9082 9.70351V14.1035C10.9082 14.3952 11.0231 14.675 11.2277 14.8813C11.4323 15.0876 11.7098 15.2035 11.9991 15.2035C12.2884 15.2035 12.5659 15.0876 12.7705 14.8813C12.9751 14.675 13.09 14.3952 13.09 14.1035V9.70351C13.09 9.41177 12.9751 9.13198 12.7705 8.9257C12.5659 8.71941 12.2884 8.60352 11.9991 8.60352Z"
          fill="#8692A6"/>
</svg>
