<svg width="12" height="10" viewBox="0 0 12 10" fill="none" xmlns="http://www.w3.org/2000/svg">
    <path d="M11.5858 0.156697C11.4856 0.0871741 11.3737 0.0394368 11.2564 0.0162122C11.139 -0.00701229 11.0185 -0.00526899 10.9018 0.0213426C10.7851 0.0479541 10.6744 0.0989124 10.5761 0.171307C10.4778 0.243701 10.3937 0.336112 10.3288 0.443261L4.0093 7.52989L1.52572 5.0727C1.4381 4.98601 1.33537 4.91863 1.22341 4.87442C1.11145 4.8302 0.992453 4.81002 0.873204 4.81501C0.63237 4.8251 0.405146 4.93715 0.241519 5.12651C0.0778919 5.31587 -0.00873437 5.56703 0.000696747 5.82473C0.0101279 6.08243 0.114844 6.32557 0.291808 6.50066L3.55275 9.72678C3.55275 9.72678 3.64636 9.81301 3.68969 9.84315C3.78981 9.91273 3.90176 9.96051 4.01914 9.98376C4.13653 10.007 4.25704 10.0053 4.3738 9.97867C4.49056 9.95205 4.60128 9.90108 4.69962 9.82866C4.79796 9.75624 4.88199 9.66378 4.94692 9.55659L11.8536 1.50167C11.9185 1.39455 11.9631 1.27478 11.9848 1.14921C12.0066 1.02363 12.0049 0.894715 11.9801 0.769816C11.9552 0.644916 11.9076 0.526483 11.8399 0.421282C11.7723 0.316082 11.6859 0.226174 11.5858 0.156697Z"
          fill="white"/>
</svg>
