<svg width="21" height="21" viewBox="0 0 21 21" fill="none" xmlns="http://www.w3.org/2000/svg">
    <path d="M19.6874 18.7596L16.6103 15.6831C17.4326 14.6246 17.8206 13.2926 17.6953 11.9581C17.57 10.6236 16.9407 9.38706 15.9356 8.50027C14.9306 7.61348 13.6253 7.14311 12.2856 7.18494C10.9459 7.22678 9.67249 7.77767 8.72471 8.72545C7.77694 9.67322 7.22605 10.9466 7.18421 12.2863C7.14237 13.626 7.61274 14.9313 8.49954 15.9364C9.38633 16.9414 10.6229 17.5707 11.9573 17.696C13.2918 17.8214 14.6239 17.4334 15.6823 16.611L18.7595 19.6875L19.6874 18.7596ZM12.4687 16.4063C11.6899 16.4063 10.9287 16.1753 10.2811 15.7427C9.63361 15.31 9.12894 14.6951 8.83092 13.9756C8.5329 13.2561 8.45492 12.4644 8.60685 11.7006C8.75878 10.9368 9.13379 10.2352 9.68446 9.68453C10.2351 9.13387 10.9367 8.75886 11.7005 8.60693C12.4643 8.455 13.256 8.53297 13.9755 8.83099C14.695 9.12901 15.3099 9.63369 15.7426 10.2812C16.1753 10.9287 16.4062 11.69 16.4062 12.4688C16.405 13.5127 15.9897 14.5135 15.2516 15.2517C14.5134 15.9898 13.5126 16.4051 12.4687 16.4063Z"
          fill="#777777"/>
    <path d="M1.3125 7.875H6.5625V9.1875H1.3125V7.875Z" fill="#777777"/>
    <path d="M1.3125 1.3125H11.8125V2.625H1.3125V1.3125Z" fill="#777777"/>
    <path d="M1.3125 4.59375H11.8125V5.90625H1.3125V4.59375Z" fill="#777777"/>
</svg>
