<svg width="132" height="128" viewBox="0 0 132 128" fill="none" xmlns="http://www.w3.org/2000/svg">
<rect x="18" y="14" width="114" height="114" rx="12" fill="#1362FF"/>
<g filter="url(#filter0_bi_1439_6964)">
<rect x="1" width="114" height="114" rx="12" fill="#070707" fill-opacity="0.2"/>
<rect x="1.5" y="0.5" width="113" height="113" rx="11.5" stroke="white" stroke-opacity="0.14"/>
</g>
<path d="M65.2234 50.7175C65.3303 51.2519 65.748 51.6697 66.2826 51.7766L71.4415 52.8083C71.8841 52.8968 72.3417 52.7583 72.6608 52.4392L83.5848 41.5153C84.2303 40.8696 85.3174 41.0394 85.6562 41.8873C86.5232 44.0557 87 46.4221 87 48.9C87 59.3382 78.5382 67.8 68.1 67.8C65.3268 67.8 62.693 67.2028 60.3202 66.1298L43.2607 83.1892C42.7416 83.7084 42.0376 84 41.3035 84C36.7176 84 33 80.2824 33 75.6964C33 74.9623 33.2916 74.2584 33.8107 73.7392L50.8703 56.6798C49.7973 54.307 49.2 51.6732 49.2 48.9C49.2 38.4618 57.6618 30 68.1 30C70.5778 30 72.9443 30.4768 75.1127 31.3438C75.9605 31.6827 76.1303 32.7696 75.4848 33.4153L64.5608 44.3391C64.2417 44.6583 64.1032 45.1159 64.1917 45.5585L65.2234 50.7175Z" fill="white"/>
<path d="M64.7331 50.8155L64.7331 50.8156C64.8797 51.5479 65.452 52.1204 66.1846 52.2669L66.2826 51.7766L66.1846 52.2669L71.3434 53.2985C71.3434 53.2985 71.3434 53.2985 71.3435 53.2985C71.9499 53.4199 72.577 53.2301 73.0144 52.7927L83.9383 41.8688L83.9383 41.8688C84.3583 41.4488 85.0008 41.5947 85.1919 42.0728L85.1919 42.0729C86.0357 44.1832 86.5 46.4868 86.5 48.9C86.5 59.0621 78.2621 67.3 68.1 67.3C65.3993 67.3 62.8355 66.7185 60.5262 65.6742L60.2112 65.5317L59.9667 65.7762L42.9071 82.8356L42.9071 82.8357C42.4818 83.2611 41.905 83.5 41.3035 83.5C36.9937 83.5 33.5 80.0062 33.5 75.6964C33.5 75.0949 33.7389 74.5182 34.1643 74.0927L51.2239 57.0333L51.4684 56.7888L51.3259 56.4738C50.2816 54.1644 49.7 51.6007 49.7 48.9C49.7 38.738 57.9379 30.5 68.1 30.5C70.5132 30.5 72.8168 30.9643 74.9271 31.808C75.4053 31.9992 75.5512 32.6417 75.1312 33.0617C75.1312 33.0617 75.1312 33.0617 75.1312 33.0617L64.2073 43.9856L64.2073 43.9856C63.7699 44.423 63.5801 45.05 63.7015 45.6565C63.7015 45.6565 63.7015 45.6566 63.7015 45.6566L64.7331 50.8155Z" stroke="white" stroke-opacity="0.14"/>
<defs>
<filter id="filter0_bi_1439_6964" x="-9" y="-10" width="134" height="134" filterUnits="userSpaceOnUse" color-interpolation-filters="sRGB">
<feFlood flood-opacity="0" result="BackgroundImageFix"/>
<feGaussianBlur in="BackgroundImageFix" stdDeviation="5"/>
<feComposite in2="SourceAlpha" operator="in" result="effect1_backgroundBlur_1439_6964"/>
<feBlend mode="normal" in="SourceGraphic" in2="effect1_backgroundBlur_1439_6964" result="shape"/>
<feColorMatrix in="SourceAlpha" type="matrix" values="0 0 0 0 0 0 0 0 0 0 0 0 0 0 0 0 0 0 127 0" result="hardAlpha"/>
<feOffset dx="3" dy="-3"/>
<feGaussianBlur stdDeviation="4"/>
<feComposite in2="hardAlpha" operator="arithmetic" k2="-1" k3="1"/>
<feColorMatrix type="matrix" values="0 0 0 0 1 0 0 0 0 1 0 0 0 0 1 0 0 0 0.35 0"/>
<feBlend mode="normal" in2="shape" result="effect2_innerShadow_1439_6964"/>
</filter>
</defs>
</svg>
