<svg width="18" height="18" viewBox="0 0 18 18" fill="none" xmlns="http://www.w3.org/2000/svg">
<path d="M7.83268 10.4993L6.02018 8.68685C5.8674 8.53407 5.67657 8.46129 5.44768 8.46852C5.21824 8.47518 5.02713 8.5549 4.87435 8.70768C4.72157 8.86046 4.64518 9.0549 4.64518 9.29102C4.64518 9.52713 4.72157 9.72157 4.87435 9.87435L7.24935 12.2493C7.40213 12.4021 7.59657 12.4785 7.83268 12.4785C8.06879 12.4785 8.26324 12.4021 8.41602 12.2493L13.1452 7.52018C13.298 7.3674 13.371 7.17629 13.3643 6.94685C13.3571 6.71796 13.2771 6.52713 13.1243 6.37435C12.9716 6.22157 12.7771 6.14518 12.541 6.14518C12.3049 6.14518 12.1105 6.22157 11.9577 6.37435L7.83268 10.4993ZM8.99935 17.3327C7.84657 17.3327 6.76324 17.1138 5.74935 16.676C4.73546 16.2388 3.85352 15.6452 3.10352 14.8952C2.35352 14.1452 1.7599 13.2632 1.32268 12.2493C0.884905 11.2355 0.666016 10.1521 0.666016 8.99935C0.666016 7.84657 0.884905 6.76324 1.32268 5.74935C1.7599 4.73546 2.35352 3.85352 3.10352 3.10352C3.85352 2.35352 4.73546 1.75963 5.74935 1.32185C6.76324 0.884627 7.84657 0.666016 8.99935 0.666016C10.1521 0.666016 11.2355 0.884627 12.2493 1.32185C13.2632 1.75963 14.1452 2.35352 14.8952 3.10352C15.6452 3.85352 16.2388 4.73546 16.676 5.74935C17.1138 6.76324 17.3327 7.84657 17.3327 8.99935C17.3327 10.1521 17.1138 11.2355 16.676 12.2493C16.2388 13.2632 15.6452 14.1452 14.8952 14.8952C14.1452 15.6452 13.2632 16.2388 12.2493 16.676C11.2355 17.1138 10.1521 17.3327 8.99935 17.3327ZM8.99935 15.666C10.8466 15.666 12.4196 15.0168 13.7185 13.7185C15.0168 12.4196 15.666 10.8466 15.666 8.99935C15.666 7.15213 15.0168 5.57907 13.7185 4.28018C12.4196 2.98185 10.8466 2.33268 8.99935 2.33268C7.15213 2.33268 5.57935 2.98185 4.28102 4.28018C2.98213 5.57907 2.33268 7.15213 2.33268 8.99935C2.33268 10.8466 2.98213 12.4196 4.28102 13.7185C5.57935 15.0168 7.15213 15.666 8.99935 15.666Z" fill="#1991FF"/>
</svg>
