<svg width="138" height="138" viewBox="0 0 138 138" fill="none" xmlns="http://www.w3.org/2000/svg">
<rect width="138" height="138" rx="5" fill="#F7F8FD"/>
<path d="M74.6 91.6667H63.4C60.32 91.6667 57.8 89.1167 57.8 86H18.656V108.667C18.656 114.9 23.696 120 29.856 120H108.2C114.36 120 119.4 114.9 119.4 108.667V86H80.2C80.2 89.1167 77.68 91.6667 74.6 91.6667ZM113.8 40.6667H91.4C91.4 28.1433 81.376 18 69 18C56.624 18 46.6 28.1433 46.6 40.6667H24.2C18.04 40.6667 13 45.7667 13 52V69C13 75.29 17.984 80.3333 24.2 80.3333H57.8V74.6667C57.8 71.55 60.32 69 63.4 69H74.6C77.68 69 80.2 71.55 80.2 74.6667V80.3333H113.8C119.96 80.3333 125 75.2333 125 69V52C125 45.7667 119.96 40.6667 113.8 40.6667ZM57.8 40.6667C57.8 34.4333 62.84 29.3333 69 29.3333C75.16 29.3333 80.2 34.4333 80.2 40.6667H57.744H57.8Z" fill="#A0A6B1"/>
</svg>
