<svg width="120" height="93" viewBox="0 0 120 93" fill="none" xmlns="http://www.w3.org/2000/svg">
<path d="M0.281944 48.2554C0.624872 48.9413 1.19642 49.4557 1.91085 49.6843L19.8003 55.8284C20.1146 55.9427 20.4004 55.9713 20.7147 55.9713C21.8864 55.9713 23.0009 55.2283 23.401 54.0566L37.4325 13.1053L38.1469 13.3625C41.7763 14.6485 45.8342 14.4198 49.2921 12.7338L51.0353 11.8765C53.1215 10.8762 55.5505 10.7048 57.7224 11.4764L90.3577 22.7358C90.0148 23.9932 89.3575 25.4507 88.2144 26.2509C86.8999 27.1653 84.8709 27.1653 82.2132 26.2509L67.5816 21.2498C66.8386 20.9926 66.0098 21.0784 65.324 21.4499C64.6381 21.8214 64.1237 22.4786 63.9237 23.2217C63.8951 23.3074 61.8376 30.8518 55.4934 34.2525C51.4926 36.3958 46.4915 36.453 40.6332 34.4526C39.1471 33.9382 37.5468 34.7383 37.0324 36.2244C36.518 37.7104 37.3182 39.3107 38.8042 39.8251C42.2335 40.9968 45.4913 41.5969 48.5205 41.5969C52.0355 41.5969 55.2648 40.7967 58.2082 39.225C63.9237 36.1386 66.9529 30.8232 68.3532 27.5368L80.3557 31.652C84.8137 33.1666 88.5288 32.938 91.4151 30.9375C95.9589 27.794 96.2733 21.6499 96.3018 20.964C96.3304 19.7352 95.5588 18.6207 94.3872 18.192L59.5228 6.16098C55.922 4.93215 51.9212 5.16077 48.4919 6.84684L46.7487 7.70416C44.634 8.73294 42.1763 8.87583 39.9759 8.10424L37.0896 7.07546C36.9181 6.96115 36.7466 6.87542 36.5466 6.81826L18.7429 0.616974C17.2569 0.102582 15.6566 0.902749 15.1422 2.38877L0.139057 46.1121C-0.0895614 46.798 -0.0324067 47.5696 0.281944 48.2554ZM19.6002 6.87541L32.1171 11.162L18.9715 49.5414L6.45465 45.2548L19.6002 6.87541Z" fill="#1991FF"/>
<path d="M29.7404 74.1736C31.1407 77.0314 33.9412 78.6889 36.9133 78.8032C36.9133 80.032 37.1991 81.2894 37.742 82.4325C38.7137 84.4329 40.3997 85.9189 42.5145 86.6334C43.4003 86.9477 44.3148 87.0906 45.2007 87.0906C46.4581 87.0906 47.6869 86.8048 48.83 86.2333L50.3161 85.4903C50.4304 86.3476 50.6876 87.2335 51.0877 88.0622C52.0593 90.0626 53.7453 91.5487 55.8601 92.2631C56.746 92.5774 57.6604 92.7203 58.5463 92.7203C59.8037 92.7203 61.0326 92.4346 62.1757 91.863L94.6681 75.9454C101.927 72.4018 108.614 67.8295 114.558 62.3712L121.817 55.7127L138.42 47.5967C139.82 46.9108 140.392 45.2248 139.706 43.8245L119.473 2.3016C119.13 1.61574 118.559 1.10135 117.844 0.872729C117.13 0.615533 116.358 0.672687 115.672 1.01562L98.6975 9.33162C97.2972 10.0175 96.7257 11.7035 97.4115 13.1038L116.787 52.712L110.786 58.2275C105.242 63.3142 98.9833 67.5723 92.239 70.8872L59.7466 86.8048C59.1179 87.1192 58.4035 87.1478 57.7176 86.9191C57.0603 86.6905 56.5174 86.2047 56.203 85.576C55.8886 84.9473 55.8601 84.2329 56.0887 83.547C56.3173 82.8897 56.8031 82.3468 57.4318 82.0324L75.607 73.1448C77.0073 72.459 77.5789 70.7729 76.893 69.3726C76.2071 67.9724 74.5211 67.4008 73.1208 68.0867L54.9456 76.9742L46.3724 81.1751C45.7437 81.4894 45.0293 81.518 44.3434 81.2894C43.6861 81.0608 43.1432 80.575 42.8288 79.9463C42.5144 79.3176 42.4859 78.6031 42.7145 77.9173C42.9431 77.26 43.4289 76.717 44.0576 76.4027L70.1202 63.6572C71.5205 62.9713 72.092 61.2852 71.4061 59.885C70.7203 58.4847 69.0342 57.9131 67.6339 58.599L38.3422 72.9162C37.0276 73.5449 35.4558 73.002 34.7986 71.716C34.4842 71.0873 34.4556 70.3728 34.6843 69.687C34.9129 69.0297 35.3987 68.4867 36.0274 68.1724L47.5726 62.5141L62.5757 55.1697C63.976 54.4838 64.5476 52.7978 63.8617 51.3975C63.1759 49.9972 61.4898 49.4256 60.0895 50.1115L36.7418 61.5424C35.4273 62.1711 33.8555 61.6282 33.1982 60.3422C32.5695 59.0276 33.1125 57.4559 34.3985 56.7986L46.8011 50.7402C48.2013 50.0543 48.7729 48.3683 48.087 46.968C47.4012 45.5677 45.7151 44.9962 44.3148 45.682L31.9123 51.7404C27.7971 53.7408 26.0825 58.7419 28.1115 62.857C28.683 64.0287 29.4832 64.9717 30.4548 65.7433C28.7402 68.0581 28.3401 71.3445 29.7404 74.1736ZM103.727 13.161L115.615 7.33121L133.448 43.7673L121.559 49.5971L103.727 13.161Z" fill="#F2F2F2"/>
</svg>
