<svg width="18" height="16" viewBox="0 0 18 16" fill="none" xmlns="http://www.w3.org/2000/svg">
<path d="M8.18687 2.87413L8.1997 2.88646L8.31345 2.99387C8.69883 3.35775 9.30117 3.35775 9.68655 2.99387L9.8003 2.88646L9.81313 2.87413C10.5953 2.1088 11.6444 1.67769 12.7386 1.67188C13.801 1.6725 14.82 2.09435 15.5719 2.845C16.3242 3.59596 16.7479 4.61467 16.75 5.67761C16.7499 6.85879 16.5454 7.63514 15.8957 8.52475C15.1884 9.49324 13.9441 10.6093 11.7259 12.362L9.40876 14.1606C9.16823 14.3473 8.83178 14.3473 8.59125 14.1606C8.59125 14.1606 8.59125 14.1606 8.59124 14.1606L6.27409 12.362C4.05591 10.6093 2.81157 9.49324 2.1043 8.52475C1.45467 7.63518 1.2501 6.85886 1.25 5.67776C1.25208 4.61478 1.67575 3.596 2.42807 2.845C3.18004 2.09435 4.19893 1.6725 5.26138 1.67188C6.3556 1.67769 7.40472 2.10881 8.18687 2.87413Z" stroke="#5D5F69" stroke-width="2" stroke-linejoin="round"/>
</svg>
