<svg width="115" height="130" viewBox="0 0 115 130" fill="none" xmlns="http://www.w3.org/2000/svg">
    <g clip-path="url(#clip0_4143_36314)">
        <path d="M102.41 129.887H11.7616C8.68756 129.883 5.74046 128.661 3.56681 126.487C1.39315 124.313 0.170465 121.366 0.166992 118.292V11.8329C0.170465 8.75886 1.39315 5.81175 3.56681 3.63809C5.74046 1.46444 8.68756 0.241754 11.7616 0.238281H96.0953L114.005 14.5133V118.292C114.001 121.366 112.779 124.313 110.605 126.487C108.431 128.661 105.484 129.883 102.41 129.887Z"
              fill="#F2F2F2"/>
        <path d="M11.7617 3.57617C9.57258 3.57864 7.47386 4.44934 5.92596 5.99725C4.37805 7.54515 3.50735 9.64386 3.50488 11.8329V118.292C3.50735 120.481 4.37805 122.58 5.92596 124.128C7.47386 125.676 9.57258 126.547 11.7617 126.549H102.41C104.599 126.547 106.698 125.676 108.246 124.128C109.794 122.58 110.665 120.481 110.667 118.292V16.1214L94.9279 3.57617H11.7617Z"
              fill="white"/>
        <path d="M113.656 14.9725H99.6273C98.6031 14.9725 97.6209 14.5656 96.8967 13.8415C96.1725 13.1173 95.7656 12.135 95.7656 11.1109V0.749163C95.7656 0.703798 95.7784 0.659354 95.8025 0.620923C95.8266 0.582492 95.8611 0.551633 95.9019 0.531884C95.9427 0.512135 95.9883 0.504295 96.0334 0.509265C96.0785 0.514235 96.1213 0.531813 96.1568 0.559982L113.806 14.542C113.846 14.5731 113.874 14.6156 113.888 14.6638C113.902 14.7119 113.901 14.7632 113.884 14.8105C113.868 14.8578 113.837 14.8988 113.796 14.9279C113.755 14.9569 113.706 14.9725 113.656 14.9725Z"
              fill="#F2F2F2"/>
        <g clip-path="url(#clip1_4143_36314)">
            <path d="M76.636 66.167C76.636 71.6257 74.7264 76.2863 71.0925 79.7545C68.5138 82.2168 64.5418 85.6681 64.5418 89.3171V92.336H52.4477V89.3171C52.4477 85.6299 48.4601 82.1716 45.897 79.7545C42.3452 76.4077 40.3535 71.4308 40.3535 66.167V66.0554C40.3691 61.2507 42.295 56.649 45.7075 53.2623C49.12 49.8756 53.7398 47.9814 58.5506 47.9962C63.3615 48.011 67.9694 49.9336 71.361 53.3412C74.7526 56.7488 76.65 61.3623 76.636 66.167Z"
                  fill="white"/>
            <path d="M64.5419 92.7593C64.4294 92.7593 64.3214 92.7147 64.2419 92.6352C64.1623 92.5557 64.1176 92.4479 64.1176 92.3355V89.316C64.1176 85.7666 67.6226 82.4531 70.182 80.0337C70.3942 79.8328 70.6009 79.6381 70.7992 79.4481C74.3396 76.0678 76.211 71.4752 76.211 66.1666C76.211 56.2453 68.4293 48.4734 58.4953 48.4734H58.4452C53.7701 48.4787 49.2873 50.3324 45.9769 53.6293C42.6665 56.9262 40.7978 61.398 40.7794 66.067V66.1659C40.7794 71.3647 42.7511 76.2051 46.1892 79.4464C46.3633 79.6107 46.5443 79.7798 46.73 79.9534C49.3224 82.3775 52.8728 85.6972 52.8728 89.3161V92.3355C52.8728 92.4479 52.8281 92.5557 52.7485 92.6352C52.669 92.7147 52.561 92.7593 52.4485 92.7593C52.3359 92.7593 52.228 92.7147 52.1484 92.6352C52.0688 92.5557 52.0241 92.4479 52.0241 92.3355V89.316C52.0241 86.0646 48.6293 82.8902 46.1499 80.5713C45.9633 80.397 45.7822 80.2272 45.6066 80.062C41.9995 76.6614 39.9307 71.5965 39.9307 66.1661V66.0644C39.959 55.8865 48.2601 47.6252 58.4439 47.6252H58.4964C63.3942 47.5998 68.1016 49.5186 71.5829 52.9595C75.0642 56.4003 77.0343 61.0814 77.0597 65.973C77.0601 66.0375 77.0601 66.1021 77.0597 66.1666C77.0597 71.7122 75.0976 76.5167 71.3858 80.0608C71.1865 80.2511 70.979 80.4473 70.7654 80.6492C68.3183 82.9628 64.9659 86.1313 64.9659 89.316V92.3355C64.9659 92.4479 64.9211 92.5557 64.8416 92.6352C64.762 92.7147 64.654 92.7593 64.5415 92.7593H64.5419Z"
                  stroke="#F2F2F2" stroke-width="2"/>
            <path d="M64.6253 98.1305H52.3367C52.0508 98.1305 51.7767 97.9252 51.5745 97.5599C51.3724 97.1946 51.2588 96.6991 51.2588 96.1824C51.2588 95.6658 51.3724 95.1703 51.5745 94.8049C51.7767 94.4396 52.0508 94.2344 52.3367 94.2344H64.6253C64.9112 94.2344 65.1854 94.4396 65.3875 94.8049C65.5897 95.1703 65.7032 95.6658 65.7032 96.1824C65.7032 96.6991 65.5897 97.1946 65.3875 97.5599C65.1854 97.9252 64.9112 98.1305 64.6253 98.1305Z"
                  fill="#B4B4B9"/>
            <path d="M59.3617 102.929H57.6265C57.0238 102.93 56.4323 102.766 55.9157 102.456C55.8392 102.411 55.7798 102.342 55.7473 102.26C55.7148 102.178 55.7109 102.087 55.7363 102.002C55.7596 101.915 55.8111 101.838 55.8828 101.783C55.9545 101.728 56.0424 101.699 56.1326 101.699H60.8556C60.9458 101.699 61.0337 101.728 61.1054 101.783C61.1771 101.838 61.2286 101.915 61.2519 102.002C61.2773 102.087 61.2735 102.178 61.2409 102.26C61.2084 102.342 61.149 102.411 61.0724 102.456C60.5559 102.766 59.9644 102.93 59.3617 102.929Z"
                  fill="#5D5F69"/>
            <path d="M54.2402 99.1039L62.7684 99.1078L62.7948 99.3436C62.82 99.7771 62.821 100.229 62.7978 100.664C62.7746 101.099 62.7278 101.507 62.661 101.856C62.5932 102.213 62.5068 102.502 62.4083 102.7C62.3098 102.898 62.2018 103.001 62.0924 103L54.8702 103C54.7608 103.001 54.6527 102.898 54.5542 102.7C54.4557 102.502 54.3693 102.213 54.3015 101.855C54.2353 101.512 54.1886 101.11 54.1652 100.68C54.1417 100.25 54.142 99.8039 54.1661 99.3747L54.1795 99.1356L54.2402 99.1039Z"
                  fill="#B4B4B9"/>
            <path d="M32.8673 44.4198L32.8673 44.4198L32.8711 44.4232L38.9444 49.7177C38.9445 49.7177 38.9445 49.7178 38.9446 49.7178C39.0335 49.7955 39.1325 49.8591 39.2383 49.9072V50.0154L39.7381 50.0156C39.9838 50.0157 40.2236 49.9409 40.4257 49.8012C40.6278 49.6614 40.7824 49.4633 40.8688 49.2333C40.9553 49.0032 40.9694 48.7523 40.9092 48.514C40.849 48.2757 40.7175 48.0616 40.5323 47.9002C40.5323 47.9002 40.5322 47.9002 40.5322 47.9002L34.4584 42.6052L34.4585 42.6052L34.4547 42.6019C34.2129 42.3954 33.8995 42.2926 33.5824 42.3157C33.2654 42.3388 32.9701 42.4859 32.7609 42.7253C32.5516 42.9647 32.4453 43.277 32.4653 43.5945C32.4852 43.9119 32.6298 44.2085 32.8673 44.4198Z"
                  fill="#1991FF" stroke="#1991FF"/>
            <path d="M81.5272 42.6019L81.5272 42.6019C81.769 42.3954 82.0824 42.2926 82.3994 42.3157C82.7165 42.3388 83.0117 42.4859 83.221 42.7253C83.4302 42.9647 83.5366 43.277 83.5166 43.5945C83.4967 43.9119 83.3521 44.2085 83.1145 44.4198L83.1108 44.4232L83.1107 44.4232L77.0379 49.7173C77.0377 49.7174 77.0376 49.7176 77.0374 49.7177C76.8178 49.91 76.5358 50.016 76.2439 50.016L81.5272 42.6019ZM81.5272 42.6019L81.5234 42.6052M81.5272 42.6019L81.5234 42.6052M81.5234 42.6052L75.4498 47.9006C75.2646 48.062 75.133 48.2762 75.0728 48.5144C75.0127 48.7527 75.0267 49.0036 75.1132 49.2337C75.1996 49.4637 75.3543 49.6618 75.5563 49.8016M81.5234 42.6052L75.5563 49.8016M75.5563 49.8016C75.7583 49.9413 75.9981 50.0161 76.2437 50.016L75.5563 49.8016C75.5563 49.8016 75.5563 49.8016 75.5563 49.8016Z"
                  fill="#1991FF" stroke="#1991FF"/>
            <path d="M64.5417 95.6901H52.4475C52.2599 95.6901 52.08 95.6156 51.9474 95.4832C51.8147 95.3507 51.7402 95.171 51.7402 94.9837C51.7402 94.7964 51.8147 94.6167 51.9474 94.4842C52.08 94.3518 52.2599 94.2773 52.4475 94.2773H64.5417C64.7292 94.2773 64.9091 94.3518 65.0418 94.4842C65.1744 94.6167 65.2489 94.7964 65.2489 94.9837C65.2489 95.171 65.1744 95.3507 65.0418 95.4832C64.9091 95.6156 64.7292 95.6901 64.5417 95.6901Z"
                  fill="#B4B4B9"/>
            <path d="M58.1978 77.2386L55.6828 92.3362H54.2471L56.8017 77.0069C56.8325 76.822 56.9355 76.6569 57.0882 76.5479C57.2408 76.4388 57.4306 76.3949 57.6158 76.4256C57.8009 76.4563 57.9662 76.5592 58.0754 76.7117C58.1845 76.8642 58.2286 77.0537 58.1978 77.2386Z"
                  fill="#F2F2F2"/>
            <path d="M63.0316 92.3362H61.5959L59.0809 77.2386C59.0501 77.0537 59.0941 76.8642 59.2033 76.7117C59.3125 76.5592 59.4778 76.4563 59.6629 76.4256C59.8481 76.3949 60.0379 76.4388 60.1905 76.5479C60.3432 76.6569 60.4462 76.822 60.477 77.0069L63.0316 92.3362Z"
                  fill="#F2F2F2"/>
            <path d="M53.8984 76.7337C53.8984 76.5464 53.9729 76.3667 54.1056 76.2342C54.2382 76.1018 54.4181 76.0273 54.6057 76.0273H62.3846C62.5722 76.0273 62.752 76.1018 62.8847 76.2342C63.0173 76.3667 63.0918 76.5464 63.0918 76.7337C63.0918 76.921 63.0173 77.1007 62.8847 77.2332C62.752 77.3656 62.5722 77.4401 62.3846 77.4401H54.6057C54.4181 77.4401 54.2382 77.3656 54.1056 77.2332C53.9729 77.1007 53.8984 76.921 53.8984 76.7337Z"
                  fill="#F2F2F2"/>
            <path d="M57.6419 42.6129C57.8684 42.839 58.1754 42.966 58.4953 42.966C58.8153 42.966 59.1223 42.839 59.3488 42.6129C59.5753 42.3867 59.7026 42.0798 59.7026 41.7596V29.681C59.7026 29.3608 59.5753 29.0539 59.3488 28.8277C59.1223 28.6016 58.8153 28.4746 58.4953 28.4746C58.1754 28.4746 57.8684 28.6016 57.6419 28.8277C57.4154 29.0539 57.2881 29.3608 57.2881 29.681V41.7596C57.2881 42.0798 57.4154 42.3867 57.6419 42.6129Z"
                  fill="#1991FF" stroke="#1991FF"/>
        </g>
    </g>
    <defs>
        <clipPath id="clip0_4143_36314">
            <rect width="115" height="130" fill="white"/>
        </clipPath>
        <clipPath id="clip1_4143_36314">
            <rect width="52" height="75" fill="white" transform="translate(32 28)"/>
        </clipPath>
    </defs>
</svg>
