<svg width="115" height="130" viewBox="0 0 115 130" fill="none" xmlns="http://www.w3.org/2000/svg">
    <g clip-path="url(#clip0_4143_36384)">
        <path d="M102.41 129.887H11.7616C8.68756 129.883 5.74046 128.661 3.56681 126.487C1.39315 124.313 0.170465 121.366 0.166992 118.292V11.8329C0.170465 8.75886 1.39315 5.81175 3.56681 3.63809C5.74046 1.46444 8.68756 0.241754 11.7616 0.238281H96.0953L114.005 14.5133V118.292C114.001 121.366 112.779 124.313 110.605 126.487C108.431 128.661 105.484 129.883 102.41 129.887Z"
              fill="#F2F2F2"/>
        <path d="M11.7617 3.57617C9.57258 3.57864 7.47386 4.44934 5.92596 5.99725C4.37805 7.54515 3.50735 9.64386 3.50488 11.8329V118.292C3.50735 120.481 4.37805 122.58 5.92596 124.128C7.47386 125.676 9.57258 126.547 11.7617 126.549H102.41C104.599 126.547 106.698 125.676 108.246 124.128C109.794 122.58 110.665 120.481 110.667 118.292V16.1214L94.9279 3.57617H11.7617Z"
              fill="white"/>
        <g clip-path="url(#clip1_4143_36384)">
            <path d="M93.8313 64.0856H20.9165C20.4084 64.085 19.9213 63.8849 19.562 63.5293C19.2027 63.1737 19.0006 62.6915 19 62.1886V32.9048C19.0006 32.4019 19.2027 31.9197 19.562 31.5641C19.9213 31.2084 20.4084 31.0084 20.9165 31.0078H93.8313C94.3394 31.0084 94.8265 31.2084 95.1858 31.5641C95.5451 31.9197 95.7472 32.4019 95.7478 32.9048V62.1886C95.7472 62.6915 95.5451 63.1737 95.1858 63.5293C94.8265 63.885 94.3394 64.085 93.8313 64.0856Z"
                  fill="#F5F9FF"/>
            <path d="M70.159 55.0606C69.9146 55.0604 69.6729 55.0085 69.4496 54.9082C69.3977 54.885 69.3482 54.8566 69.3018 54.8235L64.7888 51.6212C64.56 51.4588 64.3732 51.2433 64.2442 50.9929C64.1153 50.7425 64.0479 50.4645 64.0479 50.1824V45.8151C64.0479 45.533 64.1153 45.255 64.2442 45.0046C64.3732 44.7542 64.56 44.5387 64.7888 44.3763L69.3018 41.174C69.3482 41.1409 69.3977 41.1125 69.4496 41.0893C69.7155 40.9701 70.0066 40.9199 70.2966 40.943C70.5867 40.9661 70.8664 41.0619 71.1103 41.2217C71.3543 41.3815 71.5547 41.6002 71.6935 41.8579C71.8323 42.1157 71.905 42.4043 71.905 42.6976V53.2999C71.905 53.7667 71.721 54.2144 71.3936 54.5445C71.0661 54.8746 70.622 55.06 70.159 55.06L70.159 55.0606Z"
                  fill="#1991FF"/>
            <path d="M59.8963 55.5849H47.2463C44.6655 55.5828 42.5739 53.9252 42.5713 51.8798V43.5977C42.5739 41.5523 44.6655 39.8947 47.2463 39.8926H59.9293C62.4917 39.895 64.5683 41.5407 64.5713 43.5716V51.8798C64.5686 53.9252 62.4771 55.5828 59.8963 55.5849Z"
                  fill="#1991FF"/>
            <path d="M86.8884 77.9222H27.8594C27.2495 77.9222 26.6645 77.6823 26.2332 77.2554C25.8019 76.8285 25.5596 76.2495 25.5596 75.6458C25.5596 75.042 25.8019 74.463 26.2332 74.0361C26.6645 73.6092 27.2495 73.3694 27.8594 73.3694H86.8884C89.8543 73.3284 89.884 77.9635 86.8884 77.9222Z"
                  fill="#F2F2F2"/>
            <path d="M86.8878 88.3557H27.8587C27.5565 88.3562 27.2571 88.2976 26.9776 88.1834C26.6982 88.0692 26.4443 87.9016 26.2304 87.6902C26.0165 87.4787 25.8468 87.2276 25.731 86.9512C25.6153 86.6749 25.5557 86.3786 25.5557 86.0794C25.5557 85.7802 25.6153 85.4839 25.731 85.2075C25.8468 84.9311 26.0165 84.68 26.2304 84.4686C26.4443 84.2572 26.6982 84.0896 26.9776 83.9754C27.2571 83.8611 27.5565 83.8026 27.8587 83.803H86.8878C89.8537 83.762 89.8833 88.3971 86.8878 88.3557Z"
                  fill="#F2F2F2"/>
            <path d="M86.8884 99.0003H27.8594C27.2495 99.0003 26.6645 98.7605 26.2332 98.3336C25.8019 97.9067 25.5596 97.3276 25.5596 96.7239C25.5596 96.1202 25.8019 95.5412 26.2332 95.1143C26.6645 94.6874 27.2495 94.4475 27.8594 94.4475H86.8884C89.8543 94.4065 89.884 99.0416 86.8884 99.0003Z"
                  fill="#F2F2F2"/>
        </g>
        <path d="M113.656 14.9725H99.6273C98.6031 14.9725 97.6209 14.5656 96.8967 13.8415C96.1725 13.1173 95.7656 12.135 95.7656 11.1109V0.749163C95.7656 0.703798 95.7784 0.659354 95.8025 0.620923C95.8266 0.582492 95.8611 0.551633 95.9019 0.531884C95.9427 0.512135 95.9883 0.504295 96.0334 0.509265C96.0785 0.514235 96.1213 0.531813 96.1568 0.559982L113.806 14.542C113.846 14.5731 113.874 14.6156 113.888 14.6638C113.902 14.7119 113.901 14.7632 113.884 14.8105C113.868 14.8578 113.837 14.8988 113.796 14.9279C113.755 14.9569 113.706 14.9725 113.656 14.9725Z"
              fill="#F2F2F2"/>
    </g>
    <defs>
        <clipPath id="clip0_4143_36384">
            <rect width="115" height="130" fill="white"/>
        </clipPath>
        <clipPath id="clip1_4143_36384">
            <rect width="77" height="68" fill="white" transform="translate(19 31)"/>
        </clipPath>
    </defs>
</svg>
