<svg width="116" height="130" viewBox="0 0 116 130" fill="none" xmlns="http://www.w3.org/2000/svg">
    <g clip-path="url(#clip0_4143_36150)">
        <path d="M103.077 0.499546L96.7735 0.490611L19.1111 0.38048L12.8075 0.37154C9.74685 0.370658 6.80784 1.5878 4.63523 3.75592C2.46263 5.92405 1.23385 8.8661 1.2185 11.9366L0.805706 118.275C0.797224 121.346 2.00315 124.291 4.1589 126.466C6.31466 128.64 9.24419 129.865 12.3048 129.873L12.3211 129.873L102.558 130.001L102.574 130.001C105.635 130.002 108.574 128.785 110.747 126.617C112.919 124.449 114.148 121.507 114.163 118.436L114.576 12.0974C114.585 9.02684 113.379 6.08133 111.223 3.90707C109.067 1.73281 106.138 0.507345 103.077 0.499546Z"
              fill="#F2F2F2"/>
        <path d="M103.092 3.85285L95.6254 3.83885L20.2881 3.69766L12.822 3.68367C10.6424 3.68204 8.54908 4.54782 7.00121 6.09109C5.45334 7.63435 4.57735 9.72906 4.56542 11.9156L4.10426 118.254C4.09723 120.441 4.95504 122.539 6.48951 124.088C8.02396 125.637 10.1097 126.51 12.2893 126.517L12.3056 126.517L102.543 126.686L102.559 126.686C104.739 126.688 106.832 125.822 108.38 124.279C109.928 122.735 110.804 120.641 110.815 118.454L111.277 12.1156C111.284 9.92907 110.426 7.83112 108.891 6.28208C107.357 4.73304 105.271 3.85941 103.092 3.85285Z"
              fill="white"/>
        <path d="M90.1032 29.7896L56.4482 29.7265C55.9384 29.7256 55.4503 29.5214 55.0913 29.1591C54.7324 28.7967 54.532 28.3058 54.5342 27.7943C54.5364 27.2828 54.7411 26.7926 55.1031 26.4316C55.4652 26.0706 55.9551 25.8683 56.4649 25.8693L90.1199 25.9323C90.6297 25.9333 91.1178 26.1374 91.4768 26.4998C91.8357 26.8621 92.0361 27.3531 92.0339 27.8646C92.0317 28.3761 91.827 28.8662 91.465 29.2272C91.1029 29.5883 90.613 29.7905 90.1032 29.7896L90.1032 29.7896Z"
              fill="#F2F2F2"/>
        <path d="M98.006 36.3139L56.4212 36.236C55.9113 36.235 55.4232 36.0309 55.0643 35.6686C54.7053 35.3062 54.5049 34.8153 54.5071 34.3038C54.5094 33.7923 54.714 33.3021 55.0761 32.9411C55.4382 32.5801 55.928 32.3778 56.4379 32.3787L98.0227 32.4567C98.2752 32.4572 98.5249 32.5075 98.7577 32.6049C98.9906 32.7022 99.2019 32.8447 99.3796 33.0241C99.5573 33.2035 99.698 33.4164 99.7936 33.6506C99.8892 33.8847 99.9378 34.1356 99.9367 34.3889C99.9356 34.6422 99.8848 34.8929 99.7872 35.1267C99.6896 35.3605 99.5471 35.5728 99.3678 35.7516C99.1885 35.9303 98.9759 36.072 98.7423 36.1685C98.5086 36.265 98.2585 36.3144 98.006 36.3139L98.006 36.3139Z"
              fill="#F2F2F2"/>
        <path d="M49.054 17.967L18.0261 17.9089C17.7818 17.9085 17.5471 18.0054 17.3737 18.1784C17.2002 18.3513 17.1021 18.5862 17.101 18.8312L16.9956 43.1251C16.9946 43.3702 17.0907 43.6054 17.2626 43.779C17.4346 43.9526 17.6684 44.0504 17.9127 44.051L48.9407 44.1091C49.1849 44.1095 49.4196 44.0126 49.5931 43.8396C49.7666 43.6666 49.8646 43.4318 49.8657 43.1867L49.9711 18.8929C49.9721 18.6478 49.8761 18.4126 49.7041 18.239C49.5321 18.0653 49.2983 17.9675 49.054 17.967Z"
              fill="#F2F2F2"/>
        <path d="M89.9252 60.587L19.2765 60.5014C19.024 60.501 18.7743 60.4506 18.5414 60.3533C18.3086 60.2559 18.0973 60.1134 17.9196 59.934C17.7419 59.7546 17.6012 59.5417 17.5056 59.3075C17.41 59.0734 17.3613 58.8225 17.3624 58.5692C17.3635 58.316 17.4144 58.0653 17.512 57.8314C17.6096 57.5976 17.7521 57.3853 17.9314 57.2065C18.1107 57.0278 18.3232 56.8861 18.5569 56.7896C18.7906 56.6931 19.0407 56.6437 19.2932 56.6442L89.9419 56.7298C90.4518 56.7307 90.9399 56.9348 91.2988 57.2972C91.6578 57.6595 91.8582 58.1505 91.856 58.662C91.8537 59.1735 91.6491 59.6636 91.287 60.0247C90.9249 60.3857 90.4351 60.588 89.9252 60.587Z"
              fill="#F2F2F2"/>
        <path d="M89.9262 80.587L19.2775 80.5014C19.025 80.501 18.7752 80.4506 18.5424 80.3533C18.3096 80.2559 18.0983 80.1134 17.9206 79.934C17.7428 79.7546 17.6022 79.5417 17.5066 79.3075C17.411 79.0734 17.3623 78.8225 17.3634 78.5692C17.3645 78.316 17.4153 78.0653 17.513 77.8314C17.6106 77.5976 17.7531 77.3853 17.9324 77.2065C18.1117 77.0278 18.3242 76.8861 18.5579 76.7896C18.7915 76.6931 19.0417 76.6437 19.2942 76.6442L89.9429 76.7298C90.4527 76.7307 90.9408 76.9348 91.2998 77.2972C91.6587 77.6595 91.8591 78.1505 91.8569 78.662C91.8547 79.1735 91.6501 79.6636 91.288 80.0247C90.9259 80.3857 90.436 80.588 89.9262 80.587Z"
              fill="#F2F2F2"/>
        <path d="M97.8251 67.1114L19.2465 67.0109C18.7367 67.01 18.2486 66.8059 17.8896 66.4435C17.5307 66.0812 17.3303 65.5902 17.3325 65.0787C17.3347 64.5672 17.5394 64.077 17.9014 63.716C18.2635 63.355 18.7534 63.1527 19.2632 63.1537L97.8419 63.2541C98.3517 63.2551 98.8398 63.4592 99.1988 63.8216C99.5577 64.1839 99.7581 64.6748 99.7559 65.1863C99.7537 65.6978 99.549 66.188 99.1869 66.549C98.8249 66.91 98.335 67.1123 97.8251 67.1114Z"
              fill="#F2F2F2"/>
        <path d="M97.8232 87.1114L19.2446 87.0109C18.7347 87.01 18.2466 86.8059 17.8877 86.4435C17.5287 86.0812 17.3283 85.5902 17.3305 85.0787C17.3327 84.5672 17.5374 84.077 17.8995 83.716C18.2616 83.355 18.7514 83.1527 19.2613 83.1537L97.8399 83.2541C98.3498 83.2551 98.8379 83.4592 99.1968 83.8216C99.5558 84.1839 99.7562 84.6748 99.754 85.1863C99.7517 85.6978 99.5471 86.188 99.185 86.549C98.8229 86.91 98.333 87.1123 97.8232 87.1114Z"
              fill="#F2F2F2"/>
    </g>
    <defs>
        <clipPath id="clip0_4143_36150">
            <rect width="115" height="130" fill="white" transform="translate(0.5)"/>
        </clipPath>
    </defs>
</svg>
