<svg width="115" height="130" viewBox="0 0 115 130" fill="none" xmlns="http://www.w3.org/2000/svg">
    <g clip-path="url(#clip0_4143_36339)">
        <path d="M100.5 4.49904L96.2732 0.489281L18.6109 0.379145L12.3072 0.370205C9.24659 0.369323 6.30758 1.58646 4.13497 3.75459C1.96236 5.92271 0.733592 8.86476 0.718234 11.9353L0.30545 118.274C0.296968 121.345 1.5029 124.29 3.65865 126.464C5.8144 128.639 8.74393 129.864 11.8045 129.872L11.8208 129.872L102.058 130L102.074 130C105.135 130.001 108.074 128.784 110.246 126.615C112.419 124.447 113.648 121.505 113.663 118.435L114.076 15C107.501 15 108.157 11.6743 106.001 9.5C103.845 7.32574 102.501 6.5 100.5 4.49904Z"
              fill="#F2F2F2"/>
        <path d="M101.5 6.50096L95.1259 3.83972L19.7885 3.69854L12.3224 3.68455C10.1428 3.68291 8.0495 4.5487 6.50163 6.09196C4.95376 7.63523 4.07777 9.72994 4.06584 11.9165L3.6047 118.255C3.59767 120.442 4.45549 122.54 5.98995 124.089C7.5244 125.638 9.61019 126.511 11.7897 126.518L11.806 126.518L102.043 126.687L102.059 126.687C104.239 126.689 106.332 125.823 107.88 124.28C109.428 122.736 110.304 120.642 110.316 118.455L110.777 12.1165C108.501 13 106.535 10.5504 105 9.00134C103.466 7.4523 103.679 6.50753 101.5 6.50096Z"
              fill="white"/>
        <path d="M84.78 34.5315H43.5089C42.9968 34.5315 42.5057 34.3281 42.1436 33.966C41.7815 33.6039 41.5781 33.1128 41.5781 32.6007C41.5781 32.0886 41.7815 31.5975 42.1436 31.2354C42.5057 30.8733 42.9968 30.6699 43.5089 30.6699H84.78C85.2921 30.6699 85.7832 30.8733 86.1453 31.2354C86.5074 31.5975 86.7108 32.0886 86.7108 32.6007C86.7108 33.1128 86.5074 33.6039 86.1453 33.966C85.7832 34.3281 85.2921 34.5315 84.78 34.5315Z"
              fill="#1991FF"/>
        <path d="M92.7439 41.0472H43.5083C42.9967 41.0465 42.5062 40.8427 42.1447 40.4807C41.7831 40.1187 41.5801 39.628 41.5801 39.1164C41.5801 38.6047 41.7831 38.114 42.1447 37.752C42.5062 37.39 42.9967 37.1862 43.5083 37.1855H92.7439C92.9977 37.1852 93.2491 37.2349 93.4836 37.3318C93.7182 37.4286 93.9313 37.5708 94.1109 37.7501C94.2905 37.9295 94.4329 38.1424 94.5301 38.3769C94.6273 38.6113 94.6773 38.8626 94.6773 39.1164C94.6773 39.3701 94.6273 39.6214 94.5301 39.8558C94.4329 40.0903 94.2905 40.3032 94.1109 40.4826C93.9313 40.6619 93.7182 40.8041 93.4836 40.9009C93.2491 40.9978 92.9977 41.0475 92.7439 41.0472Z"
              fill="#1991FF"/>
        <path d="M84.7785 59.873H43.5088C42.9968 59.873 42.5057 60.0765 42.1436 60.4385C41.7815 60.8006 41.5781 61.2917 41.5781 61.8037C41.5781 62.3158 41.7815 62.8068 42.1436 63.1689C42.5057 63.531 42.9968 63.7344 43.5088 63.7344H84.7785C85.2906 63.7344 85.7817 63.531 86.1437 63.1689C86.5058 62.8068 86.7092 62.3158 86.7092 61.8037C86.7092 61.2917 86.5058 60.8006 86.1437 60.4385C85.7817 60.0765 85.2906 59.873 84.7785 59.873Z"
              fill="#F2F2F2"/>
        <path d="M92.7436 66.3906H43.5088C42.9968 66.3906 42.5057 66.594 42.1436 66.9561C41.7815 67.3182 41.5781 67.8093 41.5781 68.3213C41.5781 68.8334 41.7815 69.3244 42.1436 69.6865C42.5057 70.0486 42.9968 70.252 43.5088 70.252H92.7436C93.2557 70.252 93.7467 70.0486 94.1088 69.6865C94.4709 69.3244 94.6743 68.8334 94.6743 68.3213C94.6743 67.8093 94.4709 67.3182 94.1088 66.9561C93.7467 66.594 93.2557 66.3906 92.7436 66.3906Z"
              fill="#F2F2F2"/>
        <path d="M84.78 92.9378H43.5089C42.9968 92.9378 42.5057 92.7344 42.1436 92.3723C41.7815 92.0102 41.5781 91.5191 41.5781 91.007C41.5781 90.4949 41.7815 90.0038 42.1436 89.6417C42.5057 89.2796 42.9968 89.0762 43.5089 89.0762H84.78C85.2921 89.0762 85.7832 89.2796 86.1453 89.6417C86.5074 90.0038 86.7108 90.4949 86.7108 91.007C86.7108 91.5191 86.5074 92.0102 86.1453 92.3723C85.7832 92.7344 85.2921 92.9378 84.78 92.9378Z"
              fill="#F2F2F2"/>
        <path d="M92.7439 99.4554H43.5083C42.9967 99.4547 42.5062 99.251 42.1447 98.8889C41.7831 98.5269 41.5801 98.0362 41.5801 97.5246C41.5801 97.0129 41.7831 96.5222 42.1447 96.1602C42.5062 95.7982 42.9967 95.5944 43.5083 95.5938H92.7439C92.9977 95.5934 93.2491 95.6431 93.4836 95.74C93.7182 95.8369 93.9313 95.979 94.1109 96.1584C94.2905 96.3377 94.4329 96.5506 94.5301 96.7851C94.6273 97.0195 94.6773 97.2708 94.6773 97.5246C94.6773 97.7783 94.6273 98.0296 94.5301 98.2641C94.4329 98.4985 94.2905 98.7115 94.1109 98.8908C93.9313 99.0701 93.7182 99.2123 93.4836 99.3091C93.2491 99.406 92.9977 99.4557 92.7439 99.4554Z"
              fill="#F2F2F2"/>
        <path d="M26.3224 42.6839C30.0914 42.6839 33.1467 39.6285 33.1467 35.8595C33.1467 32.0905 30.0914 29.0352 26.3224 29.0352C22.5534 29.0352 19.498 32.0905 19.498 35.8595C19.498 39.6285 22.5534 42.6839 26.3224 42.6839Z"
              fill="#1991FF"/>
        <path d="M25.6457 38.4617C25.4922 38.462 25.3427 38.4123 25.2199 38.3202L25.2122 38.3145L23.6084 37.0876C23.5339 37.0308 23.4714 36.9598 23.4243 36.8787C23.3773 36.7976 23.3467 36.7081 23.3344 36.6152C23.322 36.5223 23.3281 36.4278 23.3522 36.3373C23.3764 36.2467 23.4182 36.1618 23.4752 36.0874C23.5322 36.0131 23.6034 35.9507 23.6846 35.9038C23.7657 35.8569 23.8554 35.8266 23.9483 35.8144C24.0412 35.8022 24.1356 35.8085 24.2261 35.8329C24.3166 35.8572 24.4014 35.8992 24.4757 35.9564L25.5145 36.753L27.9693 33.5505C28.0262 33.4762 28.0972 33.4139 28.1782 33.3671C28.2592 33.3203 28.3487 33.2899 28.4414 33.2776C28.5342 33.2654 28.6284 33.2715 28.7188 33.2957C28.8092 33.3199 28.8939 33.3616 28.9682 33.4185L28.9684 33.4187L28.9531 33.4398L28.9688 33.4187C29.1186 33.5338 29.2166 33.7036 29.2413 33.8909C29.266 34.0782 29.2154 34.2677 29.1006 34.4177L26.2132 38.1829C26.1464 38.2697 26.0605 38.3399 25.9622 38.3881C25.8639 38.4363 25.7558 38.4612 25.6463 38.4609L25.6457 38.4617Z"
              fill="white"/>
        <path d="M33.8471 65.0622C33.8475 65.9585 33.6712 66.8461 33.3285 67.6743C32.9858 68.5025 32.4832 69.2551 31.8496 69.889C31.216 70.5229 30.4637 71.0259 29.6357 71.369C28.8077 71.7122 27.9202 71.8889 27.0239 71.889C26.9653 71.8902 26.9066 71.8878 26.8482 71.882C25.5064 71.8476 24.2045 71.4182 23.1055 70.6476C22.0064 69.8769 21.1591 68.7993 20.6694 67.5495C20.1798 66.2997 20.0696 64.9333 20.3527 63.6212C20.6358 62.3091 21.2995 61.1096 22.2609 60.1729C23.2222 59.2361 24.4385 58.6037 25.7575 58.3547C27.0765 58.1058 28.4396 58.2513 29.6763 58.7732C30.913 59.2951 31.9683 60.1701 32.7102 61.2887C33.452 62.4074 33.8475 63.72 33.8471 65.0622Z"
              fill="#F2F2F2"/>
        <path d="M26.3224 101.09C30.0914 101.09 33.1467 98.0347 33.1467 94.2658C33.1467 90.4968 30.0914 87.4414 26.3224 87.4414C22.5534 87.4414 19.498 90.4968 19.498 94.2658C19.498 98.0347 22.5534 101.09 26.3224 101.09Z"
              fill="#F2F2F2"/>
        <path d="M33.8471 65.0624C33.8474 65.9587 33.6712 66.8463 33.3285 67.6744C32.9857 68.5026 32.4832 69.2552 31.8496 69.8891C31.216 70.5231 30.4637 71.026 29.6357 71.3691C28.8077 71.7123 27.9202 71.889 27.0239 71.8891C26.9652 71.8903 26.9066 71.8879 26.8482 71.8821C25.9666 69.6831 25.6267 67.3043 25.8572 64.9464C26.0878 62.5885 26.882 60.3206 28.1728 58.334C29.7603 58.6061 31.2004 59.4306 32.2388 60.6619C33.2771 61.8931 33.8468 63.4517 33.8471 65.0624Z"
              fill="#1991FF"/>
        <path d="M41.5762 61.8055C41.5771 61.2932 41.781 60.8023 42.1432 60.4401C42.5054 60.0779 42.9964 59.874 43.5086 59.873H53.7927C54.3933 61.0948 54.8202 62.3945 55.061 63.7344H43.5086C42.9967 63.7343 42.5058 63.5311 42.1435 63.1695C41.7813 62.8079 41.5772 62.3173 41.5762 61.8055Z"
              fill="#1991FF"/>
        <path d="M55.3002 66.3906C55.3009 67.6948 55.1284 68.9932 54.7872 70.252H43.5088C42.9968 70.252 42.5057 70.0486 42.1436 69.6865C41.7815 69.3244 41.5781 68.8334 41.5781 68.3213C41.5781 67.8093 41.7815 67.3182 42.1436 66.9561C42.5057 66.594 42.9968 66.3906 43.5088 66.3906H55.3002Z"
              fill="#1991FF"/>
        <path d="M80.7463 90.2028C80.4552 90.6801 79.9863 91.0222 79.443 91.1539C78.8996 91.2855 78.3262 91.1959 77.8488 90.9048L53.2525 75.902C53.0162 75.7578 52.8105 75.5685 52.6474 75.3449C52.4842 75.1213 52.3666 74.8677 52.3015 74.5986C52.2363 74.3296 52.2247 74.0503 52.2675 73.7768C52.3102 73.5033 52.4064 73.2408 52.5506 73.0045C52.6947 72.7681 52.884 72.5625 53.1077 72.3993C53.3313 72.2361 53.5849 72.1186 53.8539 72.0534C54.123 71.9882 54.4023 71.9767 54.6758 72.0194C54.9493 72.0622 55.2117 72.1584 55.4481 72.3025L80.0444 87.3053C80.5217 87.5965 80.8638 88.0653 80.9954 88.6087C81.1271 89.1521 81.0375 89.7255 80.7463 90.2028Z"
              fill="#B4B4B9"/>
        <path d="M56.1494 75.1997C54.4125 78.0474 51.8701 80.316 48.8439 81.7187C45.8176 83.1214 42.4433 83.5952 39.1478 83.0802C35.8522 82.5653 32.7834 81.0846 30.3293 78.8255C27.8753 76.5664 26.1462 73.6303 25.3609 70.3885C24.5755 67.1467 24.7691 63.7449 25.9171 60.6131C27.0651 57.4813 29.116 54.7603 31.8105 52.7942C34.505 50.828 37.722 49.705 41.0547 49.5671C44.3874 49.4293 47.6861 50.2828 50.5337 52.0198C54.3483 54.3524 57.0818 58.103 58.1346 62.4486C59.1874 66.7941 58.4735 71.3799 56.1494 75.1997ZM30.9532 59.831C29.6505 61.9667 29.0104 64.4408 29.1138 66.9403C29.2171 69.4398 30.0594 71.8526 31.534 73.8734C33.0086 75.8943 35.0494 77.4325 37.3982 78.2935C39.747 79.1545 42.2984 79.2997 44.7298 78.7106C47.1611 78.1216 49.3632 76.8248 51.0575 74.9843C52.7518 73.1438 53.8623 70.8421 54.2486 68.3705C54.6348 65.8988 54.2794 63.3681 53.2274 61.0984C52.1754 58.8287 50.4739 56.9219 48.3382 55.6192C45.4733 53.8762 42.034 53.3407 38.7748 54.1303C35.5156 54.9199 32.7027 56.9701 30.9532 59.831Z"
              fill="#B4B4B9"/>
        <path d="M113.656 14.9725H99.6273C98.6031 14.9725 97.6209 14.5656 96.8967 13.8415C96.1725 13.1173 95.7656 12.135 95.7656 11.1109V0.749163C95.7656 0.703798 95.7784 0.659354 95.8025 0.620923C95.8266 0.582492 95.8611 0.551633 95.9019 0.531884C95.9427 0.512135 95.9883 0.504295 96.0334 0.509265C96.0785 0.514235 96.1213 0.531813 96.1568 0.559982L113.806 14.542C113.846 14.5731 113.874 14.6156 113.888 14.6638C113.902 14.7119 113.901 14.7632 113.884 14.8105C113.868 14.8578 113.837 14.8988 113.796 14.9279C113.755 14.9569 113.706 14.9725 113.656 14.9725Z"
              fill="#F2F2F2"/>
    </g>
    <defs>
        <clipPath id="clip0_4143_36339">
            <rect width="115" height="130" fill="white"/>
        </clipPath>
    </defs>
</svg>
