<svg width="28" height="28" viewBox="0 0 28 28" fill="none" xmlns="http://www.w3.org/2000/svg">
<path fill-rule="evenodd" clip-rule="evenodd" d="M24.1168 14.5667C24.6304 14.1426 25.6255 14.5009 25.609 15.1667C25.0237 21.0622 20.0495 25.6667 14 25.6667C7.55665 25.6667 2.33331 20.4434 2.33331 14C2.33331 7.95044 6.93777 2.9763 12.8333 2.39095C13.4991 2.37451 13.8574 3.36957 13.4333 3.88317C12.3377 5.2101 11.6666 6.9167 11.6666 8.75002C11.6666 12.9382 15.0619 16.3333 19.25 16.3333C21.0833 16.3333 22.7899 15.6623 24.1168 14.5667ZM4.08331 14C4.08331 9.60316 6.94583 5.87328 10.9082 4.57443C10.2777 5.83411 9.91665 7.25526 9.91665 8.75002C9.91665 13.9047 14.0953 18.0833 19.25 18.0833C20.7447 18.0833 22.1658 17.7223 23.4256 17.0918C22.1267 21.0541 18.3968 23.9167 14 23.9167C8.52316 23.9167 4.08331 19.4768 4.08331 14Z" fill="#5D5F69"/>
</svg>
