<svg width="28" height="28" viewBox="0 0 28 28" fill="none" xmlns="http://www.w3.org/2000/svg">
<path fill-rule="evenodd" clip-rule="evenodd" d="M18.6668 14.0007C18.6668 16.5779 16.5774 18.6673 14.0002 18.6673C11.4228 18.6673 9.3335 16.5779 9.3335 14.0007C9.3335 11.4233 11.4228 9.33398 14.0002 9.33398C16.5774 9.33398 18.6668 11.4233 18.6668 14.0007ZM16.9168 14.0007C16.9168 15.6115 15.611 16.9173 14.0002 16.9173C12.3893 16.9173 11.0835 15.6115 11.0835 14.0007C11.0835 12.3898 12.3893 11.084 14.0002 11.084C15.611 11.084 16.9168 12.3898 16.9168 14.0007Z" fill="#5D5F69"/>
<path fill-rule="evenodd" clip-rule="evenodd" d="M26.3736 14.9071C26.687 14.3369 26.687 13.6618 26.3736 13.0916C25.0847 10.746 21.0623 4.66602 14.0002 4.66602C6.93794 4.66602 2.91572 10.746 1.62678 13.0916C1.31337 13.6618 1.31337 14.3369 1.62678 14.9071C2.91572 17.2527 6.93794 23.3327 14.0002 23.3327C21.0623 23.3327 25.0847 17.2527 26.3736 14.9071ZM21.1923 18.6889C23.0347 17.0588 24.2478 15.1417 24.8399 14.0643C24.8551 14.0366 24.8586 14.0151 24.8586 13.9993C24.8586 13.9836 24.8551 13.9621 24.8399 13.9344C24.2478 12.8569 23.0347 10.9399 21.1923 9.30987C19.3647 7.69303 16.9892 6.41602 14.0002 6.41602C11.0111 6.41602 8.6356 7.69303 6.80808 9.30987C4.96568 10.9399 3.75254 12.8569 3.16047 13.9344C3.14522 13.9621 3.14172 13.9836 3.14172 13.9993C3.14172 14.0151 3.14522 14.0366 3.16047 14.0643C3.75254 15.1417 4.96568 17.0588 6.80808 18.6889C8.6356 20.3056 11.0111 21.5827 14.0002 21.5827C16.9892 21.5827 19.3647 20.3056 21.1923 18.6889Z" fill="#5D5F69"/>
</svg>
