<svg width="20" height="20" viewBox="0 0 20 20" fill="none" xmlns="http://www.w3.org/2000/svg">
    <path d="M9.25681 4.80363L9.26836 4.81473L9.38211 4.92214C9.72894 5.24963 10.2711 5.24963 10.6179 4.92214L10.7316 4.81473L10.7432 4.80363C11.544 4.02008 12.6181 3.57873 13.7384 3.57285C14.8274 3.57342 15.8718 4.00579 16.6426 4.7752C17.4136 5.54488 17.8478 6.58898 17.85 7.67841C17.8499 8.87629 17.6411 9.67454 16.9765 10.5847C16.26 11.5658 15.0049 12.6897 12.7876 14.4417L10.4701 16.2406C10.1935 16.4553 9.80653 16.4553 9.52993 16.2406L7.21238 14.4417C4.9951 12.6897 3.74002 11.5658 3.02354 10.5847C2.35893 9.67461 2.15009 8.8764 2.15 7.67866C2.1521 6.58915 2.58633 5.54495 3.35742 4.7752C4.12819 4.00578 5.17259 3.57342 6.26161 3.57285C7.3819 3.57873 8.45603 4.02008 9.25681 4.80363Z"
          stroke="#5D5F69" stroke-width="1.8" stroke-linejoin="round"/>
</svg>
