<svg xmlns="http://www.w3.org/2000/svg" width="28" height="28" viewBox="0 0 28 28" fill="none">
    <path fill-rule="evenodd" clip-rule="evenodd" d="M14 14C15.2887 14 16.3334 12.9554 16.3334 11.6667C16.3334 10.378 15.2887 9.33334 14 9.33334C12.7113 9.33334 11.6667 10.378 11.6667 11.6667C11.6667 12.9554 12.7113 14 14 14ZM14 15.75C16.2552 15.75 18.0834 13.9218 18.0834 11.6667C18.0834 9.41152 16.2552 7.58334 14 7.58334C11.7449 7.58334 9.91669 9.41152 9.91669 11.6667C9.91669 13.9218 11.7449 15.75 14 15.75Z" fill="#5D5F69"/>
    <path fill-rule="evenodd" clip-rule="evenodd" d="M12.8072 25.6065C13.1993 25.6463 13.5972 25.6667 14 25.6667C20.4432 25.6667 25.6666 20.4433 25.6666 14C25.6666 7.55669 20.4432 2.33334 14 2.33334C7.55665 2.33334 2.33331 7.55669 2.33331 14C2.33331 16.8951 3.38785 19.544 5.13378 21.5833C6.73691 23.4558 8.92291 24.8145 11.4107 25.3783C11.8666 25.4816 12.3327 25.5583 12.8072 25.6065ZM20.3905 21.5832C18.7092 23.0015 16.5498 23.8709 14.1885 23.9149C14.1259 23.9161 14.063 23.9167 14 23.9167C13.9497 23.9167 13.8996 23.9163 13.8496 23.9155C11.4734 23.8803 9.29974 23.0091 7.60942 21.5832C9.33638 20.1261 11.5653 19.25 14 19.25C16.4347 19.25 18.6635 20.1261 20.3905 21.5832ZM21.6271 20.3382C19.5819 18.5697 16.9158 17.5 14 17.5C11.0841 17.5 8.418 18.5697 6.37284 20.3382C4.94316 18.6197 4.08331 16.4102 4.08331 14C4.08331 8.52319 8.52316 4.08334 14 4.08334C19.4768 4.08334 23.9166 8.52319 23.9166 14C23.9166 16.4102 23.0568 18.6197 21.6271 20.3382Z" fill="#5D5F69"/>
</svg>