<svg width="28" height="28" viewBox="0 0 28 28" fill="none" xmlns="http://www.w3.org/2000/svg">
<g clip-path="url(#clip0_9572_108424)">
<mask id="mask0_9572_108424" style="mask-type:luminance" maskUnits="userSpaceOnUse" x="0" y="0" width="28" height="28">
<path d="M28 0H0V28H28V0Z" fill="white"/>
</mask>
<g mask="url(#mask0_9572_108424)">
<path d="M14 4.66667C13.5168 4.66667 13.125 4.27491 13.125 3.79167V0.875C13.125 0.39175 13.5168 0 14 0C14.4832 0 14.875 0.39175 14.875 0.875V3.79167C14.875 4.27491 14.4832 4.66667 14 4.66667Z" fill="#5D5F69"/>
<path d="M20.5997 7.40035C20.2581 7.05864 20.2581 6.50462 20.5997 6.16292L22.6621 4.10052C23.0039 3.75881 23.5579 3.75881 23.8996 4.10052C24.2413 4.44222 24.2413 4.99625 23.8996 5.33795L21.8372 7.40035C21.4955 7.74206 20.9414 7.74206 20.5997 7.40035Z" fill="#5D5F69"/>
<path d="M24.2083 13.125C23.725 13.125 23.3333 13.5168 23.3333 14C23.3333 14.4832 23.725 14.875 24.2083 14.875H27.1249C27.6082 14.875 27.9999 14.4832 27.9999 14C27.9999 13.5168 27.6082 13.125 27.1249 13.125H24.2083Z" fill="#5D5F69"/>
<path d="M20.5998 20.5997C20.9414 20.258 21.4954 20.258 21.8372 20.5997L23.8996 22.662C24.2413 23.0038 24.2413 23.5578 23.8996 23.8995C23.5579 24.2412 23.0038 24.2412 22.6621 23.8995L20.5998 21.8371C20.2581 21.4954 20.2581 20.9414 20.5998 20.5997Z" fill="#5D5F69"/>
<path d="M14 28C13.5168 28 13.125 27.6082 13.125 27.125V24.2083C13.125 23.7251 13.5168 23.3333 14 23.3333C14.4832 23.3333 14.875 23.7251 14.875 24.2083V27.125C14.875 27.6082 14.4832 28 14 28Z" fill="#5D5F69"/>
<path fill-rule="evenodd" clip-rule="evenodd" d="M14 21C17.866 21 21 17.866 21 14C21 10.134 17.866 7 14 7C10.134 7 7 10.134 7 14C7 17.866 10.134 21 14 21ZM14 19.25C16.8995 19.25 19.25 16.8995 19.25 14C19.25 11.1005 16.8995 8.75 14 8.75C11.1005 8.75 8.75 11.1005 8.75 14C8.75 16.8995 11.1005 19.25 14 19.25Z" fill="#5D5F69"/>
<path d="M4.10052 4.10052C4.44223 3.75881 4.99625 3.75881 5.33795 4.10052L7.40035 6.16292C7.74207 6.50462 7.74207 7.05864 7.40035 7.40035C7.05865 7.74206 6.50462 7.74206 6.16292 7.40035L4.10052 5.33795C3.75881 4.99625 3.75881 4.44222 4.10052 4.10052Z" fill="#5D5F69"/>
<path d="M4.10052 23.8995C3.75881 23.5578 3.75881 23.0038 4.10052 22.662L6.16292 20.5997C6.50462 20.258 7.05864 20.258 7.40035 20.5997C7.74206 20.9413 7.74206 21.4954 7.40035 21.8371L5.33795 23.8995C4.99625 24.2412 4.44222 24.2412 4.10052 23.8995Z" fill="#5D5F69"/>
<path d="M0 14C0 13.5168 0.39175 13.125 0.875 13.125H3.79167C4.27491 13.125 4.66667 13.5168 4.66667 14C4.66667 14.4832 4.27491 14.875 3.79167 14.875H0.875C0.391751 14.875 0 14.4832 0 14Z" fill="#5D5F69"/>
</g>
</g>
<defs>
<clipPath id="clip0_9572_108424">
<rect width="28" height="28" fill="white"/>
</clipPath>
</defs>
</svg>
