<svg width="140" height="124" viewBox="0 0 140 124" fill="none" xmlns="http://www.w3.org/2000/svg">
<g id="undraw_opened_re_i38e 1" clip-path="url(#clip0_9972_53754)">
<path id="Vector" d="M136.515 119.63C136.279 119.96 136.04 120.288 135.804 120.614C135.125 121.082 134.32 121.332 133.495 121.33H6.50756C5.71999 121.331 4.94912 121.103 4.28829 120.674C4.06897 120.385 3.85213 120.093 3.63281 119.801L3.85213 119.681L68.1389 84.0101C68.7093 83.6943 69.3503 83.5282 70.0021 83.5273C70.654 83.5265 71.2954 83.6909 71.8667 84.0053L136.298 119.509L136.515 119.63Z" fill="#F2F2F2"/>
<path id="Vector_2" d="M133.494 44.6228L77.7792 12.4137C75.4359 11.0589 72.7777 10.3451 70.0716 10.3438C67.3656 10.3424 64.7067 11.0536 62.362 12.406L6.50654 44.6228C5.42058 44.6244 4.37955 45.0569 3.61166 45.8256C2.84377 46.5942 2.41169 47.6364 2.41016 48.7234V117.228C2.41142 118.315 2.84341 119.357 3.61136 120.126C4.3793 120.895 5.4205 121.327 6.50654 121.328H133.494C134.58 121.327 135.621 120.894 136.389 120.125C137.157 119.357 137.589 118.315 137.591 117.228V48.7234C137.589 47.6364 137.157 46.5942 136.389 45.8256C135.622 45.0569 134.58 44.6244 133.494 44.6228ZM137.109 117.228C137.107 118.187 136.725 119.106 136.048 119.784C135.37 120.462 134.452 120.844 133.494 120.846H6.50654C5.54846 120.844 4.63011 120.462 3.95264 119.784C3.27517 119.106 2.89381 118.187 2.89208 117.228V48.7234C2.89325 47.7642 3.27443 46.8446 3.95202 46.1663C4.62961 45.488 5.54829 45.1064 6.50654 45.1053L62.362 12.8885C64.7067 11.5361 67.3656 10.8248 70.0716 10.8262C72.7777 10.8275 75.4359 11.5414 77.7792 12.8961L133.494 45.1053C134.453 45.1064 135.371 45.488 136.049 46.1663C136.727 46.8446 137.108 47.7642 137.109 48.7234V117.228Z" fill="#F2F2F2" stroke="#F2F2F2" stroke-width="4"/>
<path id="Vector_3" d="M70.0723 83.3808C69.6526 83.3823 69.2357 83.3123 68.8395 83.1738L68.5662 83.0712L68.5177 83.0498C68.4162 83.0051 68.3153 82.9546 68.218 82.8997L23.8555 57.9455V6.99368C23.8568 5.81058 24.3269 4.67631 25.1626 3.83973C25.9983 3.00315 27.1314 2.53258 28.3133 2.53125H111.687C112.869 2.53258 114.002 3.00315 114.837 3.83973C115.673 4.67631 116.143 5.81058 116.145 6.99368V58.0107L116.083 58.0453L71.9266 82.8998C71.3597 83.2162 70.7213 83.3818 70.0723 83.3808Z" fill="white"/>
<path id="Vector_4" d="M70.0717 83.5049C69.6384 83.5063 69.208 83.434 68.7989 83.291L68.653 83.2395L68.5656 83.2063L68.4686 83.1637C68.3635 83.1174 68.2591 83.0651 68.1583 83.0082L23.7344 58.0196V6.9971C23.7357 5.78202 24.2185 4.61711 25.0768 3.75792C25.9351 2.89873 27.0989 2.41544 28.3127 2.41406H111.686C112.9 2.41544 114.064 2.89874 114.922 3.75793C115.78 4.61711 116.263 5.78202 116.264 6.9971V58.0846L71.985 83.0083C71.4001 83.3349 70.7414 83.5058 70.0717 83.5049ZM69.1046 82.8834C69.9905 83.138 70.9411 83.0317 71.749 82.5877L115.783 57.8024V6.9971C115.781 5.90992 115.349 4.86763 114.581 4.09888C113.813 3.33013 112.772 2.89771 111.686 2.89649H28.3127C27.2266 2.89771 26.1854 3.33013 25.4175 4.09888C24.6495 4.86763 24.2175 5.90992 24.2163 6.9971V57.7372L27.1054 59.3614L68.3946 82.5878C68.4508 82.6195 68.5079 82.6493 68.5657 82.6772C68.5657 82.6772 69.0485 82.915 69.1046 82.8834Z" fill="#F2F2F2" stroke="#F2F2F2" stroke-width="4"/>
<path id="Vector_5" d="M136.523 46.4057L119.036 56.2472L116.024 57.9429L71.8673 82.7974C71.3185 83.1037 70.7004 83.264 70.0721 83.2629C69.666 83.2641 69.2628 83.1964 68.8793 83.0627C68.7727 83.0286 68.6681 82.9883 68.566 82.9421C68.4673 82.8987 68.3709 82.8505 68.2769 82.7974L26.9878 59.5711L23.9757 57.8777L3.51308 46.3671C3.45744 46.3352 3.41662 46.2826 3.39948 46.2207C3.38235 46.1588 3.39027 46.0927 3.42154 46.0366C3.45289 45.981 3.50501 45.9401 3.56644 45.923C3.62788 45.9058 3.69361 45.9137 3.74922 45.945L23.9757 57.323L26.9878 59.0163L68.5131 82.3753C68.6508 82.4527 68.7942 82.5196 68.9419 82.5755C69.0047 82.5996 69.0697 82.6213 69.1348 82.6406C69.5472 82.7673 69.981 82.8092 70.4101 82.7635C70.8391 82.7179 71.2545 82.5859 71.6311 82.3753L116.024 57.3905L119.036 55.6948L136.287 45.986C136.314 45.9705 136.344 45.9605 136.376 45.9567C136.407 45.9529 136.439 45.9554 136.469 45.9639C136.5 45.9724 136.528 45.9868 136.553 46.0063C136.578 46.0259 136.599 46.0501 136.614 46.0776C136.63 46.1052 136.64 46.1355 136.643 46.1669C136.647 46.1983 136.645 46.2302 136.636 46.2606C136.628 46.2911 136.613 46.3196 136.594 46.3445C136.574 46.3694 136.55 46.3902 136.523 46.4057Z" fill="#F2F2F2" stroke="#F2F2F2" stroke-width="4"/>
<path id="Vector_6" d="M41.9442 18.3321H35.1972C34.686 18.3321 34.1957 18.1287 33.8341 17.7669C33.4726 17.405 33.2695 16.9141 33.2695 16.4024C33.2695 15.8906 33.4726 15.3997 33.8341 15.0379C34.1957 14.676 34.686 14.4727 35.1972 14.4727H41.9442C42.4555 14.4727 42.9458 14.676 43.3073 15.0379C43.6688 15.3997 43.8719 15.8906 43.8719 16.4024C43.8719 16.9141 43.6688 17.405 43.3073 17.7669C42.9458 18.1287 42.4555 18.3321 41.9442 18.3321Z" fill="#1991FF"/>
<path id="Vector_7" d="M49.896 24.8438H35.1972C34.686 24.8438 34.1957 24.6405 33.8341 24.2786C33.4726 23.9167 33.2695 23.4259 33.2695 22.9141C33.2695 22.4023 33.4726 21.9115 33.8341 21.5496C34.1957 21.1877 34.686 20.9844 35.1972 20.9844H49.896C50.4073 20.9844 50.8976 21.1877 51.2591 21.5496C51.6206 21.9115 51.8238 22.4023 51.8238 22.9141C51.8238 23.4259 51.6206 23.9167 51.2591 24.2786C50.8976 24.6405 50.4073 24.8438 49.896 24.8438Z" fill="#E6E6E6"/>
<path id="Vector_8" d="M90.9621 42.211H49.2754C48.7641 42.211 48.2738 42.0077 47.9123 41.6458C47.5508 41.2839 47.3477 40.793 47.3477 40.2813C47.3477 39.7695 47.5508 39.2786 47.9123 38.9168C48.2738 38.5549 48.7641 38.3516 49.2754 38.3516H90.9621C91.4734 38.3516 91.9637 38.5549 92.3252 38.9168C92.6867 39.2786 92.8898 39.7695 92.8898 40.2813C92.8898 40.793 92.6867 41.2839 92.3252 41.6458C91.9637 42.0077 91.4734 42.211 90.9621 42.211Z" fill="#1991FF"/>
<path id="Vector_9" d="M94.8202 49.6914H45.1816C44.6704 49.6914 44.18 49.4881 43.8185 49.1262C43.457 48.7643 43.2539 48.2735 43.2539 47.7617C43.2539 47.2499 43.457 46.7591 43.8185 46.3972C44.18 46.0353 44.6704 45.832 45.1816 45.832H94.8202C95.3314 45.832 95.8218 46.0353 96.1833 46.3972C96.5448 46.7591 96.7479 47.2499 96.7479 47.7617C96.7479 48.2735 96.5448 48.7643 96.1833 49.1262C95.8218 49.4881 95.3314 49.6914 94.8202 49.6914Z" fill="#E6E6E6"/>
<path id="Vector_10" d="M94.8202 56.9258H45.1816C44.6704 56.9258 44.18 56.7225 43.8185 56.3606C43.457 55.9987 43.2539 55.5079 43.2539 54.9961C43.2539 54.4843 43.457 53.9935 43.8185 53.6316C44.18 53.2697 44.6704 53.0664 45.1816 53.0664H94.8202C95.3314 53.0664 95.8218 53.2697 96.1833 53.6316C96.5448 53.9935 96.7479 54.4843 96.7479 54.9961C96.7479 55.5079 96.5448 55.9987 96.1833 56.3606C95.8218 56.7225 95.3314 56.9258 94.8202 56.9258Z" fill="#E6E6E6"/>
</g>
<defs>
<clipPath id="clip0_9972_53754">
<rect width="140" height="123.742" fill="white"/>
</clipPath>
</defs>
</svg>
