<svg width="23" height="22" viewBox="0 0 23 22" fill="none" xmlns="http://www.w3.org/2000/svg">
<g clip-path="url(#clip0_9191_93512)">
<mask id="mask0_9191_93512" style="mask-type:luminance" maskUnits="userSpaceOnUse" x="0" y="0" width="23" height="22">
<path d="M22.3335 0H0.333496V22H22.3335V0Z" fill="white"/>
</mask>
<g mask="url(#mask0_9191_93512)">
<path d="M12.257 2.37473C11.6862 2.04176 10.9804 2.04176 10.4095 2.37473L1.69063 7.46074C1.08424 7.81446 1.08424 8.69062 1.69063 9.04434L10.4095 14.1304C10.4809 14.172 10.5543 14.2084 10.6294 14.2396C11.1547 14.4581 11.7575 14.4217 12.257 14.1304L20.4999 9.322V13.7525C20.4999 14.2588 20.9103 14.6692 21.4166 14.6692C21.9229 14.6692 22.3333 14.2588 22.3333 13.7525V8.77904C22.3333 8.45302 22.1601 8.15153 21.8785 7.98725L12.257 2.37473Z" fill="#1362FF"/>
<path d="M4.90908 17.3405C4.34585 17.0118 3.99951 16.4089 3.99951 15.7568V12.2266L10.409 15.9655C10.9799 16.2984 11.6858 16.2984 12.2566 15.9655L18.6662 12.2266V15.7568C18.6662 16.4089 18.3199 17.0118 17.7566 17.3405L12.2566 20.5488C11.6858 20.8817 10.9799 20.8817 10.409 20.5488L4.90908 17.3405Z" fill="#1362FF"/>
</g>
</g>
<defs>
<clipPath id="clip0_9191_93512">
<rect width="22" height="22" fill="white" transform="translate(0.333496)"/>
</clipPath>
</defs>
</svg>
