<svg width="22" height="22" viewBox="0 0 22 22" fill="none" xmlns="http://www.w3.org/2000/svg">
<g clip-path="url(#clip0_2425_10571)">
<mask id="mask0_2425_10571" style="mask-type:luminance" maskUnits="userSpaceOnUse" x="0" y="0" width="22" height="22">
<path d="M22 0H0V22H22V0Z" fill="white"/>
</mask>
<g mask="url(#mask0_2425_10571)">
<path d="M11.9235 2.3718C11.3527 2.03883 10.6469 2.03883 10.076 2.3718L1.35713 7.45781C0.750748 7.81153 0.750749 8.68769 1.35713 9.04141L10.076 14.1274C10.1474 14.1691 10.2208 14.2054 10.2959 14.2367C10.8212 14.4551 11.424 14.4188 11.9235 14.1274L20.1664 9.31907V13.7496C20.1664 14.2559 20.5768 14.6663 21.0831 14.6663C21.5894 14.6663 21.9998 14.2559 21.9998 13.7496V8.77611C21.9998 8.45009 21.8266 8.1486 21.545 7.98432L11.9235 2.3718Z" fill="#404041"/>
<path d="M4.57363 17.3356C4.0104 17.007 3.66406 16.404 3.66406 15.7519V12.2217L10.0736 15.9606C10.6445 16.2935 11.3503 16.2935 11.9211 15.9606L18.3307 12.2217V15.7519C18.3307 16.404 17.9844 17.007 17.4211 17.3356L11.9211 20.5439C11.3503 20.8768 10.6445 20.8768 10.0736 20.5439L4.57363 17.3356Z" fill="#404041"/>
</g>
</g>
<defs>
<clipPath id="clip0_2425_10571">
<rect width="22" height="22" fill="white"/>
</clipPath>
</defs>
</svg>
