<svg width="20" height="20" viewBox="0 0 20 20" fill="none" xmlns="http://www.w3.org/2000/svg">
    <path d="M6.6665 5.00008V3.33341C6.6665 2.87508 6.82984 2.48258 7.1565 2.15591C7.48261 1.8298 7.87484 1.66675 8.33317 1.66675H11.6665C12.1248 1.66675 12.5173 1.8298 12.844 2.15591C13.1701 2.48258 13.3332 2.87508 13.3332 3.33341V5.00008H16.6665C17.1248 5.00008 17.5173 5.16341 17.844 5.49008C18.1701 5.81619 18.3332 6.20841 18.3332 6.66675V15.8334C18.3332 16.2917 18.1701 16.6842 17.844 17.0109C17.5173 17.337 17.1248 17.5001 16.6665 17.5001H3.33317C2.87484 17.5001 2.48262 17.337 2.1565 17.0109C1.82984 16.6842 1.6665 16.2917 1.6665 15.8334V6.66675C1.6665 6.20841 1.82984 5.81619 2.1565 5.49008C2.48262 5.16341 2.87484 5.00008 3.33317 5.00008H6.6665ZM8.33317 5.00008H11.6665V3.33341H8.33317V5.00008ZM16.6665 12.5001H12.4998V13.3334C12.4998 13.5695 12.4201 13.7673 12.2607 13.9267C12.1007 14.0867 11.9026 14.1667 11.6665 14.1667H8.33317C8.09706 14.1667 7.89928 14.0867 7.73984 13.9267C7.57984 13.7673 7.49984 13.5695 7.49984 13.3334V12.5001H3.33317V15.8334H16.6665V12.5001ZM9.1665 12.5001H10.8332V10.8334H9.1665V12.5001ZM3.33317 10.8334H7.49984V10.0001C7.49984 9.76397 7.57984 9.56591 7.73984 9.40591C7.89928 9.24647 8.09706 9.16675 8.33317 9.16675H11.6665C11.9026 9.16675 12.1007 9.24647 12.2607 9.40591C12.4201 9.56591 12.4998 9.76397 12.4998 10.0001V10.8334H16.6665V6.66675H3.33317V10.8334Z"
          fill="#B4B4B9"/>
</svg>
