<svg width="20" height="20" viewBox="0 0 20 20" fill="none" xmlns="http://www.w3.org/2000/svg">
    <path fill-rule="evenodd" clip-rule="evenodd"
          d="M8.75134 1.66675C4.83929 1.66675 1.66797 4.83806 1.66797 8.75008C1.66797 12.6621 4.83929 15.8334 8.75134 15.8334C10.4067 15.8334 11.9304 15.2647 13.1361 14.3134L17.1561 18.3334C17.4816 18.6588 18.0092 18.6588 18.3347 18.3334C18.6601 18.008 18.6601 17.4803 18.3347 17.1549L14.3146 13.1349C15.266 11.9292 15.8347 10.4055 15.8347 8.75008C15.8347 4.83806 12.6633 1.66675 8.75134 1.66675ZM3.33464 8.75008C3.33464 5.75854 5.75976 3.33341 8.75134 3.33341C11.7428 3.33341 14.168 5.75854 14.168 8.75008C14.168 10.2461 13.5626 11.5991 12.5814 12.5802C11.6003 13.5614 10.2473 14.1667 8.75134 14.1667C5.75976 14.1667 3.33464 11.7417 3.33464 8.75008Z"
          fill="white"/>
</svg>
