<svg width="115" height="130" viewBox="0 0 115 130" fill="none" xmlns="http://www.w3.org/2000/svg">
<g clip-path="url(#clip0_8876_52348)">
<path d="M102.578 0.499548L96.2745 0.490612L18.6121 0.38048L12.3085 0.371541C9.24783 0.370659 6.30882 1.58779 4.13621 3.75592C1.9636 5.92405 0.73483 8.8661 0.719471 11.9366L0.306684 118.275C0.298202 121.346 1.50413 124.291 3.65988 126.466C5.81563 128.64 8.74516 129.865 11.8058 129.873L11.822 129.873L102.059 130.001L102.075 130.001C105.136 130.002 108.075 128.785 110.248 126.617C112.42 124.449 113.649 121.507 113.664 118.436L114.077 12.0974C114.086 9.02684 112.88 6.08133 110.724 3.90707C108.568 1.7328 105.639 0.507346 102.578 0.499548V0.499548Z" fill="var(--c_light)"/>
<path d="M102.591 3.85285L95.1245 3.83885L19.7871 3.69766L12.321 3.68367C10.1414 3.68204 8.0481 4.54782 6.50023 6.09109C4.95236 7.63435 4.07637 9.72906 4.06444 11.9156L3.60328 118.254C3.59625 120.441 4.45407 122.539 5.98852 124.088C7.52298 125.637 9.60877 126.51 11.7883 126.517L11.8046 126.517L102.042 126.686L102.058 126.686C104.238 126.688 106.331 125.822 107.879 124.279C109.427 122.735 110.303 120.641 110.314 118.454L110.776 12.1156C110.783 9.92907 109.925 7.83112 108.39 6.28208C106.856 4.73304 104.77 3.85941 102.591 3.85285V3.85285Z" fill="var(--c_white-all)"/>
<rect x="28" y="44" width="34" height="13" rx="4" fill="var(--c_light)"/>
<path d="M34 44H44.6981L60.5 52.5V52.5C63.1605 53.084 62.7358 57 60.0119 57H35.5283L34 44Z" fill="var(--c_blue)"/>
<rect x="65" y="44" width="34" height="13" rx="4" fill="var(--c_light)"/>
<rect x="28" y="76" width="34" height="13" rx="4" fill="var(--c_light)"/>
<rect x="65" y="76" width="34" height="13" rx="4" fill="var(--c_light)"/>
<rect x="18" y="60" width="34" height="13" rx="4" fill="var(--c_light)"/>
<path d="M35 60H48C50.2091 60 52 61.7909 52 64V69C52 71.2091 50.2091 73 48 73H36.5L35 60Z" fill="var(--c_blue)"/>
<rect x="55" y="60" width="34" height="13" rx="4" fill="var(--c_light)"/>
<path d="M55 64C55 61.7909 56.7909 60 59 60H68.5L62 66.5L55 69.5V64Z" fill="var(--c_blue)"/>
<path d="M35.3957 36.5206C33.5518 37.5851 32.5627 39.5601 32.8146 41.6748L36.6494 73.8249C36.8584 75.5776 37.9254 77.0958 39.5038 77.8865C41.0821 78.6767 42.937 78.6218 44.466 77.7391L53.7594 72.3735L57.6146 79.0508C55.6078 80.435 54.9655 83.1595 56.2052 85.307L64.2197 99.1882C65.5239 101.447 68.4224 102.224 70.6811 100.92L73.2646 99.4279C74.3939 98.7759 75.1528 97.7253 75.4663 96.5553C75.7799 95.3852 75.6479 94.0957 74.9959 92.9664L66.9814 79.0853C66.3497 77.991 65.3298 77.2084 64.1093 76.8814C63.0125 76.5875 61.8727 76.6945 60.8589 77.1774L57.0039 70.5004L66.5571 64.9848C67.7743 64.2819 68.6405 63.1379 68.9959 61.8115C69.0869 61.472 69.1444 61.1202 69.1657 60.7613C69.2703 58.9993 68.489 57.3159 67.0755 56.2583L41.1499 36.8624C39.4447 35.5868 37.2398 35.4559 35.3957 36.5206ZM62.3931 80.5981C62.6207 80.4667 62.8857 80.4317 63.1396 80.4998C63.3934 80.5678 58.8687 79.7721 59 80L70 97.5C70.2716 97.9697 71.8609 95.9126 71.3912 96.1836L62.3283 83.8734C61.8585 84.1448 67.7347 97.785 67.4636 97.315L61 79C60.8644 78.7651 59.2859 82.9308 59.3512 82.6873C59.4164 82.444 59.5742 82.2253 59.809 82.0899L62.3931 80.5981ZM38.9057 39.8619L64.8314 59.2579C65.411 59.6915 65.4403 60.2983 65.426 60.5389C65.4115 60.7798 65.3107 61.3786 64.6836 61.7405L55.1304 67.256L55.5073 67.6242C56.559 66.2393 54.3213 67.6187 53.4255 68.136C52.5298 68.6534 51.3225 69.5356 50.6631 69.9423C50.0036 70.349 51.8862 69.1291 51.8862 69.1291L42.5928 74.4947C41.9659 74.8566 41.3967 74.6446 41.1812 74.5367C40.9655 74.4287 40.4548 74.1001 40.3691 73.3812L36.5343 41.2311C36.5084 41.0123 36.5259 40.8206 36.5706 40.6537C36.711 40.1299 37.1172 39.852 37.2685 39.7647C37.4682 39.6496 38.176 39.316 38.9057 39.8619Z" fill="var(--c_grey)"/>
</g>
<defs>
<clipPath id="clip0_8876_52348">
<rect width="115" height="130" fill="white"/>
</clipPath>
</defs>
</svg>
