<svg width="200" height="160" viewBox="0 0 200 160" fill="none" xmlns="http://www.w3.org/2000/svg">
    <path d="M179.543 0.593506H21.2685C15.9022 0.599597 10.7574 2.75113 6.96285 6.57608C3.16829 10.401 1.03386 15.587 1.02783 20.9963V108.278C1.03386 113.687 3.16829 118.873 6.96285 122.698C10.7574 126.523 15.9022 128.675 21.2685 128.681H179.543C184.909 128.675 190.054 126.523 193.848 122.698C197.643 118.873 199.777 113.687 199.784 108.278V20.9963C199.777 15.587 197.643 10.401 193.848 6.57608C190.054 2.75113 184.909 0.599597 179.543 0.593506Z"
          fill="#F2F2F2"/>
    <path d="M179.543 6.46704H21.2689C17.4474 6.47136 13.7837 8.0035 11.0815 10.7273C8.37926 13.4512 6.85927 17.1442 6.85498 20.9963V108.278C6.85928 112.13 8.37927 115.823 11.0815 118.547C13.7837 121.271 17.4474 122.803 21.2689 122.807H179.543C183.365 122.803 187.029 121.271 189.731 118.547C192.433 115.823 193.953 112.13 193.957 108.278V20.9963C193.953 17.1443 192.433 13.4512 189.731 10.7274C187.029 8.00357 183.365 6.4714 179.543 6.46704Z"
          fill="white"/>
    <path d="M167.503 158.866L133.699 124.792L173.606 126.145V156.318C173.613 157.032 173.406 157.732 173.013 158.326C172.619 158.92 172.056 159.381 171.399 159.647C170.958 159.833 170.485 159.929 170.008 159.931C169.541 159.929 169.079 159.834 168.649 159.652C168.219 159.469 167.83 159.202 167.503 158.866Z"
          fill="#F2F2F2"/>
    <path d="M65.4968 75.66C71.5361 75.66 76.432 70.7249 76.432 64.6372C76.432 58.5494 71.5361 53.6144 65.4968 53.6144C59.4574 53.6144 54.5615 58.5494 54.5615 64.6372C54.5615 70.7249 59.4574 75.66 65.4968 75.66Z"
          fill="#1991FF"/>
    <path d="M100.406 75.66C106.445 75.66 111.341 70.7249 111.341 64.6372C111.341 58.5494 106.445 53.6144 100.406 53.6144C94.3666 53.6144 89.4707 58.5494 89.4707 64.6372C89.4707 70.7249 94.3666 75.66 100.406 75.66Z"
          fill="#1991FF"/>
    <path d="M135.314 75.66C141.353 75.66 146.249 70.7249 146.249 64.6372C146.249 58.5494 141.353 53.6144 135.314 53.6144C129.275 53.6144 124.379 58.5494 124.379 64.6372C124.379 70.7249 129.275 75.66 135.314 75.66Z"
          fill="#1991FF"/>
</svg>
