<svg width="115" height="130" viewBox="0 0 115 130" fill="none" xmlns="http://www.w3.org/2000/svg">
<g clip-path="url(#clip0_8876_52386)">
<path d="M102.578 0.499546L96.2745 0.490611L18.6121 0.38048L12.3085 0.37154C9.24783 0.370658 6.30882 1.5878 4.13621 3.75592C1.9636 5.92405 0.73483 8.8661 0.719472 11.9366L0.306682 118.275C0.2982 121.346 1.50413 124.291 3.65988 126.466C5.81564 128.64 8.74517 129.865 11.8058 129.873L11.822 129.873L102.059 130.001L102.075 130.001C105.136 130.002 108.075 128.785 110.248 126.617C112.42 124.449 113.649 121.507 113.664 118.436L114.077 12.0974C114.086 9.02684 112.88 6.08133 110.724 3.90707C108.568 1.73281 105.639 0.507345 102.578 0.499546Z" fill="var(--c_light)"/>
<path d="M102.591 3.85285L95.1245 3.83885L19.7871 3.69766L12.321 3.68367C10.1414 3.68204 8.0481 4.54782 6.50023 6.09109C4.95236 7.63435 4.07637 9.72906 4.06444 11.9156L3.60328 118.254C3.59625 120.441 4.45407 122.539 5.98852 124.088C7.52298 125.637 9.60877 126.51 11.7883 126.517L11.8046 126.517L102.042 126.686L102.058 126.686C104.238 126.688 106.331 125.822 107.879 124.279C109.427 122.735 110.303 120.641 110.314 118.454L110.776 12.1156C110.783 9.92907 109.925 7.83112 108.39 6.28208C106.856 4.73304 104.77 3.85941 102.591 3.85285V3.85285Z" fill="var(--c_white-all)"/>
<path d="M17 107.527L17 95.4721C17.0007 95.3468 17.2117 95.2267 17.5867 95.1382C17.9617 95.0497 18.47 95 19 95C19.53 95 20.0383 95.0497 20.4133 95.1382C20.7883 95.2267 20.9993 95.3468 21 95.4721L21 107.527C21.0004 107.589 20.9489 107.65 20.8485 107.708C20.7482 107.765 20.6009 107.817 20.4152 107.861C20.2294 107.905 20.0088 107.94 19.766 107.964C19.5232 107.988 19.2629 108 19 108C18.7371 108 18.4768 107.988 18.234 107.964C17.9912 107.94 17.7706 107.905 17.5848 107.861C17.3991 107.817 17.2518 107.765 17.1515 107.708C17.0511 107.65 16.9996 107.589 17 107.527Z" fill="var(--c_light)"/>
<path d="M24 107.199L24 86.7989C24.0007 86.5869 24.2117 86.3837 24.5867 86.2339C24.9617 86.0841 25.47 86 26 86C26.53 86 27.0383 86.0841 27.4133 86.2339C27.7883 86.3837 27.9993 86.5869 28 86.7989L28 107.199C28.0004 107.304 27.9489 107.408 27.8485 107.505C27.7482 107.603 27.6009 107.691 27.4152 107.765C27.2294 107.84 27.0088 107.899 26.766 107.939C26.5232 107.979 26.2629 108 26 108C25.7371 108 25.4768 107.979 25.234 107.939C24.9912 107.899 24.7706 107.84 24.5848 107.765C24.3991 107.691 24.2518 107.603 24.1515 107.505C24.0511 107.408 23.9996 107.304 24 107.199Z" fill="var(--c_light)"/>
<path d="M31 106.908L31 79.0894C31.0007 78.8004 31.2117 78.5233 31.5867 78.319C31.9617 78.1147 32.47 78 33 78C33.53 78 34.0383 78.1147 34.4133 78.319C34.7883 78.5233 34.9993 78.8004 35 79.0894L35 106.908C35.0004 107.051 34.9489 107.193 34.8485 107.326C34.7482 107.458 34.6009 107.579 34.4152 107.68C34.2294 107.781 34.0088 107.862 33.766 107.917C33.5232 107.972 33.2629 108 33 108C32.7371 108 32.4768 107.972 32.234 107.917C31.9912 107.862 31.7706 107.781 31.5848 107.68C31.3991 107.579 31.2518 107.458 31.1515 107.326C31.0511 107.193 30.9996 107.051 31 106.908Z" fill="var(--c_light)"/>
<path d="M38 106.58L38 70.4163C38.0007 70.0405 38.2117 69.6802 38.5867 69.4147C38.9617 69.1492 39.47 69 40 69C40.53 69 41.0383 69.1492 41.4133 69.4147C41.7883 69.6802 41.9993 70.0405 42 70.4163L42 106.58C42.0004 106.766 41.9489 106.951 41.8485 107.123C41.7482 107.295 41.6009 107.452 41.4152 107.584C41.2294 107.716 41.0088 107.82 40.766 107.892C40.5232 107.963 40.2629 108 40 108C39.7371 108 39.4768 107.963 39.234 107.892C38.9912 107.82 38.7706 107.716 38.5848 107.584C38.3991 107.452 38.2518 107.295 38.1515 107.123C38.0511 106.951 37.9996 106.766 38 106.58Z" fill="var(--c_light)"/>
<path d="M45 107.163L45 85.8352C45.0007 85.6136 45.2117 85.4012 45.5867 85.2446C45.9617 85.088 46.47 85 47 85C47.53 85 48.0383 85.088 48.4133 85.2446C48.7883 85.4012 48.9993 85.6136 49 85.8352L49 107.163C49.0004 107.272 48.9489 107.381 48.8485 107.483C48.7482 107.585 48.6009 107.677 48.4152 107.755C48.2294 107.832 48.0088 107.894 47.766 107.936C47.5232 107.978 47.2629 108 47 108C46.7371 108 46.4768 107.978 46.234 107.936C45.9912 107.894 45.7706 107.832 45.5848 107.755C45.3991 107.677 45.2518 107.585 45.1515 107.483C45.0511 107.381 44.9996 107.272 45 107.163Z" fill="var(--c_light)"/>
<path d="M52 106.361L52 64.6342C52.0007 64.2005 52.2117 63.7849 52.5867 63.4785C52.9617 63.1721 53.47 63 54 63C54.53 63 55.0383 63.1721 55.4133 63.4785C55.7883 63.7849 55.9993 64.2006 56 64.6342L56 106.361C56.0004 106.576 55.9489 106.79 55.8485 106.988C55.7482 107.187 55.6009 107.368 55.4152 107.52C55.2294 107.672 55.0088 107.793 54.766 107.875C54.5232 107.958 54.2629 108 54 108C53.7371 108 53.4768 107.958 53.234 107.875C52.9912 107.793 52.7706 107.672 52.5848 107.52C52.3991 107.368 52.2518 107.187 52.1515 106.988C52.0511 106.79 51.9996 106.576 52 106.361Z" fill="var(--c_light)"/>
<path d="M59 106.726L59 74.271C59.0007 73.9338 59.2117 73.6105 59.5867 73.3722C59.9617 73.1339 60.47 73 61 73C61.53 73 62.0383 73.1339 62.4133 73.3722C62.7883 73.6105 62.9993 73.9338 63 74.271L63 106.726C63.0004 106.893 62.9489 107.059 62.8485 107.213C62.7482 107.368 62.6009 107.508 62.4152 107.627C62.2294 107.745 62.0088 107.839 61.766 107.903C61.5232 107.967 61.2629 108 61 108C60.7371 108 60.4768 107.967 60.234 107.903C59.9912 107.839 59.7706 107.745 59.5848 107.627C59.3991 107.508 59.2518 107.368 59.1515 107.213C59.0511 107.059 58.9996 106.893 59 106.726Z" fill="var(--c_light)"/>
<path d="M66 107.053L66 82.9442C66.0007 82.6937 66.2117 82.4535 66.5867 82.2765C66.9617 82.0994 67.47 82 68 82C68.53 82 69.0383 82.0994 69.4133 82.2765C69.7883 82.4535 69.9993 82.6937 70 82.9442L70 107.053C70.0004 107.178 69.9489 107.301 69.8485 107.415C69.7482 107.53 69.6009 107.635 69.4152 107.723C69.2294 107.811 69.0088 107.88 68.766 107.928C68.5232 107.976 68.2629 108 68 108C67.7371 108 67.4768 107.976 67.234 107.928C66.9912 107.88 66.7706 107.811 66.5848 107.723C66.3991 107.635 66.2518 107.53 66.1515 107.415C66.0511 107.301 65.9996 107.178 66 107.053Z" fill="var(--c_blue)"/>
<path d="M73 106.07L73 56.9247C73.0007 56.414 73.2117 55.9244 73.5867 55.5636C73.9617 55.2027 74.47 55 75 55C75.53 55 76.0383 55.2027 76.4133 55.5636C76.7883 55.9244 76.9993 56.414 77 56.9247L77 106.07C77.0004 106.323 76.9489 106.574 76.8485 106.808C76.7482 107.043 76.6009 107.255 76.4152 107.435C76.2294 107.614 76.0088 107.756 75.766 107.853C75.5232 107.95 75.2629 108 75 108C74.7371 108 74.4768 107.95 74.234 107.853C73.9912 107.756 73.7706 107.614 73.5848 107.435C73.3991 107.255 73.2518 107.043 73.1515 106.808C73.0511 106.574 72.9996 106.323 73 106.07Z" fill="var(--c_blue)"/>
<path d="M80 106.216L80 60.7794C80.0007 60.3073 80.2117 59.8547 80.5867 59.521C80.9617 59.1874 81.47 59 82 59C82.53 59 83.0383 59.1874 83.4133 59.521C83.7883 59.8547 83.9993 60.3073 84 60.7794L84 106.216C84.0004 106.45 83.9489 106.682 83.8485 106.898C83.7482 107.115 83.6009 107.312 83.4152 107.477C83.2294 107.643 83.0088 107.774 82.766 107.864C82.5232 107.954 82.2629 108 82 108C81.7371 108 81.4768 107.954 81.234 107.864C80.9912 107.774 80.7706 107.643 80.5848 107.477C80.3991 107.312 80.2518 107.115 80.1515 106.898C80.0511 106.682 79.9996 106.45 80 106.216Z" fill="var(--c_blue)"/>
<path d="M87 105.67L87 46.3241C87.0007 45.7074 87.2117 45.1163 87.5867 44.6805C87.9617 44.2448 88.47 44 89 44C89.53 44 90.0383 44.2448 90.4133 44.6805C90.7883 45.1163 90.9993 45.7074 91 46.3241L91 105.67C91.0004 105.975 90.9489 106.278 90.8485 106.561C90.7482 106.844 90.6009 107.101 90.4152 107.317C90.2294 107.534 90.0088 107.705 89.766 107.823C89.5232 107.94 89.2629 108 89 108C88.7371 108 88.4768 107.94 88.234 107.823C87.9912 107.705 87.7706 107.534 87.5848 107.317C87.3991 107.101 87.2518 106.844 87.1515 106.561C87.0511 106.278 86.9996 105.975 87 105.67Z" fill="var(--c_blue)"/>
<path d="M94 105.305L94 36.6873C94.0007 35.9742 94.2117 35.2907 94.5867 34.7869C94.9617 34.283 95.47 34 96 34C96.53 34 97.0383 34.283 97.4133 34.7869C97.7883 35.2907 97.9993 35.9742 98 36.6873L98 105.305C98.0003 105.659 97.9489 106.009 97.8485 106.336C97.7482 106.663 97.6009 106.96 97.4152 107.211C97.2294 107.461 97.0088 107.659 96.766 107.795C96.5232 107.93 96.2629 108 96 108C95.7371 108 95.4768 107.93 95.234 107.795C94.9912 107.659 94.7706 107.461 94.5848 107.211C94.3991 106.96 94.2518 106.663 94.1515 106.336C94.0511 106.009 93.9996 105.659 94 105.305Z" fill="var(--c_blue)"/>
</g>
<defs>
<clipPath id="clip0_8876_52386">
<rect width="115" height="130" fill="var(--c_white-all)"/>
</clipPath>
</defs>
</svg>
