<svg width="20" height="18" viewBox="0 0 20 18" fill="none" xmlns="http://www.w3.org/2000/svg">
    <path fill-rule="evenodd" clip-rule="evenodd"
          d="M18.3331 7.47229L16.6665 8.44454V13.3205C16.6665 13.9133 16.3516 14.4615 15.8395 14.7602L10.8395 17.6769C10.3206 17.9795 9.67896 17.9795 9.15996 17.6769L4.16 14.7602C3.64797 14.4615 3.33312 13.9133 3.33312 13.3205V8.44454L1.23375 7.21987C0.682499 6.89831 0.682498 6.10181 1.23375 5.78024L9.15996 1.1566C9.67896 0.853888 10.3206 0.853888 10.8395 1.1566L19.5864 6.25889C19.8424 6.40823 19.9998 6.68231 19.9998 6.9787V11.5C19.9998 11.9603 19.6267 12.3334 19.1665 12.3334C18.7062 12.3334 18.3331 11.9603 18.3331 11.5V7.47229ZM4.99979 9.41671V13.3205L9.9998 16.2372L14.9998 13.3205V9.41671L10.8395 11.8435C10.3206 12.1462 9.67896 12.1462 9.15996 11.8435L4.99979 9.41671ZM16.692 6.50006L9.9998 2.59623L3.30751 6.50006L9.9998 10.4039L16.692 6.50006Z"
          fill="#B4B4B9"/>
</svg>
