<svg width="200" height="160" viewBox="0 0 200 160" fill="none" xmlns="http://www.w3.org/2000/svg">
    <path d="M20.2407 0H178.515C183.881 0.00609083 189.026 2.15762 192.821 5.98257C196.615 9.80752 198.75 14.9935 198.756 20.4028V107.685C198.75 113.094 196.615 118.28 192.821 122.105C189.026 125.93 183.881 128.081 178.515 128.087H20.2407C14.8744 128.081 9.72958 125.93 5.93502 122.105C2.14046 118.28 0.0060302 113.094 0 107.685V20.4028C0.00602907 14.9935 2.14046 9.80752 5.93502 5.98257C9.72958 2.15762 14.8744 0.00609083 20.2407 0Z"
          fill="#F2F2F2"/>
    <path d="M20.2404 5.87354H178.515C182.336 5.87785 186 7.41 188.702 10.1338C191.404 12.8577 192.924 16.5507 192.929 20.4028V107.685C192.924 111.537 191.404 115.23 188.702 117.954C186 120.677 182.336 122.209 178.515 122.214H20.2404C16.4189 122.209 12.7552 120.677 10.0531 117.953C7.3509 115.23 5.83094 111.537 5.82666 107.685V20.4028C5.83094 16.5508 7.35089 12.8577 10.0531 10.1339C12.7552 7.41006 16.4189 5.8779 20.2404 5.87354Z"
          fill="white"/>
    <path d="M21.7849 159.337C21.3073 159.336 20.8346 159.239 20.3941 159.054C19.7364 158.787 19.1739 158.327 18.7802 157.733C18.3864 157.139 18.1797 156.439 18.1872 155.724V125.552L58.0935 124.198L24.29 158.272C23.9631 158.608 23.5734 158.875 23.1433 159.058C22.7133 159.241 22.2516 159.336 21.7849 159.337Z"
          fill="#F2F2F2"/>
    <path d="M158.692 27.5837H39.6781C34.9131 27.5837 31.0503 31.4774 31.0503 36.2805V36.2806C31.0503 41.0837 34.9131 44.9774 39.6781 44.9774H158.692C163.457 44.9774 167.32 41.0837 167.32 36.2805C167.32 31.4774 163.457 27.5837 158.692 27.5837Z"
          fill="#F2F2F2"/>
    <path d="M158.885 55.3468H39.8705C35.1055 55.3468 31.2427 59.2405 31.2427 64.0437V64.0437C31.2427 68.8468 35.1055 72.7406 39.8705 72.7406H158.885C163.65 72.7406 167.513 68.8468 167.513 64.0437C167.513 59.2405 163.65 55.3468 158.885 55.3468Z"
          fill="#F2F2F2"/>
    <path d="M159.078 83.1099H40.0633C35.2983 83.1099 31.4355 87.0036 31.4355 91.8067V91.8067C31.4355 96.6099 35.2983 100.504 40.0633 100.504H159.078C163.843 100.504 167.705 96.6099 167.705 91.8067C167.705 87.0036 163.843 83.1099 159.078 83.1099Z"
          fill="#F2F2F2"/>
</svg>
