<svg width="22" height="22" viewBox="0 0 22 22" fill="none" xmlns="http://www.w3.org/2000/svg">
<path fill-rule="evenodd" clip-rule="evenodd" d="M3.66536 4.58333H5.72786V3.4375C5.72786 3.05781 6.03567 2.75 6.41536 2.75C6.79506 2.75 7.10286 3.05781 7.10286 3.4375V4.58333H14.8945V3.4375C14.8945 3.05781 15.2023 2.75 15.582 2.75C15.9617 2.75 16.2695 3.05781 16.2695 3.4375V4.58333H18.332C19.3446 4.58333 20.1654 5.40414 20.1654 6.41667V17.4167C20.1654 18.4292 19.3446 19.25 18.332 19.25H3.66536C2.65284 19.25 1.83203 18.4292 1.83203 17.4167V6.41667C1.83203 5.40414 2.65284 4.58333 3.66536 4.58333ZM18.332 5.95833C18.5851 5.95833 18.7904 6.16354 18.7904 6.41667V8.25H3.20703V6.41667C3.20703 6.16354 3.41224 5.95833 3.66536 5.95833H18.332ZM3.66536 17.875C3.41224 17.875 3.20703 17.6698 3.20703 17.4167V9.625H18.7904V17.4167C18.7904 17.6698 18.5851 17.875 18.332 17.875H3.66536Z" fill="#404041"/>
</svg>
