<svg width="22" height="22" viewBox="0 0 22 22" fill="none" xmlns="http://www.w3.org/2000/svg">
<path d="M11.691 12.0899L14.6145 9.16636C14.883 8.89787 15.3183 8.89787 15.5868 9.16636C15.8552 9.43482 15.8552 9.87015 15.5868 10.1386L11.4896 14.2358C11.3606 14.3647 11.1858 14.4372 11.0035 14.4372C10.8211 14.4372 10.6463 14.3647 10.5173 14.2358L6.42011 10.1385C6.15163 9.87015 6.15163 9.43482 6.42011 9.16632C6.6886 8.89783 7.1239 8.89783 7.39238 9.16632L10.316 12.0899V2.52051C10.316 2.49678 10.3172 2.47333 10.3195 2.45022C10.3547 2.10354 10.6475 1.83301 11.0035 1.83301C11.3832 1.83301 11.691 2.14082 11.691 2.52051V12.0899Z" fill="white"/>
<path d="M4.35938 13.5205C4.35938 13.1407 4.05157 12.833 3.67188 12.833C3.29217 12.833 2.98438 13.1407 2.98438 13.5205V17.4163C2.98438 18.3022 3.70258 19.0204 4.58854 19.0204H17.4219C18.3078 19.0204 19.0261 18.3022 19.0261 17.4163V13.5205C19.0261 13.1407 18.7182 12.833 18.3386 12.833C17.9589 12.833 17.6511 13.1407 17.6511 13.5205V17.4163C17.6511 17.5428 17.5484 17.6455 17.4219 17.6455H4.58854C4.46198 17.6455 4.35938 17.5428 4.35938 17.4163V13.5205Z" fill="white"/>
</svg>
