<svg width="22" height="22" viewBox="0 0 22 22" fill="none" xmlns="http://www.w3.org/2000/svg">
<path fill-rule="evenodd" clip-rule="evenodd" d="M15.662 2.44225L6.72447 11.3798C6.38065 11.7235 6.1875 12.1899 6.1875 12.6761V14.6668C6.1875 15.1729 6.59791 15.5834 7.10417 15.5834H9.0948C9.581 15.5834 10.0473 15.3903 10.3912 15.0464L19.3287 6.10891C20.0446 5.39295 20.0446 4.23215 19.3287 3.51618L18.2547 2.44225C17.5388 1.72628 16.3779 1.72628 15.662 2.44225ZM9.41884 14.0741C9.33295 14.1601 9.21635 14.2084 9.0948 14.2084H7.5625V12.6761C7.5625 12.5546 7.61079 12.438 7.69675 12.352L16.6342 3.41452C16.8132 3.23552 17.1034 3.23553 17.2825 3.41452L18.3563 4.48846C18.5354 4.66744 18.5354 4.95765 18.3563 5.13664L9.41884 14.0741Z" fill="#1362FF"/>
<path d="M8.9349 3.4375C8.9349 3.8172 8.62709 4.12501 8.2474 4.12501H3.4349C3.18177 4.12501 2.97656 4.33021 2.97656 4.58334V18.3334C2.97656 18.5865 3.18177 18.7917 3.4349 18.7917H17.1849C17.438 18.7917 17.6432 18.5865 17.6432 18.3334V13.5209C17.6432 13.1411 17.951 12.8334 18.3307 12.8334C18.7104 12.8334 19.0182 13.1411 19.0182 13.5209V18.3334C19.0182 19.3458 18.1974 20.1667 17.1849 20.1667H3.4349C2.42237 20.1667 1.60156 19.3458 1.60156 18.3334V4.58334C1.60156 3.57082 2.42237 2.75 3.4349 2.75H8.2474C8.62709 2.75 8.9349 3.05781 8.9349 3.4375Z" fill="#1362FF"/>
</svg>
