<svg width="22" height="22" viewBox="0 0 22 22" fill="none" xmlns="http://www.w3.org/2000/svg">
<path d="M9.39453 9.625C10.1539 9.625 10.7695 9.00939 10.7695 8.25C10.7695 7.49061 10.1539 6.875 9.39453 6.875C8.63514 6.875 8.01953 7.49061 8.01953 8.25C8.01953 9.00939 8.63514 9.625 9.39453 9.625Z" fill="white"/>
<path fill-rule="evenodd" clip-rule="evenodd" d="M19.25 4.58333C19.25 3.57081 18.4292 2.75 17.4167 2.75H4.58333C3.57081 2.75 2.75 3.57081 2.75 4.58333V17.4167C2.75 18.4292 3.57081 19.25 4.58333 19.25H17.4167C18.4292 19.25 19.25 18.4292 19.25 17.4167V4.58333ZM17.875 4.58333C17.875 4.33021 17.6698 4.125 17.4167 4.125H4.58333C4.33021 4.125 4.125 4.33021 4.125 4.58333V12.5787L5.51961 11.3391C6.03353 10.8822 6.80588 10.8752 7.32794 11.3228L9.625 13.2917L13.6944 9.22231C14.2313 8.6853 15.102 8.6853 15.639 9.22231L17.875 11.4583V4.58333ZM4.58333 17.875C4.33021 17.875 4.125 17.6698 4.125 17.4167V14.4184L6.43311 12.3668L8.73016 14.3357C9.27566 14.8033 10.0892 14.772 10.5973 14.264L14.6667 10.1945L17.875 13.4029V17.4167C17.875 17.6698 17.6698 17.875 17.4167 17.875H4.58333Z" fill="white"/>
</svg>
