<svg width="18" height="18" viewBox="0 0 18 18" fill="none" xmlns="http://www.w3.org/2000/svg">
<path fill-rule="evenodd" clip-rule="evenodd" d="M15 15.75C15.8285 15.75 16.5 15.0785 16.5 14.25V5.25C16.5 4.42157 15.8285 3.75 15 3.75H12.75L12.1005 2.62502C11.8326 2.16091 11.3374 1.875 10.8015 1.875H7.19854C6.66263 1.875 6.16744 2.16091 5.89949 2.62502L5.25 3.75H3C2.17157 3.75 1.5 4.42157 1.5 5.25V14.25C1.5 15.0785 2.17157 15.75 3 15.75H15ZM12 9.375C12 11.0318 10.6568 12.375 9 12.375C7.34315 12.375 6 11.0318 6 9.375C6 7.71818 7.34315 6.375 9 6.375C10.6568 6.375 12 7.71818 12 9.375Z" fill="white"/>
</svg>
