<svg width="22" height="22" viewBox="0 0 22 22" fill="none" xmlns="http://www.w3.org/2000/svg">
<path d="M9.5062 9.37109C9.83753 9.37109 10.1062 9.63971 10.1062 9.97104V14.3707C10.1062 14.702 9.83753 14.9706 9.5062 14.9706C9.17486 14.9706 8.90625 14.702 8.90625 14.3707V9.97104C8.90625 9.63971 9.17486 9.37109 9.5062 9.37109Z" fill="#7A7A7A"/>
<path d="M13.3093 9.97104C13.3093 9.63971 13.0407 9.37109 12.7093 9.37109C12.378 9.37109 12.1094 9.63971 12.1094 9.97104V14.3707C12.1094 14.702 12.378 14.9706 12.7093 14.9706C13.0407 14.9706 13.3093 14.702 13.3093 14.3707V9.97104Z" fill="#7A7A7A"/>
<path fill-rule="evenodd" clip-rule="evenodd" d="M7.50866 5.37181V4.17201C7.50866 3.28849 8.22489 2.57227 9.1084 2.57227H13.1077C13.9913 2.57227 14.7075 3.28849 14.7075 4.17201V5.37181H18.5069C18.8382 5.37181 19.1068 5.6404 19.1068 5.97171C19.1068 6.30303 18.8382 6.57161 18.5069 6.57161H17.4365L16.7957 17.4638C16.746 18.3094 16.0458 18.9696 15.1988 18.9696H7.01739C6.17036 18.9696 5.47015 18.3094 5.42041 17.4638L4.7797 6.57161H3.70928C3.37796 6.57161 3.10938 6.30303 3.10938 5.97171C3.10938 5.6404 3.37796 5.37181 3.70928 5.37181H7.50866ZM9.1084 3.77207H13.1077C13.3286 3.77207 13.5077 3.95113 13.5077 4.17201V5.37181H8.70846V4.17201C8.70846 3.95113 8.88752 3.77207 9.1084 3.77207ZM5.98157 6.57161L6.61814 17.3934C6.63058 17.6047 6.80563 17.7698 7.01739 17.7698H15.1988C15.4105 17.7698 15.5856 17.6047 15.598 17.3934L16.2346 6.57161H5.98157Z" fill="#7A7A7A"/>
</svg>
