<svg width="206" height="44" viewBox="0 0 206 44" fill="none" xmlns="http://www.w3.org/2000/svg">
<path d="M67.1409 35.425L64.5298 32.5496V35.425H63.7695V29.7812H64.5298V32.2131L66.8184 29.7812H68.0164L65.5128 32.3278L68.3466 35.425H67.1486H67.1409Z" fill="#404041"/>
<path d="M68.3378 32.5507C68.3378 30.6694 69.5358 29.5605 71.0564 29.5605C72.0394 29.5605 72.7997 30.0041 73.1222 30.7765V29.7823H73.99V35.4261H73.2297V34.432C72.792 35.0973 72.1392 35.6479 71.1639 35.6479C69.6433 35.5408 68.3301 34.432 68.3301 32.5507H68.3378ZM73.3449 32.5507C73.3449 31.3347 72.5846 30.4476 71.3866 30.4476C70.1886 30.4476 69.4283 31.3347 69.4283 32.5507C69.4283 33.7666 70.1886 34.6537 71.3866 34.6537C72.4771 34.7608 73.3449 33.7666 73.3449 32.5507Z" fill="#404041"/>
<path d="M75.5254 29.7823H76.3932V30.7765C76.8309 30.1112 77.4837 29.5605 78.459 29.5605C79.9796 29.5605 81.1776 30.6694 81.1776 32.5507C81.1776 34.432 79.9796 35.5408 78.459 35.5408C77.476 35.5408 76.7157 35.0973 76.3932 34.3249V37.7509H75.5254V29.7823ZM80.425 32.5507C80.425 31.3347 79.6647 30.4476 78.4667 30.4476C77.2687 30.4476 76.5084 31.3347 76.5084 32.5507C76.5084 33.7666 77.2687 34.6537 78.4667 34.6537C79.6647 34.7608 80.425 33.7666 80.425 32.5507Z" fill="#404041"/>
<path d="M86.9541 33.6585C86.9541 34.6527 86.1938 35.425 85.1033 35.425H82.4922V29.7812H83.36V31.8843H85.1033C86.3013 31.8843 86.9541 32.5496 86.9541 33.6508V33.6585ZM86.0863 33.6585C86.0863 32.9932 85.7561 32.6643 84.9958 32.6643H83.36V34.6527H84.9958C85.7561 34.6527 86.0863 34.2091 86.0863 33.6585Z" fill="#404041"/>
<path d="M93.1597 32.55V32.6571H88.5903C88.5903 33.873 89.4581 34.6454 90.5487 34.6454C91.5317 34.6454 92.0692 33.9801 92.3995 33.5365L93.0522 34.0871C92.6145 34.6377 91.9617 35.4178 90.5487 35.4178C88.8054 35.4178 87.7148 34.2018 87.7148 32.4276C87.7148 30.6534 88.8054 29.4375 90.5487 29.4375C92.2919 29.5446 93.1597 30.8752 93.1597 32.5347V32.55ZM88.5903 31.9994H92.1844C92.0769 31.0052 91.4241 30.3399 90.4411 30.3399C89.4581 30.447 88.6978 31.0052 88.5903 31.9994Z" fill="#404041"/>
<path d="M94.25 29.7823H95.1178V30.7765C95.5555 30.1112 96.2083 29.5605 97.1836 29.5605C98.7042 29.5605 99.9023 30.6694 99.9023 32.5507C99.9023 34.432 98.7042 35.5408 97.1836 35.5408C96.2006 35.5408 95.4404 35.0973 95.1178 34.3249V37.7509H94.25V29.7823ZM99.1496 32.5507C99.1496 31.3347 98.3894 30.4476 97.1913 30.4476C95.9933 30.4476 95.233 31.3347 95.233 32.5507C95.233 33.7666 95.9933 34.6537 97.1913 34.6537C98.2818 34.7608 99.1496 33.7666 99.1496 32.5507Z" fill="#404041"/>
<path d="M100.777 32.5507C100.777 30.6694 101.975 29.5605 103.496 29.5605C104.479 29.5605 105.239 30.0041 105.562 30.7765V29.7823H106.43V35.4261H105.562V34.432C105.124 35.0973 104.471 35.6479 103.496 35.6479C102.083 35.5408 100.777 34.432 100.777 32.5507ZM105.785 32.5507C105.785 31.3347 105.024 30.4476 103.826 30.4476C102.628 30.4476 101.868 31.3347 101.868 32.5507C101.868 33.7666 102.628 34.6537 103.826 34.6537C104.917 34.7608 105.785 33.7666 105.785 32.5507Z" fill="#404041"/>
<path d="M69.5508 10C72.533 10 75 12.076 75 15.0397C75 18.0034 72.533 20.0794 69.754 20.0794C68.4189 20.0794 67.1854 19.6833 66.155 18.6931H66.0534V26H64V15.825C64.1016 12.2672 66.1623 10 69.5508 10ZM69.5508 18.3995C71.5026 18.3995 72.9466 16.9176 72.9466 15.0397C72.9466 13.2642 71.6115 11.7823 69.5508 11.7823C67.4901 11.7823 66.155 13.2642 66.155 15.0397C66.155 16.9176 67.4901 18.3995 69.5508 18.3995Z" fill="#070707"/>
<path d="M77 15C77 12.1545 79.5925 10 82.5 10C85.4075 10 88 12.1545 88 15C88 17.8455 85.4075 20 82.5 20C79.5925 20 77 17.8455 77 15ZM82.6025 18.3333C84.6824 18.3333 86.03 16.8631 86.03 15C86.03 13.1369 84.5799 11.7683 82.6025 11.7683C80.53 11.7683 79.1751 13.2385 79.1751 15.1016C79.1751 16.8631 80.5226 18.3333 82.6025 18.3333Z" fill="#070707"/>
<path d="M95.659 20C92.4116 20 90 17.9404 90 15C90 12.0596 92.4116 10 95.5555 10C97.967 10 100.275 11.2737 100.904 13.6247H98.803C98.2777 12.3509 97.0202 11.6667 95.659 11.6667C93.4546 11.6667 92.197 13.1369 92.197 15C92.197 16.8631 93.5582 18.2317 95.7626 18.2317C97.1237 18.2317 98.3813 17.6423 98.9065 16.2737H101C100.164 18.8211 98.0632 20 95.6516 20H95.659Z" fill="#070707"/>
<path d="M107.938 18.7598L104.837 11.8532H104.742V20H103V10H105.903L108.901 16.8068H108.997L112.097 10H115V20H113.163V11.8532H113.067L109.966 18.7598H107.931H107.938Z" fill="#070707"/>
<path d="M118 15C118 12.1545 120.828 10 124 10C127.172 10 130 12.1545 130 15C130 17.8455 127.172 20 124 20C120.828 20 118 17.8455 118 15ZM124 18.3333C126.261 18.3333 127.739 16.8631 127.739 15C127.739 13.1369 126.269 11.6667 124 11.6667C121.731 11.6667 120.261 13.1369 120.261 15C120.261 16.8631 121.731 18.3333 124 18.3333Z" fill="#070707"/>
<path d="M130 19.993V17.9749C130.419 17.9749 130.83 17.7723 131.146 17.4721C131.565 17.067 131.668 16.3617 131.874 15.2514L132.19 13.6383C132.506 11.8226 133.233 10 136.04 10H140V19.9022H137.921V11.8156H136.356C134.791 11.8156 134.482 12.2207 134.063 14.3436L133.747 15.8589C133.542 17.1718 133.123 18.3869 132.395 19.0922C131.874 19.6997 131.043 20 130 20V19.993Z" fill="#070707"/>
<path d="M143 15C143 12.1545 145.357 10 148 10C150.643 10 153 12.1545 153 15C153 17.8455 150.643 20 148 20C145.357 20 143 17.8455 143 15ZM148.093 18.3333C149.984 18.3333 151.209 16.8631 151.209 15C151.209 13.1369 149.984 11.6667 148.093 11.6667C146.202 11.6667 144.977 13.1369 144.977 15C144.977 16.8631 146.202 18.3333 148.093 18.3333Z" fill="#070707"/>
<path d="M155.964 22H154V17.8663H155.343C155.964 17.2748 156.175 16.2958 156.482 15.2079L156.898 13.4402C157.314 11.7677 158.139 10 160.62 10H164.547V17.8663H166V22H164.036V19.6408H155.964V22ZM162.584 17.9683V11.8697H160.723C159.482 11.8697 159.066 12.7535 158.861 13.7394L158.445 15.6091C158.241 16.5949 157.825 17.4788 157.409 17.8731V17.9683H162.584Z" fill="#070707"/>
<path d="M173.169 20C169.629 20 167 17.8208 167 14.7097C167 11.5986 169.629 9.41935 173.056 9.41935C175.685 9.41935 179 10.9749 179 14.81V15.3262H169.282C169.508 16.9821 171 18.2294 173.169 18.2294C174.427 18.2294 176.024 17.8136 176.484 16.7742H178.766C178.081 18.9534 175.452 19.9857 173.161 19.9857L173.169 20ZM169.395 6H171.685V8.07168H169.395V6ZM176.71 13.7778C176.363 12.2222 174.992 11.1828 173.048 11.1828C171.105 11.1828 169.734 12.3226 169.387 13.7778H176.702H176.71ZM174.306 6H176.597V8.07168H174.306V6Z" fill="#070707"/>
<path d="M188.437 10V13.9202H190.208L192.604 10H194.794L191.774 14.7398L195 20H192.707L190.208 15.7733H188.437V20H186.563V15.7733H184.792L182.293 20H180L183.226 14.7398L180.206 10H182.499L184.895 13.9202H186.563V10H188.437Z" fill="#070707"/>
<path d="M196 15.3006V10H198.11V12.7989H198.214C199.053 11.7968 200.212 11.2992 201.475 11.2992C204.001 11.2992 206 13.0961 206 15.5978C206 18.0995 203.897 20 201.052 20C198.103 19.9032 196 18.0028 196 15.3006ZM200.948 18.2032C202.523 18.2032 203.793 17.1044 203.793 15.6047C203.793 14.105 202.634 13.0062 200.948 13.0062C199.366 13.0062 198.103 14.105 198.103 15.6047C198.103 17.1044 199.366 18.2032 200.948 18.2032Z" fill="#070707"/>
<path d="M8.4672 36H3V17.6224H25.8183V30.4636H31.1817V10H54V36H48.5328V15.4281H36.6489V35.8917H20.3511V23.0505H8.4672V36Z" fill="#070707"/>
</svg>
