<svg width="114" height="44" viewBox="0 0 114 44" fill="none" xmlns="http://www.w3.org/2000/svg">
<g clip-path="url(#clip0_2160_12648)">
<path d="M51.3778 39.1387V38.3347H52.0946V39.6297H52.8787V40.3439H52.0946V42.3531C52.0946 42.4872 52.1392 42.6212 52.2291 42.7105C52.3187 42.7997 52.4305 42.8441 52.565 42.8441C52.6323 42.8441 52.6769 42.8441 52.7441 42.8219C52.8114 42.7997 52.8564 42.7997 52.9009 42.7775L52.9682 42.7549V43.4696C52.8114 43.514 52.6323 43.5588 52.4082 43.5588C51.6687 43.5588 51.2883 43.1571 51.3105 42.3531V40.3439H50.5938V39.6297H50.9969C51.2433 39.6297 51.3778 39.4734 51.3778 39.1387ZM56.0599 40.3217C55.9476 40.2995 55.8358 40.2769 55.7013 40.2769C55.4104 40.2769 55.1636 40.3666 54.9845 40.5672C54.8054 40.7683 54.7158 41.036 54.7158 41.3934V43.4918H53.9314V39.6075H54.7158V40.0092L54.7604 39.9644C54.7827 39.9422 54.8277 39.8974 54.9172 39.8529C54.9845 39.8081 55.074 39.7411 55.1636 39.6967C55.2531 39.6519 55.3654 39.6075 55.4772 39.5848C55.6101 39.5578 55.7452 39.5429 55.8808 39.5404H56.0822V40.3217H56.0599ZM59.3756 43.514V43.1122L59.3306 43.1566C59.2898 43.1985 59.2448 43.236 59.1961 43.2685C59.1293 43.3129 59.0393 43.3799 58.9498 43.4248C58.8505 43.4754 58.7451 43.5128 58.6361 43.5362C58.502 43.581 58.3675 43.581 58.233 43.581C57.7625 43.581 57.4039 43.4248 57.113 43.1122C56.8217 42.7997 56.6871 42.398 56.6871 41.8843V39.6297H57.4712V41.8843C57.4712 42.1525 57.5607 42.398 57.7402 42.5764C57.9193 42.7549 58.1211 42.8441 58.3898 42.8441C58.6811 42.8441 58.9275 42.7549 59.1066 42.5542C59.2861 42.3531 59.3756 42.0854 59.3756 41.7281V39.6297H60.1597V43.514H59.3756ZM62.96 39.5404C63.0941 39.5404 63.2509 39.5626 63.3855 39.5848C63.52 39.6297 63.6318 39.6745 63.7214 39.7189C63.8113 39.7637 63.9009 39.8307 63.9682 39.8752C64.035 39.92 64.1023 39.9644 64.125 40.0092L64.1695 40.0762V37.8438H64.9536V43.4918H64.1695V43.0452L64.0127 43.2015C63.9455 43.2685 63.8113 43.3355 63.5873 43.447C63.3632 43.5588 63.1614 43.581 62.9373 43.581C62.4446 43.581 61.9965 43.3799 61.6383 43.0008C61.2797 42.5986 61.0779 42.1298 61.0779 41.5718C61.0779 41.0138 61.2574 40.545 61.6383 40.1433C62.0187 39.7411 62.4446 39.5404 62.96 39.5404ZM62.2428 42.4872C62.4669 42.7327 62.7359 42.8667 63.0496 42.8667C63.3405 42.8667 63.6096 42.7327 63.8559 42.4872C64.0874 42.2383 64.2156 41.9112 64.2145 41.5718C64.2145 41.2145 64.1023 40.902 63.8559 40.6565C63.6318 40.411 63.3632 40.2769 63.0496 40.2769C62.7582 40.2769 62.4896 40.411 62.2428 40.6565C62.0114 40.9054 61.8834 41.2325 61.8846 41.5718C61.8846 41.9292 61.9965 42.2417 62.2428 42.4872ZM68.0453 43.514H67.2612L65.7154 39.6297H66.5444L67.6644 42.465L68.7848 39.6297H69.6134L68.0453 43.514ZM72.6378 40.0762L72.1224 40.5894C72.0926 40.5596 72.0628 40.5299 72.0328 40.5002C71.9883 40.4558 71.921 40.411 71.7865 40.3439C71.669 40.2829 71.538 40.2522 71.4056 40.2547C71.2265 40.2547 71.092 40.2995 71.0024 40.3666C70.9129 40.4558 70.8456 40.545 70.8456 40.6565C70.8456 40.7683 70.8902 40.8575 70.9801 40.9468C71.0697 41.0138 71.2042 41.0808 71.3383 41.1252C71.4728 41.1701 71.6297 41.2145 71.8088 41.2815L72.2792 41.4826C72.436 41.5496 72.5482 41.6611 72.6378 41.8173C72.7273 41.9736 72.7723 42.1525 72.7723 42.3753C72.7723 42.7105 72.6378 43.0004 72.3687 43.2237C72.1001 43.447 71.7642 43.581 71.3383 43.581C71.157 43.5808 70.9764 43.5583 70.8006 43.514C70.6504 43.4766 70.5069 43.4164 70.3752 43.3355C70.2744 43.2739 70.1772 43.2067 70.0838 43.1344C69.9943 43.0674 69.9493 43.0004 69.9047 42.956L69.8375 42.8889L70.3529 42.3753C70.3752 42.4202 70.4197 42.465 70.4647 42.5094C70.5097 42.5542 70.6215 42.6435 70.8006 42.7327C70.9574 42.8219 71.1369 42.8667 71.316 42.8667C71.5178 42.8667 71.6969 42.8219 71.7865 42.7327C71.8983 42.6435 71.9433 42.5316 71.9433 42.3753C71.9433 42.2639 71.8983 42.1747 71.8088 42.0854C71.699 42.0083 71.5783 41.948 71.4506 41.9066C71.316 41.8621 71.1592 41.8173 70.9801 41.7503L70.5097 41.5496C70.3529 41.4826 70.2406 41.3707 70.1511 41.2145C70.0615 41.0582 70.0166 40.8798 70.0166 40.6565C70.0166 40.3661 70.1511 40.0984 70.3974 39.8752C70.6438 39.6519 70.9801 39.5404 71.361 39.5404C71.5178 39.5404 71.6519 39.5626 71.8088 39.5848C71.9656 39.6075 72.0778 39.6745 72.1674 39.7189C72.2569 39.7637 72.3465 39.8307 72.4137 39.8752C72.481 39.92 72.5255 39.9644 72.5705 40.0092L72.6378 40.0762ZM77.208 41.8621H74.2286C74.2732 42.1298 74.4077 42.3753 74.6318 42.5764C74.8559 42.7775 75.1245 42.8667 75.4381 42.8667C75.6622 42.8667 75.864 42.8219 76.0654 42.7105C76.2672 42.5986 76.4017 42.5094 76.4685 42.4202L76.5808 42.2639L77.0958 42.7775C77.0682 42.8029 77.0455 42.8331 77.0289 42.8667C77.0062 42.9112 76.9167 42.9782 76.8271 43.0674C76.7207 43.1566 76.6085 43.2388 76.4912 43.3133C76.379 43.3799 76.2222 43.447 76.0208 43.514C75.8413 43.581 75.6399 43.6032 75.4381 43.6032C74.9004 43.6032 74.43 43.4026 74.0491 43.0008C73.6682 42.5986 73.4668 42.1076 73.4668 41.5496C73.4668 41.0138 73.6682 40.545 74.0491 40.1433C74.43 39.7637 74.8781 39.5626 75.4158 39.5626C75.9535 39.5626 76.4017 39.7411 76.7599 40.0984C77.1185 40.4558 77.2976 40.902 77.2976 41.4604L77.208 41.8621ZM75.3709 40.2325C75.0799 40.2325 74.8332 40.3217 74.6541 40.5002C74.475 40.6787 74.3182 40.902 74.2509 41.1701H76.4463C76.4017 40.902 76.2894 40.6787 76.0881 40.5002C75.8863 40.3217 75.6622 40.2325 75.3709 40.2325ZM83.0328 43.514V41.2593C83.0328 40.9468 82.9655 40.7013 82.8087 40.545C82.6742 40.3888 82.4724 40.2995 82.226 40.2995C81.9797 40.2995 81.7779 40.411 81.5988 40.6121C81.442 40.8127 81.3524 41.0808 81.3524 41.4378V43.5362H80.5683V41.2815C80.5683 40.969 80.5011 40.7235 80.3443 40.5672C80.2097 40.411 80.0084 40.3217 79.7616 40.3217C79.5152 40.3217 79.3139 40.4332 79.1343 40.6343C78.9775 40.8353 78.888 41.103 78.888 41.4604V43.5588H78.1039V39.6745H78.888V40.0762C78.9107 40.0314 78.9552 39.987 79.0225 39.9422C79.0675 39.8978 79.2016 39.8081 79.3811 39.7189C79.5543 39.6301 79.7463 39.5841 79.9411 39.5848C80.0979 39.5848 80.2324 39.6075 80.3666 39.6519C80.5011 39.6967 80.6129 39.7411 80.7029 39.8081C80.7924 39.8752 80.8597 39.9422 80.9265 40.0092C80.9938 40.0762 81.0388 40.1206 81.0611 40.1655L81.106 40.2325C81.106 40.2099 81.1283 40.1877 81.1506 40.1655C81.1733 40.1433 81.2179 40.0762 81.3074 40.0092L81.5765 39.8081C81.666 39.7411 81.8006 39.6967 81.9347 39.6519C82.0915 39.6075 82.2483 39.5848 82.4051 39.5848C82.8533 39.5848 83.1896 39.7189 83.4582 40.0092C83.7046 40.2995 83.8391 40.7235 83.8391 41.2815V43.5362H83.0328V43.514ZM85.6986 42.6879C85.8104 42.7997 85.8554 42.9112 85.8554 43.0674C85.8554 43.2015 85.8104 43.3355 85.6986 43.4248C85.5867 43.5362 85.4745 43.581 85.34 43.581C85.2058 43.581 85.0713 43.5362 84.9818 43.4248C84.8695 43.3129 84.825 43.2015 84.825 43.0674C84.825 42.9338 84.8695 42.7997 84.9818 42.6879C85.0936 42.5764 85.2058 42.5316 85.34 42.5316C85.4745 42.5316 85.5867 42.5986 85.6986 42.6879ZM88.9021 40.3217C88.7846 40.2945 88.6645 40.2794 88.5439 40.2769C88.2525 40.2769 88.0062 40.3666 87.8267 40.5672C87.6476 40.7683 87.558 41.036 87.558 41.3934V43.4918H86.774V39.6075H87.558V40.0092L87.603 39.9644C87.6483 39.9183 87.7014 39.8806 87.7598 39.8529C87.8267 39.8081 87.9166 39.7411 88.0062 39.6967C88.0957 39.6519 88.2076 39.6075 88.3198 39.5848C88.4316 39.5626 88.5884 39.5404 88.723 39.5404H88.9248V40.3217H88.9021ZM92.2401 43.514V43.1122L92.1951 43.1566C92.1544 43.1984 92.1095 43.2359 92.061 43.2685C91.9937 43.3129 91.9042 43.3799 91.8142 43.4248C91.715 43.4754 91.6096 43.5128 91.5006 43.5362C91.3665 43.581 91.232 43.581 91.0974 43.581C90.627 43.581 90.2688 43.4248 89.9775 43.1122C89.6861 42.7997 89.5516 42.398 89.5516 41.8843V39.6297H90.3357V41.8843C90.3357 42.1525 90.4256 42.398 90.6047 42.5764C90.7838 42.7549 90.9856 42.8441 91.2542 42.8441C91.5456 42.8441 91.792 42.7549 91.971 42.5542C92.1506 42.3531 92.2401 42.0854 92.2401 41.7281V39.6297H93.0242V43.514H92.2401Z" fill="black"/>
<path d="M13.6962 28.0214V42.2195C13.6962 43.0904 14.6371 43.6262 15.3984 43.1796L27.2274 36.0804C27.9442 35.6565 27.9442 34.607 27.2274 34.1831L15.3984 27.0839C14.6594 26.6373 13.6962 27.1731 13.6962 28.0214ZM13.6962 1.09878V15.2968C13.6962 16.1673 14.6371 16.7032 15.3984 16.2566L27.2274 9.15777C27.9442 8.7334 27.9442 7.68439 27.2274 7.26043L15.3984 0.16121C14.6594 -0.28537 13.6962 0.250443 13.6962 1.09878ZM0.0527344 14.5603V28.7583C0.0527344 29.6289 0.993606 30.1647 1.75538 29.7181L13.584 22.6193C14.3007 22.1949 14.3007 21.1459 13.584 20.7215L1.75538 13.6223C0.993606 13.1762 0.0527344 13.7128 0.0527344 14.5603ZM27.3615 14.5603V28.7583C27.3615 29.6289 28.3024 30.1647 29.0642 29.7181L40.8927 22.6193C41.6095 22.1949 41.6095 21.1459 40.8927 20.7215L29.0642 13.6223C28.3024 13.1762 27.3615 13.7124 27.3615 14.5603Z" fill="black"/>
<path d="M57.1565 9.62628C57.7615 9.9388 58.2319 10.3628 58.5678 10.9434C58.9041 11.5014 59.0609 12.1713 59.0609 12.9526C59.0609 13.7117 58.9041 14.3812 58.5678 14.9618C58.2319 15.542 57.7615 15.9664 57.1565 16.2789C56.5515 16.5914 55.8125 16.7251 54.9834 16.7251H53.1017V19.583H50.9286V9.17929H55.0057C55.8347 9.15708 56.5515 9.31376 57.1565 9.62628ZM56.3502 14.2697C56.6861 13.9572 56.8652 13.5106 56.8652 12.9304C56.8652 12.3498 56.6861 11.9032 56.3502 11.5907C56.0138 11.2781 55.5211 11.1219 54.8489 11.1219H53.0794V14.7385H54.8489C55.5211 14.7385 56.0138 14.5822 56.3502 14.2697ZM66.7224 17.3283H62.354L61.525 19.5604H59.3073L63.4967 9.15749H65.647L69.8587 19.5604H67.5738L66.7224 17.3283ZM66.0502 15.4976L64.5716 11.5236L63.0931 15.4976H66.0502ZM71.4268 9.15749H78.9992V11.0775H73.5776V13.2203H76.1761C77.3188 13.2203 78.1701 13.4884 78.7751 14.0016C79.3801 14.5374 79.671 15.2743 79.671 16.2789C79.671 17.3279 79.3351 18.1318 78.6855 18.6899C78.0133 19.2701 77.0947 19.5604 75.8852 19.5604H71.4268V9.15749ZM75.7507 17.7745C76.3107 17.7745 76.7365 17.6631 77.0275 17.4172C77.3188 17.1717 77.4756 16.8147 77.4756 16.3459C77.4756 15.4306 76.8933 14.984 75.7507 14.984H73.5776V17.7745H75.7507ZM83.5021 19.0472C82.7181 18.5784 82.1131 17.9308 81.665 17.1268C81.2168 16.3011 80.9932 15.3858 80.9932 14.3812C80.9932 13.3766 81.2168 12.439 81.665 11.6355C82.1131 10.8093 82.7181 10.1843 83.5021 9.71551C84.2862 9.24673 85.1598 9.02344 86.1457 9.02344C87.1311 9.02344 88.0051 9.24673 88.7669 9.71551C89.5349 10.1871 90.1676 10.8485 90.6037 11.6355C91.0518 12.4616 91.2759 13.3766 91.2759 14.3812C91.2759 15.3858 91.0518 16.3233 90.6037 17.1273C90.1555 17.953 89.551 18.578 88.7669 19.0468C87.9824 19.5156 87.1088 19.7389 86.1457 19.7389C85.1598 19.7389 84.2862 19.4938 83.5021 19.0472ZM87.6465 17.2613C88.0947 16.971 88.4529 16.591 88.6996 16.0778C88.946 15.5646 89.0805 15.0062 89.0805 14.359C89.0805 13.7117 88.946 13.1311 88.6996 12.6401C88.4529 12.1265 88.0947 11.7469 87.6465 11.457C87.1984 11.1667 86.7056 11.0326 86.1457 11.0326C85.5857 11.0326 85.0925 11.1667 84.6448 11.457C84.1967 11.7469 83.838 12.1265 83.5917 12.6401C83.3453 13.1533 83.2108 13.7117 83.2108 14.359C83.2108 15.0062 83.3453 15.5868 83.5917 16.0778C83.838 16.5914 84.1967 16.971 84.6448 17.2613C85.0925 17.5512 85.5857 17.6849 86.1457 17.6849C86.6834 17.6849 87.1984 17.5512 87.6465 17.2613ZM100.326 11.1219H97.3247V19.5604H95.1739V11.1223H92.1718V9.15749H100.326V11.1219ZM107.831 17.3283H103.463L102.634 19.5604H100.416L104.605 9.15749H106.756L110.968 19.5604H108.682L107.831 17.3283ZM107.137 15.4976L105.658 11.5236L104.179 15.4976H107.137ZM57.0892 24.2261C57.6942 24.5386 58.1646 24.963 58.5005 25.5432C58.8369 26.1016 58.9937 26.7711 58.9937 27.5524C58.9937 28.3115 58.8369 28.9813 58.5005 29.5616C58.1646 30.1422 57.6942 30.5662 57.0892 30.8787C56.4843 31.1912 55.7452 31.3253 54.9162 31.3253H53.0344V34.1828H50.8613V23.7799H54.9384C55.7675 23.7799 56.4843 23.9135 57.0892 24.2261ZM56.3052 28.8695C56.6411 28.557 56.8206 28.1104 56.8206 27.5302C56.8206 26.9495 56.6411 26.5034 56.3052 26.1908C55.9693 25.8783 55.4761 25.7221 54.8043 25.7221H53.0344V29.3383H54.8043C55.4539 29.3383 55.9466 29.182 56.3052 28.8695ZM63.0258 33.647C62.2417 33.1782 61.6368 32.5305 61.189 31.727C60.7409 30.9009 60.5168 29.9859 60.5168 28.9813C60.5168 27.9541 60.7409 27.0392 61.189 26.2353C61.6368 25.4095 62.2417 24.7845 63.0258 24.3157C63.8099 23.8469 64.6839 23.6236 65.6693 23.6236C66.6552 23.6236 67.5288 23.8465 68.2906 24.3157C69.0746 24.7845 69.6796 25.4317 70.1273 26.2353C70.5755 27.0614 70.7995 27.9767 70.7995 28.9813C70.7995 30.0081 70.5755 30.9235 70.1273 31.727C69.6796 32.5532 69.0746 33.1782 68.2906 33.647C67.5065 34.1158 66.6329 34.3391 65.6693 34.3391C64.6839 34.3391 63.8099 34.1158 63.0258 33.647ZM67.1702 31.8833C67.6183 31.593 67.9769 31.2134 68.2233 30.7002C68.4697 30.1866 68.6042 29.6286 68.6042 28.9813C68.6042 28.3337 68.4697 27.7535 68.2233 27.2625C67.9769 26.7484 67.6183 26.3693 67.1702 26.079C66.7224 25.7887 66.2293 25.655 65.6693 25.655C65.1093 25.655 64.6166 25.7887 64.1685 26.079C63.7203 26.3693 63.3621 26.7489 63.1154 27.2621C62.869 27.7761 62.7345 28.3337 62.7345 28.9809C62.7345 29.6286 62.869 30.2088 63.1154 30.6998C63.3621 31.2138 63.7203 31.593 64.1685 31.8833C64.6166 32.1736 65.1093 32.3077 65.6693 32.3077C66.207 32.3077 66.7224 32.1514 67.1702 31.8833ZM74.9216 33.6692C74.1376 33.2004 73.5326 32.5754 73.1072 31.7492C72.659 30.9235 72.4349 30.0081 72.4349 28.9813C72.4349 27.9541 72.659 27.0166 73.1072 26.213C73.5553 25.3869 74.1599 24.7619 74.9216 24.2931C75.7057 23.8243 76.557 23.601 77.5429 23.601C78.3492 23.601 79.0887 23.7573 79.7605 24.0698C80.4105 24.3823 80.9705 24.8511 81.4186 25.4317L80.0296 26.8603C79.4023 26.0568 78.5956 25.6328 77.6774 25.6328C77.0947 25.6328 76.5797 25.7665 76.1316 26.0564C75.6743 26.3491 75.3032 26.7575 75.0562 27.2398C74.8098 27.7535 74.6753 28.3115 74.6753 28.9587C74.6753 29.6064 74.8098 30.1866 75.0562 30.6776C75.3025 31.1916 75.6611 31.5708 76.1316 31.8611C76.5797 32.1514 77.117 32.285 77.6774 32.285C78.6183 32.285 79.4023 31.8833 80.0296 31.0572L81.4186 32.4861C80.9705 33.089 80.4105 33.5578 79.7605 33.8703C79.0887 34.1828 78.3492 34.3391 77.5429 34.3391C76.557 34.3391 75.6834 34.1158 74.9216 33.6692ZM85.1598 33.6692C84.3758 33.2004 83.7708 32.5754 83.3453 31.7492C82.8972 30.9235 82.6731 30.0081 82.6731 28.9813C82.6731 27.9541 82.8972 27.0166 83.3453 26.213C83.7931 25.3869 84.398 24.7619 85.1598 24.2931C85.9439 23.8243 86.7952 23.601 87.781 23.601C88.5874 23.601 89.3265 23.7573 89.9987 24.0698C90.6482 24.3823 91.2086 24.8511 91.6564 25.4317L90.2677 26.8603C89.6401 26.0568 88.8337 25.6328 87.9152 25.6328C87.3329 25.6328 86.8175 25.7665 86.3693 26.0564C85.9123 26.3492 85.5413 26.7576 85.2943 27.2398C85.0476 27.7535 84.9134 28.3115 84.9134 28.9587C84.9134 29.6064 85.0476 30.1866 85.2943 30.6776C85.5407 31.1916 85.8989 31.5708 86.3693 31.8611C86.8175 32.1514 87.3552 32.285 87.9152 32.285C88.856 32.285 89.6401 31.8833 90.2677 31.0572L91.6564 32.4861C91.2086 33.089 90.6482 33.5578 89.9987 33.8703C89.3265 34.1828 88.5874 34.3391 87.781 34.3391C86.7952 34.3391 85.9216 34.1158 85.1598 33.6692ZM93.6503 23.7799H95.8011V30.5662L100.281 23.7799H102.32V34.1828H100.192V27.4183L95.7112 34.1828H93.6503V23.7799ZM105.277 23.7799H107.428V30.5662L111.909 23.7803H113.947V34.1832H111.796V27.4187L107.316 34.1832H105.255V23.7799H105.277Z" fill="black"/>
</g>
<defs>
<clipPath id="clip0_2160_12648">
<rect width="114" height="44" fill="white"/>
</clipPath>
</defs>
</svg>
