<svg width="140" height="44" viewBox="0 0 140 44" fill="none" xmlns="http://www.w3.org/2000/svg">
<mask id="mask0_2174_9930" style="mask-type:luminance" maskUnits="userSpaceOnUse" x="1" y="3" width="138" height="38">
<path d="M138 3.06055H1.99414V40.9212H138V3.06055Z" fill="white"/>
</mask>
<g mask="url(#mask0_2174_9930)">
<path d="M135.488 5.26638L133.902 3.22532H132.981V7.90807H133.987V4.79864L135.493 6.70682L137.005 4.78801V7.90807H138.011V3.22532H137.128L135.493 5.26638H135.488ZM129.255 3.22532H128.185L129.861 6.37196L129.728 6.60052C129.654 6.73871 129.542 6.85565 129.409 6.94069C129.276 7.02042 129.116 7.06294 128.962 7.06294C128.823 7.06294 128.69 7.04168 128.563 6.99916V7.86555C128.733 7.93465 128.914 7.96654 129.095 7.96654C129.899 7.96654 130.373 7.50943 130.74 6.72808L132.379 3.21469H131.304L130.383 5.42584L129.26 3.22532H129.255ZM126.21 4.14486C126.306 4.13955 126.396 4.14486 126.481 4.17675C126.572 4.20864 126.652 4.25648 126.716 4.32027C126.785 4.38405 126.838 4.45846 126.875 4.54351C126.912 4.62855 126.934 4.71891 126.934 4.81459C126.934 4.91026 126.912 5.00062 126.875 5.08566C126.838 5.17071 126.785 5.24512 126.716 5.30891C126.646 5.37269 126.566 5.42053 126.481 5.45242C126.391 5.48431 126.3 5.49494 126.21 5.48431H125.289V4.14486H126.21ZM124.267 3.22532V7.90807H125.273V6.37196H126.242C126.455 6.38259 126.673 6.3507 126.87 6.27628C127.072 6.20187 127.253 6.09025 127.413 5.94142C127.567 5.7926 127.695 5.61719 127.775 5.42053C127.86 5.22386 127.903 5.01125 127.903 4.79864C127.903 4.58603 127.86 4.37342 127.775 4.17675C127.69 3.98009 127.567 3.80468 127.413 3.65586C127.258 3.50703 127.072 3.39541 126.87 3.321C126.668 3.24658 126.455 3.21469 126.242 3.22532H124.267ZM118.252 5.56935C118.23 6.0743 118.364 6.57926 118.63 7.00979C118.896 7.44033 119.284 7.78051 119.748 7.9878C120.211 8.1951 120.727 8.25888 121.227 8.17384C121.728 8.08879 122.191 7.85492 122.558 7.50411C122.925 7.1533 123.176 6.70151 123.282 6.20719C123.389 5.71287 123.346 5.19729 123.154 4.72423C122.968 4.25648 122.638 3.85252 122.217 3.5655C121.797 3.28379 121.302 3.12965 120.791 3.12965C120.461 3.11901 120.136 3.17748 119.833 3.29442C119.524 3.41135 119.247 3.59207 119.013 3.81532C118.779 4.04387 118.587 4.31495 118.454 4.61261C118.321 4.91558 118.252 5.23449 118.246 5.56404L118.252 5.56935ZM119.295 5.56935C119.3 5.2717 119.396 4.98467 119.567 4.74017C119.737 4.49567 119.976 4.30964 120.253 4.19801C120.53 4.08639 120.833 4.06513 121.121 4.1236C121.414 4.18738 121.68 4.3309 121.887 4.54351C122.095 4.75612 122.233 5.0272 122.292 5.31422C122.345 5.60656 122.313 5.90953 122.196 6.18061C122.079 6.45169 121.887 6.68556 121.637 6.85033C121.387 7.01511 121.1 7.10015 120.802 7.10015C120.599 7.10015 120.402 7.05763 120.216 6.98322C120.03 6.90349 119.865 6.79187 119.721 6.64835C119.583 6.50484 119.471 6.33475 119.396 6.14872C119.322 5.96268 119.284 5.7607 119.29 5.56404L119.295 5.56935ZM116.649 5.50026C116.649 5.64908 116.623 5.79791 116.564 5.93079C116.506 6.06899 116.421 6.19124 116.309 6.29223C116.202 6.39322 116.075 6.47295 115.931 6.52079C115.792 6.56862 115.643 6.58989 115.494 6.57926V4.4372C115.643 4.42657 115.787 4.44783 115.926 4.50098C116.064 4.54882 116.192 4.62855 116.298 4.72954C116.405 4.83053 116.49 4.95278 116.548 5.08566C116.607 5.21855 116.639 5.36737 116.639 5.51089M115.5 7.44033C116.772 7.40844 117.645 6.52079 117.645 5.50026C117.645 4.47972 116.777 3.59207 115.5 3.56018V3.06055H114.494V3.56018C113.221 3.59207 112.348 4.47972 112.348 5.50026C112.348 6.52079 113.216 7.40844 114.494 7.44033V8.04095H115.5V7.44033ZM113.354 5.50026C113.354 5.35143 113.386 5.20792 113.445 5.07503C113.503 4.94215 113.589 4.8199 113.695 4.71891C113.802 4.61792 113.929 4.54351 114.068 4.49035C114.206 4.44252 114.35 4.42126 114.499 4.42657V6.57926C114.35 6.58989 114.206 6.56862 114.068 6.51547C113.929 6.46763 113.802 6.38791 113.695 6.28692C113.589 6.18593 113.503 6.06367 113.445 5.93079C113.386 5.79791 113.354 5.64908 113.354 5.50557M111.848 5.25044H109.437V6.04773H111.848V5.25044ZM107.659 6.81313L108.063 7.9187H109.133L107.291 3.23595H106.216L104.374 7.9187H105.444L105.843 6.81313H107.648H107.659ZM107.329 5.94674H106.189L106.759 4.40531L107.329 5.94674ZM101.159 3.23595H100.153V7.9187H101.159V6.57926L101.761 5.91485L103.139 7.9187H104.316L102.437 5.16008L104.177 3.21469H103.006L101.164 5.25575L101.154 3.23595H101.159ZM97.4436 4.07045C97.5128 4.06513 97.5873 4.07045 97.6512 4.09171C97.7204 4.11297 97.7789 4.15018 97.8322 4.19801C97.8854 4.24585 97.928 4.30432 97.9546 4.3681C97.9812 4.43189 97.9972 4.50098 97.9972 4.57008C97.9972 4.63918 97.9812 4.70828 97.9546 4.77206C97.928 4.83585 97.8854 4.89431 97.8322 4.94215C97.7789 4.98999 97.7204 5.0272 97.6512 5.04846C97.5873 5.06972 97.5128 5.08035 97.4436 5.06972H96.5227V4.06513H97.4436V4.07045ZM96.5227 7.07889V5.87232H97.5926C97.7523 5.87232 97.9067 5.93611 98.0185 6.04773C98.1303 6.15935 98.1941 6.31349 98.1941 6.47295C98.1941 6.63241 98.1303 6.78655 98.0185 6.89817C97.9067 7.00979 97.7523 7.07358 97.5926 7.07358H96.5227V7.07889ZM97.6405 7.91339C97.8375 7.92933 98.0344 7.90807 98.2208 7.8496C98.4071 7.79114 98.5827 7.69015 98.7318 7.56258C98.8808 7.43501 99.0033 7.27556 99.0884 7.10015C99.1736 6.92475 99.2268 6.7334 99.2375 6.53673C99.2268 6.29755 99.1523 6.06899 99.0139 5.87232C98.8755 5.67566 98.6892 5.52683 98.4656 5.43116C98.6306 5.32485 98.7637 5.18134 98.8595 5.01657C98.9554 4.85179 99.0033 4.65513 99.0033 4.46378C98.966 4.10765 98.7957 3.77811 98.5189 3.54424C98.2421 3.31036 97.8907 3.19874 97.5287 3.22532H95.5219V7.90807L97.6459 7.9187L97.6405 7.91339ZM93.3767 6.80781L93.7759 7.91339H94.8512L93.0094 3.23064H91.9395L90.0976 7.91339H91.1676L91.5722 6.80781H93.382H93.3767ZM93.0413 5.94142H91.8862L92.4505 4.39999L93.0413 5.94142ZM86.6003 3.23064V4.15018H87.9418V7.92933H88.9425V4.15549H90.284V3.23595H86.6003V3.23064ZM84.3008 3.13496C83.6513 3.13496 83.0285 3.39009 82.5707 3.84721C82.1129 4.30432 81.8574 4.92621 81.8574 5.57467C81.8574 6.22313 82.1129 6.84502 82.5707 7.30213C83.0285 7.75924 83.6513 8.01438 84.3008 8.01438C84.6787 8.01438 85.0513 7.93465 85.392 7.78051C85.7327 7.62105 86.0361 7.38718 86.2756 7.10015L85.6741 6.46763C85.5091 6.67493 85.3015 6.84502 85.062 6.96195C84.8224 7.07889 84.5616 7.13736 84.2954 7.13736C83.8856 7.13736 83.497 6.97259 83.2042 6.68556C82.9167 6.39854 82.7517 6.00521 82.7517 5.59593C82.7517 5.18665 82.9167 4.79864 83.2042 4.5063C83.4916 4.21928 83.8856 4.0545 84.2954 4.0545C84.5509 4.0545 84.8011 4.11829 85.0247 4.23522C85.2536 4.35216 85.4452 4.52225 85.5943 4.72423L86.2331 4.08639C86.0042 3.79405 85.7061 3.56018 85.3707 3.40072C85.0354 3.24127 84.6627 3.16154 84.2901 3.16685M76.6887 7.047V5.65971H77.5563C77.6468 5.6544 77.7427 5.65971 77.8278 5.69161C77.913 5.7235 77.9982 5.77133 78.062 5.83512C78.1312 5.8989 78.1845 5.97331 78.2217 6.05836C78.259 6.1434 78.2803 6.23376 78.2803 6.32944C78.2803 6.42511 78.259 6.51547 78.2217 6.60052C78.1845 6.68556 78.1312 6.75997 78.062 6.82376C77.9928 6.88754 77.913 6.93538 77.8278 6.96727C77.7373 6.99916 77.6468 7.00979 77.5563 6.99916L76.6887 7.05231V7.047ZM77.6096 7.96654C77.8278 7.98249 78.0461 7.95591 78.2484 7.8815C78.456 7.8124 78.6423 7.69546 78.802 7.55195C78.9616 7.40312 79.0894 7.22772 79.1746 7.02574C79.2598 6.82907 79.3077 6.61115 79.3077 6.39322C79.3077 6.17529 79.2651 5.96268 79.1746 5.7607C79.0894 5.56404 78.9616 5.38332 78.802 5.23449C78.6423 5.08566 78.456 4.97404 78.2484 4.90495C78.0461 4.83585 77.8225 4.80396 77.6096 4.8199H76.6887V3.22532H75.6826V7.90807L77.6096 7.96654ZM80.8301 3.28379H79.824V7.96654H80.8301V3.28379ZM73.0051 4.11829C73.0743 4.11297 73.1435 4.11829 73.2127 4.13955C73.2819 4.16081 73.3404 4.19801 73.3937 4.24585C73.4469 4.29369 73.4895 4.35216 73.5161 4.41594C73.5427 4.47972 73.5587 4.54882 73.5587 4.61792C73.5587 4.68702 73.5427 4.75612 73.5161 4.8199C73.4895 4.88368 73.4469 4.94215 73.3937 4.98999C73.3404 5.03783 73.2819 5.07503 73.2127 5.09629C73.1435 5.11756 73.0743 5.12819 73.0051 5.11756H72.0842V4.11297H73.0051V4.11829ZM72.0842 7.12673V5.92016H73.1594C73.3191 5.92016 73.4735 5.98394 73.5853 6.09557C73.6971 6.20719 73.7609 6.36133 73.7609 6.52079C73.7609 6.68025 73.6971 6.83439 73.5853 6.94601C73.4735 7.05763 73.3191 7.12141 73.1594 7.12141H72.0842V7.12673ZM73.202 7.96123C73.399 7.97717 73.5959 7.95591 73.7822 7.89744C73.9686 7.83897 74.1389 7.73798 74.2879 7.61042C74.437 7.48285 74.5594 7.32339 74.6446 7.14799C74.7298 6.97258 74.783 6.78124 74.7936 6.58457C74.783 6.34538 74.7085 6.11683 74.5701 5.92016C74.4317 5.7235 74.2454 5.57467 74.0218 5.47899C74.1868 5.37269 74.3199 5.22918 74.4104 5.0644C74.5062 4.89431 74.5541 4.70297 74.5541 4.51162C74.5168 4.15549 74.3465 3.82595 74.0697 3.59207C73.7929 3.3582 73.4416 3.24658 73.0796 3.27316H71.0728V7.95591L73.1967 7.96654L73.202 7.96123ZM65.8348 4.8199C65.8348 4.73486 65.8454 4.64981 65.8774 4.5754C65.9093 4.49567 65.9572 4.42657 66.0158 4.3681C66.0743 4.30964 66.1489 4.2618 66.2234 4.22991C66.3032 4.19801 66.3884 4.18738 66.4683 4.18738H67.5116V5.42584H66.4683C66.3884 5.42584 66.3032 5.41521 66.2287 5.38863C66.1542 5.36206 66.0797 5.31422 66.0211 5.26107C65.9626 5.2026 65.9146 5.13882 65.8827 5.0644C65.8508 4.98999 65.8348 4.91026 65.8348 4.82522V4.8199ZM68.5123 3.27847H66.4363C66.2287 3.26784 66.0211 3.30505 65.8242 3.37415C65.6325 3.44856 65.4515 3.56018 65.3025 3.70369C65.1534 3.84721 65.031 4.02261 64.9512 4.21396C64.8713 4.40531 64.8287 4.61261 64.8287 4.8199C64.8287 5.10693 64.8979 5.38332 65.047 5.62782C65.196 5.87232 65.4089 6.06899 65.6645 6.19656L64.6584 7.96654H65.7283L66.6492 6.32944H67.5169V7.96654H68.523L68.507 3.27847H68.5123ZM62.8858 6.86096L63.285 7.96654H64.3603L62.5185 3.28379H61.3687L59.5269 7.96654H60.5968L61.0014 6.86096H62.8858ZM62.5504 5.99458H61.4059L61.9755 4.45315L62.5451 5.99458H62.5504ZM58.9307 3.28379H57.9246V5.16008H55.9178V3.22532H54.917V7.90807H55.9178V5.99989H57.9246V7.90807H58.9307V3.28379ZM51.3293 4.72423V4.1927H52.5695V7.06826H50.5947C50.5947 7.06826 51.3293 6.39854 51.3293 4.72423ZM49.3171 7.06826V8.88077H50.3232V7.91339H53.1391V8.88077H54.1399V7.00979H53.5703V3.22532H50.3179V4.66576C50.3179 6.34007 49.5833 7.00979 49.5833 7.00979L49.3171 7.06826ZM44.0259 5.62782C44.0046 6.13277 44.1377 6.63772 44.4038 7.06826C44.67 7.4988 45.0586 7.83897 45.5217 8.04627C45.9848 8.25356 46.5012 8.31735 47.0015 8.2323C47.5019 8.14726 47.965 7.91339 48.3323 7.56258C48.6996 7.21177 48.9498 6.75997 49.0563 6.26565C49.1627 5.77133 49.1201 5.25575 48.9285 4.78269C48.7369 4.31495 48.4122 3.91099 47.9916 3.62397C47.5711 3.34226 47.0761 3.18811 46.5704 3.18811C46.2403 3.17748 45.9156 3.23595 45.6069 3.35289C45.2981 3.46982 45.0213 3.65054 44.7871 3.87378C44.5529 4.10234 44.3613 4.37342 44.2282 4.67107C44.0951 4.97404 44.0259 5.29296 44.0259 5.62251V5.62782ZM45.0639 5.62782C45.0692 5.33017 45.1651 5.04314 45.3354 4.79864C45.5057 4.55414 45.7453 4.3681 46.0221 4.25648C46.2989 4.14486 46.6023 4.1236 46.8898 4.18207C47.1825 4.24585 47.4487 4.38936 47.6563 4.60197C47.8639 4.81459 48.0023 5.08566 48.0608 5.37269C48.1141 5.66503 48.0821 5.968 47.965 6.23908C47.8479 6.51016 47.6563 6.74403 47.4061 6.9088C47.1559 7.07358 46.8685 7.15862 46.5704 7.15862C46.3681 7.15862 46.1711 7.1161 45.9848 7.04168C45.7985 6.96195 45.6335 6.85033 45.4898 6.70682C45.3514 6.56331 45.2396 6.39322 45.1651 6.20719C45.0905 6.02115 45.0533 5.81917 45.0586 5.62251L45.0639 5.62782ZM41.6784 4.18738C41.7742 4.18207 41.8647 4.18738 41.9499 4.21928C42.0404 4.25117 42.1202 4.299 42.1841 4.36279C42.2533 4.42657 42.3065 4.50098 42.3438 4.58603C42.3811 4.67107 42.4024 4.76143 42.4024 4.85711C42.4024 4.95278 42.3811 5.04314 42.3438 5.12819C42.3065 5.21323 42.2533 5.28764 42.1841 5.35143C42.1149 5.41521 42.0351 5.46305 41.9499 5.49494C41.8594 5.52683 41.7689 5.53746 41.6784 5.52683H40.7575V4.18738H41.6784ZM39.7355 3.26784V7.95059H40.7415V6.41448H41.7103C41.9233 6.42511 42.1415 6.39322 42.3385 6.31881C42.5408 6.24439 42.7217 6.13277 42.8814 5.98394C43.0358 5.83512 43.1636 5.65971 43.2434 5.46305C43.3286 5.26638 43.3712 5.05377 43.3712 4.84116C43.3712 4.62855 43.3286 4.41594 43.2434 4.21928C43.1582 4.02261 43.0358 3.84721 42.8814 3.69838C42.7271 3.54955 42.5408 3.43793 42.3385 3.36352C42.1362 3.2891 41.9233 3.25721 41.7103 3.26784H39.7355ZM37.5902 6.85033L37.9895 7.95591H39.0647L37.2229 3.27316H36.153L34.3112 7.95591H35.3865L35.7857 6.85033H37.5956H37.5902ZM37.2549 5.98394H36.121L36.6853 4.44252L37.2549 5.98394ZM33.5606 3.22532H32.5599V5.10161H30.5477V3.22532H29.5417V7.90807H30.5477V5.99989H32.5599V7.90807H33.5606V3.22532ZM25.8261 3.22532H24.7508L26.4276 6.37196L26.2945 6.60052C26.22 6.73871 26.1082 6.85565 25.9751 6.94069C25.8421 7.02042 25.6824 7.06294 25.528 7.06294C25.3896 7.06294 25.2512 7.04168 25.1234 6.99916V7.86555C25.2938 7.92933 25.4801 7.96654 25.6611 7.96654C26.4596 7.96654 26.9386 7.50943 27.3006 6.72808L28.9614 3.22H27.8862L26.9653 5.43116L25.8261 3.22V3.22532ZM21.6847 4.66576V4.13423H22.925V7.00979H20.9501C20.9501 7.00979 21.6847 6.34007 21.6847 4.66576ZM19.6726 7.00979V8.88077H20.6786V7.91339H23.4946V8.88077H24.4953V7.00979H23.8991V3.22532H20.6786V4.66576C20.6786 6.34007 19.944 7.00979 19.944 7.00979H19.6779H19.6726ZM15.7175 6.34007V7.91339H16.7235V6.34007L17.1228 5.90953L18.5015 7.91339H19.6779L17.7988 5.15476L19.5448 3.20937H18.3684L16.7289 5.01657V3.22532H15.6962V5.03251L14.0566 3.22532H12.8802L14.6209 5.17071L12.7472 7.92933H13.9236L15.3023 5.92548L15.7068 6.34007H15.7175ZM9.92589 7.00979V5.97331H11.8369V5.05377H9.92589V4.13423H12.3692V3.21469H8.91982V7.89744H12.4331V6.9779L9.92057 7.00979H9.92589ZM5.20427 5.26638L3.59668 3.22532H2.67578V7.90807H3.68185V4.79864L5.1883 6.70682L6.70007 4.78801V7.90807H7.70615V3.22532H6.81186L5.20427 5.26638Z" fill="white"/>
<path d="M104.272 18.1504V20.0639C103.468 20.1596 102.654 20.117 101.866 19.9363C102.233 20.3297 102.515 20.7868 102.702 21.2864C102.888 21.786 102.973 22.3229 102.952 22.8544C102.84 25.5652 99.7312 27.6913 99.4331 31.0505C99.2947 32.778 99.694 34.5002 100.578 35.9884L99.0392 36.1107V18.1504H92.3906V38.7843H99.0445V36.908C99.8962 36.7166 100.78 36.6847 101.648 36.8176C101.19 36.2808 100.86 35.6536 100.668 34.9732C100.476 34.2982 100.434 33.5859 100.54 32.8896C101.083 29.4028 103.622 28.3185 103.761 24.3958C103.846 21.903 102.936 20.6433 102.936 20.6433C102.936 20.6433 103.686 20.707 104.277 20.6964V38.8002H110.771V18.177L104.272 18.1557V18.1504Z" fill="white"/>
<path d="M66.8415 20.1387C66.7883 20.0058 66.7085 19.8889 66.6073 19.7932C66.5062 19.6976 66.3837 19.6231 66.2507 19.5806C66.1016 19.5275 65.9419 19.5222 65.7876 19.57C65.6385 19.6178 65.5054 19.7135 65.4149 19.8411C65.3724 19.8995 65.3404 19.9633 65.3298 20.0324C65.3191 20.1015 65.3191 20.1759 65.3404 20.2397C65.3617 20.3088 65.3936 20.3726 65.4416 20.4204C65.4895 20.4736 65.548 20.5161 65.6119 20.5374C65.6705 20.5639 65.7343 20.5746 65.7982 20.5693C65.8674 20.5533 65.9419 20.5533 66.0165 20.5693C66.1069 20.6065 66.0697 20.7075 66.0165 20.7553C65.9632 20.8031 65.7982 20.7553 65.7024 20.7287C65.0476 20.3779 64.4461 19.9314 63.9191 19.4052L63.5465 19.065C63.3442 18.8843 63.1366 18.7089 62.9237 18.5388C62.7108 18.3687 62.4925 18.204 62.2636 18.0551C62.0347 17.9116 61.8005 17.7841 61.5503 17.6778L61.4492 17.6352C61.199 17.5396 60.9382 17.4705 60.672 17.4439C60.3367 17.412 60.0013 17.4279 59.6659 17.4864C59.6234 17.4864 59.4903 17.5342 59.5542 17.598C59.5701 17.614 59.5861 17.6246 59.6074 17.6299C59.7937 17.6831 59.98 17.7415 60.161 17.816C60.4165 17.9116 60.6614 18.0339 60.8956 18.1721C61.1298 18.305 61.3587 18.4591 61.5663 18.6292C61.7792 18.7993 61.9815 18.9853 62.1625 19.1873C62.3488 19.384 62.5192 19.5966 62.6682 19.8198C62.8598 20.1068 62.9982 20.4364 63.2058 20.7181C63.291 20.8563 63.4081 20.9679 63.5518 21.0476C63.6956 21.1274 63.8499 21.1699 64.015 21.1752C64.2013 21.1752 64.3769 21.0902 64.5686 21.0902C64.7336 21.0902 64.8986 21.1167 65.0583 21.1699C65.367 21.2975 65.6917 21.3666 66.0271 21.3878C66.1708 21.3772 66.3092 21.34 66.437 21.2656C66.5647 21.1911 66.6659 21.0955 66.7457 20.9732C66.8256 20.851 66.8735 20.7181 66.8894 20.5746C66.9054 20.4311 66.8894 20.2876 66.8362 20.1547L66.8415 20.1387Z" fill="white"/>
<path d="M43.5776 35.2766C44.11 35.048 44.77 34.7822 45.3183 35.1118C45.4567 35.1968 45.5685 34.9895 45.4407 34.8992C45.0575 34.6334 44.6263 34.458 44.1685 34.3783C43.7107 34.2985 43.2423 34.3198 42.7898 34.4421C42.6567 34.4793 42.5237 34.5218 42.3959 34.5803C42.3959 34.4261 42.332 34.272 42.2256 34.1603C42.1191 34.0487 41.9754 33.969 41.821 33.9531C41.7199 33.9424 41.6187 33.9531 41.5229 33.9956C41.4271 34.0328 41.3419 34.0913 41.2781 34.1657C41.2089 34.2401 41.1609 34.3304 41.1343 34.4261C41.1077 34.5218 41.1024 34.6228 41.1184 34.7238C41.1397 34.9364 41.2248 35.1384 41.3685 35.2978C41.5389 35.4732 41.7625 35.5902 42.002 35.622C42.5503 35.6699 43.0986 35.5476 43.583 35.2819L43.5776 35.2766Z" fill="white"/>
<path d="M43.6266 30.7158C43.6 30.9337 43.5574 31.1516 43.4829 31.3589C43.3977 31.5662 43.3764 31.7948 43.4296 32.0127C43.4669 32.119 43.5308 32.2094 43.6213 32.2838C43.7064 32.3529 43.8129 32.4007 43.9247 32.4113C43.8981 32.5176 43.8981 32.6239 43.914 32.7302C43.9353 32.8366 43.9779 32.9375 44.0418 33.0226C44.1057 33.1076 44.1855 33.182 44.2813 33.2352C44.3772 33.2884 44.4783 33.3202 44.5848 33.3309C44.5475 33.4212 44.5368 33.5222 44.5475 33.6232C44.5581 33.7242 44.5954 33.8146 44.6593 33.8943C44.7178 33.974 44.7977 34.0378 44.8882 34.0803C44.9787 34.1228 45.0798 34.1388 45.1809 34.1282C45.1809 34.4524 45.5802 34.7288 45.8091 34.8936C46.038 35.0583 46.203 35.1806 46.3999 35.3241L46.6874 35.5367C46.7832 35.6218 46.8737 35.7121 46.9642 35.8025C47.0174 35.8503 47.1665 35.946 47.1824 35.8025C47.1878 35.7706 47.1878 35.7387 47.1824 35.7068C47.1026 35.4942 47.0068 35.2869 46.895 35.0849C46.8151 34.9308 46.73 34.7766 46.6395 34.6278C46.5543 34.4737 46.4479 34.3301 46.3414 34.1707L46.187 33.9634C46.187 33.9368 46.0273 33.7933 46.0326 33.772C46.0593 33.5966 46.022 33.4212 45.9209 33.2777C45.8197 33.1342 45.6654 33.0385 45.495 33.0013C45.5376 32.9003 45.5589 32.794 45.5589 32.6877C45.5589 32.5814 45.5323 32.4751 45.4844 32.3741C45.4365 32.2785 45.3726 32.1881 45.2874 32.119C45.2076 32.0499 45.1064 31.9967 45.0053 31.9649C45.0692 31.8107 45.0692 31.6353 45.0053 31.4812C44.9308 31.3217 44.7817 31.2048 44.7178 31.024C44.654 30.838 44.7391 30.737 44.8509 30.6201C44.984 30.5085 45.0905 30.3756 45.1756 30.2321C45.2555 30.046 45.2768 29.8441 45.2395 29.6474C45.1064 29.27 44.8935 28.9298 44.6167 28.6428C44.5049 28.5099 44.4251 28.3611 44.3718 28.1963C44.3239 28.0316 44.308 27.8615 44.3292 27.6914C44.3878 27.7658 44.4623 27.8296 44.5475 27.8774C44.6327 27.9252 44.7232 27.9518 44.819 27.9571C44.968 27.9625 45.1171 27.9199 45.2342 27.8296C45.3513 27.7392 45.4365 27.6116 45.4737 27.4681C45.5216 27.314 45.5163 27.1545 45.4684 27.0004C45.4205 26.8516 45.3247 26.7187 45.1969 26.623C45.0638 26.5273 44.9148 26.4689 44.7498 26.4476C44.5901 26.4263 44.4251 26.4476 44.276 26.5008C43.5201 26.7984 43.3338 27.6648 43.3551 28.393C43.3764 29.1212 43.6958 29.9291 43.6319 30.7158H43.6266Z" fill="white"/>
<path d="M50.3015 38.1473C48.9494 37.2756 47.5015 36.5687 45.9844 36.0319C45.1487 35.6811 44.2278 35.5748 43.3335 35.7236C42.9396 35.798 42.5723 35.9787 42.2689 36.2445C41.9708 36.5102 41.7472 36.8557 41.6301 37.2437C41.5343 37.6158 41.5716 38.0091 41.7366 38.36C41.9069 38.6948 42.1624 38.9818 42.4712 39.1945C42.8119 39.4443 43.2058 39.6037 43.621 39.6569C44.0362 39.7153 44.462 39.6675 44.8506 39.5187C45.1966 39.3805 45.4841 39.136 45.681 38.8224C45.8727 38.5088 45.9578 38.1367 45.9206 37.77C45.878 37.4138 45.697 37.0843 45.4202 36.8504C45.2818 36.7441 45.1274 36.6697 44.9624 36.6272C44.7974 36.5847 44.6217 36.574 44.4514 36.6006C44.281 36.6219 44.1213 36.6803 43.9776 36.7707C43.8339 36.861 43.7168 36.9833 43.6263 37.1268C43.5252 37.2916 43.4772 37.4829 43.4879 37.6743C43.4985 37.8656 43.5624 38.0517 43.6795 38.2058C43.7913 38.3334 43.9404 38.4184 44.1054 38.4556C44.2704 38.4928 44.4407 38.4769 44.6004 38.4078C44.7388 38.3334 44.8453 38.2111 44.9038 38.0623C44.9571 37.9135 44.9571 37.7487 44.9038 37.6052C44.8932 37.5786 44.8826 37.5573 44.8719 37.5308C45.021 37.6158 45.1381 37.754 45.1966 37.9135C45.2552 38.0782 45.2498 38.2537 45.1806 38.4131C45.0848 38.6204 44.9145 38.7852 44.7016 38.8755C44.494 38.9659 44.2544 38.9818 44.0362 38.9181C43.8233 38.849 43.6263 38.7373 43.4666 38.5885C43.3016 38.4344 43.1792 38.2483 43.0993 38.041C43.0195 37.8337 42.9875 37.6105 43.0035 37.3873C43.0195 37.164 43.0887 36.9514 43.2004 36.7601C43.3176 36.5793 43.4719 36.4199 43.6529 36.3029C43.8339 36.186 44.0415 36.101 44.2544 36.0691C44.6962 36.0159 45.1381 36.1329 45.4894 36.4039C45.878 36.6644 46.2133 36.9992 46.5966 37.2703C46.9745 37.5255 47.4004 37.7009 47.8475 37.7965C48.481 37.8869 49.1091 38.0091 49.7266 38.1739C49.9129 38.2377 50.0886 38.3121 50.2589 38.4025C50.4186 38.4982 50.573 38.5991 50.722 38.7108C50.8338 38.7905 50.9722 38.6151 50.8711 38.5194C50.7007 38.3653 50.5091 38.2377 50.3068 38.1367L50.3015 38.1473Z" fill="white"/>
<path d="M65.1373 33.4493L65.0681 33.4015C64.8871 33.3324 64.6902 33.3377 64.5145 33.4121C64.3388 33.4865 64.2004 33.6301 64.1259 33.8108C63.9609 34.1403 63.748 34.4486 63.5031 34.7303C62.9974 35.2937 62.3373 35.6924 61.6028 35.8731C61.1663 35.9847 60.7138 36.0485 60.2613 36.0591C59.7982 36.0751 59.3351 36.0326 58.8826 35.9263C58.4461 35.8199 58.0469 35.5861 57.7435 35.2565C57.4614 34.9376 57.2804 34.539 57.2325 34.1191C57.1845 33.6619 57.291 33.1995 57.5306 32.8062C57.6317 32.6255 57.7754 32.4713 57.9404 32.3544C58.1108 32.2375 58.3024 32.1524 58.5047 32.1152C58.7229 32.078 58.9465 32.1152 59.1328 32.2321C59.3191 32.3438 59.4628 32.5245 59.532 32.7318C59.564 32.8434 59.564 32.9603 59.532 33.072C59.5054 33.1836 59.4469 33.2846 59.3617 33.3696C59.2978 33.4334 59.218 33.4759 59.1328 33.5025C59.0476 33.5291 58.9571 33.5344 58.8667 33.5238C58.8879 33.4547 58.8879 33.3802 58.8773 33.3058C58.8667 33.2367 58.84 33.1676 58.7975 33.1038C58.7602 33.0401 58.707 32.9922 58.6431 32.9497C58.5845 32.9125 58.5153 32.8859 58.4408 32.87C58.345 32.8647 58.2545 32.8806 58.164 32.9125C58.0788 32.9444 57.999 32.9975 57.9298 33.0666C57.8659 33.1357 57.8127 33.2155 57.7807 33.3058C57.7488 33.3962 57.7382 33.4919 57.7488 33.5822C57.7701 33.7736 57.8446 33.9543 57.9617 34.1031C58.0788 34.2519 58.2385 34.3636 58.4195 34.4273C58.6005 34.4911 58.7921 34.5124 58.9838 34.4858C59.1754 34.4592 59.3564 34.3901 59.5108 34.2785C59.6758 34.1616 59.8142 34.0181 59.9206 33.8427C60.0271 33.6726 60.091 33.4812 60.1229 33.2846C60.1815 32.8434 60.0803 32.3969 59.8355 32.0195C59.729 31.8388 59.58 31.6794 59.4096 31.5571C59.2393 31.4348 59.0423 31.3498 58.8347 31.3073C58.4089 31.2276 57.967 31.3073 57.5944 31.5252C57.2697 31.7112 56.9929 31.9717 56.78 32.28C56.6309 32.4926 56.4979 32.7211 56.3861 32.9603C56.3328 33.0773 56.2796 33.2048 56.2317 33.3271C56.1944 33.4493 56.1465 33.5716 56.0933 33.6885C56.0667 33.6141 56.0507 33.5344 56.0294 33.4547C56.0028 33.3802 55.9762 33.3005 55.9443 33.2314C55.8857 33.0826 55.8112 32.9444 55.726 32.8062C55.4439 32.3757 55.0393 32.0408 54.5656 31.8388C54.3313 31.7166 54.0705 31.6687 53.8097 31.7006C53.5488 31.7325 53.304 31.8388 53.107 32.0089C52.9473 32.1684 52.8568 32.3863 52.8515 32.6095C52.8728 32.8328 52.9739 33.0454 53.1443 33.1942C53.3519 33.3643 53.5755 33.5131 53.8044 33.6513C53.9161 33.7257 54.0173 33.8161 54.1024 33.9171C54.145 33.9702 54.1823 34.0287 54.2089 34.0872C54.2462 34.1669 54.2568 34.2573 54.2515 34.3423C54.2515 34.3582 54.2515 34.3795 54.2515 34.3955C54.2568 34.4114 54.2675 34.4273 54.2834 34.4433C54.2941 34.4539 54.3101 34.4592 54.3313 34.4592C54.3526 34.4592 54.3633 34.4539 54.3739 34.4433C54.491 34.2892 54.5602 34.1031 54.5709 33.9118C54.5762 33.7204 54.523 33.5291 54.4165 33.3696C54.3633 33.2899 54.3047 33.2208 54.2302 33.1676C54.1397 33.0932 54.0279 33.0507 53.9321 32.9816C53.8363 32.9178 53.7352 32.8168 53.7564 32.6946C53.7777 32.5776 53.9108 32.5511 54.0066 32.5776C54.2142 32.668 54.3899 32.8328 54.491 33.0347C54.5975 33.2101 54.688 33.4015 54.7519 33.5982C54.8743 34.0128 55.0287 34.422 55.215 34.8154C55.4545 35.1821 55.7686 35.4957 56.1359 35.7296C56.5032 35.9688 56.9184 36.1229 57.3496 36.192C58.3663 36.4206 59.4149 36.495 60.4583 36.4046C60.7404 36.3834 61.0225 36.3515 61.2993 36.309C60.3305 36.7235 59.2819 36.9149 58.2279 36.8564C56.9823 36.7714 55.7846 36.378 54.7306 35.7136C53.666 35.0545 52.7557 34.1616 52.069 33.1145C51.3238 31.9451 50.8287 30.6322 50.6158 29.2609C50.3922 27.8789 50.4188 26.4704 50.701 25.1044C50.9458 23.7437 51.5048 22.4574 52.3298 21.3465C53.1177 20.3047 54.2089 19.534 55.4545 19.13C56.088 18.928 56.7534 18.8536 57.4134 18.9121C58.0735 18.9705 58.7176 19.1566 59.3032 19.4649C59.8887 19.7731 60.4104 20.1931 60.8309 20.7033C61.2514 21.2136 61.5708 21.8036 61.7624 22.4361C61.837 22.6753 61.8902 22.9251 61.9275 23.1696C61.7252 23.1696 61.5282 23.2334 61.3632 23.3556C61.1982 23.4779 61.0811 23.648 61.0279 23.8446C60.964 24.0785 60.964 24.3283 61.0279 24.5675C60.8256 24.8864 60.5647 25.1628 60.256 25.3808C59.729 25.7688 59.0636 25.9335 58.4142 25.8379C58.1267 25.79 57.8499 25.6784 57.6104 25.5136C57.3709 25.3489 57.1633 25.1363 57.0089 24.8918C56.8598 24.6419 56.78 24.3602 56.7693 24.0732C56.7587 23.7862 56.8226 23.4992 56.9557 23.2387C57.1047 22.9304 57.3709 22.6859 57.6902 22.5583C57.834 22.4999 57.9937 22.4946 58.1374 22.5477C58.2811 22.5956 58.4089 22.6965 58.4834 22.8294C58.361 22.7603 58.2172 22.7338 58.0735 22.755C57.9351 22.771 57.802 22.8347 57.6956 22.9304C57.5891 23.042 57.5146 23.1909 57.4933 23.345C57.472 23.4992 57.4986 23.6586 57.5731 23.7968C57.653 23.935 57.7701 24.0519 57.9085 24.1317C58.0469 24.2114 58.2066 24.2539 58.3663 24.2539C58.526 24.2539 58.6803 24.2273 58.8241 24.1689C58.9678 24.1104 59.1009 24.0147 59.2073 23.9031C59.4309 23.6746 59.564 23.3716 59.5746 23.0527C59.5746 22.7178 59.4628 22.3936 59.2552 22.1331C59.021 21.8567 58.7123 21.6548 58.361 21.5484C58.015 21.4475 57.6423 21.4421 57.2963 21.5484C56.6522 21.7292 56.1039 22.1544 55.7739 22.7391C55.4332 23.3131 55.3268 23.9935 55.4599 24.6473C55.6036 25.3117 55.9655 25.9123 56.4872 26.3588C57.0515 26.8265 57.7541 27.0976 58.4834 27.1295C59.2073 27.1454 59.9206 26.9753 60.5594 26.6352C61.1982 26.295 61.7358 25.7953 62.1244 25.1841L62.3001 24.9024C62.4491 24.913 62.5929 24.8758 62.71 24.7908C62.8271 24.7057 62.9176 24.5835 62.9548 24.4453C63.0027 24.2752 62.9921 24.0998 62.9335 23.935C62.875 23.7702 62.7632 23.6267 62.6195 23.531C62.8111 22.181 62.4864 20.8043 61.6986 19.6828C60.6978 18.3327 59.2127 17.4185 57.5572 17.1368C55.6834 16.8444 53.7671 17.1634 52.0903 18.0457C50.6211 18.7845 49.3489 19.8529 48.3694 21.1711C46.3945 23.7437 45.4896 26.9807 45.8516 30.2017C46.0326 31.5943 46.4904 32.9338 47.193 34.1456C47.8957 35.3575 48.8379 36.4206 49.9557 37.271C50.9032 37.9833 51.9572 38.5414 53.0804 38.9187C54.2036 39.2961 55.3853 39.4822 56.5671 39.4609C57.7754 39.429 58.9731 39.1951 60.1069 38.7699C61.2355 38.3447 62.2948 37.7388 63.2263 36.9734C63.6947 36.5907 64.1259 36.1761 64.5198 35.719C64.7168 35.4904 64.9084 35.2618 65.0841 35.0014C65.297 34.7409 65.4194 34.4167 65.4354 34.0819C65.4354 33.9543 65.4088 33.8267 65.3502 33.7098C65.2917 33.5928 65.2118 33.4919 65.1107 33.4121L65.1373 33.4493Z" fill="white"/>
<path d="M58.2439 29.5832C58.2226 29.4078 58.1374 29.2431 58.0043 29.1261C57.8553 29.0039 57.6743 28.9295 57.4826 28.9082C57.291 28.8869 57.0994 28.9242 56.929 29.0092C56.5564 29.2059 56.2583 29.5141 56.0667 29.8862C55.8538 30.2795 55.742 30.7207 55.742 31.1672C55.6462 31.1459 55.545 31.1512 55.4492 31.1885C55.3534 31.2203 55.2736 31.2841 55.215 31.3585C55.1937 31.3958 55.1777 31.433 55.1777 31.4755C55.1777 31.518 55.1777 31.5552 55.1937 31.5977C55.2097 31.6349 55.231 31.6721 55.2629 31.6987C55.2948 31.7253 55.3268 31.7466 55.3694 31.7572C55.4119 31.7572 55.4599 31.7572 55.5024 31.7572H55.6355C55.6621 31.805 55.6834 31.8529 55.6888 31.9113C55.6888 31.9698 55.7207 32.0336 55.7367 32.0974C55.7526 32.1612 55.7952 32.3259 55.8272 32.4482C55.8591 32.5651 55.8804 32.8521 56.0081 32.9372C56.0241 32.9478 56.0454 32.9531 56.0667 32.9531C56.088 32.9531 56.1093 32.9531 56.1253 32.9372C56.1465 32.9266 56.1625 32.9053 56.1732 32.8893C56.1838 32.8681 56.1945 32.8468 56.1945 32.8256C56.253 32.6448 56.2903 32.4588 56.3116 32.2675C56.3169 32.1718 56.3169 32.0708 56.3116 31.9751C56.3116 31.8794 56.3009 31.7891 56.2796 31.6934C56.3701 31.7147 56.4659 31.704 56.5458 31.6562C56.6256 31.6137 56.6895 31.5393 56.7161 31.4542C56.7321 31.4064 56.7374 31.3585 56.7321 31.3107C56.7321 31.2629 56.7108 31.215 56.6895 31.1725C56.6682 31.13 56.6363 31.0928 56.599 31.0609C56.5617 31.029 56.5192 31.0077 56.4713 30.9918C56.4713 30.6782 56.5564 30.3699 56.7161 30.0935C56.78 29.95 56.8865 29.8384 57.0302 29.7693C57.1473 29.7374 57.307 29.7959 57.2857 29.9447C57.2644 30.0935 57.1207 30.1998 57.0621 30.3327C57.0142 30.4496 56.9982 30.5772 57.0195 30.7048C57.0408 30.8217 57.0941 30.9333 57.1739 31.0237C57.2538 31.114 57.3602 31.1725 57.4773 31.2044C57.6157 31.231 57.7541 31.2203 57.8819 31.1619C58.0096 31.1034 58.1161 31.0077 58.18 30.8855C58.1906 30.8695 58.1906 30.8536 58.1906 30.8323C58.1906 30.8164 58.18 30.8004 58.164 30.7845C58.1534 30.7739 58.1321 30.7632 58.1161 30.7632C58.1001 30.7632 58.0788 30.7632 58.0629 30.7739L58.0203 30.8004C57.9937 30.827 57.9564 30.8376 57.9191 30.8376C57.8819 30.8376 57.8446 30.8217 57.818 30.8004C57.7807 30.7686 57.7541 30.726 57.7382 30.6835C57.7222 30.6357 57.7222 30.5878 57.7382 30.54C57.7754 30.3327 57.9564 30.1839 58.0788 30.0244C58.18 29.9022 58.2385 29.7427 58.2385 29.5832H58.2439Z" fill="white"/>
<path d="M16.1434 22.6686C16.005 24.2525 14.9616 25.5016 13.5723 25.5229C13.2476 25.5494 12.9229 25.4644 12.6461 25.289C12.3746 25.1136 12.1617 24.8478 12.0499 24.5449C11.9541 24.3641 11.9221 24.1569 11.9594 23.9496C11.986 23.9496 12.0286 24.0665 12.0605 24.1037C12.1617 24.2366 12.2947 24.3429 12.4438 24.412C12.5928 24.4811 12.7632 24.5077 12.9282 24.497C13.2263 24.5183 13.5244 24.4226 13.7586 24.2313C13.9928 24.0399 14.1419 23.7688 14.1845 23.4712C14.2111 23.2798 14.2004 23.0832 14.1472 22.8971C14.094 22.7111 14.0035 22.5357 13.8757 22.3869C13.748 22.238 13.5936 22.1158 13.4232 22.0307C13.2476 21.9457 13.0559 21.8979 12.8643 21.8925C12.3107 21.8819 11.7731 22.0839 11.3632 22.4506C10.9533 22.8227 10.6978 23.333 10.6499 23.8858C10.3518 25.6345 12.0286 27.1015 12.0286 27.1015L9.87271 29.1532C9.87271 29.1532 9.84077 24.6086 10.075 22.6154C10.3092 20.6222 11.5069 19.1286 13.1518 19.1286C15.132 19.1286 16.2977 20.9252 16.1487 22.6526M20.8171 22.6526C20.668 18.6981 16.0316 17.0078 13.189 17.0078C10.3465 17.0078 4.85299 18.1293 4.38988 23.9017C4.23019 27.2557 4.32068 37.6895 4.32068 37.6895C4.32068 37.6895 4.15566 37.8809 3.59141 37.8809H2.24998C2.0477 37.9181 1.98914 38.1679 1.99447 38.3699C1.99447 38.6569 2.06367 38.827 2.24998 38.827C2.64389 38.8536 5.8218 38.7047 7.17388 38.7047C8.52596 38.7047 11.5016 38.827 11.8742 38.827C12.135 38.827 12.1776 38.6038 12.1776 38.3699C12.1776 38.136 12.1776 37.8756 11.8902 37.8756C11.6027 37.8756 9.86739 37.9128 9.86739 37.6895V31.173C9.86739 30.9019 13.1677 27.5799 13.3807 27.633C14.1365 27.9041 14.935 28.037 15.7388 28.0157C17.192 28.0157 20.9715 27.0643 20.8011 22.642" fill="white"/>
<path d="M121.75 31.4755H120.728C120.605 31.4755 120.488 31.5233 120.403 31.6084C120.318 31.6934 120.27 31.8103 120.27 31.9326V32.9425H119.28C119.157 32.9425 119.04 32.9903 118.955 33.0754C118.87 33.1604 118.822 33.2774 118.822 33.3996V37.3648H115.878V31.922C115.878 31.7997 115.83 31.6828 115.745 31.5977C115.66 31.5127 115.543 31.4648 115.42 31.4648H114.856C114.734 31.4648 114.617 31.5127 114.532 31.5977C114.446 31.6828 114.398 31.7997 114.398 31.922V36.9024C114.398 37.0246 114.446 37.1416 114.532 37.2266C114.617 37.3116 114.734 37.3595 114.856 37.3595H115.878V38.3588C115.878 38.481 115.926 38.5979 116.011 38.683C116.097 38.768 116.214 38.8159 116.336 38.8159H121.297C121.42 38.8159 121.537 38.768 121.622 38.683C121.707 38.5979 121.755 38.481 121.755 38.3588V37.3595H122.766C122.889 37.3595 123.006 37.3116 123.091 37.2266C123.176 37.1416 123.224 37.0246 123.224 36.9024V32.9478H124.246C124.369 32.9478 124.486 32.9 124.571 32.8149C124.656 32.7299 124.704 32.6129 124.704 32.4907V31.4702H121.75V31.4755Z" fill="white"/>
<path d="M136.084 21.1863C136.206 21.1863 136.323 21.1385 136.408 21.0534C136.494 20.9684 136.541 20.8514 136.541 20.7292V19.7087H137.51C137.633 19.7087 137.75 19.6608 137.835 19.5758C137.92 19.4907 137.968 19.3738 137.968 19.2515V18.6934C137.968 18.5712 137.92 18.4543 137.835 18.3692C137.75 18.2842 137.633 18.2363 137.51 18.2363H131.069C130.947 18.2363 130.83 18.2842 130.745 18.3692C130.659 18.4543 130.611 18.5712 130.611 18.6934V19.714H127.641V18.6934C127.641 18.5712 127.593 18.4543 127.508 18.3692C127.423 18.2842 127.306 18.2363 127.183 18.2363H120.742C120.62 18.2363 120.503 18.2842 120.418 18.3692C120.333 18.4543 120.285 18.5712 120.285 18.6934V19.7087H119.273C119.151 19.7087 119.034 19.7565 118.949 19.8415C118.863 19.9266 118.815 20.0435 118.815 20.1658V21.1863H117.809C117.687 21.1863 117.57 21.2341 117.485 21.3192C117.399 21.4042 117.352 21.5212 117.352 21.6434V26.5813C117.352 26.7036 117.399 26.8205 117.485 26.9055C117.57 26.9906 117.687 27.0384 117.809 27.0384H118.821V28.0589C118.821 28.1812 118.869 28.2981 118.954 28.3832C119.039 28.4682 119.156 28.5161 119.279 28.5161H121.738V29.5525C121.738 29.6748 121.786 29.7917 121.871 29.8768C121.956 29.9618 122.073 30.0097 122.196 30.0097H124.724V31.4607H129.158V37.3607H128.136C128.014 37.3607 127.897 37.4085 127.812 37.4936C127.726 37.5786 127.678 37.6955 127.678 37.8178V38.3759C127.678 38.4981 127.726 38.6151 127.812 38.7001C127.897 38.7852 128.014 38.833 128.136 38.833H137.521C137.643 38.833 137.76 38.7852 137.846 38.7001C137.931 38.6151 137.979 38.4981 137.979 38.3759V37.8178C137.979 37.6955 137.931 37.5786 137.846 37.4936C137.76 37.4085 137.643 37.3607 137.521 37.3607H136.52V36.3614C136.52 36.2391 136.472 36.1222 136.387 36.0372C136.302 35.9521 136.185 35.9043 136.062 35.9043H133.598V21.1969L136.105 21.1757L136.084 21.1863ZM130.606 28.5373H123.244V27.5168C123.244 27.3945 123.196 27.2776 123.111 27.1926C123.026 27.1075 122.909 27.0597 122.786 27.0597H121.786V21.181H129.153V26.5866C129.153 26.7089 129.201 26.8258 129.286 26.9108C129.371 26.9959 129.488 27.0437 129.611 27.0437H130.633L130.611 28.5373H130.606Z" fill="white"/>
<path d="M40.3628 24.1831C40.1073 23.1891 39.7027 22.2377 39.1545 21.3713C38.8617 20.9036 38.5263 20.4624 38.1644 20.0478C37.7758 19.6066 37.3606 19.192 36.9134 18.8093C36.429 18.3947 35.918 18.012 35.3804 17.6666C34.7948 17.2732 34.1773 16.9277 33.5386 16.6301C32.1599 16.0082 31.7819 15.4395 31.7819 15.4395L31.4785 15.7531C31.3774 15.854 31.2656 15.9391 31.1431 16.0135C30.6162 16.3484 30.0679 16.646 29.4983 16.9118C28.6253 17.3264 27.8109 17.8526 27.0709 18.4692C26.3417 19.0804 25.6976 19.7767 25.1493 20.5527C24.601 21.3288 24.1539 22.1739 23.8238 23.0616C23.4831 23.9758 23.2649 24.9325 23.1744 25.9052C23.0733 27.1171 23.1478 28.3343 23.4033 29.5196C23.6961 30.8431 24.1752 32.1188 24.8193 33.3041C25.5698 34.6807 26.4854 35.9617 27.5447 37.1151C28.1409 37.7689 28.7743 38.3961 29.4344 38.9861C30.1371 39.608 30.9036 40.2246 31.7021 40.8252L31.8618 40.9421L32.0481 40.8624C33.9484 40.0332 36.0617 38.0825 37.7013 35.6481C38.1218 35.0262 38.5104 34.3778 38.851 33.708C39.2024 33.0277 39.5111 32.3261 39.7719 31.6085C40.3043 30.1787 40.6024 28.6692 40.6503 27.1437C40.6875 26.1497 40.5864 25.1558 40.3522 24.1884L40.3628 24.1831ZM39.9955 27.1065C39.937 29.7322 38.9256 32.6237 37.1636 35.2388C35.6465 37.4925 33.7195 39.305 31.9842 40.1236C24.3561 34.4734 23.6322 28.8286 23.8984 25.9584C24.0634 24.1565 24.6968 22.429 25.7402 20.9514C26.7835 19.4737 28.1888 18.2884 29.8283 17.523C30.4405 17.2413 31.0314 16.9171 31.6009 16.5557C31.6861 16.5025 31.75 16.4494 31.8032 16.4068C32.2716 16.7151 32.7561 16.9968 33.2618 17.2413C38.9469 20.0425 40.0594 24.1512 40.0062 27.1012H39.9902L39.9955 27.1065Z" fill="white"/>
<path d="M31.9213 17.0863H31.8947L31.8096 17.1235L31.6658 17.1766L31.4742 17.2563L31.24 17.3627L30.9685 17.4849L30.6598 17.639C30.548 17.6922 30.4309 17.756 30.3191 17.8198L29.9571 18.0217L29.5738 18.2556C29.4354 18.3407 29.3077 18.4257 29.1746 18.5108C29.0415 18.5958 28.8978 18.6968 28.7647 18.7978C28.6316 18.8988 28.4826 19.0051 28.3442 19.1167C28.2058 19.2283 28.0621 19.3399 27.9237 19.4622C27.7853 19.5791 27.6469 19.7067 27.5085 19.8343L27.1039 20.2382C26.9655 20.3817 26.8378 20.5252 26.71 20.6741C26.5822 20.8229 26.4545 20.9824 26.3321 21.1312L26.1138 21.4395C26.034 21.5564 25.9541 21.6733 25.8743 21.7956L25.7252 22.0295C25.6347 22.1889 25.5389 22.3537 25.4591 22.5238C25.3792 22.6886 25.2887 22.8693 25.2142 23.0447C25.1397 23.2201 25.0651 23.4008 24.9959 23.5868C24.9267 23.7729 24.8735 23.9695 24.8203 24.1609C24.7724 24.3522 24.7138 24.5542 24.6766 24.7562C24.6393 24.9582 24.5967 25.1761 24.5754 25.3834C24.5541 25.596 24.5275 25.8139 24.5169 26.0372C24.5009 26.2551 24.5169 26.4943 24.5169 26.7228V27.18C25.0013 34.3184 30.2179 37.8743 32.1822 39.049C32.1822 39.049 39.773 34.1483 39.3045 26.1807C38.9159 19.3346 31.9267 17.0703 31.9213 17.0703V17.0863ZM34.6628 18.8775C34.8544 19.0157 35.0567 19.1592 35.2536 19.3134C35.1418 19.4356 35.046 19.5738 34.9662 19.7226C34.8917 19.8715 34.8331 20.0256 34.7905 20.1797C34.7639 20.2754 34.7479 20.3764 34.7373 20.4721C34.5829 20.4402 34.4285 20.4455 34.2795 20.4933C34.189 20.5252 34.0985 20.5624 34.0187 20.6103C34.0187 20.403 34.04 20.1957 34.0719 19.9937C34.0879 19.7758 34.1517 19.5685 34.2476 19.3718C34.3487 19.1805 34.4871 19.0104 34.6574 18.8722L34.6628 18.8775ZM34.9129 23.4486C36.5259 23.3955 37.4308 24.0067 37.3297 24.8253C37.2871 25.0273 37.1966 25.2133 37.0582 25.3674C36.9198 25.5216 36.7441 25.6332 36.5472 25.697C36.5738 25.6332 36.5951 25.5641 36.6004 25.495C36.611 25.3356 36.5738 25.1761 36.4939 25.0379C36.4141 24.8891 36.2916 24.7668 36.1426 24.6818C36.0042 24.602 35.8445 24.5595 35.6795 24.5648C35.4878 24.5755 35.3015 24.6393 35.1472 24.7509C35.0194 24.8359 34.9129 24.9475 34.8331 25.0751C34.7533 25.208 34.7053 25.3515 34.6894 25.5056C34.6841 25.5694 34.6841 25.6279 34.6894 25.6917C34.4179 25.6917 34.1411 25.7289 33.8803 25.798C33.646 25.8565 33.4278 25.9521 33.2202 26.0797C33.0232 26.1966 32.8529 26.3561 32.7198 26.5368L32.6772 26.6006L32.7198 26.6697C32.8955 26.962 33.135 27.2065 33.4171 27.3979C33.6407 27.5414 33.8909 27.6477 34.1517 27.7062C34.3274 27.7434 34.5084 27.7646 34.6841 27.7646H34.8118C34.8012 27.839 34.8012 27.9135 34.8118 27.9826C34.8225 28.1473 34.8704 28.3015 34.9502 28.445C35.0301 28.5885 35.1418 28.7108 35.2749 28.8064C35.408 28.9074 35.5677 28.9659 35.7327 28.9606C35.77 28.9606 35.8019 28.9606 35.8392 28.9606C36.0308 28.934 36.2118 28.8436 36.3449 28.7054C36.4673 28.5779 36.5472 28.4184 36.5684 28.2483C37.0954 28.9818 36.3023 30.199 36.3023 30.199C36.5472 30.3797 36.7122 30.6402 36.7707 30.9379C36.824 31.2355 36.7707 31.5438 36.6004 31.7989H36.5152C36.3981 31.7989 36.281 31.8149 36.1692 31.8521C36.0574 31.8946 35.9563 31.9584 35.8711 32.0381C35.7593 32.1178 35.6635 32.2295 35.5996 32.3517C35.5358 32.474 35.4985 32.6122 35.4932 32.7504C35.4932 32.8886 35.5145 33.0268 35.573 33.1543C35.6316 33.2819 35.7167 33.3935 35.8232 33.4839C35.7806 33.6486 35.7061 33.8028 35.6103 33.941C35.4825 34.1217 35.3175 34.2652 35.1206 34.3662C34.9236 34.4672 34.7107 34.515 34.4924 34.515C34.2582 34.5203 34.0293 34.4566 33.8324 34.3343C33.6354 34.2067 33.481 34.026 33.3852 33.8134C33.2149 33.452 33.1457 33.048 33.1829 32.6494C33.2202 32.2507 33.3692 31.868 33.6088 31.5438C33.6673 31.6076 33.7312 31.6607 33.8004 31.7086C33.9016 31.7777 34.0187 31.8308 34.1411 31.8627C34.2955 31.8893 34.4498 31.8893 34.6042 31.8627C34.7586 31.8414 34.9076 31.7936 35.0407 31.7139C35.1738 31.6342 35.2909 31.5278 35.3814 31.4056C35.5464 31.1611 35.6316 30.8688 35.6156 30.5764C35.6156 30.401 35.573 30.2203 35.5091 30.0555C35.4453 29.8854 35.3494 29.7313 35.2323 29.5984C35.0993 29.4443 34.9342 29.322 34.7479 29.2317C34.5616 29.1413 34.3647 29.0935 34.1624 29.0828C33.8536 29.0509 33.5396 29.0828 33.2415 29.1679C33.2202 28.8862 33.167 28.6098 33.0765 28.344C32.9966 28.1154 32.8848 27.9028 32.7464 27.7062C32.6187 27.5201 32.4537 27.366 32.2567 27.2491L32.1769 27.2012L32.097 27.2597C31.8521 27.4457 31.6445 27.669 31.4795 27.9294C31.3464 28.142 31.2453 28.3706 31.1708 28.6098C31.1176 28.7958 31.0856 28.9818 31.0643 29.1679C30.6012 29.0722 30.1115 29.1307 29.6856 29.3326C29.478 29.4177 29.2917 29.5399 29.1267 29.6888C28.983 29.8216 28.8712 29.9758 28.786 30.1459C28.7115 30.3053 28.6636 30.4807 28.6476 30.6561C28.637 30.8262 28.6529 30.9963 28.6955 31.1611C28.7807 31.496 28.967 31.7936 29.2278 32.0169C29.3609 32.1285 29.5206 32.2135 29.6856 32.2614C29.8506 32.3198 30.0316 32.3411 30.2073 32.3198C30.3883 32.3092 30.5586 32.2507 30.7077 32.1497C30.8248 32.0647 30.9153 31.9584 30.9792 31.8255C30.9792 31.7989 31.0004 31.7723 31.0111 31.7458C31.1761 32.3039 31.3677 33.2234 31.059 33.8931C30.9791 34.0579 30.8674 34.2067 30.729 34.329C30.5906 34.4512 30.4255 34.5416 30.2499 34.5948C30.0582 34.6798 29.8453 34.7223 29.6324 34.7117C29.4195 34.7011 29.2119 34.6479 29.0256 34.5469C28.7488 34.3556 28.5412 34.0898 28.424 33.7762C28.3761 33.654 28.3442 33.537 28.3176 33.452H28.4187C28.5199 33.452 28.6157 33.4201 28.7008 33.3669C28.8286 33.2819 28.9244 33.1649 28.9723 33.0214C29.0256 32.8779 29.0256 32.7238 28.983 32.5803C28.9351 32.4049 28.8392 32.2454 28.7115 32.1232C28.6263 32.0328 28.5199 31.9637 28.4028 31.9159C28.3282 31.8999 28.259 31.884 28.1898 31.8627C28.0621 31.7883 27.9609 31.682 27.8864 31.5544C27.8172 31.4269 27.7799 31.2833 27.7799 31.1398C27.764 30.9591 27.7959 30.7784 27.8758 30.6136C27.9556 30.4488 28.0834 30.316 28.2377 30.2203C28.2377 30.2203 27.4126 29.6941 27.6628 28.934C27.7054 28.748 27.8172 28.5885 27.9716 28.4875C28.1313 28.3865 28.3229 28.3493 28.5039 28.3918C28.5199 28.6204 28.605 28.8383 28.7541 29.0137C28.8393 29.1041 28.9457 29.1679 29.0628 29.2157C29.1799 29.2582 29.3024 29.2795 29.4248 29.2742C29.4887 29.2742 29.5472 29.2742 29.6111 29.2742C29.7229 29.2635 29.8347 29.2263 29.9358 29.1679C30.037 29.1094 30.1221 29.0297 30.186 28.934C30.3031 28.7426 30.3617 28.5247 30.3617 28.3015C30.3617 28.1314 30.3351 27.9613 30.2871 27.7965C30.5533 27.7806 30.8141 27.7221 31.0537 27.6158C31.256 27.5308 31.4369 27.4032 31.5913 27.2491C31.7404 27.0949 31.8575 26.9142 31.932 26.7122V26.6272C31.8255 26.4039 31.6552 26.2179 31.4423 26.0903C31.2453 25.9734 31.0324 25.883 30.8088 25.8299C30.5906 25.7767 30.367 25.7448 30.1434 25.7342C30.1434 25.6013 30.1328 25.4738 30.1008 25.3462C30.0423 25.0911 29.9092 24.8572 29.7229 24.6711C29.5419 24.4851 29.297 24.3788 29.0362 24.3788C28.8233 24.3841 28.621 24.4639 28.4613 24.602C28.291 24.7402 28.1739 24.9263 28.1206 25.1336C28.0727 25.3196 28.0993 25.5163 28.1898 25.6864C28.3016 25.8671 28.4613 26.0106 28.6529 26.1116C28.3282 26.3933 27.732 26.271 27.4446 26.1807C26.9389 25.9787 26.7206 25.2611 26.9389 24.5648C27.253 23.5709 28.6157 23.5496 28.6157 23.5496C28.6157 23.5496 27.9769 22.2155 28.7594 21.5723C28.9723 21.3863 29.2278 21.2534 29.5046 21.1896C29.7814 21.1259 30.0689 21.1259 30.3457 21.2003C30.4468 21.2481 30.5427 21.3119 30.6225 21.3916C30.7236 21.5032 30.7875 21.6414 30.8088 21.7903C30.8088 21.8115 30.8088 21.8381 30.8088 21.8594C30.532 21.7956 30.2446 21.8381 29.9997 21.9763C29.8932 22.056 29.8081 22.1623 29.7495 22.2846C29.691 22.4068 29.6643 22.5397 29.6697 22.6726C29.6697 22.8586 29.7229 23.034 29.824 23.1935C29.9198 23.3476 30.0636 23.4752 30.2286 23.5549C30.4468 23.6772 30.6917 23.741 30.9419 23.741C31.043 23.741 31.1495 23.7303 31.2506 23.7091C31.2613 23.8951 31.2879 24.0758 31.3305 24.2566C31.389 24.4957 31.4795 24.7243 31.5966 24.9369C31.7404 25.1974 31.932 25.4259 32.1609 25.612L32.2194 25.6651L32.294 25.6332C32.4909 25.5163 32.6666 25.3621 32.7943 25.1761C32.9381 24.9635 33.0445 24.7243 33.1137 24.4745C33.1936 24.1768 33.2362 23.8632 33.2308 23.5549H33.4491C33.5768 23.5549 33.6993 23.5231 33.8164 23.4699C33.9335 23.4167 34.0346 23.3423 34.1198 23.2467C34.205 23.151 34.2689 23.0394 34.3061 22.9224C34.3434 22.8002 34.3593 22.6726 34.3487 22.5504C34.3487 22.4387 34.3221 22.3218 34.2689 22.2261C34.1304 21.9923 34.0346 21.971 33.9016 21.8381C33.678 21.6202 33.9016 21.2003 33.9016 21.2003C34.0666 21.2747 34.2529 21.296 34.4339 21.2534C34.6149 21.2109 34.7692 21.1152 34.8917 20.977C34.8917 20.977 35.2536 21.0993 35.3494 22.0241C35.3867 22.258 35.3601 22.4919 35.2696 22.7098C35.1791 22.9277 35.0354 23.1191 34.8544 23.2626C34.8278 23.2785 34.8118 23.3051 34.8012 23.337C34.7905 23.3689 34.7905 23.3955 34.8012 23.4274C34.8118 23.454 34.8331 23.4805 34.8544 23.4965C34.881 23.5124 34.9129 23.5231 34.9396 23.5177L34.897 23.5018L34.9129 23.4486ZM34.7533 26.0265C34.8118 26.1913 34.8917 26.3455 34.9875 26.4837C35.0673 26.6059 35.1578 26.7228 35.259 26.8345C35.0886 27.0258 34.9502 27.2544 34.8597 27.4989C34.6361 27.5148 34.4126 27.4989 34.1943 27.451C33.6886 27.3394 33.2415 27.0364 32.9594 26.6006C33.1883 26.372 33.4651 26.1913 33.7685 26.0797C34.0719 25.9681 34.3966 25.9202 34.7213 25.9415C34.732 25.9681 34.7426 25.9946 34.7533 26.0265ZM32.5335 36.5986C32.5761 36.7155 32.5867 36.8378 32.5654 36.9601C32.5654 37.0132 32.5442 37.0717 32.5282 37.1248C32.5175 37.178 32.5016 37.2258 32.4803 37.2737C32.459 37.3162 32.427 37.3587 32.3898 37.3906C32.3525 37.4225 32.3099 37.4437 32.2727 37.4756C32.2407 37.5022 32.2194 37.5447 32.2141 37.5873C32.2141 37.6298 32.2141 37.6723 32.1556 37.6829C32.097 37.6936 32.0651 37.651 32.0385 37.6138C32.0118 37.5766 31.9852 37.5128 31.9533 37.4597C31.9213 37.4065 31.8362 37.2683 31.7829 37.162C31.7297 37.0664 31.7084 36.9601 31.7191 36.8484C31.7457 36.7528 31.7989 36.6624 31.8734 36.5933C31.9267 36.5295 31.9905 36.4392 31.9533 36.3488C31.8575 36.3222 31.7617 36.3222 31.6658 36.3488C31.57 36.3807 31.4689 36.386 31.3677 36.3754C31.2826 36.3541 31.2027 36.3169 31.1335 36.2584C30.9898 36.1521 30.862 36.0192 30.7609 35.8704C30.7609 35.8704 30.7556 35.8598 30.7556 35.8545C30.7556 35.8492 30.7556 35.8385 30.7609 35.8385C30.8461 35.7694 30.9366 35.7056 31.0377 35.6525C31.1229 35.61 31.2187 35.5887 31.3145 35.594C31.4103 35.5993 31.4955 35.6366 31.57 35.695C31.6978 35.796 31.8042 35.9555 31.9639 35.998C31.9746 35.8811 31.9426 35.7641 31.8788 35.6684C31.8255 35.5781 31.7883 35.4771 31.7723 35.3761C31.7617 35.2804 31.7883 35.1794 31.8521 35.105C31.9639 34.9509 32.1449 34.8605 32.2354 34.6851L32.2461 34.6745C32.2514 34.6745 32.2567 34.6745 32.262 34.6745C32.2674 34.6745 32.2727 34.6745 32.278 34.6745C32.278 34.6745 32.2886 34.6798 32.2886 34.6851C32.294 34.7117 32.3046 34.7383 32.3206 34.7648C32.3578 34.8127 32.4004 34.8605 32.4483 34.903C32.4962 34.9456 32.5335 34.9987 32.5654 35.0572C32.6293 35.1688 32.6506 35.2964 32.64 35.4239C32.6293 35.4877 32.6134 35.5515 32.5814 35.61C32.5495 35.6738 32.5175 35.7322 32.4803 35.7907C32.443 35.8492 32.4217 35.9076 32.4111 35.9767H32.4537L32.5442 35.9289C32.5974 35.8864 32.6506 35.8385 32.6932 35.7854C32.7145 35.7588 32.7411 35.7375 32.773 35.7216C32.805 35.7056 32.8369 35.695 32.8742 35.695C32.9487 35.695 33.0179 35.7056 33.0818 35.7429C33.1563 35.7801 33.2255 35.8226 33.2947 35.8598L33.4012 35.9183C33.4331 35.9342 33.4597 35.9555 33.481 35.9767C33.5289 36.0405 33.481 36.1096 33.4331 36.1628C33.3107 36.3116 33.135 36.4073 32.9434 36.4285C32.7518 36.4498 32.5601 36.3966 32.4058 36.2797C32.427 36.4019 32.4696 36.5136 32.5335 36.6199V36.6039V36.5986ZM32.262 34.1802L32.1449 34.0951C31.57 35.0784 30.202 35.5781 29.7814 35.6791C29.8027 35.5834 29.8187 35.4824 29.8347 35.3814C29.8453 35.2273 29.8453 35.0731 29.8347 34.9243C29.989 34.903 30.1434 34.8658 30.2925 34.8127C30.5001 34.7489 30.6917 34.6426 30.8567 34.4991C31.0217 34.3556 31.1548 34.1802 31.2453 33.9835C31.3571 33.7177 31.421 33.436 31.4316 33.149V32.9842C31.9107 32.8992 32.4004 32.8886 32.8848 32.947C32.8848 33.0746 32.8955 33.2022 32.9221 33.3244C32.9594 33.5317 33.0232 33.7337 33.1244 33.9197C33.2468 34.1695 33.4384 34.3821 33.6727 34.5416C33.7844 34.616 33.9122 34.6745 34.0453 34.7117C34.1517 34.7383 34.2635 34.7595 34.37 34.7648C34.3966 34.9668 34.4498 35.1688 34.5244 35.3602C34.5616 35.4611 34.6095 35.5621 34.6628 35.6578C33.3426 35.6047 32.2673 34.2121 32.2673 34.2121V34.1961L32.262 34.1802ZM30.1594 32.0381C29.8719 32.0487 29.5898 31.9584 29.3662 31.7777C29.1427 31.6023 28.9883 31.3471 28.9297 31.0654C28.8499 30.7518 28.8872 30.417 29.0469 30.1299C29.2065 29.8429 29.4674 29.6303 29.7761 29.5293C29.9944 29.4177 30.2392 29.3486 30.4841 29.3326C30.729 29.3167 30.9792 29.3539 31.2134 29.4389C31.4742 29.5612 31.6925 29.7472 31.8521 29.9811C31.932 30.0874 31.9959 30.2043 32.0438 30.3319L32.1396 30.603C32.1396 30.603 32.1396 30.6189 32.1502 30.6243C32.1502 30.6243 32.1609 30.6349 32.1715 30.6349C32.1822 30.6349 32.1875 30.6349 32.1928 30.6243C32.1981 30.6136 32.2035 30.6136 32.2035 30.603L32.2833 30.3266C32.3632 30.114 32.4856 29.9226 32.6453 29.7685C32.8422 29.5878 33.0818 29.4496 33.3373 29.3698C33.5928 29.2901 33.8696 29.2689 34.1358 29.3061C34.4605 29.322 34.7692 29.4655 34.9981 29.6994C35.2217 29.9333 35.3548 30.2469 35.3601 30.5711C35.3867 30.8156 35.3175 31.0601 35.1631 31.2515C35.0141 31.4481 34.7958 31.5757 34.551 31.6129C34.3274 31.6501 34.1038 31.5969 33.9175 31.4747C33.827 31.4109 33.7525 31.3365 33.6886 31.2515C33.678 31.2249 33.6514 31.2089 33.6301 31.1983C33.6035 31.1877 33.5768 31.1877 33.5502 31.1983C33.5236 31.2036 33.497 31.2196 33.481 31.2461C33.316 31.4587 33.1829 31.6979 33.0871 31.9478C32.6826 31.9105 32.278 31.9105 31.8788 31.9478C31.6392 31.9478 31.4423 31.9903 31.3252 32.0009C31.2613 31.7245 31.1761 31.4534 31.0696 31.1877C31.059 31.1558 31.0377 31.1345 31.0058 31.1186C30.9792 31.1026 30.9472 31.0973 30.9153 31.1079C30.8833 31.1133 30.8567 31.1345 30.8354 31.1611C30.8141 31.1877 30.8088 31.2196 30.8088 31.2515C30.8248 31.3471 30.8248 31.4481 30.7982 31.5385C30.7715 31.6342 30.729 31.7192 30.6704 31.7989C30.6065 31.8733 30.532 31.9371 30.4468 31.9796C30.3617 32.0222 30.2658 32.0487 30.1647 32.0541V32.0381H30.1594ZM31.3624 29.2423C31.3731 29.0403 31.4103 28.8436 31.4689 28.647C31.5913 28.2058 31.8468 27.8072 32.2035 27.5148C32.3259 27.6105 32.4377 27.7274 32.5282 27.855C32.805 28.2643 32.9594 28.7426 32.9647 29.2317C32.7837 29.322 32.6187 29.4443 32.4696 29.5878C32.3472 29.71 32.2461 29.8482 32.1609 29.997C32.1289 29.9439 32.097 29.8907 32.0597 29.8429C31.9746 29.7207 31.8788 29.609 31.767 29.508C31.6445 29.4017 31.5115 29.322 31.3624 29.2582V29.2423ZM32.9966 32.1816C32.954 32.3305 32.9274 32.4846 32.9168 32.6387V32.6866C32.427 32.6281 31.932 32.6441 31.4423 32.7291C31.4316 32.5856 31.4156 32.4474 31.389 32.3039C31.389 32.2826 31.389 32.256 31.389 32.2348C31.9213 32.1657 32.4643 32.155 33.0019 32.1976V32.1816H32.9966ZM28.818 25.883C28.4507 25.697 28.2856 25.4259 28.3602 25.1495C28.4028 24.9954 28.4879 24.8625 28.6104 24.7615C28.7328 24.6605 28.8818 24.5967 29.0362 24.5861C29.2385 24.6074 29.4301 24.6924 29.5792 24.8359C29.7282 24.9741 29.824 25.1602 29.856 25.3621C29.9252 25.6013 29.9039 25.8565 29.8027 26.085C29.7016 26.3136 29.5206 26.4943 29.297 26.6059C29.0788 26.7228 28.8339 26.7866 28.5837 26.7813C28.3336 26.7813 28.0887 26.7069 27.8758 26.5846C27.8012 26.5474 27.7267 26.4996 27.6575 26.4518H27.8172C28.0142 26.489 28.2164 26.489 28.4134 26.4518C28.6263 26.4039 28.8126 26.2764 28.9404 26.101L29.0309 25.9734L28.8126 25.8883L28.818 25.883ZM30.0423 26.1328C30.0689 26.0691 30.0849 26.0053 30.1008 25.9415C30.3191 25.9521 30.532 25.9787 30.7396 26.0319C30.9259 26.0691 31.1069 26.1382 31.2613 26.2445C31.421 26.3508 31.5541 26.489 31.6552 26.6484C31.5966 26.7973 31.5008 26.9355 31.3837 27.0471C31.0537 27.35 30.6225 27.5148 30.1754 27.5042C30.1434 27.4404 30.1115 27.3766 30.0742 27.3182C29.9305 27.0736 29.6963 26.8876 29.4195 26.8026C29.6963 26.6591 29.9145 26.4252 30.0316 26.1382L30.0423 26.1328ZM29.8453 19.9087C29.8453 19.8821 29.8453 19.8502 29.8453 19.8236C30.3244 19.8024 30.7928 19.9512 31.1708 20.2382C31.421 20.3977 31.6445 20.5997 31.8255 20.8335C32.0172 21.0674 32.1343 21.3491 32.1662 21.6468C32.1822 21.9763 32.1289 22.3005 32.0065 22.6088C31.9213 22.8693 31.7617 23.0978 31.5434 23.2679C31.3624 23.3849 31.1548 23.4486 30.9419 23.454C30.729 23.4593 30.516 23.4061 30.3297 23.2998C30.2073 23.2467 30.1008 23.1563 30.021 23.05C29.9411 22.9384 29.8986 22.8108 29.8879 22.6779C29.8826 22.5822 29.8986 22.4866 29.9358 22.3962C29.9731 22.3059 30.0316 22.2314 30.1062 22.1677C30.3404 22.0507 30.6172 22.0348 30.8674 22.1198L31.0058 22.1677L31.0271 22.0135C31.043 21.8381 31.0164 21.6627 30.9472 21.4979C30.8407 21.2587 30.6491 21.0674 30.4149 20.9505C30.2126 20.8654 30.005 20.7963 29.7868 20.7538C29.84 20.4774 29.856 20.1957 29.84 19.9193L29.8453 19.9087ZM33.7685 20.8282C33.662 20.9398 33.5875 21.0727 33.5396 21.2162C33.497 21.3597 33.481 21.5139 33.5076 21.668C33.5076 21.6999 33.5076 21.7318 33.5076 21.7637C33.5343 21.8487 33.5822 21.9232 33.646 21.9816C33.7632 22.0082 33.8696 22.0773 33.9441 22.173C34.0187 22.2686 34.0559 22.3856 34.0559 22.5078C34.0666 22.5982 34.0559 22.6939 34.024 22.7842C33.9974 22.8746 33.9495 22.9543 33.8856 23.0234C33.8217 23.0925 33.7472 23.151 33.662 23.1882C33.5768 23.2254 33.4863 23.2467 33.3905 23.252C33.2681 23.2679 33.1403 23.2573 33.0232 23.2201C32.9061 23.1829 32.7943 23.1191 32.7038 23.034C32.4962 22.8055 32.3578 22.5238 32.3099 22.2208C32.2354 21.8753 32.2567 21.5139 32.3632 21.1737C32.4643 20.7697 32.6985 20.403 33.0232 20.1372C33.2734 19.9459 33.5555 19.8024 33.859 19.712C33.8377 19.8024 33.8164 19.8927 33.8057 19.9831C33.7685 20.2595 33.7578 20.5412 33.7738 20.8229L33.7685 20.8282ZM32.9647 23.4593C32.986 23.9855 32.8529 24.5064 32.5814 24.9582C32.4856 25.1017 32.3685 25.2239 32.2301 25.3302C31.8947 25.022 31.6605 24.618 31.554 24.1715C31.5061 23.9802 31.4795 23.7888 31.4742 23.5921C31.5434 23.5603 31.6073 23.523 31.6712 23.4805C31.8042 23.3902 31.9213 23.2785 32.0118 23.151C32.1077 23.0181 32.1822 22.8746 32.2354 22.7204C32.2461 22.747 32.2567 22.7789 32.2673 22.8055C32.3259 22.9649 32.4217 23.1085 32.5442 23.2254C32.6613 23.337 32.805 23.4114 32.9594 23.4486V23.4646L32.9647 23.4593ZM32.9647 19.5472L32.1982 20.0681C32.1715 20.0894 32.1343 20.1 32.1023 20.1C32.0704 20.1 32.0331 20.0894 32.0065 20.0681C31.8042 19.9246 31.3411 19.611 31.0856 19.4409C31.0696 19.4356 31.059 19.4197 31.0537 19.409C31.043 19.3931 31.043 19.3771 31.043 19.3612C31.043 19.3452 31.043 19.3293 31.0537 19.3134C31.0643 19.2974 31.075 19.2868 31.0856 19.2815C31.3145 19.1858 31.7137 19.0051 31.9267 18.8881C31.9693 18.8616 32.0225 18.8456 32.0757 18.8456C32.1289 18.8456 32.1822 18.8616 32.2248 18.8881C32.4537 19.0689 32.6985 19.2283 32.9487 19.3825C32.9647 19.3878 32.9753 19.4037 32.986 19.4143C32.9966 19.4303 32.9966 19.4462 32.9966 19.4622C32.9966 19.4781 32.9913 19.4941 32.9806 19.51C32.97 19.526 32.954 19.5366 32.9381 19.5419L32.9594 19.5579L32.9647 19.5472ZM34.1038 20.9239C34.1038 20.9239 34.0985 20.9079 34.0985 20.8973C34.0985 20.8867 34.0985 20.8814 34.1038 20.8707C34.1145 20.8548 34.1304 20.8442 34.1464 20.8335C34.2263 20.7857 34.3274 20.7751 34.4179 20.7963C34.4552 20.8016 34.4818 20.8229 34.5031 20.8495C34.5031 20.8601 34.5137 20.8707 34.5137 20.8814C34.5137 20.892 34.5137 20.9026 34.5031 20.9133C34.5031 20.9664 34.37 20.9877 34.3221 20.993C34.2635 21.0036 34.205 21.0036 34.1464 20.993C34.1251 20.9398 34.0879 20.9239 34.0825 20.892L34.1038 20.9239ZM31.948 17.5008C32.8316 17.8198 33.678 18.245 34.4605 18.7659C34.3008 18.8881 34.1677 19.0476 34.0719 19.223L34.0453 19.2761C33.5289 18.936 32.0917 18.2078 32.0917 18.2078C31.3411 18.5161 30.1487 19.1805 29.7921 19.3878C29.7708 19.3134 29.7495 19.2389 29.7229 19.1698C29.6697 19.0104 29.6058 18.8562 29.5259 18.7127C30.2818 18.2131 31.0909 17.7985 31.932 17.4743L31.9533 17.5062L31.948 17.5008ZM29.3024 18.8775C29.3716 19.0051 29.4354 19.138 29.4833 19.2708C29.6377 19.7386 29.6643 20.2382 29.5685 20.7166C29.3716 20.7113 29.1746 20.7325 28.9883 20.7804C29.1214 20.2595 29.0522 19.7067 28.7967 19.2336C28.9723 19.0795 29.1214 18.9572 29.2864 18.8456L29.3077 18.8722L29.3024 18.8775ZM26.0233 22.8321C26.0233 22.6886 26.0446 22.5504 26.0659 22.4068C26.0978 22.1836 26.1724 21.9657 26.2948 21.7796C26.4279 21.5883 26.5716 21.3916 26.7206 21.2109C27.0081 20.8601 27.3115 20.5252 27.6415 20.2063C27.945 19.9193 28.2644 19.6429 28.5944 19.3878C28.637 19.4569 28.6689 19.526 28.6955 19.6057C28.818 20.0203 28.8286 20.4615 28.7168 20.8814C28.3495 21.0408 28.0355 21.2906 27.8012 21.6149C27.567 21.9391 27.4286 22.3218 27.3967 22.7151C27.3967 22.7151 27.4552 22.8002 27.4659 22.8161C27.4872 22.848 27.5031 22.8799 27.5085 22.9171C27.5244 23.0022 27.5244 23.0872 27.5085 23.1722C27.4872 23.337 27.4073 23.4912 27.2849 23.6028C27.205 23.6719 27.1146 23.725 27.0134 23.7569C26.9123 23.7888 26.8058 23.7994 26.6993 23.7888C26.5929 23.7888 26.4917 23.7569 26.3959 23.7091C26.3001 23.6612 26.2203 23.5921 26.1564 23.5071C26.034 23.2945 25.9807 23.0447 26.0073 22.8002L26.0286 22.8267L26.0233 22.8321ZM25.7944 22.6035C25.7199 22.9649 25.7731 23.3423 25.9488 23.6719C26.0233 23.7835 26.1191 23.8739 26.2362 23.9376C26.3533 24.0014 26.4811 24.0386 26.6142 24.0386L26.5769 24.1981C26.2149 24.1662 25.8743 24.0174 25.6028 23.7782C25.5176 23.6985 25.4431 23.6028 25.3845 23.5018C25.4963 23.1829 25.6294 22.8746 25.7838 22.5716L25.7997 22.5982L25.7944 22.6035ZM25.2674 23.7888C25.3153 23.8473 25.3632 23.9004 25.4165 23.9483C25.5496 24.0812 25.7039 24.1875 25.8796 24.2672C26.0819 24.3575 26.3001 24.416 26.5184 24.4426V24.6499C26.1457 24.6871 25.7731 24.5914 25.4644 24.3735C25.3526 24.2938 25.2621 24.1981 25.1823 24.0865L25.2674 23.7888ZM25.6454 31.2036C25.0066 28.0729 26.2256 27.1959 26.2256 27.1959C25.5283 26.4464 25.1343 25.4631 25.1237 24.4373C25.1769 24.4904 25.2302 24.5383 25.2887 24.5808C25.4484 24.703 25.6294 24.7881 25.8157 24.8412C25.9967 24.8944 26.1883 24.9156 26.38 24.9156H26.4971C26.5077 25.0857 26.529 25.2505 26.5663 25.4153C26.6035 25.5588 26.6621 25.6917 26.7313 25.8192C26.859 26.0265 27.0134 26.2179 27.1891 26.3827C27.3541 26.5634 27.5457 26.7175 27.7587 26.8398C27.9609 26.9514 28.1792 27.0205 28.4081 27.0577C28.6423 27.0737 28.8818 27.0737 29.1214 27.0577C29.2811 27.0577 29.4354 27.1055 29.5738 27.1853C29.7122 27.265 29.824 27.3819 29.9039 27.5201C30.0529 27.7646 30.1328 28.041 30.1274 28.3281C30.1274 28.5247 30.0689 28.9978 29.5951 29.0562C29.4833 29.0828 29.3662 29.0828 29.2545 29.0562C29.1427 29.0244 29.0415 28.9712 28.9564 28.8915C28.8659 28.7586 28.802 28.6098 28.7754 28.4503C28.7434 28.2908 28.7488 28.1314 28.786 27.9719C28.786 27.9719 28.5145 27.8603 28.4932 27.855C28.472 27.8444 28.3282 27.7965 28.2431 27.77C28.0301 27.7221 27.8066 27.7327 27.599 27.8018C27.3222 27.9081 27.072 28.0836 26.8857 28.3174C25.8743 29.4921 26.7473 31.6342 27.1039 32.3198C26.9868 32.458 26.907 32.6228 26.8697 32.8035C26.8111 33.0693 26.8111 33.3404 26.8697 33.6061L26.9229 33.8081C26.3959 32.9789 25.9541 32.1019 25.6188 31.177L25.6347 31.2036H25.6454ZM25.3153 27.1055C25.31 27.0258 25.3207 26.9461 25.3579 26.877C25.3899 26.8079 25.4431 26.7441 25.507 26.6963C25.5176 26.691 25.5229 26.6856 25.5336 26.6856C25.5442 26.6856 25.5549 26.6856 25.5655 26.6856C25.5762 26.6856 25.5868 26.691 25.5921 26.7016C25.6028 26.7069 25.6081 26.7175 25.6134 26.7228C25.6933 26.8664 25.8051 26.9886 25.9381 27.0843C25.9488 27.0896 25.9541 27.0949 25.9541 27.1055C25.9541 27.1162 25.9594 27.1215 25.9594 27.1321C25.9594 27.1427 25.9594 27.1534 25.9541 27.1587C25.9541 27.1693 25.9435 27.1746 25.9381 27.18C25.7997 27.265 25.672 27.3713 25.5708 27.4989C25.5708 27.5042 25.5602 27.5095 25.5496 27.5148C25.5442 27.5148 25.5336 27.5201 25.5229 27.5201C25.5123 27.5201 25.507 27.5201 25.4963 27.5148C25.4857 27.5148 25.4804 27.5042 25.475 27.4989C25.3686 27.3819 25.2994 27.2331 25.2887 27.0737L25.31 27.1002L25.3153 27.1055ZM27.7746 34.919C27.5936 34.6479 26.9442 33.5795 27.1092 32.8195V32.7663C27.1199 32.6759 27.1412 32.5909 27.1891 32.5112C27.2317 32.4314 27.2902 32.3623 27.3647 32.3092C27.5138 32.1816 27.7001 32.0966 27.8971 32.0647C27.9929 32.0487 28.094 32.0541 28.1898 32.0859C28.2856 32.1178 28.3708 32.1657 28.44 32.2348C28.472 32.256 28.5039 32.2826 28.5305 32.3092C28.6263 32.3889 28.6955 32.4899 28.7275 32.6122C28.7594 32.7291 28.7541 32.8567 28.7115 32.9736C28.6849 33.0374 28.6423 33.0958 28.5891 33.1384C28.5358 33.1809 28.4666 33.2075 28.3974 33.2128C28.3282 33.2128 28.259 33.2075 28.1952 33.1862L27.9875 33.0958L28.0195 33.3191C28.0514 33.5104 28.11 33.6965 28.1792 33.8772C28.2484 34.042 28.3336 34.1961 28.4347 34.3343C28.5571 34.5044 28.7168 34.6426 28.8978 34.7542C29.1214 34.8924 29.3822 34.9615 29.6484 34.9562C29.6643 35.1103 29.6643 35.2645 29.6484 35.4133C29.6218 35.8066 29.4674 36.1787 29.2119 36.4764C28.6849 35.9874 28.1952 35.4665 27.748 34.9084L27.7693 34.9243L27.7746 34.919ZM32.2088 38.7407C31.1921 38.1294 30.2392 37.4172 29.3609 36.6199C29.51 36.4551 29.6271 36.2638 29.7069 36.0565L29.7602 35.9023C30.0529 35.9023 30.9046 36.1468 32.1556 38.3527C32.1556 38.3527 33.1297 36.4285 34.7799 35.8173L34.8278 35.8917C34.9076 36.0086 35.0034 36.1202 35.0993 36.2265C34.2263 37.1673 33.2521 38.0072 32.1928 38.7247L32.2035 38.7407H32.2088ZM37.1487 33.5583L37.1167 33.6114C37.1167 33.6114 37.0954 33.6433 37.0848 33.6593C36.5418 34.515 35.9297 35.3176 35.243 36.0618C35.1525 35.9661 35.0673 35.8651 34.9928 35.7588C34.7958 35.4611 34.6681 35.1263 34.6149 34.7702C34.8704 34.7489 35.1152 34.6692 35.3388 34.5416C35.5304 34.4247 35.6954 34.2705 35.8232 34.0845C35.9563 33.8878 36.0415 33.6699 36.0787 33.436V33.3669L36.0255 33.3191C35.9297 33.2606 35.8551 33.1756 35.8019 33.0799C35.7487 32.9842 35.7221 32.8726 35.7221 32.761C35.7221 32.6494 35.7487 32.5377 35.8019 32.4421C35.8551 32.3464 35.935 32.2614 36.0255 32.2029C36.084 32.1444 36.1532 32.0966 36.2278 32.0647C36.3023 32.0328 36.3875 32.0169 36.4673 32.0169C36.5472 32.0169 36.6323 32.0328 36.7068 32.0647C36.7814 32.0966 36.8506 32.1444 36.9091 32.2029C37.0954 32.3677 37.2179 32.5909 37.2551 32.8354C37.2924 33.0799 37.2445 33.3297 37.1221 33.5423L37.138 33.5583H37.1487ZM38.5274 27.3607L38.389 27.4245C38.3038 27.3394 38.0536 26.9939 38.0536 26.9939C38.2239 26.8982 38.3783 26.776 38.5167 26.6325C38.5167 26.5953 38.7509 26.8929 38.7403 27.0258C38.7296 27.1587 38.703 27.2012 38.5167 27.3447L38.5327 27.3607H38.5274ZM38.5806 23.7782C38.6391 24.517 38.5806 26 37.4787 26.9301C38.2133 27.9879 38.5859 29.2582 38.538 30.5445C38.2772 31.3578 37.9365 32.1497 37.5266 32.8992V32.8354C37.4787 32.5324 37.3297 32.256 37.1061 32.0487C37.3989 31.7139 37.6118 31.3152 37.7342 30.8847C37.8513 30.4542 37.8779 30.0077 37.8034 29.5665C37.8034 29.4549 37.7768 29.3433 37.7502 29.2317C37.7129 29.0509 37.665 28.8755 37.6065 28.7054C37.5373 28.5088 37.4468 28.3227 37.3297 28.1473C37.2392 27.9985 37.1221 27.8709 36.9783 27.7753C36.8346 27.6796 36.6749 27.6105 36.5046 27.5786C36.4141 27.5627 36.3236 27.5786 36.2437 27.6158C36.2011 27.6371 36.1639 27.6583 36.1799 27.7009C36.1905 27.7487 36.2491 27.7965 36.2703 27.8444C36.3129 27.9294 36.3396 28.0198 36.3449 28.1101C36.3449 28.1899 36.3342 28.2643 36.3023 28.3387C36.2757 28.4131 36.2331 28.4769 36.1745 28.53C36.084 28.631 35.9563 28.7001 35.8232 28.7161C35.6901 28.732 35.5517 28.7001 35.4399 28.6257C35.3335 28.5513 35.243 28.4609 35.1791 28.3493C35.1152 28.2377 35.0726 28.1154 35.062 27.9879C35.0939 27.5945 35.2643 27.2278 35.5464 26.9514L35.6369 26.861L35.5464 26.776C35.5464 26.776 34.897 26.1435 34.9449 25.5641C34.9609 25.4472 34.9981 25.3356 35.062 25.2346C35.1259 25.1336 35.211 25.0538 35.3175 24.9954C35.4133 24.9157 35.5304 24.8678 35.6582 24.8572C35.7806 24.8412 35.9084 24.8678 36.0202 24.921C36.1319 24.9741 36.2224 25.0645 36.2916 25.1708C36.3555 25.2771 36.3875 25.3993 36.3875 25.5216C36.3821 25.6013 36.3502 25.6757 36.3023 25.7395C36.2544 25.8033 36.1852 25.8511 36.1107 25.8777C36.0734 25.9096 36.0255 25.9309 35.9829 25.9521L36.0042 26.0319C36.3289 26.0106 36.6536 25.9256 36.9464 25.782C37.154 25.681 37.3297 25.5216 37.4468 25.3249C37.5479 25.1548 37.6065 24.9635 37.6171 24.7668C37.6224 24.602 37.6118 24.432 37.5745 24.2725C37.7023 24.2566 37.8194 24.2193 37.9365 24.1662C38.0962 24.0971 38.2399 23.9961 38.3677 23.8792C38.4369 23.8154 38.5007 23.7463 38.554 23.6719L38.5753 23.7994L38.5806 23.7782ZM38.4315 23.3849C38.357 23.4965 38.2718 23.5975 38.176 23.6878C37.9897 23.8632 37.7502 23.9802 37.4947 24.0121C37.4681 23.927 37.4414 23.8366 37.4042 23.7569C37.6969 23.7091 37.9738 23.5709 38.1814 23.3636C38.2399 23.3051 38.2931 23.2413 38.341 23.1776L38.4262 23.3849H38.4315ZM38.2186 22.9277C38.1601 23.034 38.0855 23.135 38.0004 23.2148C37.8141 23.4008 37.5692 23.5177 37.3084 23.539C37.2658 23.454 37.2232 23.3689 37.17 23.2839C37.2817 23.2839 37.3935 23.2626 37.4947 23.2201C37.5958 23.1722 37.6916 23.1085 37.7661 23.0234C37.8407 22.9384 37.8992 22.8427 37.9312 22.7364C37.9631 22.6301 37.9738 22.5185 37.9578 22.4068C38.0376 22.5397 38.1281 22.7098 38.2133 22.8905L38.2293 22.9277H38.2186ZM37.5266 21.7212C37.5798 21.7903 37.6224 21.8594 37.665 21.9391C37.7342 22.072 37.7662 22.2155 37.7608 22.3643C37.7608 22.5131 37.7129 22.6567 37.6331 22.7842C37.6065 22.8214 37.5692 22.8586 37.5319 22.8905C37.4414 22.9596 37.335 23.0128 37.2232 23.0394C37.1114 23.0659 36.9943 23.0659 36.8825 23.0394C36.7814 23.0181 36.6909 22.9703 36.611 22.9012C36.5365 22.8321 36.478 22.747 36.446 22.6513C36.4194 22.5504 36.4194 22.4441 36.446 22.3377C36.4567 22.2846 36.4726 22.2368 36.4992 22.1889L36.6057 22.0773C36.6057 22.0773 35.8445 20.9345 35.0088 20.5943C35.0354 20.1904 35.2004 19.8077 35.4666 19.5047C35.4666 19.5047 35.7913 19.7811 35.8232 19.8024C35.9456 19.914 36.0681 20.0203 36.1799 20.1319C36.4247 20.3658 36.643 20.589 36.8772 20.8601C37.1008 21.1259 37.3084 21.3969 37.5053 21.684L37.5213 21.7212H37.5266Z" fill="white"/>
<path d="M85.9029 32.0179C85.131 33.0225 84.0664 33.7613 82.858 34.1281L82.6344 34.1972L82.4907 33.74L82.7143 33.6709C83.8588 33.3254 84.8595 32.6238 85.5675 31.6671L84.9074 30.9708C84.258 31.7043 83.4649 32.2996 82.5759 32.7195C81.6869 33.1394 80.7234 33.368 79.7387 33.3999C79.0467 33.4211 78.36 33.3042 77.7159 33.0544C77.0718 32.8046 76.4809 32.4272 75.9858 31.9488C75.4908 31.4651 75.0969 30.8911 74.8254 30.2585C74.5539 29.6207 74.4155 28.9403 74.4155 28.2494C74.4155 27.5584 74.5539 26.8727 74.8254 26.2402C75.0969 25.6024 75.4908 25.0283 75.9858 24.5499C76.4809 24.0662 77.0718 23.6942 77.7159 23.4444C78.36 23.1945 79.0467 23.0776 79.7387 23.0989C82.7835 23.0989 84.7584 25.5279 84.7584 25.5279L87.1644 23.0351C84.4283 19.931 80.1965 18.751 76.6512 20.1861L76.5767 20.2127L76.5182 20.0638L76.5927 20.0373C80.1964 18.5809 84.4975 19.7715 87.2762 22.9181L87.7393 22.4345C86.0838 20.4306 83.7204 19.139 81.1386 18.8254C79.8185 18.6606 78.4771 18.7563 77.1889 19.1124C75.9007 19.4685 74.7083 20.0798 73.6596 20.9037L73.4733 21.0525L73.1806 20.6804L73.3669 20.5316C74.4581 19.6652 75.7144 19.0274 77.0611 18.6553C78.4026 18.2832 79.8079 18.1769 81.1919 18.3523C83.8801 18.6712 86.3393 20.0107 88.0694 22.0837L88.8625 21.2651C87.7393 19.9044 86.3181 18.8201 84.7158 18.0813C83.1135 17.3477 81.3622 16.981 79.5949 17.0182C72.7547 17.0182 67.5859 22.1793 67.5859 28.2494C67.5859 34.3194 72.7547 39.4805 79.5949 39.4805C81.3675 39.5124 83.1295 39.1457 84.7424 38.4122C86.3553 37.6787 87.7872 36.5943 88.9264 35.2336L85.9082 32.0285L85.9029 32.0179ZM79.7759 20.9037H80.1698V21.6956H79.7759C78.014 21.7435 76.3425 22.4717 75.1129 23.7314C73.8832 24.9911 73.1965 26.6814 73.1965 28.4407C73.1965 30.2001 73.8832 31.8903 75.1129 33.15C76.3425 34.4098 78.014 35.138 79.7759 35.1858H80.1698V35.9937H79.7759C77.8064 35.9459 75.9326 35.1273 74.5593 33.7241C73.1859 32.3155 72.414 30.4286 72.414 28.462C72.414 26.4953 73.1859 24.6084 74.5593 23.1999C75.9326 21.7913 77.8064 20.9781 79.7759 20.9302V20.9143V20.9037ZM87.1165 34.718C85.6633 36.2382 83.7523 37.2428 81.6763 37.5777C79.6003 37.9072 77.4657 37.5511 75.6132 36.5571L75.198 37.4235L74.6284 37.1524C73.2604 36.504 72.0627 35.5472 71.1258 34.3513C70.1943 33.1607 69.5502 31.7628 69.2574 30.2798C68.9593 28.7968 69.0125 27.2607 69.4171 25.8043C69.8163 24.3426 70.5563 22.9979 71.573 21.8764L71.9988 21.4192L72.941 22.2697L72.5152 22.7268C71.03 24.3692 70.2475 26.5272 70.3433 28.7384C70.4391 30.9495 71.4026 33.0331 73.0262 34.5373L73.3562 34.2184L73.5212 34.3885C74.3729 35.2868 75.4056 35.999 76.5448 36.488C77.6839 36.977 78.9083 37.2269 80.1485 37.2269C81.3888 37.2269 82.6132 36.977 83.7523 36.488C84.8915 35.999 85.9188 35.2868 86.7759 34.3885L86.9409 34.2184L87.2815 34.5426L87.1272 34.7234L87.1165 34.718Z" fill="white"/>
</g>
</svg>
