<svg width="22" height="22" viewBox="0 0 22 22" fill="none" xmlns="http://www.w3.org/2000/svg">
<path d="M17.676 14.4451L17.676 14.4451C17.7492 14.5183 17.868 14.5183 17.9412 14.4451C18.0144 14.3719 18.0144 14.2531 17.9412 14.1799L17.9412 14.1799L11.1354 7.37413L17.676 14.4451ZM17.676 14.4451L11.3562 8.12531L11.0027 7.77176M17.676 14.4451L11.0027 7.77176M11.0027 7.77176L10.6491 8.12531M11.0027 7.77176L10.6491 8.12531M10.6491 8.12531L4.32934 14.4451L4.32928 14.4451M10.6491 8.12531L4.32928 14.4451M4.32928 14.4451C4.28393 14.4905 4.22109 14.5083 4.1606 14.4965L4.16051 14.4965M4.32928 14.4451L4.16051 14.4965M4.16051 14.4965C4.12531 14.4897 4.09217 14.473 4.06429 14.4451L4.06428 14.4451M4.16051 14.4965L4.06428 14.4451M4.06428 14.4451C4.05441 14.4353 4.04644 14.4253 4.04008 14.4157L4.03985 14.4153M4.06428 14.4451L4.03985 14.4153M4.03985 14.4153C3.99188 14.3426 4.00059 14.2435 4.06421 14.1799L4.06423 14.1799M4.03985 14.4153L4.06423 14.1799M4.06423 14.1799L10.87 7.37413L4.06423 14.1799ZM11.0027 7.31906C10.9532 7.31906 10.9055 7.33871 10.8701 7.37401L11.0027 7.31906ZM11.0027 7.31906C11.0522 7.31906 11.1 7.33876 11.1353 7.374L11.0027 7.31906ZM4.06552 14.9874L4.06552 14.9874L4.06552 14.9874Z" fill="#1362FF" stroke="#1362FF"/>
</svg>
