<svg width="22" height="22" viewBox="0 0 22 22" fill="none" xmlns="http://www.w3.org/2000/svg">
<path fill-rule="evenodd" clip-rule="evenodd" d="M20.1693 10.9997C20.1693 16.0622 16.0652 20.1663 11.0026 20.1663C5.93999 20.1663 1.83594 16.0622 1.83594 10.9997C1.83594 5.93706 5.93999 1.83301 11.0026 1.83301C16.0652 1.83301 20.1693 5.93706 20.1693 10.9997ZM15.1277 8.24966C15.4857 8.60763 15.4857 9.18807 15.1277 9.54602L10.7342 13.9395C10.3762 14.2975 9.79581 14.2975 9.43785 13.9395L7.33603 11.8377C6.97804 11.4797 6.97804 10.8993 7.33603 10.5413C7.69401 10.1834 8.27441 10.1834 8.63239 10.5413L10.086 11.995L13.8313 8.24966C14.1893 7.89167 14.7697 7.89167 15.1277 8.24966Z" fill="#7A7A7A"/>
</svg>
