<svg width="20" height="20" viewBox="0 0 20 20" fill="none" xmlns="http://www.w3.org/2000/svg">
<path fill-rule="evenodd" clip-rule="evenodd" d="M14.166 4.65334V3.82001C14.166 2.4393 13.0468 1.32001 11.666 1.32001H8.33268C6.95197 1.32001 5.83268 2.4393 5.83268 3.82001V4.65334H3.33268C2.41221 4.65334 1.66602 5.39953 1.66602 6.32001V16.32C1.66602 17.2405 2.41221 17.9867 3.33268 17.9867H16.666C17.5865 17.9867 18.3327 17.2405 18.3327 16.32V6.32001C18.3327 5.39953 17.5865 4.65334 16.666 4.65334H14.166ZM12.916 3.82001C12.916 3.12965 12.3563 2.57001 11.666 2.57001H8.33268C7.64233 2.57001 7.08268 3.12965 7.08268 3.82001V4.65334H12.916V3.82001ZM3.33268 16.7367C3.10257 16.7367 2.91602 16.5501 2.91602 16.32V9.37376L4.27747 9.88434C4.60494 10.0071 4.95183 10.07 5.30157 10.07H5.83268V11.1117C5.83268 11.4568 6.11251 11.7367 6.45768 11.7367C6.80287 11.7367 7.08268 11.4568 7.08268 11.1117V10.07H12.916V11.1117C12.916 11.4568 13.1958 11.7367 13.541 11.7367C13.8862 11.7367 14.166 11.4568 14.166 11.1117V10.07H14.6971C15.0468 10.07 15.3937 10.0071 15.7212 9.88434L17.0827 9.37376V16.32C17.0827 16.5501 16.8961 16.7367 16.666 16.7367H3.33268ZM17.0827 8.03876V6.32001C17.0827 6.08989 16.8961 5.90334 16.666 5.90334H3.33268C3.10257 5.90334 2.91602 6.08989 2.91602 6.32001V8.03876L4.71637 8.71389C4.9035 8.78407 5.10172 8.82001 5.30157 8.82001H14.6971C14.8969 8.82001 15.0952 8.78407 15.2823 8.71389L17.0827 8.03876Z" fill="#B4B4B9"/>
</svg>
