<svg width="20" height="20" viewBox="0 0 20 20" fill="none" xmlns="http://www.w3.org/2000/svg">
<path fill-rule="evenodd" clip-rule="evenodd" d="M10.0003 11.6667C11.8412 11.6667 13.3337 10.1742 13.3337 8.33333C13.3337 6.49238 11.8412 5 10.0003 5C8.15938 5 6.66699 6.49238 6.66699 8.33333C6.66699 10.1742 8.15938 11.6667 10.0003 11.6667ZM10.0003 10.4167C11.1509 10.4167 12.0837 9.48392 12.0837 8.33333C12.0837 7.18274 11.1509 6.25 10.0003 6.25C8.84974 6.25 7.91699 7.18274 7.91699 8.33333C7.91699 9.48392 8.84974 10.4167 10.0003 10.4167Z" fill="#B4B4B9"/>
<path fill-rule="evenodd" clip-rule="evenodd" d="M17.5 8.33331C17.5 12.4691 13.0877 17.1241 11.0317 19.0687C10.4453 19.6232 9.55467 19.6232 8.96833 19.0687C6.91236 17.1241 2.5 12.4691 2.5 8.33331C2.5 4.19118 5.85787 0.833313 10 0.833313C14.1422 0.833313 17.5 4.19118 17.5 8.33331ZM16.25 8.33331C16.25 10.0025 15.3363 11.9339 14.0162 13.8011C12.723 15.6302 11.1713 17.2161 10.1727 18.1606C10.1141 18.216 10.0532 18.2346 10 18.2346C9.94692 18.2346 9.88592 18.216 9.82733 18.1606C8.82867 17.2161 7.27698 15.6302 5.98387 13.8011C4.66374 11.9339 3.75 10.0025 3.75 8.33331C3.75 4.88154 6.54822 2.08331 10 2.08331C13.4517 2.08331 16.25 4.88154 16.25 8.33331Z" fill="#B4B4B9"/>
</svg>
