<svg width="20" height="20" viewBox="0 0 20 20" fill="none" xmlns="http://www.w3.org/2000/svg">
<path d="M14.8064 4.10594C14.8064 4.10594 16.1015 3.58651 15.9936 4.84798C15.9576 5.36742 15.6339 7.18541 15.382 9.15184L14.5186 14.9769C14.5186 14.9769 14.4467 15.8302 13.7991 15.9786C13.1516 16.127 12.1803 15.4592 12.0004 15.3108C11.8565 15.1995 9.30227 13.5299 8.40287 12.7136C8.15104 12.491 7.86324 12.0458 8.43884 11.5264L12.2162 7.81617C12.6479 7.37094 13.0796 6.33208 11.2809 7.59355L6.24437 11.1183C6.24437 11.1183 5.66877 11.4893 4.58954 11.1554L2.25114 10.4133C2.25114 10.4133 1.38774 9.85678 2.86272 9.30022C6.46024 7.55642 10.8852 5.77552 14.8064 4.10594Z" fill="#1362FF"/>
</svg>
