<svg width="20" height="20" viewBox="0 0 20 20" fill="none" xmlns="http://www.w3.org/2000/svg">
<path d="M17.3571 14.9992H15.6052C14.9427 14.9992 14.7431 14.4346 13.5554 13.1844C12.5175 12.132 12.0791 12.0011 11.8166 12.0011C11.4535 12.0011 11.3544 12.1061 11.3544 12.6319V14.2893C11.3544 14.7375 11.2162 15 10.1031 15C9.02314 14.9237 7.9759 14.5785 7.0476 13.993C6.11931 13.4074 5.33652 12.5982 4.76372 11.632C3.40365 9.85115 2.45732 7.76096 2 5.52769C2 5.25147 2.0998 5.0011 2.60034 5.0011H4.3507C4.80057 5.0011 4.96255 5.2119 5.13913 5.69892C5.98897 8.33029 7.43915 10.6192 8.02798 10.6192C8.25368 10.6192 8.35195 10.5142 8.35195 9.9222V7.21168C8.27748 5.97514 7.65334 5.87095 7.65334 5.42351C7.66124 5.30546 7.71256 5.1953 7.79642 5.11643C7.88028 5.03755 7.99006 4.99618 8.10245 5.0011H10.8539C11.2301 5.0011 11.3544 5.19817 11.3544 5.67146V9.33019C11.3544 9.72513 11.5156 9.85598 11.6293 9.85598C11.855 9.85598 12.0285 9.72513 12.4423 9.29061C13.3292 8.1526 14.0539 6.88471 14.5934 5.52689C14.6486 5.36386 14.753 5.22431 14.8906 5.12953C15.0282 5.03474 15.1916 4.98992 15.3557 5.0019H17.1068C17.6319 5.0019 17.7432 5.27813 17.6319 5.67227C16.995 7.17325 16.2069 8.59804 15.2812 9.9222C15.0924 10.2251 15.0171 10.3826 15.2812 10.7379C15.4547 11.0142 16.0689 11.5537 16.4811 12.0666C17.0815 12.6965 17.5797 13.4251 17.9566 14.223C18.1071 14.7367 17.8568 14.9992 17.3571 14.9992Z" fill="#1362FF"/>
</svg>
