<svg width="22" height="22" viewBox="0 0 22 22" fill="none" xmlns="http://www.w3.org/2000/svg">
<path fill-rule="evenodd" clip-rule="evenodd" d="M6.41732 4.58317V3.6665C6.41732 2.14772 7.64854 0.916504 9.16732 0.916504H12.834C14.3528 0.916504 15.584 2.14772 15.584 3.6665V4.58317H18.334C19.3465 4.58317 20.1673 5.40398 20.1673 6.4165V7.7915L16.8119 9.04978C16.6061 9.12697 16.3881 9.1665 16.1682 9.1665H5.8331C5.61326 9.1665 5.39522 9.12697 5.18937 9.04978L1.83398 7.7915V6.4165C1.83398 5.40398 2.6548 4.58317 3.66732 4.58317H6.41732ZM7.79232 3.6665C7.79232 2.90711 8.40793 2.2915 9.16732 2.2915H12.834C13.5934 2.2915 14.209 2.90711 14.209 3.6665V4.58317H7.79232V3.6665Z" fill="#7A7A7A"/>
<path d="M20.1673 9.26025L17.2948 10.3375C16.9345 10.4725 16.5529 10.5418 16.1682 10.5418H15.584V11.6876C15.584 12.0673 15.2762 12.3751 14.8965 12.3751C14.5168 12.3751 14.209 12.0673 14.209 11.6876V10.5418H7.79232V11.6876C7.79232 12.0673 7.48452 12.3751 7.10482 12.3751C6.72512 12.3751 6.41732 12.0673 6.41732 11.6876V10.5418H5.8331C5.44838 10.5418 5.0668 10.4725 4.70658 10.3375L1.83398 9.26025V17.4168C1.83398 18.4293 2.6548 19.2501 3.66732 19.2501H18.334C19.3465 19.2501 20.1673 18.4293 20.1673 17.4168V9.26025Z" fill="#7A7A7A"/>
</svg>
