<svg width="22" height="22" viewBox="0 0 22 22" fill="none" xmlns="http://www.w3.org/2000/svg">
<path fill-rule="evenodd" clip-rule="evenodd" d="M19.8322 11.5836C18.9121 13.0914 16.041 17 11 17C5.95893 17 3.08784 13.0914 2.16779 11.5836C1.94407 11.217 1.94407 10.783 2.16779 10.4164C3.08784 8.90856 5.95893 5 11 5C16.041 5 18.9121 8.90857 19.8322 10.4164C20.0559 10.783 20.0559 11.217 19.8322 11.5836ZM13.9147 11C13.9147 12.4497 12.6098 13.625 11 13.625C9.39025 13.625 8.08529 12.4497 8.08529 11C8.08529 9.55025 9.39025 8.375 11 8.375C12.6098 8.375 13.9147 9.55025 13.9147 11Z" fill="#7A7A7A"/>
</svg>
