<svg width="23" height="22" viewBox="0 0 23 22" fill="none" xmlns="http://www.w3.org/2000/svg">
<path fill-rule="evenodd" clip-rule="evenodd" d="M8.75 4.8125C9.90381 4.8125 10.8767 5.58773 11.176 6.64576H19.0625C19.4422 6.64576 19.75 6.95356 19.75 7.33326C19.75 7.71295 19.4422 8.02076 19.0625 8.02076H11.176C10.8768 9.07886 9.9039 9.85417 8.75 9.85417C7.59609 9.85417 6.62326 9.07886 6.32403 8.02076H3.9375C3.55781 8.02076 3.25 7.71295 3.25 7.33326C3.25 6.95356 3.55781 6.64576 3.9375 6.64576H6.32408C6.62336 5.58773 7.59615 4.8125 8.75 4.8125ZM9.89583 7.33333C9.89583 6.7005 9.38282 6.1875 8.75 6.1875C8.11717 6.1875 7.60417 6.7005 7.60417 7.33333C7.60417 7.96616 8.11717 8.47917 8.75 8.47917C9.38282 8.47917 9.89583 7.96616 9.89583 7.33333Z" fill="#1362FF"/>
<path fill-rule="evenodd" clip-rule="evenodd" d="M14.25 12.1458C15.4038 12.1458 16.3766 12.921 16.6759 13.9791H19.0625C19.4422 13.9791 19.75 14.2869 19.75 14.6666C19.75 15.0462 19.4422 15.3541 19.0625 15.3541H16.6759C16.3767 16.4122 15.4039 17.1875 14.25 17.1875C13.0961 17.1875 12.1232 16.4122 11.824 15.3541H3.9375C3.55781 15.3541 3.25 15.0462 3.25 14.6666C3.25 14.2869 3.55781 13.9791 3.9375 13.9791H11.824C12.1233 12.921 13.0962 12.1458 14.25 12.1458ZM15.3958 14.6666C15.3958 14.0338 14.8828 13.5208 14.25 13.5208C13.6171 13.5208 13.1041 14.0338 13.1041 14.6666C13.1041 15.2995 13.6171 15.8125 14.25 15.8125C14.8828 15.8125 15.3958 15.2995 15.3958 14.6666Z" fill="#1362FF"/>
</svg>
