<svg width="22" height="22" viewBox="0 0 22 22" fill="none" xmlns="http://www.w3.org/2000/svg">
	<path fill-rule="evenodd" clip-rule="evenodd" d="M15.1099 2.94043C16.5709 2.94043 17.9723 3.52017 19.0063 4.55237C20.0403 5.58457 20.6224 6.9849 20.625 8.44593C20.625 11.4104 19.5374 12.8253 14.6768 16.6656L12.1803 18.6034C11.4857 19.1425 10.5143 19.1425 9.8197 18.6034L7.32325 16.6656C2.46263 12.8253 1.375 11.4104 1.375 8.44593C1.37755 6.9849 1.95973 5.58457 2.99374 4.55237C4.02775 3.52017 5.42909 2.94043 6.89013 2.94043C8.3805 2.94751 9.80962 3.53434 10.8749 4.57668L11 4.69473L11.1251 4.57668C12.1904 3.53434 13.6195 2.94751 15.1099 2.94043ZM10.4733 6.15646L10.5009 6.18283C10.78 6.44994 11.2199 6.44994 11.499 6.18283L11.5268 6.1563C12.2513 5.46278 13.0028 4.74349 13.9682 4.47492C14.3379 4.37202 14.7228 4.31757 15.1131 4.31543C16.2087 4.31629 17.2594 4.7514 18.0348 5.52549C18.8106 6.3 19.2477 7.35061 19.25 8.44686C19.2499 9.70044 19.0366 10.4943 18.3631 11.4164C17.6105 12.4471 16.2713 13.6532 13.829 15.5832L11.3372 17.5171C11.1388 17.6712 10.8612 17.6712 10.6628 17.5171L8.1711 15.5832C5.72869 13.6533 4.38946 12.4471 3.63682 11.4164C2.96345 10.4944 2.75014 9.70063 2.75 8.44719C2.75222 7.35082 3.18922 6.30009 3.96516 5.52549C4.74062 4.7514 5.79126 4.31629 6.88687 4.31543C7.27695 4.31757 7.66149 4.37195 8.03109 4.47471C8.99674 4.74319 9.74848 5.46275 10.4733 6.15646Z" fill="#1362FF"/>
</svg>
