<svg width="22" height="22" viewBox="0 0 22 22" fill="none" xmlns="http://www.w3.org/2000/svg">
<path fill-rule="evenodd" clip-rule="evenodd" d="M19.25 9.16663C19.25 14.1423 13.4443 19.8011 11.5735 21.4954C11.2445 21.7933 10.7555 21.7933 10.4265 21.4954C8.55573 19.8011 2.75 14.1423 2.75 9.16663C2.75 4.61028 6.44365 0.916626 11 0.916626C15.5564 0.916626 19.25 4.61028 19.25 9.16663ZM13.9792 9.16663C13.9792 10.812 12.6453 12.1458 11 12.1458C9.35468 12.1458 8.02083 10.812 8.02083 9.16663C8.02083 7.52128 9.35468 6.18746 11 6.18746C12.6453 6.18746 13.9792 7.52128 13.9792 9.16663Z" fill="#7A7A7A"/>
</svg>
