<svg width="22" height="22" viewBox="0 0 22 22" fill="none" xmlns="http://www.w3.org/2000/svg">
<path d="M4.40502 1.83301C3.64704 1.8365 2.92804 2.16952 2.43517 2.74538C2.0278 3.22135 1.79725 3.82856 1.83631 4.45384C2.08252 8.39473 3.71112 12.2649 6.72225 15.2761C9.73342 18.2873 13.6037 19.9158 17.5445 20.162C18.1698 20.2011 18.777 19.9705 19.253 19.5632C19.8289 19.0703 20.1619 18.3513 20.1654 17.5933V15.747C20.1654 14.906 19.5932 14.1728 18.7773 13.9686L15.9333 13.2563C15.4554 13.1367 14.9496 13.2143 14.5297 13.4717L12.4144 14.7685C12.1032 14.9594 11.7074 14.9485 11.4204 14.723C10.6848 14.1452 9.80272 13.3447 9.22816 12.7702C8.65366 12.1957 7.85315 11.3135 7.2754 10.578C7.04989 10.291 7.039 9.89518 7.22979 9.58397L8.52658 7.46864C8.78401 7.04873 8.86165 6.5429 8.74202 6.06511L8.02983 3.22102C7.82555 2.4052 7.0924 1.83301 6.25141 1.83301H4.40502Z" fill="#1362FF"/>
</svg>
