<svg width="18" height="14" viewBox="0 0 18 14" fill="none" xmlns="http://www.w3.org/2000/svg">
<path d="M4.24499 0.577541C4.40127 0.421315 4.61319 0.333552 4.83416 0.333552C5.05513 0.333552 5.26705 0.421315 5.42333 0.577541L8.75666 3.91087C8.90846 4.06804 8.99245 4.27854 8.99056 4.49704C8.98866 4.71554 8.90102 4.92455 8.74651 5.07906C8.592 5.23356 8.38299 5.3212 8.1645 5.3231C7.946 5.325 7.7355 5.24101 7.57833 5.08921L5.66749 3.17837V12.8334C5.66749 13.0544 5.5797 13.2663 5.42342 13.4226C5.26714 13.5789 5.05517 13.6667 4.83416 13.6667C4.61315 13.6667 4.40119 13.5789 4.24491 13.4226C4.08863 13.2663 4.00083 13.0544 4.00083 12.8334V3.17837L2.08999 5.08921C1.93283 5.24101 1.72232 5.325 1.50383 5.3231C1.28533 5.3212 1.07632 5.23356 0.921812 5.07906C0.767305 4.92455 0.679665 4.71554 0.677766 4.49704C0.675867 4.27854 0.759862 4.06804 0.911661 3.91087L4.24499 0.577541ZM12.3342 10.8217V1.16671C12.3342 0.945694 12.422 0.733732 12.5782 0.577452C12.7345 0.421172 12.9465 0.333374 13.1675 0.333374C13.3885 0.333374 13.6005 0.421172 13.7568 0.577452C13.913 0.733732 14.0008 0.945694 14.0008 1.16671V10.8217L15.9117 8.91087C16.0688 8.75908 16.2793 8.67508 16.4978 8.67698C16.7163 8.67888 16.9253 8.76652 17.0798 8.92103C17.2344 9.07553 17.322 9.28454 17.3239 9.50304C17.3258 9.72154 17.2418 9.93204 17.09 10.0892L13.7567 13.4225C13.6004 13.5788 13.3885 13.6665 13.1675 13.6665C12.9465 13.6665 12.7346 13.5788 12.5783 13.4225L9.245 10.0892C9.0932 9.93204 9.0092 9.72154 9.0111 9.50304C9.013 9.28454 9.10064 9.07553 9.25515 8.92103C9.40965 8.76652 9.61866 8.67888 9.83716 8.67698C10.0557 8.67508 10.2662 8.75908 10.4233 8.91087L12.3342 10.8217Z" fill="#1362FF"/>
</svg>
