<svg width="20" height="20" viewBox="0 0 20 20" fill="none" xmlns="http://www.w3.org/2000/svg">
    <path d="M10.0013 4.16602C9.54105 4.16602 9.16797 4.53912 9.16797 4.99935C9.16797 5.45959 9.54105 5.83268 10.0013 5.83268C10.2201 5.83268 10.4369 5.87579 10.6391 5.95955C10.8413 6.04331 11.0251 6.16607 11.1798 6.32084C11.3346 6.4756 11.4574 6.65933 11.5411 6.86154C11.6249 7.06375 11.668 7.28048 11.668 7.49935C11.668 7.95959 12.0411 8.33268 12.5013 8.33268C12.9616 8.33268 13.3346 7.95959 13.3346 7.49935C13.3346 7.06161 13.2484 6.62816 13.0809 6.22374C12.9134 5.81932 12.6679 5.45186 12.3583 5.14232C12.0488 4.8328 11.6813 4.58727 11.2769 4.41975C10.8725 4.25223 10.4391 4.16602 10.0013 4.16602Z"
          fill="#5D5F69"/>
    <path fill-rule="evenodd" clip-rule="evenodd"
          d="M14.3013 12.5932C13.7405 13.0675 13.332 13.7277 13.332 14.4622C13.332 15.2198 12.7179 15.834 11.9603 15.834H8.03711C7.27951 15.834 6.66536 15.2198 6.66536 14.4622C6.66536 13.7277 6.25691 13.0675 5.69608 12.5932C4.25014 11.3703 3.33203 9.54265 3.33203 7.50065C3.33203 3.81875 6.3168 0.833984 9.9987 0.833984C13.6806 0.833984 16.6654 3.81875 16.6654 7.50065C16.6654 9.54265 15.7473 11.3703 14.3013 12.5932ZM13.225 11.3207C14.3125 10.4008 14.9987 9.03173 14.9987 7.50065C14.9987 4.73923 12.7601 2.50065 9.9987 2.50065C7.23727 2.50065 4.9987 4.73923 4.9987 7.50065C4.9987 9.03173 5.68483 10.4008 6.77235 11.3207C7.52021 11.9531 8.22211 12.9345 8.32033 14.1673H11.677C11.7753 12.9345 12.4772 11.9531 13.225 11.3207Z"
          fill="#5D5F69"/>
    <path d="M6.66797 18.3333C6.66797 17.8731 7.04107 17.5 7.5013 17.5H12.5013C12.9616 17.5 13.3346 17.8731 13.3346 18.3333C13.3346 18.7936 12.9616 19.1667 12.5013 19.1667H7.5013C7.04107 19.1667 6.66797 18.7936 6.66797 18.3333Z"
          fill="#5D5F69"/>
</svg>
