<svg width="20" height="20" viewBox="0 0 20 20" fill="none" xmlns="http://www.w3.org/2000/svg">
<path d="M10.0013 6.25C9.54105 6.25 9.16797 6.6231 9.16797 7.08333V10C9.16797 10.2977 9.3268 10.5728 9.58464 10.7217L12.4714 12.3883C12.5212 12.4171 12.5728 12.4402 12.6253 12.4577C12.9931 12.5803 13.4084 12.4321 13.6097 12.0833C13.8399 11.6848 13.7033 11.1751 13.3047 10.945L10.8346 9.51892V7.08333C10.8346 6.6231 10.4616 6.25 10.0013 6.25Z" fill="#5D5F69"/>
<path fill-rule="evenodd" clip-rule="evenodd" d="M10.0013 18.3337C14.6036 18.3337 18.3346 14.6027 18.3346 10.0003C18.3346 5.39795 14.6036 1.66699 10.0013 1.66699C5.39893 1.66699 1.66797 5.39795 1.66797 10.0003C1.66797 14.6027 5.39893 18.3337 10.0013 18.3337ZM10.0013 16.667C13.6832 16.667 16.668 13.6822 16.668 10.0003C16.668 6.31843 13.6832 3.33366 10.0013 3.33366C6.3194 3.33366 3.33464 6.31843 3.33464 10.0003C3.33464 13.6822 6.3194 16.667 10.0013 16.667Z" fill="#5D5F69"/>
</svg>
