<svg width="69" height="78" viewBox="0 0 69 78" fill="none" xmlns="http://www.w3.org/2000/svg">
<g clip-path="url(#clip0_10954_56961)">
<path d="M11.5 0.833008V8.49967H7.66667C5.63334 8.49967 3.68329 9.30741 2.24551 10.7452C0.807735 12.183 0 14.133 0 16.1663V69.833C0 71.8663 0.807735 73.8164 2.24551 75.2542C3.68329 76.6919 5.63334 77.4997 7.66667 77.4997H61.3333C63.3667 77.4997 65.3167 76.6919 66.7545 75.2542C68.1923 73.8164 69 71.8663 69 69.833V16.1663C69 14.133 68.1923 12.183 66.7545 10.7452C65.3167 9.30741 63.3667 8.49967 61.3333 8.49967H57.5V0.833008H49.8333V8.49967H19.1667V0.833008H11.5ZM7.66667 27.6663H61.3333V69.833H7.66667V27.6663Z" fill="#F2F2F2"/>
<path d="M29.2269 37.2044C30.788 36.0778 32.8118 35.5 35.3269 35.5C38.0156 35.5 40.126 36.1644 41.6583 37.4644C43.2194 38.7644 44 40.5267 44 42.7222C44 44.1667 43.5663 45.3511 42.728 46.5067C41.8896 47.6622 40.8199 48.5 39.5189 49.1933C38.7962 49.6556 38.3047 50.1756 38.0445 50.6956C37.7843 51.2156 37.6687 51.9378 37.6687 52.8333H31.8866C31.8866 51.3889 32.2046 50.1756 32.7828 49.4244C33.3321 48.6444 34.344 47.7778 35.8184 46.7956C36.5701 46.3333 37.1772 45.7556 37.5819 45.0911C38.0445 44.4267 38.2469 43.6467 38.2469 42.7222C38.2469 41.8556 38.0156 41.1044 37.4952 40.5556C36.9748 40.0356 36.2232 39.7467 35.3269 39.7467C34.6316 39.7316 33.9542 39.9675 33.4189 40.4111C32.8985 40.8733 32.6383 41.5378 32.6094 42.4044H27.0297L27.0008 42.3178C26.9719 40.0356 27.7236 38.3889 29.2269 37.2044Z" fill="#1991FF"/>
<path d="M31.8866 61.5V55.7222H37.6687V61.5H31.8866Z" fill="#1991FF"/>
</g>
<defs>
<clipPath id="clip0_10954_56961">
<rect width="69" height="78" fill="white"/>
</clipPath>
</defs>
</svg>
