<svg width="20" height="20" viewBox="0 0 20 20" fill="none" xmlns="http://www.w3.org/2000/svg">
    <g opacity="0.5" clip-path="url(#clip0_5000_44419)">
        <path fill-rule="evenodd" clip-rule="evenodd"
              d="M6.8537 16.3426L7.4987 13.3327L3.33203 13.3327C1.95128 13.3327 0.832032 12.2134 0.832032 10.8327L0.832032 8.28626C0.832032 7.76876 0.952533 7.25835 1.18395 6.79551L2.64103 3.88135C3.06453 3.03435 3.9302 2.49935 4.87712 2.49935L16.6654 2.49935C17.5858 2.49935 18.332 3.24552 18.332 4.16602L18.332 10.8327C18.332 11.7532 17.5858 12.4993 16.6654 12.4993L14.1654 12.4993L10.4559 18.4346C10.1714 18.8896 9.67278 19.166 9.1362 19.166C7.65003 19.166 6.54237 17.7957 6.8537 16.3426ZM14.1654 10.8327L16.6654 10.8327L16.6654 4.16602L14.1654 4.16602L14.1654 10.8327ZM4.13178 4.62668C4.27295 4.34435 4.56145 4.16601 4.87712 4.16601L12.4987 4.16602L12.4987 12.0214L9.07662 17.4967C8.68203 17.4622 8.39853 17.0878 8.48336 16.6918L9.12837 13.6819C9.23387 13.1897 9.1112 12.6763 8.79478 12.2849C8.47837 11.8935 8.00203 11.666 7.4987 11.666L3.33203 11.666C2.87178 11.666 2.4987 11.2929 2.4987 10.8327L2.4987 8.28626C2.4987 8.02751 2.55895 7.77235 2.67462 7.54085L4.13178 4.62668Z"
              fill="#FF3A30"/>
    </g>
    <defs>
        <clipPath id="clip0_5000_44419">
            <rect width="20" height="20" fill="white" transform="translate(20 20) rotate(-180)"/>
        </clipPath>
    </defs>
</svg>
