<svg width="20" height="20" viewBox="0 0 20 20" fill="none" xmlns="http://www.w3.org/2000/svg">
<path fill-rule="evenodd" clip-rule="evenodd" d="M6.32214 9.92829C6.00958 10.2408 5.83398 10.6647 5.83398 11.1068V13.3331C5.83398 13.7933 6.20708 14.1665 6.66732 14.1665H8.89365C9.33565 14.1665 9.75957 13.9908 10.0722 13.6783L17.9888 5.76159C18.6397 5.11072 18.6397 4.05544 17.9888 3.40457L16.5958 2.01159C15.945 1.36072 14.8897 1.36072 14.2388 2.01159L6.32214 9.92829ZM8.89365 12.4998H7.50065V11.1068L15.4173 3.1901L16.8103 4.58309L8.89365 12.4998Z" fill="#B4B4B9"/>
<path d="M8.33268 3.33333C8.33268 3.79358 7.95959 4.16668 7.49935 4.16668H3.33268V16.6667H15.8327V12.5001C15.8327 12.0398 16.2058 11.6667 16.666 11.6667C17.1263 11.6667 17.4993 12.0398 17.4993 12.5001V16.6667C17.4993 17.5871 16.7532 18.3334 15.8327 18.3334H3.33268C2.41221 18.3334 1.66602 17.5871 1.66602 16.6667V4.16668C1.66602 3.2462 2.41221 2.5 3.33268 2.5H7.49935C7.95959 2.5 8.33268 2.8731 8.33268 3.33333Z" fill="#B4B4B9"/>
</svg>
