<svg width="70" height="70" viewBox="0 0 70 70" fill="none" xmlns="http://www.w3.org/2000/svg">
<path d="M21.5833 40.75L31.1667 52.25L44.5833 35L61.8333 58H8.16667M69.5 61.8333V8.16667C69.5 6.13334 68.6923 4.18329 67.2545 2.74551C65.8167 1.30774 63.8667 0.5 61.8333 0.5H8.16667C6.13334 0.5 4.18329 1.30774 2.74551 2.74551C1.30774 4.18329 0.5 6.13334 0.5 8.16667V61.8333C0.5 63.8667 1.30774 65.8167 2.74551 67.2545C4.18329 68.6923 6.13334 69.5 8.16667 69.5H61.8333C63.8667 69.5 65.8167 68.6923 67.2545 67.2545C68.6923 65.8167 69.5 63.8667 69.5 61.8333Z" fill="#B4B4B9"/>
</svg>
