<svg width="21" height="20" viewBox="0 0 21 20" fill="none" xmlns="http://www.w3.org/2000/svg">
    <path fill-rule="evenodd" clip-rule="evenodd"
          d="M13.6463 3.65738L13.0013 6.66732H17.168C18.5487 6.66732 19.668 7.78661 19.668 9.16732V11.7137C19.668 12.2312 19.5475 12.7417 19.3161 13.2045L17.859 16.1187C17.4355 16.9657 16.5698 17.5007 15.6229 17.5007H3.83464C2.91416 17.5007 2.16797 16.7545 2.16797 15.834V9.16732C2.16797 8.24684 2.91416 7.50065 3.83464 7.50065H6.33464L10.0441 1.56539C10.3286 1.11039 10.8272 0.833984 11.3638 0.833984C12.85 0.833984 13.9576 2.20425 13.6463 3.65738ZM6.33464 9.16732H3.83464V15.834H6.33464V9.16732ZM16.3682 15.3733C16.2271 15.6557 15.9386 15.834 15.6229 15.834H8.0013V7.97864L11.4234 2.50325C11.818 2.53781 12.1015 2.91223 12.0166 3.30816L11.3716 6.3181C11.2661 6.81025 11.3888 7.3237 11.7052 7.71512C12.0216 8.10653 12.498 8.33398 13.0013 8.33398H17.168C17.6282 8.33398 18.0013 8.70707 18.0013 9.16732V11.7137C18.0013 11.9725 17.9411 12.2277 17.8254 12.4592L16.3682 15.3733Z"
          fill="#1991FF"/>
</svg>
