<svg width="48" height="48" viewBox="0 0 48 48" fill="none" xmlns="http://www.w3.org/2000/svg">
    <path d="M24 33C25.6568 33 27 31.6568 27 30C27 28.3432 25.6568 27 24 27C22.3432 27 21 28.3432 21 30C21 31.6568 22.3432 33 24 33Z"
          fill="#5D5F69"/>
    <path fill-rule="evenodd" clip-rule="evenodd"
          d="M24 2C18.4772 2 14 6.47716 14 12V18L10 18.0001C7.79086 18.0001 6 19.7909 6 22V38C6 40.2092 7.79086 42 10 42H38C40.2092 42 42 40.2092 42 38V22C42 19.7909 40.2092 18.0001 38 18.0001H34V12C34 6.47716 29.5228 2 24 2ZM24 6C20.6862 6 18 8.6863 18 12V18H30V12C30 8.6863 27.3138 6 24 6ZM10 22V38H38V22H10Z"
          fill="#5D5F69"/>
</svg>
