<svg width="101" height="100" viewBox="0 0 101 100" fill="none" xmlns="http://www.w3.org/2000/svg">
    <circle cx="50.5" cy="50" r="48" stroke="#F5F9FF" stroke-width="4"/>
    <mask id="path-2-inside-1_4952_43125" fill="white">
        <path d="M50.5 1.99141C50.5 0.891585 51.392 -0.00414059 52.491 0.0396439C61.6823 0.405842 70.6088 3.30179 78.2785 8.42652C86.501 13.9206 92.9096 21.7295 96.694 30.8658C100.478 40.0021 101.469 50.0555 99.5393 59.7545C97.61 69.4536 92.848 78.3627 85.8553 85.3553C78.8627 92.348 69.9536 97.11 60.2545 99.0393C50.5555 100.969 40.5021 99.9784 31.3658 96.194C22.2295 92.4096 14.4206 86.001 8.92652 77.7785C3.80178 70.1088 0.905841 61.1823 0.539644 51.991C0.495859 50.892 1.39159 50 2.49141 50V50C3.59124 50 4.47833 50.8921 4.5259 51.9909C4.88972 60.3941 7.55107 68.5511 12.2381 75.5658C17.2945 83.1333 24.4814 89.0314 32.89 92.5143C41.2985 95.9973 50.551 96.9086 59.4775 95.133C68.404 93.3574 76.6034 88.9747 83.0391 82.5391C89.4747 76.1034 93.8574 67.904 95.633 58.9775C97.4086 50.051 96.4973 40.7985 93.0143 32.39C89.5314 23.9814 83.6333 16.7945 76.0658 11.7381C69.0511 7.05107 60.8941 4.38972 52.4909 4.0259C51.3921 3.97833 50.5 3.09124 50.5 1.99141V1.99141Z"/>
    </mask>
    <path d="M50.5 1.99141C50.5 0.891585 51.392 -0.00414059 52.491 0.0396439C61.6823 0.405842 70.6088 3.30179 78.2785 8.42652C86.501 13.9206 92.9096 21.7295 96.694 30.8658C100.478 40.0021 101.469 50.0555 99.5393 59.7545C97.61 69.4536 92.848 78.3627 85.8553 85.3553C78.8627 92.348 69.9536 97.11 60.2545 99.0393C50.5555 100.969 40.5021 99.9784 31.3658 96.194C22.2295 92.4096 14.4206 86.001 8.92652 77.7785C3.80178 70.1088 0.905841 61.1823 0.539644 51.991C0.495859 50.892 1.39159 50 2.49141 50V50C3.59124 50 4.47833 50.8921 4.5259 51.9909C4.88972 60.3941 7.55107 68.5511 12.2381 75.5658C17.2945 83.1333 24.4814 89.0314 32.89 92.5143C41.2985 95.9973 50.551 96.9086 59.4775 95.133C68.404 93.3574 76.6034 88.9747 83.0391 82.5391C89.4747 76.1034 93.8574 67.904 95.633 58.9775C97.4086 50.051 96.4973 40.7985 93.0143 32.39C89.5314 23.9814 83.6333 16.7945 76.0658 11.7381C69.0511 7.05107 60.8941 4.38972 52.4909 4.0259C51.3921 3.97833 50.5 3.09124 50.5 1.99141V1.99141Z"
          stroke="#87CA8C" stroke-width="8" mask="url(#path-2-inside-1_4952_43125)"/>
    <path d="M32.2557 58.2386C30.9886 58.2386 29.8636 58.0256 28.8807 57.5994C27.9034 57.1733 27.1364 56.5909 26.5795 55.8523C26.0284 55.108 25.7557 54.2642 25.7614 53.321C25.7557 52.5881 25.9148 51.9148 26.2386 51.3011C26.5625 50.6875 27 50.1761 27.5511 49.767C28.108 49.3523 28.7273 49.0881 29.4091 48.9744V48.8551C28.5114 48.6562 27.7841 48.1989 27.2273 47.483C26.6761 46.7614 26.4034 45.929 26.4091 44.9858C26.4034 44.0881 26.6534 43.2869 27.1591 42.5824C27.6648 41.8778 28.358 41.3239 29.2386 40.9205C30.1193 40.5114 31.125 40.3068 32.2557 40.3068C33.375 40.3068 34.3722 40.5114 35.2472 40.9205C36.1278 41.3239 36.821 41.8778 37.3267 42.5824C37.8381 43.2869 38.0938 44.0881 38.0938 44.9858C38.0938 45.929 37.8125 46.7614 37.25 47.483C36.6932 48.1989 35.9744 48.6562 35.0938 48.8551V48.9744C35.7756 49.0881 36.3892 49.3523 36.9347 49.767C37.4858 50.1761 37.9233 50.6875 38.2472 51.3011C38.5767 51.9148 38.7415 52.5881 38.7415 53.321C38.7415 54.2642 38.4631 55.108 37.9062 55.8523C37.3494 56.5909 36.5824 57.1733 35.6051 57.5994C34.6335 58.0256 33.517 58.2386 32.2557 58.2386ZM32.2557 55.8011C32.9091 55.8011 33.4773 55.6903 33.9602 55.4688C34.4432 55.2415 34.8182 54.9233 35.0852 54.5142C35.3523 54.1051 35.4886 53.6335 35.4943 53.0994C35.4886 52.5426 35.3438 52.0511 35.0597 51.625C34.7813 51.1932 34.3977 50.8551 33.9091 50.6108C33.4261 50.3665 32.875 50.2443 32.2557 50.2443C31.6307 50.2443 31.0739 50.3665 30.5852 50.6108C30.0966 50.8551 29.7102 51.1932 29.4261 51.625C29.1477 52.0511 29.0114 52.5426 29.017 53.0994C29.0114 53.6335 29.142 54.1051 29.4091 54.5142C29.6761 54.9176 30.0511 55.233 30.5341 55.4602C31.0227 55.6875 31.5966 55.8011 32.2557 55.8011ZM32.2557 47.8494C32.7898 47.8494 33.2614 47.7415 33.6705 47.5256C34.0852 47.3097 34.4119 47.0085 34.6506 46.6222C34.8892 46.2358 35.0114 45.7898 35.017 45.2841C35.0114 44.7841 34.892 44.3466 34.6591 43.9716C34.4261 43.5909 34.1023 43.2983 33.6875 43.0938C33.2727 42.8835 32.7955 42.7784 32.2557 42.7784C31.7045 42.7784 31.2188 42.8835 30.7983 43.0938C30.3835 43.2983 30.0597 43.5909 29.8267 43.9716C29.5994 44.3466 29.4886 44.7841 29.4943 45.2841C29.4886 45.7898 29.6023 46.2358 29.8352 46.6222C30.0739 47.0028 30.4006 47.304 30.8153 47.5256C31.2358 47.7415 31.7159 47.8494 32.2557 47.8494ZM47.6115 58.2386C46.4751 58.2386 45.4581 58.0256 44.5604 57.5994C43.6626 57.1676 42.9496 56.5767 42.4212 55.8267C41.8984 55.0767 41.62 54.2187 41.5859 53.2528H44.6541C44.7109 53.9687 45.0206 54.554 45.5831 55.0085C46.1456 55.4574 46.8217 55.6818 47.6115 55.6818C48.2308 55.6818 48.782 55.5398 49.2649 55.2557C49.7479 54.9716 50.1286 54.5767 50.407 54.071C50.6854 53.5653 50.8217 52.9886 50.8161 52.3409C50.8217 51.6818 50.6825 51.0966 50.3984 50.5852C50.1143 50.0739 49.7251 49.6733 49.2308 49.3835C48.7365 49.0881 48.1683 48.9403 47.5263 48.9403C47.0036 48.9347 46.4893 49.0312 45.9837 49.2301C45.478 49.429 45.0774 49.6903 44.782 50.0142L41.9268 49.5455L42.8388 40.5455H52.9638V43.1875H45.4553L44.9524 47.8153H45.0547C45.3786 47.4347 45.8359 47.1193 46.4268 46.8693C47.0178 46.6136 47.6655 46.4858 48.37 46.4858C49.4268 46.4858 50.37 46.7358 51.1996 47.2358C52.0291 47.7301 52.6825 48.4119 53.1598 49.2812C53.6371 50.1506 53.8757 51.1449 53.8757 52.2642C53.8757 53.4176 53.6087 54.446 53.0746 55.3494C52.5462 56.2472 51.8104 56.9545 50.8672 57.4716C49.9297 57.983 48.8445 58.2386 47.6115 58.2386ZM66.0632 54.7273V53.8068C66.0632 53.1307 66.2053 52.5085 66.4893 51.9403C66.7791 51.3722 67.1996 50.9148 67.7507 50.5682C68.3018 50.2216 68.9695 50.0483 69.7536 50.0483C70.5604 50.0483 71.2365 50.2216 71.782 50.5682C72.3274 50.9091 72.7393 51.3636 73.0178 51.9318C73.3018 52.5 73.4439 53.125 73.4439 53.8068V54.7273C73.4439 55.4034 73.3018 56.0256 73.0178 56.5938C72.7337 57.1619 72.3161 57.6193 71.7649 57.9659C71.2195 58.3125 70.549 58.4858 69.7536 58.4858C68.9581 58.4858 68.2848 58.3125 67.7337 57.9659C67.1825 57.6193 66.7649 57.1619 66.4808 56.5938C66.2024 56.0256 66.0632 55.4034 66.0632 54.7273ZM68.2876 53.8068V54.7273C68.2876 55.1761 68.3956 55.5881 68.6115 55.9631C68.8274 56.3381 69.2081 56.5256 69.7536 56.5256C70.3047 56.5256 70.6825 56.3409 70.8871 55.9716C71.0973 55.5966 71.2024 55.1818 71.2024 54.7273V53.8068C71.2024 53.3523 71.103 52.9375 70.9041 52.5625C70.7053 52.1818 70.3217 51.9915 69.7536 51.9915C69.2195 51.9915 68.8416 52.1818 68.62 52.5625C68.3984 52.9375 68.2876 53.3523 68.2876 53.8068ZM57.1911 44.7386V43.8182C57.1911 43.1364 57.3359 42.5114 57.6257 41.9432C57.9155 41.375 58.3359 40.9205 58.8871 40.5795C59.4382 40.233 60.1058 40.0597 60.8899 40.0597C61.6911 40.0597 62.3643 40.233 62.9098 40.5795C63.4609 40.9205 63.8757 41.375 64.1541 41.9432C64.4325 42.5114 64.5717 43.1364 64.5717 43.8182V44.7386C64.5717 45.4205 64.4297 46.0455 64.1456 46.6136C63.8672 47.1761 63.4524 47.6278 62.9013 47.9688C62.3501 48.3097 61.6797 48.4801 60.8899 48.4801C60.0888 48.4801 59.4126 48.3097 58.8615 47.9688C58.3161 47.6278 57.9013 47.1733 57.6172 46.6051C57.3331 46.0369 57.1911 45.4148 57.1911 44.7386ZM59.4325 43.8182V44.7386C59.4325 45.1932 59.5376 45.608 59.7479 45.983C59.9638 46.3523 60.3445 46.5369 60.8899 46.5369C61.4354 46.5369 61.8104 46.3523 62.0149 45.983C62.2251 45.608 62.3303 45.1932 62.3303 44.7386V43.8182C62.3303 43.3636 62.2308 42.9489 62.032 42.5739C61.8331 42.1932 61.4524 42.0028 60.8899 42.0028C60.3501 42.0028 59.9723 42.1932 59.7564 42.5739C59.5405 42.9545 59.4325 43.3693 59.4325 43.8182ZM58.1626 58L70.1626 40.5455H72.2933L60.2933 58H58.1626Z"
          fill="#87CA8C"/>
</svg>
