<svg width="101" height="100" viewBox="0 0 101 100" fill="none" xmlns="http://www.w3.org/2000/svg">
    <circle cx="50.5" cy="50" r="48" stroke="#F5F9FF" stroke-width="4"/>
    <mask id="path-2-inside-1_4952_43117" fill="white">
        <path d="M50.5 1.99141C50.5 0.891585 51.392 -0.00414039 52.4909 0.0396505C59.4755 0.31797 66.332 2.0582 72.6144 5.15636C79.4929 8.54845 85.4988 13.4774 90.1677 19.5619C94.8365 25.6465 98.043 32.7235 99.5393 40.2455C101.035 47.7675 100.781 55.5329 98.7963 62.941C96.8113 70.349 93.1488 77.2011 88.092 82.9673C83.0352 88.7334 76.7197 93.259 69.6342 96.194C62.5486 99.1289 54.8828 100.395 47.2298 99.8929C40.24 99.4348 33.432 97.5136 27.244 94.2624C26.2704 93.7508 25.9458 92.5291 26.4957 91.5767V91.5767C27.0456 90.6242 28.2617 90.3019 29.237 90.8101C34.8946 93.7578 41.1101 95.5005 47.4903 95.9187C54.5337 96.3803 61.5888 95.2155 68.11 92.5143C74.6312 89.8132 80.4436 85.6481 85.0975 80.3412C89.7515 75.0344 93.1223 68.7281 94.9492 61.9101C96.776 55.0922 97.01 47.9453 95.633 41.0225C94.2559 34.0997 91.3048 27.5864 87.0079 21.9865C82.711 16.3867 77.1834 11.8503 70.8529 8.72845C65.1184 5.90051 58.8642 4.30187 52.4908 4.0259C51.392 3.97832 50.5 3.09124 50.5 1.99141V1.99141Z"/>
    </mask>
    <path d="M50.5 1.99141C50.5 0.891585 51.392 -0.00414039 52.4909 0.0396505C59.4755 0.31797 66.332 2.0582 72.6144 5.15636C79.4929 8.54845 85.4988 13.4774 90.1677 19.5619C94.8365 25.6465 98.043 32.7235 99.5393 40.2455C101.035 47.7675 100.781 55.5329 98.7963 62.941C96.8113 70.349 93.1488 77.2011 88.092 82.9673C83.0352 88.7334 76.7197 93.259 69.6342 96.194C62.5486 99.1289 54.8828 100.395 47.2298 99.8929C40.24 99.4348 33.432 97.5136 27.244 94.2624C26.2704 93.7508 25.9458 92.5291 26.4957 91.5767V91.5767C27.0456 90.6242 28.2617 90.3019 29.237 90.8101C34.8946 93.7578 41.1101 95.5005 47.4903 95.9187C54.5337 96.3803 61.5888 95.2155 68.11 92.5143C74.6312 89.8132 80.4436 85.6481 85.0975 80.3412C89.7515 75.0344 93.1223 68.7281 94.9492 61.9101C96.776 55.0922 97.01 47.9453 95.633 41.0225C94.2559 34.0997 91.3048 27.5864 87.0079 21.9865C82.711 16.3867 77.1834 11.8503 70.8529 8.72845C65.1184 5.90051 58.8642 4.30187 52.4908 4.0259C51.392 3.97832 50.5 3.09124 50.5 1.99141V1.99141Z"
          stroke="#87CA8C" stroke-width="8" mask="url(#path-2-inside-1_4952_43117)"/>
    <path d="M32.1193 58.2386C30.983 58.2386 29.9659 58.0256 29.0682 57.5994C28.1705 57.1676 27.4574 56.5767 26.929 55.8267C26.4063 55.0767 26.1278 54.2187 26.0938 53.2528H29.1619C29.2188 53.9687 29.5284 54.554 30.0909 55.0085C30.6534 55.4574 31.3295 55.6818 32.1193 55.6818C32.7386 55.6818 33.2898 55.5398 33.7727 55.2557C34.2557 54.9716 34.6364 54.5767 34.9148 54.071C35.1932 53.5653 35.3295 52.9886 35.3239 52.3409C35.3295 51.6818 35.1903 51.0966 34.9062 50.5852C34.6222 50.0739 34.233 49.6733 33.7386 49.3835C33.2443 49.0881 32.6761 48.9403 32.0341 48.9403C31.5114 48.9347 30.9972 49.0312 30.4915 49.2301C29.9858 49.429 29.5852 49.6903 29.2898 50.0142L26.4347 49.5455L27.3466 40.5455H37.4716V43.1875H29.9631L29.4602 47.8153H29.5625C29.8864 47.4347 30.3438 47.1193 30.9347 46.8693C31.5256 46.6136 32.1733 46.4858 32.8778 46.4858C33.9347 46.4858 34.8778 46.7358 35.7074 47.2358C36.5369 47.7301 37.1903 48.4119 37.6676 49.2812C38.1449 50.1506 38.3835 51.1449 38.3835 52.2642C38.3835 53.4176 38.1165 54.446 37.5824 55.3494C37.054 56.2472 36.3182 56.9545 35.375 57.4716C34.4375 57.983 33.3523 58.2386 32.1193 58.2386ZM47.2983 40.3068C48.1335 40.3125 48.946 40.4602 49.7358 40.75C50.5313 41.0341 51.2472 41.5 51.8835 42.1477C52.5199 42.7898 53.0256 43.6506 53.4006 44.7301C53.7756 45.8097 53.9631 47.1449 53.9631 48.7358C53.9688 50.2358 53.8097 51.5767 53.4858 52.7585C53.1676 53.9347 52.7102 54.929 52.1136 55.7415C51.517 56.554 50.7983 57.1733 49.9574 57.5994C49.1165 58.0256 48.1705 58.2386 47.1193 58.2386C46.017 58.2386 45.0398 58.0227 44.1875 57.5909C43.3409 57.1591 42.6563 56.5682 42.1335 55.8182C41.6108 55.0682 41.2898 54.2102 41.1705 53.2443H44.2812C44.4403 53.9375 44.7642 54.4886 45.2528 54.8977C45.7472 55.3011 46.3693 55.5028 47.1193 55.5028C48.3295 55.5028 49.2614 54.9773 49.9148 53.9261C50.5682 52.875 50.8949 51.4148 50.8949 49.5455H50.7756C50.4972 50.0455 50.1364 50.4773 49.6932 50.8409C49.25 51.1989 48.7472 51.4744 48.1847 51.6676C47.6278 51.8608 47.0369 51.9574 46.4119 51.9574C45.3892 51.9574 44.4688 51.7131 43.6506 51.2244C42.8381 50.7358 42.1932 50.0653 41.7159 49.2131C41.2443 48.3608 41.0057 47.3864 41 46.2898C41 45.1534 41.2614 44.1335 41.7841 43.2301C42.3125 42.321 43.0483 41.6051 43.9915 41.0824C44.9347 40.554 46.0369 40.2955 47.2983 40.3068ZM47.3068 42.8636C46.6932 42.8636 46.1392 43.0142 45.6449 43.3153C45.1563 43.6108 44.7699 44.0142 44.4858 44.5256C44.2074 45.0312 44.0682 45.5966 44.0682 46.2216C44.0739 46.8409 44.2131 47.4034 44.4858 47.9091C44.7642 48.4148 45.142 48.8153 45.6193 49.1108C46.1023 49.4062 46.6534 49.554 47.2727 49.554C47.733 49.554 48.1619 49.4659 48.5597 49.2898C48.9574 49.1136 49.304 48.8693 49.5994 48.5568C49.9006 48.2386 50.1335 47.8778 50.2983 47.4744C50.4688 47.071 50.5511 46.6449 50.5455 46.196C50.5455 45.5994 50.4034 45.0483 50.1193 44.5426C49.8409 44.0369 49.4574 43.6307 48.9688 43.3239C48.4858 43.017 47.9318 42.8636 47.3068 42.8636ZM66.1335 54.7273V53.8068C66.1335 53.1307 66.2756 52.5085 66.5597 51.9403C66.8494 51.3722 67.2699 50.9148 67.821 50.5682C68.3722 50.2216 69.0398 50.0483 69.8239 50.0483C70.6307 50.0483 71.3068 50.2216 71.8523 50.5682C72.3977 50.9091 72.8097 51.3636 73.0881 51.9318C73.3722 52.5 73.5142 53.125 73.5142 53.8068V54.7273C73.5142 55.4034 73.3722 56.0256 73.0881 56.5938C72.804 57.1619 72.3864 57.6193 71.8352 57.9659C71.2898 58.3125 70.6193 58.4858 69.8239 58.4858C69.0284 58.4858 68.3551 58.3125 67.804 57.9659C67.2528 57.6193 66.8352 57.1619 66.5511 56.5938C66.2727 56.0256 66.1335 55.4034 66.1335 54.7273ZM68.358 53.8068V54.7273C68.358 55.1761 68.4659 55.5881 68.6818 55.9631C68.8977 56.3381 69.2784 56.5256 69.8239 56.5256C70.375 56.5256 70.7528 56.3409 70.9574 55.9716C71.1676 55.5966 71.2727 55.1818 71.2727 54.7273V53.8068C71.2727 53.3523 71.1733 52.9375 70.9744 52.5625C70.7756 52.1818 70.392 51.9915 69.8239 51.9915C69.2898 51.9915 68.9119 52.1818 68.6903 52.5625C68.4688 52.9375 68.358 53.3523 68.358 53.8068ZM57.2614 44.7386V43.8182C57.2614 43.1364 57.4063 42.5114 57.696 41.9432C57.9858 41.375 58.4063 40.9205 58.9574 40.5795C59.5085 40.233 60.1761 40.0597 60.9602 40.0597C61.7614 40.0597 62.4347 40.233 62.9801 40.5795C63.5313 40.9205 63.946 41.375 64.2244 41.9432C64.5028 42.5114 64.642 43.1364 64.642 43.8182V44.7386C64.642 45.4205 64.5 46.0455 64.2159 46.6136C63.9375 47.1761 63.5227 47.6278 62.9716 47.9688C62.4205 48.3097 61.75 48.4801 60.9602 48.4801C60.1591 48.4801 59.483 48.3097 58.9318 47.9688C58.3864 47.6278 57.9716 47.1733 57.6875 46.6051C57.4034 46.0369 57.2614 45.4148 57.2614 44.7386ZM59.5028 43.8182V44.7386C59.5028 45.1932 59.608 45.608 59.8182 45.983C60.0341 46.3523 60.4148 46.5369 60.9602 46.5369C61.5057 46.5369 61.8807 46.3523 62.0852 45.983C62.2955 45.608 62.4006 45.1932 62.4006 44.7386V43.8182C62.4006 43.3636 62.3011 42.9489 62.1023 42.5739C61.9034 42.1932 61.5227 42.0028 60.9602 42.0028C60.4205 42.0028 60.0426 42.1932 59.8267 42.5739C59.6108 42.9545 59.5028 43.3693 59.5028 43.8182ZM58.233 58L70.233 40.5455H72.3636L60.3636 58H58.233Z"
          fill="#87CA8C"/>
</svg>
