<svg width="101" height="100" viewBox="0 0 101 100" fill="none" xmlns="http://www.w3.org/2000/svg">
    <circle cx="50.5" cy="50" r="48" stroke="#F5F9FF" stroke-width="4"/>
    <mask id="path-2-inside-1_4952_43098" fill="white">
        <path d="M50.5 1.99141C50.5 0.891585 51.392 -0.00414045 52.4909 0.0396517C58.3775 0.274224 64.1817 1.54755 69.6342 3.80602C75.7005 6.31876 81.2124 10.0017 85.8553 14.6447C90.4983 19.2876 94.1812 24.7996 96.694 30.8658C98.9524 36.3183 100.226 42.1225 100.46 48.0091C100.504 49.108 99.6084 50 98.5086 50V50C97.4088 50 96.5217 49.108 96.4741 48.0092C96.2419 42.6458 95.0726 37.3592 93.0143 32.39C90.7018 26.8069 87.3122 21.734 83.0391 17.4609C78.766 13.1879 73.6931 9.79825 68.11 7.48567C63.1409 5.42738 57.8542 4.25815 52.4908 4.02591C51.392 3.97832 50.5 3.09124 50.5 1.99141V1.99141Z"/>
    </mask>
    <path d="M50.5 1.99141C50.5 0.891585 51.392 -0.00414045 52.4909 0.0396517C58.3775 0.274224 64.1817 1.54755 69.6342 3.80602C75.7005 6.31876 81.2124 10.0017 85.8553 14.6447C90.4983 19.2876 94.1812 24.7996 96.694 30.8658C98.9524 36.3183 100.226 42.1225 100.46 48.0091C100.504 49.108 99.6084 50 98.5086 50V50C97.4088 50 96.5217 49.108 96.4741 48.0092C96.2419 42.6458 95.0726 37.3592 93.0143 32.39C90.7018 26.8069 87.3122 21.734 83.0391 17.4609C78.766 13.1879 73.6931 9.79825 68.11 7.48567C63.1409 5.42738 57.8542 4.25815 52.4908 4.02591C51.392 3.97832 50.5 3.09124 50.5 1.99141V1.99141Z"
          stroke="#1991FF" stroke-width="8" mask="url(#path-2-inside-1_4952_43098)"/>
    <path d="M26.0511 58V55.7159L32.1108 49.7756C32.6903 49.1903 33.1733 48.6705 33.5597 48.2159C33.946 47.7614 34.2358 47.321 34.429 46.8949C34.6222 46.4687 34.7188 46.0142 34.7188 45.5312C34.7188 44.9801 34.5938 44.5085 34.3438 44.1165C34.0938 43.7188 33.75 43.4119 33.3125 43.196C32.875 42.9801 32.3778 42.8722 31.821 42.8722C31.2472 42.8722 30.7443 42.9915 30.3125 43.2301C29.8807 43.4631 29.5455 43.7955 29.3068 44.2273C29.0739 44.6591 28.9574 45.1733 28.9574 45.7699H25.9489C25.9489 44.6619 26.2017 43.6989 26.7074 42.8807C27.2131 42.0625 27.9091 41.429 28.7955 40.9801C29.6875 40.5312 30.7102 40.3068 31.8636 40.3068C33.0341 40.3068 34.0625 40.5256 34.9489 40.9631C35.8352 41.4006 36.5227 42 37.0114 42.7614C37.5057 43.5227 37.7528 44.392 37.7528 45.3693C37.7528 46.0227 37.6278 46.6648 37.3778 47.2955C37.1278 47.9261 36.6875 48.625 36.0568 49.392C35.4318 50.1591 34.554 51.0881 33.4233 52.179L30.4148 55.2386V55.358H38.017V58H26.0511ZM47.0256 58.2386C45.8892 58.2386 44.8722 58.0256 43.9744 57.5994C43.0767 57.1676 42.3636 56.5767 41.8352 55.8267C41.3125 55.0767 41.0341 54.2187 41 53.2528H44.0682C44.125 53.9687 44.4347 54.554 44.9972 55.0085C45.5597 55.4574 46.2358 55.6818 47.0256 55.6818C47.6449 55.6818 48.196 55.5398 48.679 55.2557C49.1619 54.9716 49.5426 54.5767 49.821 54.071C50.0994 53.5653 50.2358 52.9886 50.2301 52.3409C50.2358 51.6818 50.0966 51.0966 49.8125 50.5852C49.5284 50.0739 49.1392 49.6733 48.6449 49.3835C48.1506 49.0881 47.5824 48.9403 46.9403 48.9403C46.4176 48.9347 45.9034 49.0312 45.3977 49.2301C44.892 49.429 44.4915 49.6903 44.196 50.0142L41.3409 49.5455L42.2528 40.5455H52.3778V43.1875H44.8693L44.3665 47.8153H44.4688C44.7926 47.4347 45.25 47.1193 45.8409 46.8693C46.4318 46.6136 47.0795 46.4858 47.7841 46.4858C48.8409 46.4858 49.7841 46.7358 50.6136 47.2358C51.4432 47.7301 52.0966 48.4119 52.5739 49.2812C53.0511 50.1506 53.2898 51.1449 53.2898 52.2642C53.2898 53.4176 53.0227 54.446 52.4886 55.3494C51.9602 56.2472 51.2244 56.9545 50.2812 57.4716C49.3438 57.983 48.2585 58.2386 47.0256 58.2386ZM65.4773 54.7273V53.8068C65.4773 53.1307 65.6193 52.5085 65.9034 51.9403C66.1932 51.3722 66.6136 50.9148 67.1648 50.5682C67.7159 50.2216 68.3835 50.0483 69.1676 50.0483C69.9744 50.0483 70.6506 50.2216 71.196 50.5682C71.7415 50.9091 72.1534 51.3636 72.4318 51.9318C72.7159 52.5 72.858 53.125 72.858 53.8068V54.7273C72.858 55.4034 72.7159 56.0256 72.4318 56.5938C72.1477 57.1619 71.7301 57.6193 71.179 57.9659C70.6335 58.3125 69.9631 58.4858 69.1676 58.4858C68.3722 58.4858 67.6989 58.3125 67.1477 57.9659C66.5966 57.6193 66.179 57.1619 65.8949 56.5938C65.6165 56.0256 65.4773 55.4034 65.4773 54.7273ZM67.7017 53.8068V54.7273C67.7017 55.1761 67.8097 55.5881 68.0256 55.9631C68.2415 56.3381 68.6222 56.5256 69.1676 56.5256C69.7188 56.5256 70.0966 56.3409 70.3011 55.9716C70.5114 55.5966 70.6165 55.1818 70.6165 54.7273V53.8068C70.6165 53.3523 70.517 52.9375 70.3182 52.5625C70.1193 52.1818 69.7358 51.9915 69.1676 51.9915C68.6335 51.9915 68.2557 52.1818 68.0341 52.5625C67.8125 52.9375 67.7017 53.3523 67.7017 53.8068ZM56.6051 44.7386V43.8182C56.6051 43.1364 56.75 42.5114 57.0398 41.9432C57.3295 41.375 57.75 40.9205 58.3011 40.5795C58.8523 40.233 59.5199 40.0597 60.304 40.0597C61.1051 40.0597 61.7784 40.233 62.3239 40.5795C62.875 40.9205 63.2898 41.375 63.5682 41.9432C63.8466 42.5114 63.9858 43.1364 63.9858 43.8182V44.7386C63.9858 45.4205 63.8438 46.0455 63.5597 46.6136C63.2813 47.1761 62.8665 47.6278 62.3153 47.9688C61.7642 48.3097 61.0938 48.4801 60.304 48.4801C59.5028 48.4801 58.8267 48.3097 58.2756 47.9688C57.7301 47.6278 57.3153 47.1733 57.0312 46.6051C56.7472 46.0369 56.6051 45.4148 56.6051 44.7386ZM58.8466 43.8182V44.7386C58.8466 45.1932 58.9517 45.608 59.1619 45.983C59.3778 46.3523 59.7585 46.5369 60.304 46.5369C60.8494 46.5369 61.2244 46.3523 61.429 45.983C61.6392 45.608 61.7443 45.1932 61.7443 44.7386V43.8182C61.7443 43.3636 61.6449 42.9489 61.446 42.5739C61.2472 42.1932 60.8665 42.0028 60.304 42.0028C59.7642 42.0028 59.3864 42.1932 59.1705 42.5739C58.9545 42.9545 58.8466 43.3693 58.8466 43.8182ZM57.5767 58L69.5767 40.5455H71.7074L59.7074 58H57.5767Z"
          fill="#1991FF"/>
</svg>
