<svg width="101" height="100" viewBox="0 0 101 100" fill="none" xmlns="http://www.w3.org/2000/svg">
    <circle cx="50.5" cy="50" r="48" stroke="#F5F9FF" stroke-width="4"/>
    <mask id="path-2-inside-1_4952_43108" fill="white">
        <path d="M50.5 1.99141C50.5 0.891585 51.392 -0.00414045 52.4909 0.0396517C58.3775 0.274224 64.1817 1.54755 69.6342 3.80602C75.7005 6.31876 81.2124 10.0017 85.8553 14.6447C90.4983 19.2876 94.1812 24.7996 96.694 30.8658C99.2067 36.9321 100.5 43.4339 100.5 50C100.5 56.5661 99.2067 63.0679 96.694 69.1342C94.1812 75.2005 90.4983 80.7124 85.8553 85.3553C81.2124 89.9983 75.7004 93.6812 69.6342 96.194C64.1817 98.4525 58.3775 99.7258 52.4909 99.9603C51.392 100.004 50.5 99.1084 50.5 98.0086V98.0086C50.5 96.9088 51.392 96.0217 52.4908 95.9741C57.8541 95.7419 63.1408 94.5726 68.11 92.5143C73.6931 90.2018 78.766 86.8122 83.039 82.5391C87.3121 78.266 90.7017 73.1931 93.0143 67.61C95.3269 62.027 96.5172 56.0431 96.5172 50C96.5172 43.9569 95.3269 37.9731 93.0143 32.39C90.7018 26.8069 87.3122 21.734 83.0391 17.4609C78.766 13.1879 73.6931 9.79825 68.11 7.48567C63.1409 5.42738 57.8542 4.25815 52.4908 4.02591C51.392 3.97832 50.5 3.09124 50.5 1.99141V1.99141Z"/>
    </mask>
    <path d="M50.5 1.99141C50.5 0.891585 51.392 -0.00414045 52.4909 0.0396517C58.3775 0.274224 64.1817 1.54755 69.6342 3.80602C75.7005 6.31876 81.2124 10.0017 85.8553 14.6447C90.4983 19.2876 94.1812 24.7996 96.694 30.8658C99.2067 36.9321 100.5 43.4339 100.5 50C100.5 56.5661 99.2067 63.0679 96.694 69.1342C94.1812 75.2005 90.4983 80.7124 85.8553 85.3553C81.2124 89.9983 75.7004 93.6812 69.6342 96.194C64.1817 98.4525 58.3775 99.7258 52.4909 99.9603C51.392 100.004 50.5 99.1084 50.5 98.0086V98.0086C50.5 96.9088 51.392 96.0217 52.4908 95.9741C57.8541 95.7419 63.1408 94.5726 68.11 92.5143C73.6931 90.2018 78.766 86.8122 83.039 82.5391C87.3121 78.266 90.7017 73.1931 93.0143 67.61C95.3269 62.027 96.5172 56.0431 96.5172 50C96.5172 43.9569 95.3269 37.9731 93.0143 32.39C90.7018 26.8069 87.3122 21.734 83.0391 17.4609C78.766 13.1879 73.6931 9.79825 68.11 7.48567C63.1409 5.42738 57.8542 4.25815 52.4908 4.02591C51.392 3.97832 50.5 3.09124 50.5 1.99141V1.99141Z"
          stroke="#74709F" stroke-width="8" mask="url(#path-2-inside-1_4952_43108)"/>
    <path d="M32.1193 58.2386C30.983 58.2386 29.9659 58.0256 29.0682 57.5994C28.1705 57.1676 27.4574 56.5767 26.929 55.8267C26.4063 55.0767 26.1278 54.2187 26.0938 53.2528H29.1619C29.2188 53.9687 29.5284 54.554 30.0909 55.0085C30.6534 55.4574 31.3295 55.6818 32.1193 55.6818C32.7386 55.6818 33.2898 55.5398 33.7727 55.2557C34.2557 54.9716 34.6364 54.5767 34.9148 54.071C35.1932 53.5653 35.3295 52.9886 35.3239 52.3409C35.3295 51.6818 35.1903 51.0966 34.9062 50.5852C34.6222 50.0739 34.233 49.6733 33.7386 49.3835C33.2443 49.0881 32.6761 48.9403 32.0341 48.9403C31.5114 48.9347 30.9972 49.0312 30.4915 49.2301C29.9858 49.429 29.5852 49.6903 29.2898 50.0142L26.4347 49.5455L27.3466 40.5455H37.4716V43.1875H29.9631L29.4602 47.8153H29.5625C29.8864 47.4347 30.3438 47.1193 30.9347 46.8693C31.5256 46.6136 32.1733 46.4858 32.8778 46.4858C33.9347 46.4858 34.8778 46.7358 35.7074 47.2358C36.5369 47.7301 37.1903 48.4119 37.6676 49.2812C38.1449 50.1506 38.3835 51.1449 38.3835 52.2642C38.3835 53.4176 38.1165 54.446 37.5824 55.3494C37.054 56.2472 36.3182 56.9545 35.375 57.4716C34.4375 57.983 33.3523 58.2386 32.1193 58.2386ZM47.6903 58.3324C46.2869 58.3324 45.0824 57.9773 44.0767 57.267C43.0767 56.5511 42.3068 55.5199 41.767 54.1733C41.233 52.821 40.9659 51.1932 40.9659 49.2898C40.9716 47.3864 41.2415 45.767 41.7756 44.4318C42.3153 43.0909 43.0852 42.0682 44.0852 41.3636C45.0909 40.6591 46.2926 40.3068 47.6903 40.3068C49.0881 40.3068 50.2898 40.6591 51.2955 41.3636C52.3011 42.0682 53.071 43.0909 53.6051 44.4318C54.1449 45.7727 54.4148 47.392 54.4148 49.2898C54.4148 51.1989 54.1449 52.8295 53.6051 54.1818C53.071 55.5284 52.3011 56.5568 51.2955 57.267C50.2955 57.9773 49.0938 58.3324 47.6903 58.3324ZM47.6903 55.6648C48.7813 55.6648 49.642 55.1278 50.2727 54.054C50.9091 52.9744 51.2273 51.3864 51.2273 49.2898C51.2273 47.9034 51.0824 46.7386 50.7926 45.7955C50.5028 44.8523 50.0938 44.142 49.5653 43.6648C49.0369 43.1818 48.4119 42.9403 47.6903 42.9403C46.6051 42.9403 45.7472 43.4801 45.1165 44.5597C44.4858 45.6335 44.1676 47.2102 44.1619 49.2898C44.1563 50.6818 44.2955 51.8523 44.5795 52.8011C44.8693 53.75 45.2784 54.4659 45.8068 54.9489C46.3352 55.4261 46.9631 55.6648 47.6903 55.6648ZM66.5788 54.7273V53.8068C66.5788 53.1307 66.7209 52.5085 67.005 51.9403C67.2947 51.3722 67.7152 50.9148 68.2663 50.5682C68.8175 50.2216 69.4851 50.0483 70.2692 50.0483C71.076 50.0483 71.7521 50.2216 72.2976 50.5682C72.843 50.9091 73.255 51.3636 73.5334 51.9318C73.8175 52.5 73.9595 53.125 73.9595 53.8068V54.7273C73.9595 55.4034 73.8175 56.0256 73.5334 56.5938C73.2493 57.1619 72.8317 57.6193 72.2805 57.9659C71.7351 58.3125 71.0646 58.4858 70.2692 58.4858C69.4737 58.4858 68.8004 58.3125 68.2493 57.9659C67.6982 57.6193 67.2805 57.1619 66.9964 56.5938C66.718 56.0256 66.5788 55.4034 66.5788 54.7273ZM68.8033 53.8068V54.7273C68.8033 55.1761 68.9112 55.5881 69.1271 55.9631C69.343 56.3381 69.7237 56.5256 70.2692 56.5256C70.8203 56.5256 71.1982 56.3409 71.4027 55.9716C71.6129 55.5966 71.718 55.1818 71.718 54.7273V53.8068C71.718 53.3523 71.6186 52.9375 71.4197 52.5625C71.2209 52.1818 70.8374 51.9915 70.2692 51.9915C69.7351 51.9915 69.3572 52.1818 69.1357 52.5625C68.9141 52.9375 68.8033 53.3523 68.8033 53.8068ZM57.7067 44.7386V43.8182C57.7067 43.1364 57.8516 42.5114 58.1413 41.9432C58.4311 41.375 58.8516 40.9205 59.4027 40.5795C59.9538 40.233 60.6214 40.0597 61.4055 40.0597C62.2067 40.0597 62.88 40.233 63.4254 40.5795C63.9766 40.9205 64.3913 41.375 64.6697 41.9432C64.9482 42.5114 65.0874 43.1364 65.0874 43.8182V44.7386C65.0874 45.4205 64.9453 46.0455 64.6612 46.6136C64.3828 47.1761 63.968 47.6278 63.4169 47.9688C62.8658 48.3097 62.1953 48.4801 61.4055 48.4801C60.6044 48.4801 59.9283 48.3097 59.3771 47.9688C58.8317 47.6278 58.4169 47.1733 58.1328 46.6051C57.8487 46.0369 57.7067 45.4148 57.7067 44.7386ZM59.9482 43.8182V44.7386C59.9482 45.1932 60.0533 45.608 60.2635 45.983C60.4794 46.3523 60.8601 46.5369 61.4055 46.5369C61.951 46.5369 62.326 46.3523 62.5305 45.983C62.7408 45.608 62.8459 45.1932 62.8459 44.7386V43.8182C62.8459 43.3636 62.7464 42.9489 62.5476 42.5739C62.3487 42.1932 61.968 42.0028 61.4055 42.0028C60.8658 42.0028 60.4879 42.1932 60.272 42.5739C60.0561 42.9545 59.9482 43.3693 59.9482 43.8182ZM58.6783 58L70.6783 40.5455H72.8089L60.8089 58H58.6783Z"
          fill="#74709F"/>
</svg>
