<svg width="20" height="20" viewBox="0 0 20 20" fill="none" xmlns="http://www.w3.org/2000/svg">
    <path fill-rule="evenodd" clip-rule="evenodd"
          d="M9.22961 2.05823C9.51428 1.37382 10.4838 1.37382 10.7684 2.05823L12.7763 6.88568L17.9879 7.30349C18.7269 7.36274 19.0264 8.28482 18.4635 8.76702L14.4928 12.1684L15.7059 17.2541C15.8779 17.9751 15.0935 18.5449 14.4609 18.1586L9.99903 15.4333L5.53714 18.1586C4.90456 18.5449 4.12018 17.9751 4.29217 17.2541L5.50529 12.1684L1.53457 8.76702C0.971623 8.28482 1.27122 7.36274 2.01011 7.30349L7.22175 6.88568L9.22961 2.05823ZM11.2374 7.52574C11.4774 8.10279 12.0201 8.4971 12.6431 8.54702L15.8576 8.80469L13.4085 10.9026C12.9339 11.3092 12.7266 11.9472 12.8716 12.5551L13.6199 15.6919L10.8678 14.0109C10.3344 13.6852 9.66362 13.6852 9.13028 14.0109L6.37823 15.6919L7.12647 12.5551C7.27148 11.9472 7.0642 11.3092 6.58955 10.9026L4.14046 8.80469L7.35493 8.54702C7.97792 8.4971 8.52062 8.10279 8.76062 7.52574L9.99903 4.54822L11.2374 7.52574Z"
          fill="#B4B4B9"/>
</svg>
