<svg width="20" height="20" viewBox="0 0 20 20" fill="none" xmlns="http://www.w3.org/2000/svg">
    <path d="M6.66602 5.00002V3.33335C6.66602 2.87502 6.82935 2.48252 7.15602 2.15585C7.48213 1.82974 7.87435 1.66669 8.33268 1.66669H11.666C12.1243 1.66669 12.5168 1.82974 12.8435 2.15585C13.1696 2.48252 13.3327 2.87502 13.3327 3.33335V5.00002H16.666C17.1243 5.00002 17.5168 5.16335 17.8435 5.49002C18.1696 5.81613 18.3327 6.20835 18.3327 6.66669V15.8334C18.3327 16.2917 18.1696 16.6842 17.8435 17.0109C17.5168 17.337 17.1243 17.5 16.666 17.5H3.33268C2.87435 17.5 2.48213 17.337 2.15602 17.0109C1.82935 16.6842 1.66602 16.2917 1.66602 15.8334V6.66669C1.66602 6.20835 1.82935 5.81613 2.15602 5.49002C2.48213 5.16335 2.87435 5.00002 3.33268 5.00002H6.66602ZM8.33268 5.00002H11.666V3.33335H8.33268V5.00002ZM16.666 12.5H12.4993V13.3334C12.4993 13.5695 12.4196 13.7672 12.2602 13.9267C12.1002 14.0867 11.9021 14.1667 11.666 14.1667H8.33268C8.09657 14.1667 7.89879 14.0867 7.73935 13.9267C7.57935 13.7672 7.49935 13.5695 7.49935 13.3334V12.5H3.33268V15.8334H16.666V12.5ZM9.16602 12.5H10.8327V10.8334H9.16602V12.5ZM3.33268 10.8334H7.49935V10C7.49935 9.76391 7.57935 9.56585 7.73935 9.40585C7.89879 9.24641 8.09657 9.16669 8.33268 9.16669H11.666C11.9021 9.16669 12.1002 9.24641 12.2602 9.40585C12.4196 9.56585 12.4993 9.76391 12.4993 10V10.8334H16.666V6.66669H3.33268V10.8334Z"
          fill="#B4B4B9"/>
</svg>
