<svg width="20" height="20" viewBox="0 0 20 20" fill="none" xmlns="http://www.w3.org/2000/svg">
    <path fill-rule="evenodd" clip-rule="evenodd"
          d="M3.33268 4.16699H4.99935V3.12533C4.99935 2.66508 5.37245 2.29199 5.83268 2.29199C6.29292 2.29199 6.66602 2.66508 6.66602 3.12533V4.16699H13.3327V3.12533C13.3327 2.66508 13.7058 2.29199 14.166 2.29199C14.6263 2.29199 14.9993 2.66508 14.9993 3.12533V4.16699H16.666C17.5865 4.16699 18.3327 4.91318 18.3327 5.83366V15.8337C18.3327 16.7542 17.5865 17.5003 16.666 17.5003H3.33268C2.41221 17.5003 1.66602 16.7542 1.66602 15.8337V5.83366C1.66602 4.91318 2.41221 4.16699 3.33268 4.16699ZM3.33268 15.8337V9.16701H16.666V15.8337H3.33268ZM16.666 5.83366V7.50033H3.33268V5.83366H16.666Z"
          fill="#5D5F69"/>
</svg>
