<svg width="20" height="20" viewBox="0 0 20 20" fill="none" xmlns="http://www.w3.org/2000/svg">
    <path fill-rule="evenodd" clip-rule="evenodd"
          d="M18.3331 8.47241L16.6665 9.44466V14.3207C16.6665 14.9134 16.3516 15.4617 15.8395 15.7603L10.8395 18.677C10.3206 18.9797 9.67896 18.9797 9.15996 18.677L4.16 15.7603C3.64797 15.4617 3.33312 14.9134 3.33312 14.3207V9.44466L1.23375 8.21999C0.682499 7.89844 0.682498 7.10193 1.23375 6.78036L9.15996 2.15672C9.67896 1.85401 10.3206 1.85401 10.8395 2.15672L19.5864 7.25901C19.8424 7.40835 19.9998 7.68244 19.9998 7.97882V12.5002C19.9998 12.9604 19.6267 13.3335 19.1665 13.3335C18.7062 13.3335 18.3331 12.9604 18.3331 12.5002V8.47241ZM4.99979 10.4168V14.3207L9.9998 17.2373L14.9998 14.3207V10.4168L10.8395 12.8437C10.3206 13.1463 9.67896 13.1463 9.15996 12.8437L4.99979 10.4168ZM16.692 7.50018L9.9998 3.59635L3.30751 7.50018L9.9998 11.404L16.692 7.50018Z"
          fill="#B4B4B9"/>
</svg>
