<svg width="136" height="165" viewBox="0 0 136 165" fill="none" xmlns="http://www.w3.org/2000/svg">
    <path fill-rule="evenodd" clip-rule="evenodd"
          d="M7.44361 2.45884C4.70295 2.45884 2.4812 4.66055 2.4812 7.37651V101.304C2.4812 104.02 4.70295 106.221 7.44361 106.221H13.0263V38.7875L37.9452 14.1219H80.0188V7.37651C80.0188 4.66055 77.7971 2.45884 75.0564 2.45884H7.44361ZM82.5 14.1219V7.37651C82.5 3.30257 79.1674 0 75.0564 0H7.44361C3.33262 0 0 3.30258 0 7.37651V101.304C0 105.378 3.33262 108.68 7.44361 108.68H13.0263V117.881C13.0263 121.955 16.3589 125.258 20.4699 125.258H45.9023V122.799H20.4699C17.7293 122.799 15.5075 120.597 15.5075 117.881V40.5266H32.2556C36.3666 40.5266 39.6992 37.224 39.6992 33.1501V16.5807H92.4248C95.1655 16.5807 97.3872 18.7825 97.3872 21.4984V61.401H99.8684V21.4984C99.8684 17.4245 96.5358 14.1219 92.4248 14.1219H82.5ZM37.218 18.317V33.1501C37.218 35.866 34.9963 38.0677 32.2556 38.0677H17.2645L37.218 18.317Z"
          fill="#1E81CE"/>
    <path fill-rule="evenodd" clip-rule="evenodd"
          d="M92.4258 142.444C114.696 142.444 132.745 124.575 132.745 102.538C132.745 80.5003 114.696 62.6307 92.4258 62.6307C70.1552 62.6307 52.1062 80.5003 52.1062 102.538C52.1062 124.575 70.1552 142.444 92.4258 142.444ZM92.4258 144.903C116.064 144.903 135.227 125.936 135.227 102.538C135.227 79.1396 116.064 60.1719 92.4258 60.1719C68.7875 60.1719 49.625 79.1396 49.625 102.538C49.625 125.936 68.7875 144.903 92.4258 144.903Z"
          fill="#1E81CE"/>
    <path fill-rule="evenodd" clip-rule="evenodd"
          d="M92.4244 131.393C108.529 131.393 121.579 118.472 121.579 102.538C121.579 86.6049 108.529 73.6834 92.4244 73.6834C76.3203 73.6834 63.2703 86.6049 63.2703 102.538C63.2703 118.472 76.3203 131.393 92.4244 131.393ZM92.4244 133.852C109.896 133.852 124.06 119.833 124.06 102.538C124.06 85.2443 109.896 71.2246 92.4244 71.2246C74.9527 71.2246 60.7891 85.2443 60.7891 102.538C60.7891 119.833 74.9527 133.852 92.4244 133.852Z"
          fill="#1E81CE"/>
    <path fill-rule="evenodd" clip-rule="evenodd"
          d="M99.426 88.8894C101.288 87.0455 104.306 87.0455 106.168 88.8894C108.029 90.7333 108.029 93.7228 106.168 95.5667L97.5282 104.124L95.7733 102.385L104.413 93.8285C105.305 92.9446 105.305 91.5115 104.413 90.6276C103.52 89.7437 102.073 89.7437 101.181 90.6276L92.5921 99.1343L90.8371 97.3962L99.426 88.8894ZM83.523 114.529L92.1462 106.023L93.8976 107.765L85.2743 116.27C83.4101 118.109 80.3948 118.106 78.5344 116.264C76.6713 114.418 76.6713 111.427 78.5344 109.581L87.1206 101.077L88.8756 102.815L80.2894 111.319C79.3955 112.205 79.3955 113.64 80.2894 114.525C81.1819 115.409 82.6286 115.411 83.523 114.529Z"
          fill="#1E81CE"/>
    <path fill-rule="evenodd" clip-rule="evenodd"
          d="M85.431 88.9462C83.5288 87.1368 80.5147 87.167 78.6498 89.014C76.7889 90.8572 76.754 93.8346 78.5712 95.72L87.0594 104.526L88.8546 102.829L80.3664 94.0226C79.4802 93.1032 79.4972 91.6511 80.4047 90.7522C81.3142 89.8514 82.7842 89.8367 83.7119 90.7191L92.5679 99.1432L94.2871 97.3702L85.431 88.9462ZM95.8072 102.375L104.563 111.378C105.453 112.294 105.44 113.747 104.532 114.646C103.625 115.544 102.161 115.559 101.235 114.681L92.1568 106.057L90.4388 107.831L99.5174 116.455C101.417 118.259 104.425 118.228 106.287 116.385C108.151 114.538 108.179 111.553 106.35 109.673L97.5947 100.67L95.8072 102.375Z"
          fill="#1E81CE"/>
    <path fill-rule="evenodd" clip-rule="evenodd"
          d="M50.2448 41.8003C51.9577 41.8003 53.3463 40.4242 53.3463 38.7267C53.3463 37.0292 51.9577 35.6532 50.2448 35.6532C48.5319 35.6532 47.1433 37.0292 47.1433 38.7267C47.1433 40.4242 48.5319 41.8003 50.2448 41.8003ZM50.2448 44.2591C53.3281 44.2591 55.8275 41.7822 55.8275 38.7267C55.8275 35.6713 53.3281 33.1943 50.2448 33.1943C47.1616 33.1943 44.6621 35.6713 44.6621 38.7267C44.6621 41.7822 47.1616 44.2591 50.2448 44.2591Z"
          fill="#1E81CE"/>
    <path fill-rule="evenodd" clip-rule="evenodd"
          d="M66.3718 41.8003C68.0847 41.8003 69.4733 40.4242 69.4733 38.7267C69.4733 37.0292 68.0847 35.6532 66.3718 35.6532C64.6589 35.6532 63.2703 37.0292 63.2703 38.7267C63.2703 40.4242 64.6589 41.8003 66.3718 41.8003ZM66.3718 44.2591C69.455 44.2591 71.9545 41.7822 71.9545 38.7267C71.9545 35.6713 69.455 33.1943 66.3718 33.1943C63.2885 33.1943 60.7891 35.6713 60.7891 38.7267C60.7891 41.7822 63.2885 44.2591 66.3718 44.2591Z"
          fill="#1E81CE"/>
    <path fill-rule="evenodd" clip-rule="evenodd"
          d="M82.5007 41.8003C84.2136 41.8003 85.6022 40.4242 85.6022 38.7267C85.6022 37.0292 84.2136 35.6532 82.5007 35.6532C80.7878 35.6532 79.3992 37.0292 79.3992 38.7267C79.3992 40.4242 80.7878 41.8003 82.5007 41.8003ZM82.5007 44.2591C85.5839 44.2591 88.0834 41.7822 88.0834 38.7267C88.0834 35.6713 85.5839 33.1943 82.5007 33.1943C79.4174 33.1943 76.918 35.6713 76.918 38.7267C76.918 41.7822 79.4174 44.2591 82.5007 44.2591Z"
          fill="#1E81CE"/>
    <path fill-rule="evenodd" clip-rule="evenodd"
          d="M47.154 118.742L52.6459 115.029L54.0441 117.061L48.5522 120.773C46.2015 122.362 45.6778 125.58 47.4054 127.821L57.5896 141.03C59.2735 143.214 62.4368 143.607 64.6119 141.901L70.6774 137.146L72.2169 139.074L66.1514 143.83C62.8888 146.388 58.1438 145.799 55.618 142.523L45.4338 129.314C42.8424 125.953 43.6279 121.125 47.154 118.742Z"
          fill="#1E81CE"/>
    <path fill-rule="evenodd" clip-rule="evenodd"
          d="M53.8905 140.355L47.256 131.94L22.8158 150.862C21.196 152.116 20.9088 154.434 22.1743 156.039L24.2261 158.642C25.4916 160.247 27.8306 160.532 29.4503 159.278L53.8905 140.355ZM47.6836 128.488L21.2882 148.925C18.5886 151.015 18.11 154.878 20.2191 157.553L22.2709 160.156C24.3801 162.831 28.2783 163.305 30.9779 161.215L57.3733 140.779L47.6836 128.488Z"
          fill="#1E81CE"/>
</svg>
