<svg width="20" height="20" viewBox="0 0 20 20" fill="none" xmlns="http://www.w3.org/2000/svg">
    <path d="M15.5858 5.1567C15.4856 5.08717 15.3737 5.03944 15.2564 5.01621C15.139 4.99299 15.0185 4.99473 14.9018 5.02134C14.7851 5.04795 14.6744 5.09891 14.5761 5.17131C14.4778 5.2437 14.3937 5.33611 14.3288 5.44326L8.0093 12.5299L5.52572 10.0727C5.4381 9.98601 5.33537 9.91863 5.22341 9.87442C5.11145 9.8302 4.99245 9.81002 4.8732 9.81501C4.63237 9.8251 4.40515 9.93715 4.24152 10.1265C4.07789 10.3159 3.99127 10.567 4.0007 10.8247C4.01013 11.0824 4.11484 11.3256 4.29181 11.5007L7.55275 14.7268C7.55275 14.7268 7.64636 14.813 7.68969 14.8432C7.78981 14.9127 7.90176 14.9605 8.01914 14.9838C8.13653 15.007 8.25704 15.0053 8.3738 14.9787C8.49056 14.9521 8.60128 14.9011 8.69962 14.8287C8.79796 14.7562 8.88199 14.6638 8.94692 14.5566L15.8536 6.50167C15.9185 6.39455 15.9631 6.27478 15.9848 6.14921C16.0066 6.02363 16.0049 5.89472 15.9801 5.76982C15.9552 5.64492 15.9076 5.52648 15.8399 5.42128C15.7723 5.31608 15.6859 5.22617 15.5858 5.1567Z"
          fill="#1991FF"/>
</svg>
