<svg width="20" height="20" viewBox="0 0 20 20" fill="none" xmlns="http://www.w3.org/2000/svg">
    <path d="M5.24499 3.57717C5.40127 3.42095 5.61319 3.33319 5.83416 3.33319C6.05513 3.33319 6.26705 3.42095 6.42333 3.57717L9.75666 6.91051C9.90846 7.06768 9.99245 7.27818 9.99056 7.49668C9.98866 7.71517 9.90102 7.92418 9.74651 8.07869C9.592 8.2332 9.38299 8.32084 9.1645 8.32274C8.946 8.32463 8.7355 8.24064 8.57833 8.08884L6.66749 6.17801V15.833C6.66749 16.054 6.5797 16.266 6.42342 16.4223C6.26714 16.5785 6.05517 16.6663 5.83416 16.6663C5.61315 16.6663 5.40119 16.5785 5.24491 16.4223C5.08863 16.266 5.00083 16.054 5.00083 15.833V6.17801L3.08999 8.08884C2.93283 8.24064 2.72232 8.32463 2.50383 8.32274C2.28533 8.32084 2.07632 8.2332 1.92181 8.07869C1.76731 7.92418 1.67966 7.71517 1.67777 7.49668C1.67587 7.27818 1.75986 7.06768 1.91166 6.91051L5.24499 3.57717ZM13.3342 13.8213V4.16634C13.3342 3.94533 13.422 3.73337 13.5782 3.57709C13.7345 3.42081 13.9465 3.33301 14.1675 3.33301C14.3885 3.33301 14.6005 3.42081 14.7568 3.57709C14.913 3.73337 15.0008 3.94533 15.0008 4.16634V13.8213L16.9117 11.9105C17.0688 11.7587 17.2793 11.6747 17.4978 11.6766C17.7163 11.6785 17.9253 11.7662 18.0798 11.9207C18.2343 12.0752 18.322 12.2842 18.3239 12.5027C18.3258 12.7212 18.2418 12.9317 18.09 13.0888L14.7567 16.4222C14.6004 16.5784 14.3885 16.6662 14.1675 16.6662C13.9465 16.6662 13.7346 16.5784 13.5783 16.4222L10.245 13.0888C10.0932 12.9317 10.0092 12.7212 10.0111 12.5027C10.013 12.2842 10.1006 12.0752 10.2551 11.9207C10.4097 11.7662 10.6187 11.6785 10.8372 11.6766C11.0557 11.6747 11.2662 11.7587 11.4233 11.9105L13.3342 13.8213Z"
          fill="#272937"/>
</svg>
