<svg width="128" height="128" viewBox="0 0 128 128" fill="none" xmlns="http://www.w3.org/2000/svg">
<path d="M64 4C71.8793 4 79.6815 5.55194 86.961 8.56722C94.2405 11.5825 100.855 16.0021 106.426 21.5736C111.998 27.1451 116.417 33.7595 119.433 41.039C122.448 48.3185 124 56.1207 124 64C124 71.8793 122.448 79.6815 119.433 86.961C116.417 94.2405 111.998 100.855 106.426 106.426C100.855 111.998 94.2405 116.417 86.961 119.433C79.6815 122.448 71.8793 124 64 124C56.1207 124 48.3185 122.448 41.039 119.433C33.7595 116.417 27.1451 111.998 21.5736 106.426C16.0021 100.855 11.5825 94.2405 8.56722 86.961C5.55194 79.6815 4 71.8793 4 64C4 56.1207 5.55194 48.3185 8.56723 41.039C11.5825 33.7595 16.0021 27.1451 21.5736 21.5736C27.1451 16.0021 33.7595 11.5825 41.039 8.56722C48.3185 5.55194 56.1207 4 64 4L64 4Z" stroke="white" stroke-opacity="0.2" stroke-width="8"/>
</svg>
