<svg width="34" height="28" viewBox="0 0 34 28" fill="none" xmlns="http://www.w3.org/2000/svg">
<path d="M23.8654 18.9493L23.8654 18.9493C23.719 19.0956 23.719 19.333 23.8654 19.4795L23.8654 18.9493ZM23.8654 18.9493L28.4613 14.3533L28.8149 13.9998M23.8654 18.9493L28.8149 13.9998M28.8149 13.9998L28.4613 13.6462M28.8149 13.9998L28.4613 13.6462M28.4613 13.6462L23.8654 9.05032C23.719 8.90387 23.719 8.66643 23.8654 8.51999C24.0119 8.37354 24.2493 8.37355 24.3958 8.51999L29.6104 13.7346L29.6105 13.7347M28.4613 13.6462L29.6105 13.7347M29.6105 13.7347C29.6807 13.8049 29.7202 13.9003 29.7202 13.9998C29.7202 14.0992 29.6807 14.1946 29.6105 14.2648L29.6104 14.2649M29.6105 13.7347L29.6104 14.2649M29.6104 14.2649L24.3958 19.4795L24.7493 19.8331M29.6104 14.2649L24.7493 19.8331M24.7493 19.8331L24.3958 19.4795C24.2493 19.626 24.0119 19.626 23.8654 19.4795L24.7493 19.8331Z" fill="#1362FF" stroke="#1362FF"/>
<path d="M5.91617 13.9997L10.512 9.40387C10.8537 9.06217 10.8537 8.50815 10.512 8.16644C10.1703 7.82473 9.61637 7.82473 9.27466 8.16643L4.06001 13.3811C3.89597 13.5451 3.80369 13.7677 3.80369 13.9997C3.80369 14.2318 3.89597 14.4544 4.06001 14.6185L9.27466 19.8331C9.31736 19.8758 9.36332 19.9132 9.41186 19.9452C9.75159 20.1694 10.2131 20.1321 10.512 19.8331C10.8537 19.4914 10.8537 18.9374 10.512 18.5957L5.91617 13.9997Z" fill="#1362FF"/>
</svg>
