<svg width="79" height="72" viewBox="0 0 79 72" fill="none" xmlns="http://www.w3.org/2000/svg">
<g clip-path="url(#clip0_1237_4373)">
<g filter="url(#filter0_b_1237_4373)">
<path d="M11.2857 24.7502L7.52381 24.75C5.52837 24.75 3.61466 25.3031 2.20367 26.2877C0.792684 27.2723 0 28.6076 0 30V66.75C0 68.1424 0.792684 69.4777 2.20367 70.4623C3.61466 71.4469 5.52837 72 7.52381 72H60.1905C62.1859 72 64.0996 71.4469 65.5106 70.4623C66.9216 69.4777 67.7143 68.1424 67.7143 66.75V30C67.7143 28.6076 66.9216 27.2723 65.5106 26.2877C64.0996 25.3031 62.1859 24.75 60.1905 24.75H56.4286L48.9048 24.7502L18.8095 24.75L11.2857 24.7502Z" fill="#1362FF"/>
</g>
<g filter="url(#filter1_bi_1237_4373)">
<path fill-rule="evenodd" clip-rule="evenodd" d="M41.7571 0C39.0632 0 36.4797 1.06674 34.5749 2.96554C32.6701 4.86435 31.5999 7.43968 31.5999 10.125V13.2C31.5999 13.3657 31.4656 13.5 31.2999 13.5H21.4428C18.7489 13.5 16.1654 14.5667 14.2606 16.4655C12.3558 18.3643 11.2856 20.9397 11.2856 23.625V50.625C11.2856 53.3103 12.3558 55.8857 14.2606 57.7845C16.1654 59.6833 18.7489 60.75 21.4428 60.75H68.8428C71.5366 60.75 74.1201 59.6833 76.025 57.7845C77.9298 55.8857 78.9999 53.3103 78.9999 50.625V23.625C78.9999 20.9397 77.9298 18.3643 76.025 16.4655C74.1201 14.5667 71.5366 13.5 68.8428 13.5H58.9856C58.82 13.5 58.6856 13.3657 58.6856 13.2V10.125C58.6856 7.43968 57.6155 4.86435 55.7107 2.96554C53.8059 1.06674 51.2223 0 48.5285 0H41.7571ZM51.9142 13.2C51.9142 13.3657 51.7799 13.5 51.6142 13.5H38.6714C38.5057 13.5 38.3714 13.3657 38.3714 13.2V10.125C38.3714 9.22989 38.7281 8.37145 39.363 7.73852C39.998 7.10558 40.8591 6.75 41.7571 6.75H48.5285C49.4264 6.75 50.2876 7.10558 50.9226 7.73852C51.5575 8.37145 51.9142 9.22989 51.9142 10.125V13.2Z" fill="#070707" fill-opacity="0.2"/>
<path d="M34.7514 3.1426C36.6093 1.29059 39.1293 0.25 41.7571 0.25H48.5285C51.1563 0.25 53.6763 1.29059 55.5342 3.1426C57.3921 4.99458 58.4356 7.50624 58.4356 10.125V13.2C58.4356 13.5038 58.6819 13.75 58.9856 13.75H68.8428C71.4706 13.75 73.9906 14.7906 75.8485 16.6426C77.7063 18.4946 78.7499 21.0062 78.7499 23.625V50.625C78.7499 53.2438 77.7063 55.7554 75.8485 57.6074C73.9906 59.4594 71.4706 60.5 68.8428 60.5H21.4428C18.815 60.5 16.295 59.4594 14.4371 57.6074C12.5792 55.7554 11.5356 53.2438 11.5356 50.625V23.625C11.5356 21.0062 12.5792 18.4946 14.4371 16.6426C16.295 14.7906 18.815 13.75 21.4428 13.75H31.2999C31.6037 13.75 31.8499 13.5038 31.8499 13.2V10.125C31.8499 7.50624 32.8935 4.99458 34.7514 3.1426ZM51.6142 13.75C51.918 13.75 52.1642 13.5038 52.1642 13.2V10.125C52.1642 9.16333 51.781 8.24122 51.0991 7.56146C50.4172 6.88173 49.4925 6.5 48.5285 6.5H41.7571C40.7931 6.5 39.8684 6.88173 39.1865 7.56146C38.5046 8.24122 38.1214 9.16333 38.1214 10.125V13.2C38.1214 13.5038 38.3676 13.75 38.6714 13.75H51.6142Z" stroke="white" stroke-opacity="0.14" stroke-width="0.5"/>
</g>
<path d="M45.5 41C48.5376 41 51 38.5376 51 35.5C51 32.4624 48.5376 30 45.5 30C42.4624 30 40 32.4624 40 35.5C40 38.5376 42.4624 41 45.5 41Z" fill="#F0F0F6"/>
<rect x="16" y="33" width="21" height="4" rx="1" fill="#F0F0F6"/>
<rect x="54" y="33" width="21" height="4" rx="1" fill="#F0F0F6"/>
</g>
<defs>
<filter id="filter0_b_1237_4373" x="-8" y="16.75" width="83.7144" height="63.25" filterUnits="userSpaceOnUse" color-interpolation-filters="sRGB">
<feFlood flood-opacity="0" result="BackgroundImageFix"/>
<feGaussianBlur in="BackgroundImageFix" stdDeviation="4"/>
<feComposite in2="SourceAlpha" operator="in" result="effect1_backgroundBlur_1237_4373"/>
<feBlend mode="normal" in="SourceGraphic" in2="effect1_backgroundBlur_1237_4373" result="shape"/>
</filter>
<filter id="filter1_bi_1237_4373" x="1.28564" y="-10" width="87.7144" height="80.75" filterUnits="userSpaceOnUse" color-interpolation-filters="sRGB">
<feFlood flood-opacity="0" result="BackgroundImageFix"/>
<feGaussianBlur in="BackgroundImageFix" stdDeviation="5"/>
<feComposite in2="SourceAlpha" operator="in" result="effect1_backgroundBlur_1237_4373"/>
<feBlend mode="normal" in="SourceGraphic" in2="effect1_backgroundBlur_1237_4373" result="shape"/>
<feColorMatrix in="SourceAlpha" type="matrix" values="0 0 0 0 0 0 0 0 0 0 0 0 0 0 0 0 0 0 127 0" result="hardAlpha"/>
<feOffset dx="3" dy="-3"/>
<feGaussianBlur stdDeviation="4"/>
<feComposite in2="hardAlpha" operator="arithmetic" k2="-1" k3="1"/>
<feColorMatrix type="matrix" values="0 0 0 0 1 0 0 0 0 1 0 0 0 0 1 0 0 0 0.35 0"/>
<feBlend mode="normal" in2="shape" result="effect2_innerShadow_1237_4373"/>
</filter>
<clipPath id="clip0_1237_4373">
<rect width="79" height="72" fill="white"/>
</clipPath>
</defs>
</svg>
