<svg width="65" height="72" viewBox="0 0 65 72" fill="none" xmlns="http://www.w3.org/2000/svg">
<g clip-path="url(#clip0_1232_4474)">
<g filter="url(#filter0_b_1232_4474)">
<path d="M47.7137 12.788L46.094 11.2541C45.853 11.0259 45.5338 10.8985 45.2019 10.898L9.05962 10.8469L6.0841 10.8427C4.63938 10.8423 3.25207 11.4157 2.22653 12.4372C1.20099 13.4587 0.620974 14.8448 0.613725 16.2915L0.418872 66.3924C0.414871 67.8391 0.984105 69.2269 2.00169 70.2513C3.01927 71.2756 4.4021 71.853 5.84681 71.8567L5.85449 71.8567L48.4493 71.917L48.457 71.917C49.9017 71.9174 51.289 71.344 52.3145 70.3224C53.3401 69.301 53.9201 67.9148 53.9273 66.4682L54.117 19.0404C54.1199 18.3205 53.5264 17.7697 52.8238 17.6126C51.0852 17.2239 51.1571 15.9963 50.3106 15.1441C49.293 14.1197 48.6584 13.7307 47.7137 12.788Z" fill="#1362FF"/>
</g>
<g filter="url(#filter1_bi_1232_4474)">
<path d="M58.5609 1.96092L56.9412 0.427085C56.7002 0.198879 56.381 0.0714869 56.0491 0.0710166L19.9068 0.01986L16.9313 0.0156486C15.4866 0.015233 14.0992 0.588681 13.0737 1.61018C12.0482 2.63169 11.4681 4.01782 11.4609 5.46448L11.266 55.5654C11.262 57.0121 11.8313 58.3998 12.8489 59.4242C13.8664 60.4486 15.2493 61.026 16.694 61.0296L16.7017 61.0297L59.2965 61.0899L59.3041 61.09C60.7489 61.0904 62.1362 60.5169 63.1617 59.4954C64.1873 58.4739 64.7673 57.0878 64.7745 55.6411L64.9642 8.21335C64.967 7.49347 64.3736 6.94264 63.6709 6.78556C61.9323 6.39688 62.0042 5.16927 61.1577 4.3171C60.1401 3.29271 59.5056 2.90367 58.5609 1.96092Z" fill="#070707" fill-opacity="0.2"/>
<path d="M16.6946 60.7797L16.6947 60.7797L16.702 60.7797L16.7024 60.7797L59.2968 60.84L59.2965 61.0899L59.2969 60.84L59.3042 60.84C60.6826 60.8404 62.0065 60.2932 62.9853 59.3183C63.964 58.3434 64.5176 57.0205 64.5245 55.6399L64.7141 8.21238C64.7164 7.64548 64.2431 7.16964 63.6163 7.02952C62.6748 6.81903 62.2065 6.37065 61.8712 5.86291C61.7628 5.69889 61.6642 5.5214 61.5709 5.35349C61.5285 5.27725 61.4872 5.20299 61.4466 5.13286C61.3112 4.89891 61.1696 4.68386 60.9803 4.49327C60.4793 3.98892 60.073 3.64118 59.6701 3.2989L59.6289 3.26394C59.2398 2.93346 58.8496 2.60202 58.3866 2.14018L56.7692 0.60859C56.5746 0.424269 56.3168 0.321376 56.0487 0.320997L19.9064 0.269839L16.9312 0.265628C16.9311 0.265628 16.9311 0.265629 16.9311 0.265629C15.5527 0.265261 14.2289 0.81239 13.2501 1.78727C12.2714 2.76219 11.7178 4.08511 11.7109 5.4657L11.5161 55.5661L16.6946 60.7797ZM16.6946 60.7797C15.3163 60.7762 13.997 60.2253 13.0263 59.2481C12.0555 58.2708 11.5123 56.9468 11.5161 55.5664L16.6946 60.7797Z" stroke="white" stroke-opacity="0.14" stroke-width="0.5"/>
</g>
<path d="M54.0141 16H37.3189C36.6154 16 35.9408 15.7893 35.4434 15.4142C34.946 15.0391 34.6665 14.5304 34.6665 14C34.6665 13.4696 34.946 12.9609 35.4434 12.5858C35.9408 12.2107 36.6154 12 37.3189 12H54.0141C54.7176 12 55.3922 12.2107 55.8896 12.5858C56.3871 12.9609 56.6665 13.4696 56.6665 14C56.6665 14.5304 56.3871 15.0391 55.8896 15.4142C55.3922 15.7893 54.7176 16 54.0141 16Z" fill="#F0F0F6"/>
<path d="M54.0141 30H22.3189C21.6154 30 20.9408 29.7893 20.4434 29.4142C19.946 29.0391 19.6665 28.5304 19.6665 28C19.6665 27.4696 19.946 26.9609 20.4434 26.5858C20.9408 26.2107 21.6154 26 22.3189 26H54.0141C54.7176 26 55.3922 26.2107 55.8896 26.5858C56.3871 26.9609 56.6665 27.4696 56.6665 28C56.6665 28.5304 56.3871 29.0391 55.8896 29.4142C55.3922 29.7893 54.7176 30 54.0141 30Z" fill="#F0F0F6"/>
<path d="M54.0141 39H22.3189C21.6154 39 20.9408 38.7893 20.4434 38.4142C19.946 38.0391 19.6665 37.5304 19.6665 37C19.6665 36.4696 19.946 35.9609 20.4434 35.5858C20.9408 35.2107 21.6154 35 22.3189 35H54.0141C54.7176 35 55.3922 35.2107 55.8896 35.5858C56.3871 35.9609 56.6665 36.4696 56.6665 37C56.6665 37.5304 56.3871 38.0391 55.8896 38.4142C55.3922 38.7893 54.7176 39 54.0141 39Z" fill="#F0F0F6"/>
<path d="M54.0141 48H22.3189C21.6154 48 20.9408 47.7893 20.4434 47.4142C19.946 47.0391 19.6665 46.5304 19.6665 46C19.6665 45.4696 19.946 44.9609 20.4434 44.5858C20.9408 44.2107 21.6154 44 22.3189 44H54.0141C54.7176 44 55.3922 44.2107 55.8896 44.5858C56.3871 44.9609 56.6665 45.4696 56.6665 46C56.6665 46.5304 56.3871 47.0391 55.8896 47.4142C55.3922 47.7893 54.7176 48 54.0141 48Z" fill="#F0F0F6"/>
<path d="M25.1665 22C28.2041 22 30.6665 19.5376 30.6665 16.5C30.6665 13.4624 28.2041 11 25.1665 11C22.1289 11 19.6665 13.4624 19.6665 16.5C19.6665 19.5376 22.1289 22 25.1665 22Z" fill="#F0F0F6"/>
<g filter="url(#filter2_bi_1232_4474)">
<path d="M64.5581 7.03759H58.2634C57.8039 7.03759 57.3632 6.83965 57.0382 6.4873C56.7133 6.13495 56.5308 5.65707 56.5308 5.15877V0.117426C56.5308 0.0953542 56.5365 0.0737303 56.5473 0.0550324C56.5581 0.0363344 56.5736 0.0213204 56.5919 0.0117118C56.6102 0.00210314 56.6307 -0.00171119 56.6509 0.000706843C56.6712 0.00312488 56.6903 0.011677 56.7063 0.0253825L64.6253 6.82812C64.6429 6.84326 64.6558 6.86397 64.662 6.88738C64.6683 6.91079 64.6677 6.93574 64.6603 6.95877C64.6529 6.98179 64.6391 7.00176 64.6208 7.01588C64.6025 7.03001 64.5805 7.03759 64.5581 7.03759Z" fill="#070707" fill-opacity="0.2"/>
<path d="M56.6272 0.117425L56.6272 0.117426L56.6272 0.117425ZM56.6272 0.117425L56.6365 0.106624L56.6385 0.10425L56.6365 0.106624L56.6272 0.117425ZM56.7808 0.418931L64.1945 6.78759H58.2634C57.877 6.78759 57.5019 6.62134 57.222 6.31782C56.9415 6.01362 56.7808 5.597 56.7808 5.15877V0.418931Z" stroke="white" stroke-opacity="0.14" stroke-width="0.5"/>
</g>
</g>
<defs>
<filter id="filter0_b_1232_4474" x="-7.58105" y="2.84265" width="69.6982" height="77.0743" filterUnits="userSpaceOnUse" color-interpolation-filters="sRGB">
<feFlood flood-opacity="0" result="BackgroundImageFix"/>
<feGaussianBlur in="BackgroundImageFix" stdDeviation="4"/>
<feComposite in2="SourceAlpha" operator="in" result="effect1_backgroundBlur_1232_4474"/>
<feBlend mode="normal" in="SourceGraphic" in2="effect1_backgroundBlur_1232_4474" result="shape"/>
</filter>
<filter id="filter1_bi_1232_4474" x="1.26611" y="-9.98438" width="73.6982" height="81.0743" filterUnits="userSpaceOnUse" color-interpolation-filters="sRGB">
<feFlood flood-opacity="0" result="BackgroundImageFix"/>
<feGaussianBlur in="BackgroundImageFix" stdDeviation="5"/>
<feComposite in2="SourceAlpha" operator="in" result="effect1_backgroundBlur_1232_4474"/>
<feBlend mode="normal" in="SourceGraphic" in2="effect1_backgroundBlur_1232_4474" result="shape"/>
<feColorMatrix in="SourceAlpha" type="matrix" values="0 0 0 0 0 0 0 0 0 0 0 0 0 0 0 0 0 0 127 0" result="hardAlpha"/>
<feOffset dx="3" dy="-3"/>
<feGaussianBlur stdDeviation="4"/>
<feComposite in2="hardAlpha" operator="arithmetic" k2="-1" k3="1"/>
<feColorMatrix type="matrix" values="0 0 0 0 1 0 0 0 0 1 0 0 0 0 1 0 0 0 0.35 0"/>
<feBlend mode="normal" in2="shape" result="effect2_innerShadow_1232_4474"/>
</filter>
<filter id="filter2_bi_1232_4474" x="46.5308" y="-10" width="28.1357" height="27.0376" filterUnits="userSpaceOnUse" color-interpolation-filters="sRGB">
<feFlood flood-opacity="0" result="BackgroundImageFix"/>
<feGaussianBlur in="BackgroundImageFix" stdDeviation="5"/>
<feComposite in2="SourceAlpha" operator="in" result="effect1_backgroundBlur_1232_4474"/>
<feBlend mode="normal" in="SourceGraphic" in2="effect1_backgroundBlur_1232_4474" result="shape"/>
<feColorMatrix in="SourceAlpha" type="matrix" values="0 0 0 0 0 0 0 0 0 0 0 0 0 0 0 0 0 0 127 0" result="hardAlpha"/>
<feOffset dx="3" dy="-3"/>
<feGaussianBlur stdDeviation="4"/>
<feComposite in2="hardAlpha" operator="arithmetic" k2="-1" k3="1"/>
<feColorMatrix type="matrix" values="0 0 0 0 1 0 0 0 0 1 0 0 0 0 1 0 0 0 0.35 0"/>
<feBlend mode="normal" in2="shape" result="effect2_innerShadow_1232_4474"/>
</filter>
<clipPath id="clip0_1232_4474">
<rect width="64" height="72" fill="white" transform="translate(0.666504)"/>
</clipPath>
</defs>
</svg>
