<svg xmlns="http://www.w3.org/2000/svg" width="20" height="20" viewBox="0 0 20 20" fill="none">
	<path fill-rule="evenodd" clip-rule="evenodd" d="M19.1693 10.0007C19.1693 15.0632 15.0652 19.1673 10.0026 19.1673C4.93999 19.1673 0.835938 15.0632 0.835938 10.0007C0.835938 4.93804 4.93999 0.833984 10.0026 0.833984C15.0652 0.833984 19.1693 4.93804 19.1693 10.0007ZM9.80341 14.5382C9.55032 14.5382 9.34508 14.3329 9.34508 14.0798V8.70485C9.34508 8.45167 9.55032 8.24652 9.80341 8.24652H10.2007C10.4539 8.24652 10.659 8.45167 10.659 8.70485V14.0798C10.659 14.3329 10.4539 14.5382 10.2007 14.5382H9.80341ZM10.0087 6.74665C9.78013 6.74665 9.58387 6.67047 9.41979 6.51813C9.25864 6.36286 9.17806 6.17829 9.17806 5.96442C9.17806 5.74763 9.25864 5.56306 9.41979 5.41071C9.58387 5.25543 9.78013 5.1778 10.0087 5.1778C10.2372 5.1778 10.432 5.25543 10.5931 5.41071C10.7572 5.56306 10.8392 5.74763 10.8392 5.96442C10.8392 6.17829 10.7572 6.36286 10.5931 6.51813C10.432 6.67047 10.2372 6.74665 10.0087 6.74665Z" fill="#7A7A7A"/>
</svg>
